<svg version="1.1" xmlns="http://www.w3.org/2000/svg" xmlns:xlink="http://www.w3.org/1999/xlink" width="480.32427" height="340.21079" viewBox="0,0,480.32427,340.21079"><g transform="translate(-1.35146,-19.2148)"><g data-paper-data="{&quot;isPaintingLayer&quot;:true}" fill-rule="nonzero" stroke-linecap="butt" stroke-linejoin="miter" stroke-miterlimit="10" stroke-dasharray="" stroke-dashoffset="0" style="mix-blend-mode: normal"><path d="M204.59838,227.10132v-52.94451h68.63177v52.94451z" fill="#9d9d9d" stroke="#000000" stroke-width="5"/><path d="M99.39662,119.43144v-97.71664h286.63547v97.71664z" fill="#9d9d9d" stroke="#000000" stroke-width="5"/><path d="M3.85146,119.43144v-97.71664h84.68775v97.71664z" fill="#9d9d9d" stroke="#000000" stroke-width="5"/><path d="M219.9138,191.09031v-79.25905h36.91517v79.25905z" fill="#9d9d9d" stroke="none" stroke-width="0"/><path d="M68.99589,91.20219v-35.82943h60.80146v35.82943z" fill="#9d9d9d" stroke="none" stroke-width="0"/><path d="M98.96791,223.23382v-97.71663h84.68775v97.71664z" fill="#9d9d9d" stroke="#000000" stroke-width="5"/><path d="M299.40119,222.80512v-97.71664h84.68776v97.71664z" fill="#9d9d9d" stroke="#000000" stroke-width="5"/><text transform="translate(23.39479,41.25814) scale(0.5,0.5)" font-size="40" xml:space="preserve" fill="#000000" fill-rule="nonzero" stroke="none" stroke-width="1" stroke-linecap="butt" stroke-linejoin="miter" stroke-miterlimit="10" stroke-dasharray="" stroke-dashoffset="0" font-family="Sans Serif" font-weight="normal" text-anchor="start" style="mix-blend-mode: normal"><tspan x="0" dy="0">Door</tspan><tspan x="0" dy="46.15px">42</tspan></text><path d="M133.05457,155.8808v-65.14442h21.71481v65.14442z" fill="#9d9d9d" stroke="none" stroke-width="0"/><path d="M326.31636,164.56673v-61.8872h32.57221v61.8872z" fill="#9d9d9d" stroke="none" stroke-width="0"/><path d="M98.96792,355.69415v-70.20306h175.88995v70.20306z" fill="#9d9d9d" stroke="#000000" stroke-width="5"/><path d="M229.68547,301.94629v-97.71664h18.45759v97.71664z" fill="#9d9d9d" stroke="none" stroke-width="0"/><path d="M302.65841,356.35118v-70.20306h83.60201v70.20306z" fill="#9d9d9d" stroke="#000000" stroke-width="5"/><text transform="translate(211.22788,205.93055) scale(0.5,0.5)" font-size="40" xml:space="preserve" fill="#000000" fill-rule="nonzero" stroke="none" stroke-width="1" stroke-linecap="butt" stroke-linejoin="miter" stroke-miterlimit="10" stroke-dasharray="" stroke-dashoffset="0" font-family="Sans Serif" font-weight="normal" text-anchor="start" style="mix-blend-mode: normal"><tspan x="0" dy="0">Office</tspan></text><path d="M393.17573,356.92559v-335h86v335z" fill="#9d9d9d" stroke="#000000" stroke-width="5"/><text transform="translate(145.17573,305.92559) scale(0.5,0.5)" font-size="40" xml:space="preserve" fill="#000000" fill-rule="nonzero" stroke="none" stroke-width="1" stroke-linecap="butt" stroke-linejoin="miter" stroke-miterlimit="10" stroke-dasharray="" stroke-dashoffset="0" font-family="Sans Serif" font-weight="normal" text-anchor="start" style="mix-blend-mode: normal"><tspan x="0" dy="0">AC Room</tspan></text><path d="M5.96791,355.23382v-69.71663h84.68775v69.71664z" fill="#9d9d9d" stroke="#000000" stroke-width="5"/><path d="M5.96791,223.23383v-69.71663h84.68775v69.71664z" fill="#9d9d9d" stroke="#000000" stroke-width="5"/><text transform="translate(10.17573,170.92559) scale(0.5,0.5)" font-size="40" xml:space="preserve" fill="#000000" fill-rule="nonzero" stroke="none" stroke-width="1" stroke-linecap="butt" stroke-linejoin="miter" stroke-miterlimit="10" stroke-dasharray="" stroke-dashoffset="0" font-family="Sans Serif" font-weight="normal" text-anchor="start" style="mix-blend-mode: normal"><tspan x="0" dy="0">Elevator</tspan><tspan x="0" dy="46.15px">01</tspan></text><text transform="translate(10.17573,302.92559) scale(0.5,0.5)" font-size="40" xml:space="preserve" fill="#000000" fill-rule="nonzero" stroke="none" stroke-width="1" stroke-linecap="butt" stroke-linejoin="miter" stroke-miterlimit="10" stroke-dasharray="" stroke-dashoffset="0" font-family="Sans Serif" font-weight="normal" text-anchor="start" style="mix-blend-mode: normal"><tspan x="0" dy="0">Elevator</tspan><tspan x="0" dy="46.15px">02</tspan></text><path d="M176.70067,216.70399v-31.37441h33.85134v31.37441z" fill="#9d9d9d" stroke="none" stroke-width="0"/><path d="M270.0444,217.57578v-31.37441h33.85134v31.37441z" fill="#9d9d9d" stroke="none" stroke-width="0"/></g></g></svg>