<svg version="1.1" xmlns="http://www.w3.org/2000/svg" xmlns:xlink="http://www.w3.org/1999/xlink" width="472.41967" height="462.42885" viewBox="0,0,472.41967,462.42885"><g transform="translate(-8.81531,97.87074)"><g data-paper-data="{&quot;isPaintingLayer&quot;:true}" fill-rule="nonzero" stroke-linecap="butt" stroke-linejoin="miter" stroke-miterlimit="10" stroke-dasharray="" stroke-dashoffset="0" style="mix-blend-mode: normal"><path d="M180.33486,263.84337v-101.33575h112.85118v101.33575z" fill="#ffffff" stroke="#8d8d8d" stroke-width="12.5"/><path d="M213.47935,161.07071v-152.00363h46.06171v152.00363z" fill="#ffffff" stroke="#8d8d8d" stroke-width="12.5"/><path d="M216.94292,358.30812v-91.20359h39.96562v91.20359z" fill="#ffffff" stroke="#8d8d8d" stroke-width="12.5"/><path d="M261.00757,130.50208v-29.71802h77.88172v29.71802z" fill="#706f67" stroke="#8d8d8d" stroke-width="12.5"/><path d="M133.81361,63.76893v-29.71803h77.88172v29.71803z" fill="#707067" stroke="#8d8d8d" stroke-width="12.5"/><path d="M340.93881,267.93716v-167.03579h117.84733v167.03579z" fill="#fafffa" stroke="#8d8d8d" stroke-width="12.5"/><path d="M34.53574,119.22973v-108.6245h99.40166v108.6245z" fill="#fafffb" stroke="#8d8d8d" stroke-width="12.5"/><path d="M278.42848,79.57361v-77.88172h186.50621v77.88172z" fill="#fafffb" stroke="#8d8d8d" stroke-width="12.5"/><path d="M15.06531,352.36245v-93.25311h144.49108v93.25311z" fill="#fafff9" stroke="#8d8d8d" stroke-width="12.5"/><path d="M161.60591,348.26341v-22.54471h53.28749v22.54471z" fill="#706c67" stroke="#8d8d8d" stroke-width="12.5"/><path d="M340.93881,348.26341v-79.93123h23.56947v79.93123z" fill="#6f7067" stroke="#8d8d8d" stroke-width="12.5"/><path d="M257.9333,349.28817v-22.54471h83.00551v22.54471z" fill="#706d67" stroke="#8d8d8d" stroke-width="12.5"/><text transform="translate(38.63478,300.26596) scale(0.95833,0.95833)" font-size="40" xml:space="preserve" fill="#6f7067" fill-rule="nonzero" stroke="none" stroke-width="1" stroke-linecap="butt" stroke-linejoin="miter" stroke-miterlimit="10" stroke-dasharray="" stroke-dashoffset="0" font-family="Sans Serif" font-weight="normal" text-anchor="start" style="mix-blend-mode: normal"><tspan x="0" dy="0">Cam 2</tspan></text><text transform="translate(35.85761,61.69824) scale(0.80957,0.80957)" font-size="40" xml:space="preserve" fill="#6f7067" fill-rule="nonzero" stroke="none" stroke-width="1" stroke-linecap="butt" stroke-linejoin="miter" stroke-miterlimit="10" stroke-dasharray="" stroke-dashoffset="0" font-family="Sans Serif" font-weight="normal" text-anchor="start" style="mix-blend-mode: normal"><tspan x="0" dy="0">Cam 1</tspan></text><text transform="translate(331.71597,36.68432) scale(0.85141,0.85141)" font-size="40" xml:space="preserve" fill="#6f7067" fill-rule="nonzero" stroke="none" stroke-width="1" stroke-linecap="butt" stroke-linejoin="miter" stroke-miterlimit="10" stroke-dasharray="" stroke-dashoffset="0" font-family="Sans Serif" font-weight="normal" text-anchor="start" style="mix-blend-mode: normal"><tspan x="0" dy="0">Cam 3</tspan></text><text transform="translate(346.75587,141.40338) scale(0.89583,0.89583)" font-size="40" xml:space="preserve" fill="#6f7067" fill-rule="nonzero" stroke="none" stroke-width="1" stroke-linecap="butt" stroke-linejoin="miter" stroke-miterlimit="10" stroke-dasharray="" stroke-dashoffset="0" font-family="Sans Serif" font-weight="normal" text-anchor="start" style="mix-blend-mode: normal"><tspan x="0" dy="0">Cam 4</tspan></text><path d="M400.24411,103.306v-25.52553h39.03904v25.52553z" fill="#000000" stroke="none" stroke-width="0"/><path d="M17.02702,249.06907v-167.01113h148.64865v167.01113z" fill="#6f7067" stroke="#8d8d8d" stroke-width="12.5"/><path d="M109.11411,-4.18919v-87.43155h249.24925v87.43155z" fill="#6f7067" stroke="#8d8d8d" stroke-width="12.5"/><path d="M336.84685,356.08947v-60.06006h138.13814v60.06006z" fill="#6f7067" stroke="#8d8d8d" stroke-width="12.5"/></g></g></svg>