<svg version="1.1" xmlns="http://www.w3.org/2000/svg" xmlns:xlink="http://www.w3.org/1999/xlink" width="560.61432" height="308.68479" viewBox="0,0,560.61432,308.68479"><defs><radialGradient cx="50" cy="180" r="128.5" gradientUnits="userSpaceOnUse" id="color-1"><stop offset="0" stop-color="#000000"/><stop offset="1" stop-color="#3b3b3b"/></radialGradient><radialGradient cx="240" cy="180" r="87.5" gradientUnits="userSpaceOnUse" id="color-2"><stop offset="0" stop-color="#d7d7d7"/><stop offset="1" stop-color="#3c3c3c"/></radialGradient><linearGradient x1="-50.11432" y1="198.72355" x2="-37.55644" y2="198.72355" gradientUnits="userSpaceOnUse" id="color-3"><stop offset="0" stop-color="#626262"/><stop offset="1" stop-color="#626262" stop-opacity="0"/></linearGradient></defs><g transform="translate(50.11432,-50.31521)"><g data-paper-data="{&quot;isPaintingLayer&quot;:true}" fill-rule="nonzero" stroke-linecap="butt" stroke-linejoin="miter" stroke-miterlimit="10" stroke-dasharray="" stroke-dashoffset="0" style="mix-blend-mode: normal"><path d="M-43.5,359c0,0 0,-41.81874 0,-60.68224c0,-16.4803 0,-46.31776 0,-46.31776h554v107z" fill="#690000" stroke="none" stroke-width="0"/><path d="M11.5,308.5l1,-257l76,13v198z" data-paper-data="{&quot;index&quot;:null}" fill="#2a2f36" stroke="url(#color-1)" stroke-width="2"/><path d="M90.5,262.5v-198h299v198z" fill="#99aabb" stroke="#000000" stroke-width="2"/><path d="M391.5,262.5v-198l76,-13l1,257z" fill="#2e333a" stroke="#000000" stroke-width="2"/><path d="M152.5,263v-166h175v166z" fill="url(#color-2)" stroke="none" stroke-width="0"/><path d="M-50.11432,199.97934v-2.51158h12.55788v2.51158z" fill="url(#color-3)" stroke="none" stroke-width="0"/><text transform="translate(192.38568,88) scale(0.5,0.5)" font-size="40" xml:space="preserve" fill="#690000" fill-rule="nonzero" stroke="none" stroke-width="1" stroke-linecap="butt" stroke-linejoin="miter" stroke-miterlimit="10" stroke-dasharray="" stroke-dashoffset="0" font-family="Sans Serif" font-weight="normal" text-anchor="start" style="mix-blend-mode: normal"><tspan x="0" dy="0">LIGHTON</tspan></text></g></g></svg>