<svg version="1.1" xmlns="http://www.w3.org/2000/svg" xmlns:xlink="http://www.w3.org/1999/xlink" width="554" height="494.2959" viewBox="0,0,554,494.2959"><defs><radialGradient cx="240" cy="163.5" r="149.5" gradientUnits="userSpaceOnUse" id="color-1"><stop offset="0" stop-color="#1b1e22"/><stop offset="1" stop-color="#0c0e0d"/></radialGradient><radialGradient cx="430" cy="180.00001" r="128.5" gradientUnits="userSpaceOnUse" id="color-2"><stop offset="0" stop-color="#1b1e22"/><stop offset="1" stop-color="#0b0d0c"/></radialGradient><radialGradient cx="50" cy="180.00001" r="128.5" gradientUnits="userSpaceOnUse" id="color-3"><stop offset="0" stop-color="#1b1e22"/><stop offset="1" stop-color="#111613"/></radialGradient><linearGradient x1="240.81243" y1="287.8026" x2="240.81243" y2="543.61112" gradientUnits="userSpaceOnUse" id="color-4"><stop offset="0" stop-color="#0b0604"/><stop offset="1" stop-color="#3b2117"/></linearGradient><linearGradient x1="241.96337" y1="267.3889" x2="241.96337" y2="287.71047" gradientUnits="userSpaceOnUse" id="color-5"><stop offset="0" stop-color="#56341b"/><stop offset="1" stop-color="#74441b"/></linearGradient><linearGradient x1="240.20545" y1="360.00001" x2="240.20545" y2="147" gradientUnits="userSpaceOnUse" id="color-6"><stop offset="0" stop-color="#000000"/><stop offset="1" stop-color="#000000" stop-opacity="0"/></linearGradient></defs><g transform="translate(43.5,-50.31522)"><g data-paper-data="{&quot;isPaintingLayer&quot;:true}" fill-rule="nonzero" stroke-linecap="butt" stroke-linejoin="miter" stroke-miterlimit="10" stroke-dasharray="" stroke-dashoffset="0" style="mix-blend-mode: normal"><path d="M-43.5,359.00001v-107h554v107z" fill="#550000" stroke="none" stroke-width="0"/><path d="M90.5,262.50001v-198h299v198z" fill="url(#color-1)" stroke="#000000" stroke-width="2"/><path d="M391.5,262.50001v-198l76,-13l1,257z" fill="url(#color-2)" stroke="#000000" stroke-width="2"/><path d="M11.5,308.50001l1,-257l76,13v198z" data-paper-data="{&quot;index&quot;:null}" fill="url(#color-3)" stroke="#000000" stroke-width="2"/><path d="M157.5,263.00001v-166h175v166z" fill="#000000" stroke="none" stroke-width="0"/><path d="M13.94114,543.61112v-255.80852h453.74258v255.80852z" fill="url(#color-4)" stroke="#000000" stroke-width="2"/><path d="M13.86787,287.71047l73,-20.32157h303.19099l80,20.32157z" fill="url(#color-5)" stroke="#000000" stroke-width="2"/><path d="M14.86787,307.71047v-18.32157h456.19099v18.32157c0,0 -308.51759,0 -385.55886,0c-32.97457,0 -70.63213,0 -70.63213,0z" fill="#4b2a19" stroke="#000000" stroke-width="2"/><path d="M469.5,147v213h-458.5891v-213z" data-paper-data="{&quot;index&quot;:null}" fill="url(#color-6)" stroke="none" stroke-width="0"/></g></g></svg>