<svg version="1.1" xmlns="http://www.w3.org/2000/svg" xmlns:xlink="http://www.w3.org/1999/xlink" width="647.43878" height="500.61111" viewBox="0,0,647.43878,500.61111"><defs><radialGradient cx="239.77894" cy="309.89526" r="150.1654" gradientUnits="userSpaceOnUse" id="color-1"><stop offset="0" stop-color="#150404"/><stop offset="1" stop-color="#000000"/></radialGradient><linearGradient x1="240" y1="44" x2="240" y2="257" gradientUnits="userSpaceOnUse" id="color-2"><stop offset="0" stop-color="#000000"/><stop offset="1" stop-color="#000000" stop-opacity="0"/></linearGradient><radialGradient cx="240" cy="163.5" r="149.5" gradientUnits="userSpaceOnUse" id="color-3"><stop offset="0" stop-color="#1b1e22"/><stop offset="1" stop-color="#000000"/></radialGradient><linearGradient x1="110.39804" y1="535.81033" x2="110.39804" y2="322.81033" gradientUnits="userSpaceOnUse" id="color-4"><stop offset="0" stop-color="#000000"/><stop offset="1" stop-color="#000000" stop-opacity="0"/></linearGradient><linearGradient x1="240.81243" y1="287.80259" x2="240.81243" y2="543.61111" gradientUnits="userSpaceOnUse" id="color-5"><stop offset="0" stop-color="#110b00"/><stop offset="1" stop-color="#000000"/></linearGradient><linearGradient x1="241.96337" y1="267.38889" x2="241.96337" y2="287.71046" gradientUnits="userSpaceOnUse" id="color-6"><stop offset="0" stop-color="#000000"/><stop offset="1" stop-color="#28170a"/></linearGradient></defs><g transform="translate(118.10196,-44)"><g data-paper-data="{&quot;isPaintingLayer&quot;:true}" fill-rule="nonzero" stroke-linecap="butt" stroke-linejoin="miter" stroke-miterlimit="10" stroke-dasharray="" stroke-dashoffset="0" style="mix-blend-mode: normal"><path d="M-78.66207,341.41897l168.2756,-79.37266h300.33081l139.39248,83.14003z" fill="url(#color-1)" stroke="none" stroke-width="0"/><path d="M11.5,257v-213h457v213z" fill="url(#color-2)" stroke="none" stroke-width="0"/><path d="M90.5,262.5v-198h299v198z" fill="url(#color-3)" stroke="#000000" stroke-width="2"/><path d="M338.89804,322.81033v213h-457v-213z" data-paper-data="{&quot;index&quot;:null}" fill="url(#color-4)" stroke="none" stroke-width="0"/><path d="M152.5,263v-166h175v166z" fill="#000000" stroke="none" stroke-width="0"/><path d="M13.94114,543.61111v-255.80852h453.74258v255.80852z" fill="url(#color-5)" stroke="#000000" stroke-width="2"/><path d="M13.86787,287.71046l73,-20.32157h303.19099l80,20.32157z" fill="url(#color-6)" stroke="#000000" stroke-width="2"/><path d="M14.86787,307.71046v-18.32157h456.19099v18.32157c0,0 -308.51759,0 -385.55886,0c-32.97457,0 -70.63213,0 -70.63213,0z" fill="#301d12" stroke="#000000" stroke-width="2"/></g></g></svg>