<svg version="1.1" xmlns="http://www.w3.org/2000/svg" xmlns:xlink="http://www.w3.org/1999/xlink" width="555.32449" height="612.69333" viewBox="0,0,555.32449,612.69333"><defs><linearGradient x1="241" y1="360.00013" x2="241" y2="-68.08214" gradientUnits="userSpaceOnUse" id="color-1"><stop offset="0" stop-color="#000000"/><stop offset="1" stop-color="#000000" stop-opacity="0"/></linearGradient><radialGradient cx="244" cy="45.00004" r="258.5" gradientUnits="userSpaceOnUse" id="color-2"><stop offset="0" stop-color="#210000"/><stop offset="1" stop-color="#000000"/></radialGradient><radialGradient cx="240" cy="163.5" r="149.5" gradientUnits="userSpaceOnUse" id="color-3"><stop offset="0" stop-color="#121417"/><stop offset="1" stop-color="#0c0e0d"/></radialGradient><radialGradient cx="369.1884" cy="253.8122" r="36.23007" gradientUnits="userSpaceOnUse" id="color-4"><stop offset="0" stop-color="#292d34"/><stop offset="1" stop-color="#2f3633"/></radialGradient><radialGradient cx="430" cy="180.00006" r="128.5" gradientUnits="userSpaceOnUse" id="color-5"><stop offset="0" stop-color="#0d0f11"/><stop offset="1" stop-color="#0b0d0c"/></radialGradient><radialGradient cx="50" cy="180.00006" r="128.5" gradientUnits="userSpaceOnUse" id="color-6"><stop offset="0" stop-color="#101215"/><stop offset="1" stop-color="#111613"/></radialGradient><radialGradient cx="121.05658" cy="252.78498" r="36.23007" gradientUnits="userSpaceOnUse" id="color-7"><stop offset="0" stop-color="#1f2327"/><stop offset="1" stop-color="#2f3633"/></radialGradient><linearGradient x1="81.03433" y1="172.40273" x2="91.089" y2="172.40273" gradientUnits="userSpaceOnUse" id="color-8"><stop offset="0" stop-color="#282824"/><stop offset="1" stop-color="#525248"/></linearGradient><linearGradient x1="237.85432" y1="83.60969" x2="237.85432" y2="92.34974" gradientUnits="userSpaceOnUse" id="color-9"><stop offset="0" stop-color="#0f0c00"/><stop offset="1" stop-color="#820000"/></linearGradient><linearGradient x1="240.81243" y1="287.80262" x2="240.81243" y2="543.61119" gradientUnits="userSpaceOnUse" id="color-10"><stop offset="0" stop-color="#0b0604"/><stop offset="1" stop-color="#3b2117"/></linearGradient><linearGradient x1="384.84616" y1="172.57205" x2="394.90083" y2="172.57205" gradientUnits="userSpaceOnUse" id="color-11"><stop offset="0" stop-color="#515047"/><stop offset="1" stop-color="#2a2a25"/></linearGradient><linearGradient x1="241.96337" y1="267.38892" x2="241.96337" y2="287.71047" gradientUnits="userSpaceOnUse" id="color-12"><stop offset="0" stop-color="#56341b"/><stop offset="1" stop-color="#74441b"/></linearGradient><linearGradient x1="12.19841" y1="82.49832" x2="81.32412" y2="82.49832" gradientUnits="userSpaceOnUse" id="color-13"><stop offset="0" stop-color="#0f0c00"/><stop offset="1" stop-color="#820000"/></linearGradient><linearGradient x1="464.52918" y1="82.73104" x2="395.40346" y2="82.73104" gradientUnits="userSpaceOnUse" id="color-14"><stop offset="0" stop-color="#0f0c00"/><stop offset="1" stop-color="#820000"/></linearGradient><radialGradient cx="-31.5" cy="46.50004" r="4" gradientUnits="userSpaceOnUse" id="color-15"><stop offset="0" stop-color="#1b1e22"/><stop offset="1" stop-color="#0b0d0c"/></radialGradient><radialGradient cx="194.5" cy="73.96885" r="45.5" gradientUnits="userSpaceOnUse" id="color-16"><stop offset="0" stop-color="#211d1d"/><stop offset="1" stop-color="#131313"/></radialGradient><linearGradient x1="91.00248" y1="237.5111" x2="164.88055" y2="237.5111" gradientUnits="userSpaceOnUse" id="color-17"><stop offset="0" stop-color="#262626"/><stop offset="1" stop-color="#0d0d0d"/></linearGradient><linearGradient x1="59.6043" y1="241.60702" x2="96.54333" y2="241.60702" gradientUnits="userSpaceOnUse" id="color-18"><stop offset="0" stop-color="#1f1f1f"/><stop offset="1" stop-color="#000000"/></linearGradient><linearGradient x1="252.32449" y1="11.97296" x2="252.32449" y2="429.16341" gradientUnits="userSpaceOnUse" id="color-19"><stop offset="0" stop-color="#000000"/><stop offset="1" stop-color="#000000" stop-opacity="0"/></linearGradient><linearGradient x1="314.4084" y1="276.78526" x2="341.40082" y2="276.78526" gradientUnits="userSpaceOnUse" id="color-20"><stop offset="0" stop-color="#383838"/><stop offset="1" stop-color="#0b0b0b"/></linearGradient><linearGradient x1="227.47969" y1="273.80959" x2="227.47969" y2="282.97854" gradientUnits="userSpaceOnUse" id="color-21"><stop offset="0" stop-color="#1d1d1d"/><stop offset="1" stop-color="#161616"/></linearGradient><linearGradient x1="241" y1="360.00013" x2="241" y2="-68.08214" gradientUnits="userSpaceOnUse" id="color-22"><stop offset="0" stop-color="#000000"/><stop offset="1" stop-color="#000000" stop-opacity="0"/></linearGradient><radialGradient cx="162" cy="72.96885" r="9.5" gradientUnits="userSpaceOnUse" id="color-23"><stop offset="0" stop-color="#210000"/><stop offset="1" stop-color="#000000"/></radialGradient><radialGradient cx="160" cy="74.4133" r="22.16666" gradientUnits="userSpaceOnUse" id="color-24"><stop offset="0" stop-color="#ff0000"/><stop offset="1" stop-color="#ff0000" stop-opacity="0"/></radialGradient><linearGradient x1="201.01545" y1="282.96749" x2="425.27128" y2="282.96749" gradientUnits="userSpaceOnUse" id="color-25"><stop offset="0" stop-color="#000000" stop-opacity="0"/><stop offset="1" stop-color="#000000"/></linearGradient><radialGradient cx="351.02852" cy="281.72141" r="29.45367" gradientUnits="userSpaceOnUse" id="color-26"><stop offset="0" stop-color="#000000"/><stop offset="1" stop-color="#000000" stop-opacity="0"/></radialGradient><linearGradient x1="315.03985" y1="279.96997" x2="331.76401" y2="279.96997" gradientUnits="userSpaceOnUse" id="color-27"><stop offset="0" stop-color="#000000"/><stop offset="1" stop-color="#000000" stop-opacity="0"/></linearGradient></defs><g transform="translate(43.5,68.08214)"><g data-paper-data="{&quot;isPaintingLayer&quot;:true}" fill-rule="nonzero" stroke-linejoin="miter" stroke-miterlimit="10" stroke-dasharray="" stroke-dashoffset="0" style="mix-blend-mode: normal"><path d="M469.5,-68.08214v428.08217h-457v-428.08217z" data-paper-data="{&quot;index&quot;:null}" fill="url(#color-1)" stroke="none" stroke-width="0" stroke-linecap="butt"/><path d="M-14.5,77.00002v-64h517v64z" fill="url(#color-2)" stroke="#000000" stroke-width="2" stroke-linecap="butt"/><path d="M-43.5,359.00012v-107h554v107z" fill="#550000" stroke="none" stroke-width="0" stroke-linecap="butt"/><path d="M90.5,262.50005v-198h299v198z" fill="url(#color-3)" stroke="#000000" stroke-width="2" stroke-linecap="butt"/><path d="M332.95832,265.19876v-22.77319h72.46015v22.77319z" fill="url(#color-4)" stroke="#000000" stroke-width="2" stroke-linecap="butt"/><path d="M391.5,262.50005v-198l76,-13l1,257z" fill="url(#color-5)" stroke="#000000" stroke-width="2" stroke-linecap="butt"/><path d="M11.5,308.50005l1,-257l76,13v198z" data-paper-data="{&quot;index&quot;:null}" fill="url(#color-6)" stroke="#000000" stroke-width="2" stroke-linecap="butt"/><path d="M84.8265,264.17152v-22.77319h72.46015v22.77319z" fill="url(#color-7)" stroke="#000000" stroke-width="2" stroke-linecap="butt"/><path d="M82.41453,281.03076l-1.3802,-217.25612l8.67448,1.38019l1.38019,215.87593z" fill="url(#color-8)" stroke="#000000" stroke-width="2" stroke-linecap="butt"/><path d="M90.86286,92.34974v-8.74003h293.98292v8.74003z" fill="url(#color-9)" stroke="#000000" stroke-width="2" stroke-linecap="butt"/><path d="M157.5,263.00005v-166h175v166z" fill="#000000" stroke="none" stroke-width="0" stroke-linecap="butt"/><path d="M13.94114,543.61119v-255.80852h453.74258v255.80852z" fill="url(#color-10)" stroke="#000000" stroke-width="2" stroke-linecap="butt"/><path d="M150,128.46884l-14.25806,8l-9.22581,-5l-2.51613,-19l2.51613,-22l2.51613,-26l-2.51613,-23" fill="none" stroke="#620000" stroke-width="12.5" stroke-linecap="round"/><path d="M384.84616,281.20009l1.38019,-215.87593l8.67448,-1.38019l-1.3802,217.25612z" data-paper-data="{&quot;index&quot;:null}" fill="url(#color-11)" stroke="#000000" stroke-width="2" stroke-linecap="butt"/><path d="M13.86787,287.71047l73,-20.32157h303.19099l80,20.32157z" fill="url(#color-12)" stroke="#000000" stroke-width="2" stroke-linecap="butt"/><path d="M14.86787,307.71047v-18.32157h456.19099v18.32157c0,0 -308.51759,0 -385.55886,0c-32.97457,0 -70.63213,0 -70.63213,0z" fill="#4b2a19" stroke="#000000" stroke-width="2" stroke-linecap="butt"/><path d="M152.67244,264.05145v-169.23882h7.94548v169.23882z" fill="#08090b" stroke="#000000" stroke-width="2" stroke-linecap="butt"/><path d="M326.91126,265.07874v-169.23882h7.94548v169.23882z" fill="#08090b" stroke="#000000" stroke-width="2" stroke-linecap="butt"/><path d="M151.94588,99.46018v-11.32232h183.54069v11.32232z" fill="#0a0b0d" stroke="#000000" stroke-width="2" stroke-linecap="butt"/><path d="M12.19841,87.26566v-14.30187l69.12571,11.12368v7.94548z" fill="url(#color-13)" stroke="#000000" stroke-width="2" stroke-linecap="butt"/><path d="M395.40346,92.26566v-7.94549l69.12571,-11.12367v14.30187z" data-paper-data="{&quot;index&quot;:null}" fill="url(#color-14)" stroke="#000000" stroke-width="2" stroke-linecap="butt"/><path d="M-35.5,47.00004v-1h8v1z" fill="url(#color-15)" stroke="#000000" stroke-width="2" stroke-linecap="butt"/><path d="M147,88.46886v23l-6,7l-9,3l-10,-8l-3,-13l2,-37" fill="none" stroke="#000000" stroke-width="12.5" stroke-linecap="round"/><path d="M341,69.46885l-1,30l2,16l1,15l-3,21" fill="none" stroke="#000000" stroke-width="12.5" stroke-linecap="round"/><path d="M98,68.46885v41l-4,19l-14,17l-12,1l-10,-8l-5,-11l-10,-19l-7,-31l-4,-35" fill="none" stroke="#000000" stroke-width="12.5" stroke-linecap="round"/><path d="M48,162.46884l-2,-22l3,-38v-43" fill="none" stroke="#000000" stroke-width="12.5" stroke-linecap="round"/><path d="M149,82.46885v-17h91v17z" fill="url(#color-16)" stroke="#000000" stroke-width="2" stroke-linecap="butt"/><path d="M452,80.46885l-3,11l-12,13l-12,9l-19,3l-16,-12l-9,-15l-4,-24" fill="none" stroke="#000000" stroke-width="12.5" stroke-linecap="round"/><path d="M121.89843,331.86753l0.93072,-46.53626l4.65363,-5.58435l8.37653,-3.7229l20.47596,-2.79218l8.37653,1.86145" fill="none" stroke="#000000" stroke-width="5" stroke-linecap="round"/><path d="M94.69638,279.65654c0,0 -1.9395,-44.5653 -2.62125,-60.00249c-0.43612,-9.87515 -1.07265,-24.28839 -1.07265,-24.28839l72.03112,8.31128l1.84695,62.40219z" fill="url(#color-17)" stroke="none" stroke-width="0" stroke-linecap="butt"/><path d="M65.01936,272.29523l-3.79319,-52.31375l30.69979,-15.77524l4.61738,74.80155z" fill="url(#color-18)" stroke="none" stroke-width="0" stroke-linecap="butt"/><path d="M87.18278,279.35528l-3.56811,-80.26625l8.86074,-3.56811l3.89248,84.48311z" fill="#242424" stroke="none" stroke-width="0" stroke-linecap="butt"/><path d="M-6.17551,429.16341v-417.19034h517v417.19034z" fill="url(#color-19)" stroke="#000000" stroke-width="2" stroke-linecap="butt"/><path d="M146.98509,287.27046v-3.96047h159.73891v3.96047z" fill="#000000" stroke="none" stroke-width="0" stroke-linecap="butt"/><path d="M314.40844,276.058c0,-4.52625 5.98667,-8.19551 13.37161,-8.19551c7.38494,0 13.37161,3.66926 13.37161,8.19551c0,3.14303 1.47678,5.87282 -2.76031,7.24773c-1.86471,0.60509 -5.44546,2.40227 -7.7023,2.40227c-2.28913,0 -10.26191,-1.07981 -12.14568,-1.70115c-4.19346,-1.38317 -4.13494,-4.82561 -4.13494,-7.94885z" fill="url(#color-20)" stroke="none" stroke-width="0" stroke-linecap="butt"/><path d="M104.61968,269.78163c0,0 -3.22874,-2.7679 -4.06156,-11.0123c-1.45756,-14.42904 -1.90298,-37.64344 -2.24962,-45.49262c-0.34845,-7.89004 3.35983,-8.05286 3.35983,-8.05286c0,0 22.12868,-0.67025 32.1481,0.33339c8.63268,0.86473 24.43021,5.33403 24.43021,5.33403c0,0 1.60911,0.96298 2.93866,5.52465c1.36403,4.67999 2.77523,15.60641 2.89465,19.64106c0.04975,1.68076 -0.69183,10.83572 -1.64028,17.14434c-0.7463,4.96403 -2.71735,7.54806 -2.71735,7.54806c0,0 -2.54323,1.27745 -6.89825,2.22163c-4.33929,0.94077 -10.52558,3.076 -16.51027,4.21875c-9.91905,1.894 -19.85098,2.76169 -24.07113,3.45344c-4.00771,0.65693 -7.62297,-0.86157 -7.62297,-0.86157z" fill="#000000" stroke="none" stroke-width="0" stroke-linecap="butt"/><path d="M146.7554,282.97854l10.41545,-9.15072l141.91961,-0.01823l9.11352,9.15072z" fill="url(#color-21)" stroke="none" stroke-width="0" stroke-linecap="butt"/><path d="M469.5,-68.08214v428.08217h-457v-428.08217z" data-paper-data="{&quot;index&quot;:null}" fill="url(#color-22)" stroke="none" stroke-width="0" stroke-linecap="butt"/><path d="M171,72.96885c0,5.24671 -4.02944,9.5 -9,9.5c-4.97056,0 -9,-4.25329 -9,-9.5c0,-5.24671 4.02944,-9.5 9,-9.5c4.97056,0 9,4.25329 9,9.5z" fill="url(#color-23)" stroke="#000000" stroke-width="2" stroke-linecap="butt"/><path d="M181,74.4133c0,12.24232 -9.40203,22.16666 -21,22.16666c-11.59797,0 -21,-9.92434 -21,-22.16666c0,-12.24232 9.40203,-22.16666 21,-22.16666c11.59797,0 21,9.92434 21,22.16667z" fill="url(#color-24)" stroke="none" stroke-width="0" stroke-linecap="butt"/><path d="M165.94762,75.59186c0,3.03757 -2.46243,5.5 -5.5,5.5c-3.03757,0 -5.5,-2.46243 -5.5,-5.5c0,-3.03757 2.46243,-5.5 5.5,-5.5c3.03757,0 5.5,2.46243 5.5,5.5z" fill="#ff0000" stroke="none" stroke-width="0" stroke-linecap="butt"/><path d="M131.37933,115.4191l-4.05239,-4.72778l-2.0262,-9.45557l2.0262,-28.3667l-0.6754,-18.91113" fill="none" stroke="#a50101" stroke-width="0.5" stroke-linecap="round"/><path d="M103.68802,66.11508l-0.67539,31.74369l-0.6754,24.31431l-6.75397,14.85875" fill="none" stroke="#a50101" stroke-width="0.5" stroke-linecap="round"/><path d="M54.00983,53.6196l2.39864,29.98302l-1.19932,29.98302" fill="none" stroke="#ff0000" stroke-width="0.5" stroke-linecap="round"/><path d="M133.16501,62.06562l1.19932,5.94583l-0.59966,22.7871l-1.79898,17.39015l-0.59966,3.59796" fill="none" stroke="#ff0000" stroke-width="0.5" stroke-linecap="round"/><path d="M139.44011,288.28882l61.57533,-24.32606h191.5677c0,0 42.71313,10.38974 45.1477,11.66321c7.37318,3.85674 36.95274,14.18323 36.95274,14.18323z" fill="url(#color-25)" stroke="none" stroke-width="0" stroke-linecap="butt"/><path d="M380.48219,281.72141c0,3.41402 -13.18686,6.18164 -29.45367,6.18164c-16.26681,0 -29.45367,-2.76762 -29.45367,-6.18164c0,-3.41402 13.18686,-6.18163 29.45367,-6.18163c16.26681,0 29.45367,2.76761 29.45367,6.18163z" fill="url(#color-26)" stroke="none" stroke-width="0" stroke-linecap="butt"/><path d="M322.00433,333.72897l-0.93072,-45.60553l-11.1687,-2.79217l-0.93072,-7.44581l8.37653,-1.86145" fill="none" stroke="#000000" stroke-width="5" stroke-linecap="round"/><path d="M308.52325,289.92399l-5.01277,-14.89523l28.25354,3.50894l1.00255,11.88757z" fill="url(#color-27)" stroke="none" stroke-width="0" stroke-linecap="butt"/></g></g></svg>