<svg version="1.1" xmlns="http://www.w3.org/2000/svg" xmlns:xlink="http://www.w3.org/1999/xlink" width="560.61432" height="500.61112" viewBox="0,0,560.61432,500.61112"><defs><radialGradient cx="240.00001" cy="180" r="108.95808" gradientUnits="userSpaceOnUse" id="color-1"><stop offset="0" stop-color="#919191"/><stop offset="1" stop-color="#919191" stop-opacity="0"/></radialGradient><linearGradient x1="240.00001" y1="44" x2="240.00001" y2="257" gradientUnits="userSpaceOnUse" id="color-2"><stop offset="0" stop-color="#000000"/><stop offset="1" stop-color="#000000" stop-opacity="0"/></linearGradient><radialGradient cx="233.50001" cy="305.5" r="277" gradientUnits="userSpaceOnUse" id="color-3"><stop offset="0" stop-color="#696969"/><stop offset="1" stop-color="#640000"/></radialGradient><radialGradient cx="50" cy="180" r="128.5" gradientUnits="userSpaceOnUse" id="color-4"><stop offset="0" stop-color="#2a2f36"/><stop offset="1" stop-color="#090b0a"/></radialGradient><radialGradient cx="50" cy="180" r="128.5" gradientUnits="userSpaceOnUse" id="color-5"><stop offset="0" stop-color="#000000"/><stop offset="1" stop-color="#3b3b3b"/></radialGradient><radialGradient cx="240.00001" cy="163.5" r="149.5" gradientUnits="userSpaceOnUse" id="color-6"><stop offset="0" stop-color="#99aabb"/><stop offset="1" stop-color="#171c18"/></radialGradient><radialGradient cx="430.00001" cy="180" r="128.5" gradientUnits="userSpaceOnUse" id="color-7"><stop offset="0" stop-color="#2e333a"/><stop offset="1" stop-color="#131815"/></radialGradient><linearGradient x1="241.00001" y1="360" x2="241.00001" y2="147" gradientUnits="userSpaceOnUse" id="color-8"><stop offset="0" stop-color="#000000"/><stop offset="1" stop-color="#000000" stop-opacity="0"/></linearGradient><radialGradient cx="240.00001" cy="180" r="87.5" gradientUnits="userSpaceOnUse" id="color-9"><stop offset="0" stop-color="#a1a1a1"/><stop offset="1" stop-color="#535353"/></radialGradient><radialGradient cx="239.97686" cy="344.58262" r="108.95808" gradientUnits="userSpaceOnUse" id="color-10"><stop offset="0" stop-color="#303030"/><stop offset="1" stop-color="#303030" stop-opacity="0"/></radialGradient><linearGradient x1="-50.11432" y1="198.72355" x2="-37.55644" y2="198.72355" gradientUnits="userSpaceOnUse" id="color-11"><stop offset="0" stop-color="#626262"/><stop offset="1" stop-color="#626262" stop-opacity="0"/></linearGradient><linearGradient x1="240.81243" y1="287.8026" x2="240.81243" y2="543.61112" gradientUnits="userSpaceOnUse" id="color-12"><stop offset="0" stop-color="#0b0604"/><stop offset="1" stop-color="#3b2117"/></linearGradient><linearGradient x1="241.96337" y1="267.3889" x2="241.96337" y2="287.71047" gradientUnits="userSpaceOnUse" id="color-13"><stop offset="0" stop-color="#56341b"/><stop offset="1" stop-color="#74441b"/></linearGradient></defs><g transform="translate(50.11432,-44)"><g data-paper-data="{&quot;isPaintingLayer&quot;:true}" fill-rule="nonzero" stroke-linecap="butt" stroke-linejoin="miter" stroke-miterlimit="10" stroke-dasharray="" stroke-dashoffset="0" style="mix-blend-mode: normal"><path d="M131.04191,272.92832c0,0 0,-148.33598 0,-173.02508c0,-6.72342 0,-12.83155 0,-12.83155h217.91616v185.85663z" fill="url(#color-1)" stroke="none" stroke-width="0"/><path d="M11.5,257v-213h457v213z" fill="url(#color-2)" stroke="none" stroke-width="0"/><path d="M-43.5,359c0,0 0,-41.81874 0,-60.68224c0,-16.4803 0,-46.31776 0,-46.31776h554v107z" fill="url(#color-3)" stroke="none" stroke-width="0"/><path d="M11.5,308.5l1,-257l76,13v198z" data-paper-data="{&quot;index&quot;:null}" fill="url(#color-4)" stroke="url(#color-5)" stroke-width="2"/><path d="M90.5,262.5v-198h299v198z" fill="url(#color-6)" stroke="#000000" stroke-width="2"/><path d="M391.50001,262.5v-198l76,-13l1,257z" fill="url(#color-7)" stroke="#000000" stroke-width="2"/><path d="M469.50001,147v213h-457v-213z" data-paper-data="{&quot;index&quot;:null}" fill="url(#color-8)" stroke="none" stroke-width="0"/><path d="M152.5,263v-166h175v166z" fill="url(#color-9)" stroke="#000000" stroke-width="2.5"/><path d="M55.67149,370.33237l95.43989,-106.21772h172.70779l77.85886,165.76402c0,0 8.95218,-45.68345 4.19933,-46.50253c-27.56435,-4.75029 -350.20587,-13.04377 -350.20587,-13.04377z" fill="url(#color-10)" stroke="none" stroke-width="0"/><path d="M-50.11432,199.97934v-2.51158h12.55788v2.51158z" fill="url(#color-11)" stroke="none" stroke-width="0"/><path d="M13.94114,543.61112v-255.80852h453.74258v255.80852z" fill="url(#color-12)" stroke="#000000" stroke-width="2"/><path d="M13.86787,287.71047l73,-20.32157h303.19099l80,20.32157z" fill="url(#color-13)" stroke="#000000" stroke-width="2"/><path d="M14.86787,307.71047v-18.32157h456.19099v18.32157c0,0 -308.51759,0 -385.55886,0c-32.97457,0 -70.63213,0 -70.63213,0z" fill="#4b2a19" stroke="#000000" stroke-width="2"/></g></g></svg>