<svg version="1.1" xmlns="http://www.w3.org/2000/svg" xmlns:xlink="http://www.w3.org/1999/xlink" width="554" height="542.00479" viewBox="0,0,554,542.00479"><defs><radialGradient cx="244" cy="45.00003" r="258.5" gradientUnits="userSpaceOnUse" id="color-1"><stop offset="0" stop-color="#210000"/><stop offset="1" stop-color="#000000"/></radialGradient><radialGradient cx="240" cy="163.50001" r="149.5" gradientUnits="userSpaceOnUse" id="color-2"><stop offset="0" stop-color="#444c57"/><stop offset="1" stop-color="#0c0e0d"/></radialGradient><radialGradient cx="369.1884" cy="253.8122" r="36.23007" gradientUnits="userSpaceOnUse" id="color-3"><stop offset="0" stop-color="#4d5662"/><stop offset="1" stop-color="#2f3633"/></radialGradient><radialGradient cx="430" cy="180.00004" r="128.5" gradientUnits="userSpaceOnUse" id="color-4"><stop offset="0" stop-color="#3d444d"/><stop offset="1" stop-color="#0b0d0c"/></radialGradient><linearGradient x1="156.35995" y1="23.64074" x2="156.35995" y2="66.95422" gradientUnits="userSpaceOnUse" id="color-5"><stop offset="0" stop-color="#860000" stop-opacity="0"/><stop offset="1" stop-color="#860000"/></linearGradient><radialGradient cx="50" cy="180.00004" r="128.5" gradientUnits="userSpaceOnUse" id="color-6"><stop offset="0" stop-color="#3d434d"/><stop offset="1" stop-color="#111613"/></radialGradient><radialGradient cx="121.05658" cy="252.78495" r="36.23007" gradientUnits="userSpaceOnUse" id="color-7"><stop offset="0" stop-color="#4d5662"/><stop offset="1" stop-color="#2f3633"/></radialGradient><linearGradient x1="81.03433" y1="172.40268" x2="91.089" y2="172.40268" gradientUnits="userSpaceOnUse" id="color-8"><stop offset="0" stop-color="#282824"/><stop offset="1" stop-color="#525248"/></linearGradient><linearGradient x1="237.85432" y1="83.6097" x2="237.85432" y2="92.34973" gradientUnits="userSpaceOnUse" id="color-9"><stop offset="0" stop-color="#0f0c00"/><stop offset="1" stop-color="#820000"/></linearGradient><linearGradient x1="240.81243" y1="287.8026" x2="240.81243" y2="543.61115" gradientUnits="userSpaceOnUse" id="color-10"><stop offset="0" stop-color="#0b0604"/><stop offset="1" stop-color="#3b2117"/></linearGradient><radialGradient cx="137" cy="88.96886" r="39.83871" gradientUnits="userSpaceOnUse" id="color-11"><stop offset="0" stop-color="#ff0000"/><stop offset="1" stop-color="#4d0000"/></radialGradient><linearGradient x1="85.35073" y1="76.2725" x2="149.5144" y2="76.2725" gradientUnits="userSpaceOnUse" id="color-12"><stop offset="0" stop-color="#860000" stop-opacity="0"/><stop offset="1" stop-color="#860000"/></linearGradient><linearGradient x1="166.94892" y1="216.95699" x2="188.82915" y2="216.95699" gradientUnits="userSpaceOnUse" id="color-13"><stop offset="0" stop-color="#111111"/><stop offset="1" stop-color="#717171"/></linearGradient><linearGradient x1="384.84616" y1="172.572" x2="394.90083" y2="172.572" gradientUnits="userSpaceOnUse" id="color-14"><stop offset="0" stop-color="#515047"/><stop offset="1" stop-color="#2a2a25"/></linearGradient><linearGradient x1="241.96337" y1="267.38892" x2="241.96337" y2="287.71047" gradientUnits="userSpaceOnUse" id="color-15"><stop offset="0" stop-color="#56341b"/><stop offset="1" stop-color="#74441b"/></linearGradient><linearGradient x1="240" y1="97.00003" x2="240" y2="192.38653" gradientUnits="userSpaceOnUse" id="color-16"><stop offset="0" stop-color="#717171"/><stop offset="1" stop-color="#111111"/></linearGradient><linearGradient x1="152.67244" y1="179.43206" x2="160.61792" y2="179.43206" gradientUnits="userSpaceOnUse" id="color-17"><stop offset="0" stop-color="#08090b"/><stop offset="1" stop-color="#859991"/></linearGradient><linearGradient x1="326.91126" y1="180.45931" x2="334.85674" y2="180.45931" gradientUnits="userSpaceOnUse" id="color-18"><stop offset="0" stop-color="#9097a6"/><stop offset="1" stop-color="#08090b"/></linearGradient><linearGradient x1="243.71622" y1="88.13786" x2="243.71622" y2="99.46018" gradientUnits="userSpaceOnUse" id="color-19"><stop offset="0" stop-color="#2b2f38"/><stop offset="1" stop-color="#8ba198"/></linearGradient><linearGradient x1="243.71081" y1="241.39503" x2="243.71081" y2="262.78387" gradientUnits="userSpaceOnUse" id="color-20"><stop offset="0" stop-color="#705c00"/><stop offset="1" stop-color="#111111"/></linearGradient><linearGradient x1="12.19841" y1="82.49833" x2="81.32412" y2="82.49833" gradientUnits="userSpaceOnUse" id="color-21"><stop offset="0" stop-color="#0f0c00"/><stop offset="1" stop-color="#820000"/></linearGradient><linearGradient x1="464.52918" y1="82.73104" x2="395.40346" y2="82.73104" gradientUnits="userSpaceOnUse" id="color-22"><stop offset="0" stop-color="#0f0c00"/><stop offset="1" stop-color="#820000"/></linearGradient><radialGradient cx="-31.5" cy="46.50003" r="4" gradientUnits="userSpaceOnUse" id="color-23"><stop offset="0" stop-color="#1b1e22"/><stop offset="1" stop-color="#0b0d0c"/></radialGradient><radialGradient cx="194.5" cy="73.96886" r="45.5" gradientUnits="userSpaceOnUse" id="color-24"><stop offset="0" stop-color="#211d1d"/><stop offset="1" stop-color="#131313"/></radialGradient><linearGradient x1="299.2521" y1="216.98239" x2="322.12689" y2="216.98239" gradientUnits="userSpaceOnUse" id="color-25"><stop offset="0" stop-color="#717171"/><stop offset="1" stop-color="#111111"/></linearGradient><linearGradient x1="119" y1="92.46886" x2="147" y2="92.46886" gradientUnits="userSpaceOnUse" id="color-26"><stop offset="0" stop-color="#000000"/><stop offset="1" stop-color="#181818"/></linearGradient><linearGradient x1="335.25" y1="110.46886" x2="347.75" y2="110.46886" gradientUnits="userSpaceOnUse" id="color-27"><stop offset="0" stop-color="#1a1a1a"/><stop offset="1" stop-color="#000000"/></linearGradient><linearGradient x1="160.98158" y1="235.02355" x2="193.80193" y2="235.02355" gradientUnits="userSpaceOnUse" id="color-28"><stop offset="0" stop-color="#111111"/><stop offset="1" stop-color="#3f3f3f"/></linearGradient><linearGradient x1="243.49294" y1="182.83183" x2="243.49294" y2="190.93882" gradientUnits="userSpaceOnUse" id="color-29"><stop offset="0" stop-color="#705c00"/><stop offset="1" stop-color="#111111"/></linearGradient><linearGradient x1="169.50592" y1="73.77674" x2="262.45329" y2="73.77674" gradientUnits="userSpaceOnUse" id="color-30"><stop offset="0" stop-color="#860000"/><stop offset="1" stop-color="#860000" stop-opacity="0"/></linearGradient><linearGradient x1="293.28476" y1="235.05076" x2="326.10511" y2="235.05076" gradientUnits="userSpaceOnUse" id="color-31"><stop offset="0" stop-color="#3f3f3f"/><stop offset="1" stop-color="#111111"/></linearGradient><linearGradient x1="240" y1="13.00002" x2="240" y2="347" gradientUnits="userSpaceOnUse" id="color-32"><stop offset="0" stop-color="#000000"/><stop offset="1" stop-color="#000000" stop-opacity="0"/></linearGradient><radialGradient cx="65" cy="94.46886" r="52" gradientUnits="userSpaceOnUse" id="color-33"><stop offset="0" stop-color="#000000" stop-opacity="0"/><stop offset="1" stop-color="#000000" stop-opacity="0"/></radialGradient><linearGradient x1="32" y1="94.46886" x2="98" y2="94.46886" gradientUnits="userSpaceOnUse" id="color-34"><stop offset="0" stop-color="#000000"/><stop offset="1" stop-color="#0b0b0b"/></linearGradient><linearGradient x1="41.25" y1="110.96886" x2="53.75" y2="110.96886" gradientUnits="userSpaceOnUse" id="color-35"><stop offset="0" stop-color="#000000"/><stop offset="1" stop-color="#1c1c1c"/></linearGradient><linearGradient x1="377" y1="90.96886" x2="452" y2="90.96886" gradientUnits="userSpaceOnUse" id="color-36"><stop offset="0" stop-color="#1a1a1a"/><stop offset="1" stop-color="#000000"/></linearGradient><linearGradient x1="240" y1="354.50002" x2="240" y2="5.5" gradientUnits="userSpaceOnUse" id="color-37"><stop offset="0" stop-color="#000000"/><stop offset="1" stop-color="#000000" stop-opacity="0"/></linearGradient><radialGradient cx="160" cy="74.41331" r="22.16666" gradientUnits="userSpaceOnUse" id="color-38"><stop offset="0" stop-color="#ff0000"/><stop offset="1" stop-color="#ff0000" stop-opacity="0"/></radialGradient><linearGradient x1="243.67735" y1="101.46885" x2="243.67735" y2="147.9987" gradientUnits="userSpaceOnUse" id="color-39"><stop offset="0" stop-color="#c6c6c6"/><stop offset="1" stop-color="#c6c6c6" stop-opacity="0"/></linearGradient><linearGradient x1="243.81173" y1="87.84943" x2="243.81173" y2="105.51245" gradientUnits="userSpaceOnUse" id="color-40"><stop offset="0" stop-color="#b8b8b8" stop-opacity="0"/><stop offset="1" stop-color="#b8b8b8"/></linearGradient><linearGradient x1="36.63578" y1="277.94536" x2="25.01971" y2="287.47559" gradientUnits="userSpaceOnUse" id="color-41"><stop offset="0" stop-color="#000000"/><stop offset="1" stop-color="#000000" stop-opacity="0"/></linearGradient><linearGradient x1="59.6043" y1="241.60702" x2="96.54333" y2="241.60702" gradientUnits="userSpaceOnUse" id="color-42"><stop offset="0" stop-color="#1f1f1f"/><stop offset="1" stop-color="#030303"/></linearGradient><linearGradient x1="201.01545" y1="282.96749" x2="425.27128" y2="282.96749" gradientUnits="userSpaceOnUse" id="color-43"><stop offset="0" stop-color="#000000" stop-opacity="0"/><stop offset="1" stop-color="#000000"/></linearGradient><radialGradient cx="127.83407" cy="235.48211" r="45.13569" gradientUnits="userSpaceOnUse" id="color-44"><stop offset="0" stop-color="#ffffff"/><stop offset="1" stop-color="#ffffff" stop-opacity="0"/></radialGradient><radialGradient cx="351.02852" cy="281.72141" r="29.45367" gradientUnits="userSpaceOnUse" id="color-45"><stop offset="0" stop-color="#000000"/><stop offset="1" stop-color="#000000" stop-opacity="0"/></radialGradient><linearGradient x1="314.4084" y1="276.78526" x2="341.40082" y2="276.78526" gradientUnits="userSpaceOnUse" id="color-46"><stop offset="0" stop-color="#383838"/><stop offset="1" stop-color="#0b0b0b"/></linearGradient><linearGradient x1="146.93124" y1="277.80971" x2="308.37982" y2="277.80971" gradientUnits="userSpaceOnUse" id="color-47"><stop offset="0" stop-color="#070707" stop-opacity="0"/><stop offset="1" stop-color="#070707"/></linearGradient><linearGradient x1="315.03985" y1="279.96997" x2="331.76401" y2="279.96997" gradientUnits="userSpaceOnUse" id="color-48"><stop offset="0" stop-color="#000000"/><stop offset="1" stop-color="#000000" stop-opacity="0"/></linearGradient><linearGradient x1="227.47969" y1="273.80959" x2="227.47969" y2="282.97854" gradientUnits="userSpaceOnUse" id="color-49"><stop offset="0" stop-color="#383838"/><stop offset="1" stop-color="#161616"/></linearGradient></defs><g transform="translate(43.5,-2.60636)"><g data-paper-data="{&quot;isPaintingLayer&quot;:true}" fill-rule="nonzero" stroke-linejoin="miter" stroke-miterlimit="10" stroke-dasharray="" stroke-dashoffset="0" style="mix-blend-mode: normal"><path d="M-43.5,359.00001v-107h554v107z" fill="#550000" stroke="none" stroke-width="0" stroke-linecap="butt"/><path d="M-14.5,77.00003v-64h517v64z" fill="url(#color-1)" stroke="#000000" stroke-width="2" stroke-linecap="butt"/><path d="M90.5,262.50001v-198h299v198z" fill="url(#color-2)" stroke="#000000" stroke-width="2" stroke-linecap="butt"/><path d="M332.95832,265.19876v-22.77319h72.46015v22.77319z" fill="url(#color-3)" stroke="#000000" stroke-width="2" stroke-linecap="butt"/><path d="M391.5,262.50001v-198l76,-13l1,257z" fill="url(#color-4)" stroke="#000000" stroke-width="2" stroke-linecap="butt"/><path d="M207.94931,45.29748c0,11.96069 -23.09734,21.65674 -51.58936,21.65674c-28.49202,0 -51.58937,-9.69605 -51.58937,-21.65674c0,-11.96069 23.09735,-21.65674 51.58937,-21.65674c28.49202,0 51.58936,9.69605 51.58936,21.65674z" fill="url(#color-5)" stroke="none" stroke-width="0" stroke-linecap="butt"/><path d="M11.5,308.50001l1,-257l76,13v198z" data-paper-data="{&quot;index&quot;:null}" fill="url(#color-6)" stroke="#000000" stroke-width="2" stroke-linecap="butt"/><path d="M84.8265,264.17152v-22.77319h72.46015v22.77319z" fill="url(#color-7)" stroke="#000000" stroke-width="2" stroke-linecap="butt"/><path d="M82.41453,281.03072l-1.3802,-217.25612l8.67448,1.38019l1.38019,215.87593z" fill="url(#color-8)" stroke="#000000" stroke-width="2" stroke-linecap="butt"/><path d="M90.86286,92.34973v-8.74003h293.98292v8.74003z" fill="url(#color-9)" stroke="#000000" stroke-width="2" stroke-linecap="butt"/><path d="M157.5,263.00001v-166h175v166z" fill="#000000" stroke="none" stroke-width="0" stroke-linecap="butt"/><path d="M13.94114,543.61115v-255.80852h453.74258v255.80852z" fill="url(#color-10)" stroke="#000000" stroke-width="2" stroke-linecap="butt"/><path d="M150,128.46884l-14.25806,8l-9.22581,-5l-2.51613,-19l2.51613,-22l2.51613,-26l-2.51613,-23" fill="none" stroke="url(#color-11)" stroke-width="12.5" stroke-linecap="round"/><path d="M149.5144,76.2725c0,9.60432 -14.36353,17.39015 -32.08184,17.39015c-17.71831,0 -32.08184,-7.78584 -32.08184,-17.39015c0,-9.60432 14.36353,-17.39015 32.08184,-17.39015c17.71831,0 32.08184,7.78584 32.08184,17.39015z" fill="url(#color-12)" stroke="none" stroke-width="0" stroke-linecap="butt"/><path d="M166.94892,241.48816v-49.06235h21.88024v49.06235z" fill="url(#color-13)" stroke="none" stroke-width="0" stroke-linecap="butt"/><path d="M384.84616,281.20004l1.38019,-215.87593l8.67448,-1.38019l-1.3802,217.25612z" data-paper-data="{&quot;index&quot;:null}" fill="url(#color-14)" stroke="#000000" stroke-width="2" stroke-linecap="butt"/><path d="M13.86787,287.71047l73,-20.32157h303.19099l80,20.32157z" fill="url(#color-15)" stroke="#000000" stroke-width="2" stroke-linecap="butt"/><path d="M14.86787,307.71047v-18.32157h456.19099v18.32157c0,0 -308.51759,0 -385.55886,0c-32.97457,0 -70.63213,0 -70.63213,0z" fill="#4b2a19" stroke="#000000" stroke-width="2" stroke-linecap="butt"/><path d="M152.5,192.38653v-95.38651h175v95.38651z" fill="url(#color-16)" stroke="none" stroke-width="0" stroke-linecap="butt"/><path d="M152.67244,264.05143v-169.23882h7.94548v169.23882z" fill="url(#color-17)" stroke="#000000" stroke-width="2" stroke-linecap="butt"/><path d="M326.91126,265.07872v-169.23882h7.94548v169.23882z" fill="url(#color-18)" stroke="#000000" stroke-width="2" stroke-linecap="butt"/><path d="M151.94588,99.46018v-11.32232h183.54069v11.32232z" fill="url(#color-19)" stroke="#000000" stroke-width="2" stroke-linecap="butt"/><path d="M161.03463,262.78387v-21.38886h165.35236v21.38886z" fill="url(#color-20)" stroke="none" stroke-width="0" stroke-linecap="butt"/><path d="M12.19841,87.26565v-14.30187l69.12571,11.12368v7.94548z" fill="url(#color-21)" stroke="#000000" stroke-width="2" stroke-linecap="butt"/><path d="M395.40346,92.26564v-7.94549l69.12571,-11.12367v14.30187z" data-paper-data="{&quot;index&quot;:null}" fill="url(#color-22)" stroke="#000000" stroke-width="2" stroke-linecap="butt"/><path d="M-35.5,47.00003v-1h8v1z" fill="url(#color-23)" stroke="#000000" stroke-width="2" stroke-linecap="butt"/><path d="M149,82.46886v-17h91v17z" fill="url(#color-24)" stroke="#000000" stroke-width="2" stroke-linecap="butt"/><path d="M299.2521,241.51538v-49.06598h22.87479v49.06598z" fill="url(#color-25)" stroke="none" stroke-width="0" stroke-linecap="butt"/><path d="M147,88.46886v23l-6,7l-9,3l-10,-8l-3,-13l2,-37" fill="none" stroke="url(#color-26)" stroke-width="12.5" stroke-linecap="round"/><path d="M341,69.46886l-1,30l2,16l1,15l-3,21" fill="none" stroke="url(#color-27)" stroke-width="12.5" stroke-linecap="round"/><path d="M160.98158,241.48816v-12.92923h32.82035v12.92923z" fill="url(#color-28)" stroke="none" stroke-width="0" stroke-linecap="butt"/><path d="M160.81676,190.93882v-8.107h165.35236v8.107z" fill="url(#color-29)" stroke="none" stroke-width="0" stroke-linecap="butt"/><path d="M262.45329,73.77674c0,8.44517 -20.80698,15.29134 -46.47369,15.29134c-25.66671,0 -46.47369,-6.84617 -46.47369,-15.29134c0,-8.44517 20.80698,-15.29134 46.47369,-15.29134c25.66671,0 46.47369,6.84617 46.47369,15.29134z" fill="url(#color-30)" stroke="none" stroke-width="0" stroke-linecap="butt"/><path d="M293.28476,241.51538v-12.92923h32.82035v12.92923z" fill="url(#color-31)" stroke="none" stroke-width="0" stroke-linecap="butt"/><path d="M-18.5,347v-334h517v334z" fill="url(#color-32)" stroke="#000000" stroke-width="2" stroke-linecap="butt"/><path d="M98,68.46886v41l-4,19l-14,17l-12,1l-10,-8l-5,-11l-10,-19l-7,-31l-4,-35" fill="url(#color-33)" stroke="url(#color-34)" stroke-width="12.5" stroke-linecap="round"/><path d="M48,162.46885l-2,-22l3,-38v-43" fill="none" stroke="url(#color-35)" stroke-width="12.5" stroke-linecap="round"/><path d="M452,80.46886l-3,11l-12,13l-12,9l-19,3l-16,-12l-9,-15l-4,-24" fill="none" stroke="url(#color-36)" stroke-width="12.5" stroke-linecap="round"/><path d="M468.5,5.5v349h-457v-349z" data-paper-data="{&quot;index&quot;:null}" fill="url(#color-37)" stroke="none" stroke-width="0" stroke-linecap="butt"/><path d="M181,74.41331c0,12.24232 -9.40203,22.16666 -21,22.16666c-11.59797,0 -21,-9.92434 -21,-22.16666c0,-12.24232 9.40203,-22.16666 21,-22.16666c11.59797,0 21,9.92434 21,22.16667z" fill="url(#color-38)" stroke="none" stroke-width="0" stroke-linecap="butt"/><path d="M165.94762,75.59187c0,3.03757 -2.46243,5.5 -5.5,5.5c-3.03757,0 -5.5,-2.46243 -5.5,-5.5c0,-3.03757 2.46243,-5.5 5.5,-5.5c3.03757,0 5.5,2.46243 5.5,5.5z" fill="#ff0000" stroke="none" stroke-width="0" stroke-linecap="butt"/><path d="M161.17735,147.9987v-46.52984h165v46.52984z" fill="url(#color-39)" stroke="#000000" stroke-width="0" stroke-linecap="butt"/><path d="M154.34284,89.75401l29.0421,-0.67539" fill="none" stroke="#a50101" stroke-width="0.5" stroke-linecap="round"/><path d="M131.37933,115.41911l-4.05239,-4.72778l-2.0262,-9.45557l2.0262,-28.3667l-0.6754,-18.91113" fill="none" stroke="#a50101" stroke-width="0.5" stroke-linecap="round"/><path d="M103.68802,66.11508l-0.67539,31.74369l-0.6754,24.31431l-6.75397,14.85875" fill="none" stroke="#a50101" stroke-width="0.5" stroke-linecap="round"/><path d="M98.70442,2.60636l36.36386,0.74212" fill="none" stroke="none" stroke-width="0" stroke-linecap="round"/><path d="M140.85612,87.80025l6.59627,-6.59627l9.59457,-1.19932h8.39525" fill="none" stroke="#ff0000" stroke-width="0.5" stroke-linecap="round"/><path d="M54.00983,53.61961l2.39864,29.98302l-1.19932,29.98302" fill="none" stroke="#ff0000" stroke-width="0.5" stroke-linecap="round"/><path d="M133.16501,62.06563l1.19932,5.94583l-0.59966,22.7871l-1.79898,17.39015l-0.59966,3.59796" fill="none" stroke="#ff0000" stroke-width="0.5" stroke-linecap="round"/><path d="M55.26206,164.45532l-2.59397,-26.58816l1.29698,-19.45475l1.94548,-21.40023" fill="none" stroke="#454545" stroke-width="0.5" stroke-linecap="round"/><path d="M101.95346,115.81843v7.7819l-8.43039,16.86079l-10.37587,11.02436l-11.02436,1.94547" fill="none" stroke="#919191" stroke-width="0.5" stroke-linecap="round"/><path d="M149.94184,102.8486l-1.94547,19.45475l-11.67285,4.53944l-4.53944,-0.64849" fill="none" stroke="#707070" stroke-width="0.5" stroke-linecap="round"/><path d="M151.23882,133.97619l-9.72737,7.7819l-7.13341,0.64849" fill="none" stroke="#454545" stroke-width="0.5" stroke-linecap="round"/><path d="M161.61263,105.51245v-17.66302h164.3982v17.66302z" fill="url(#color-40)" stroke="none" stroke-width="0" stroke-linecap="butt"/><path d="M323.89628,103.25905l-160.31288,-0.72628" fill="none" stroke="#ffffff" stroke-width="4" stroke-linecap="round"/><text transform="translate(161.72662,256.63056) scale(0.32527,0.32527)" font-size="40" xml:space="preserve" fill="#000000" fill-rule="nonzero" stroke="none" stroke-width="1" stroke-linecap="butt" stroke-linejoin="miter" stroke-miterlimit="10" stroke-dasharray="" stroke-dashoffset="0" font-family="Pixel" font-weight="normal" text-anchor="start" style="mix-blend-mode: normal"><tspan x="0" dy="0">900LBS</tspan></text><path d="M277.68032,263.64059v-22.0969h6.16658v22.0969z" fill="#000000" stroke="none" stroke-width="0" stroke-linecap="butt"/><path d="M290.48783,262.88954v-21.34585h5.69223v21.34585z" fill="#000000" stroke="none" stroke-width="0" stroke-linecap="butt"/><path d="M334.04893,93.1447l2.65811,11.69568l-0.53162,24.45462l-2.65811,23.39137l2.65811,4.24442" fill="none" stroke="#b3b3b3" stroke-width="0.5" stroke-linecap="round"/><path d="M418.4928,121.75717l-7.98398,2.15252h-5.31622l-7.44271,-3.18973l-5.84784,-5.31622l-6.91109,-6.37946l-10.10082,-19.1384l-1.06324,-16.48028" fill="none" stroke="#9b9b9b" stroke-width="0.5" stroke-linecap="round"/><path d="M7.54298,278.91701l30.05671,-5.63304l74.47927,0.6813l-80.65473,20.34541c0,0 -24.29502,-3.12702 -30.94169,-8.70489c-1.99172,-1.67145 7.06046,-6.68878 7.06046,-6.68878z" fill="url(#color-41)" stroke="none" stroke-width="0" stroke-linecap="butt"/><g><g><path d="M94.69638,279.65654c0,0 -1.9395,-44.5653 -2.62125,-60.00249c-0.43612,-9.87515 -1.07265,-24.28839 -1.07265,-24.28839l72.03112,8.31128l1.84695,62.40219z" fill="#383838" stroke="none" stroke-width="0" stroke-linecap="butt"/><path d="M121.89843,331.86753l0.93072,-46.53626l4.65363,-5.58435l8.37653,-3.7229l20.47596,-2.79218l8.37653,1.86145" fill="none" stroke="#000000" stroke-width="5" stroke-linecap="round"/><path d="M65.01936,272.29523l-3.79319,-52.31375l30.69979,-15.77524l4.61738,74.80155z" fill="url(#color-42)" stroke="none" stroke-width="0" stroke-linecap="butt"/><path d="M87.18278,279.35528l-3.56811,-80.26625l8.86074,-3.56811l3.89248,84.48311z" fill="#242424" stroke="none" stroke-width="0" stroke-linecap="butt"/><path d="M139.44011,288.28882l61.57533,-24.32606h191.5677c0,0 42.71313,10.38974 45.1477,11.66321c7.37318,3.85674 36.95274,14.18323 36.95274,14.18323z" fill="url(#color-43)" stroke="none" stroke-width="0" stroke-linecap="butt"/><path d="M146.98509,287.27046v-3.96047h159.73891v3.96047z" fill="#000000" stroke="none" stroke-width="0" stroke-linecap="butt"/><path d="M172.96976,235.48211c0,26.21369 -20.20794,47.46408 -45.13569,47.46408c-24.92776,0 -45.13568,-21.25039 -45.13568,-47.46408c0,-26.21368 20.20793,-47.46408 45.13568,-47.46408c24.92775,0 45.13569,21.25039 45.13569,47.46408z" fill="url(#color-44)" stroke="none" stroke-width="0" stroke-linecap="butt"/><path d="M380.48219,281.72141c0,3.41402 -13.18686,6.18164 -29.45367,6.18164c-16.26681,0 -29.45367,-2.76762 -29.45367,-6.18164c0,-3.41402 13.18686,-6.18163 29.45367,-6.18163c16.26681,0 29.45367,2.76761 29.45367,6.18163z" fill="url(#color-45)" stroke="none" stroke-width="0" stroke-linecap="butt"/><path d="M322.00433,333.72897l-0.93072,-45.60553l-11.1687,-2.79217l-0.93072,-7.44581l8.37653,-1.86145" fill="none" stroke="#000000" stroke-width="5" stroke-linecap="round"/><path d="M314.40844,276.058c0,-4.52625 5.98667,-8.19551 13.37161,-8.19551c7.38494,0 13.37161,3.66926 13.37161,8.19551c0,3.14303 1.47678,5.87282 -2.76031,7.24773c-1.86471,0.60509 -5.44546,2.40227 -7.7023,2.40227c-2.28913,0 -10.26191,-1.07981 -12.14568,-1.70115c-4.19346,-1.38317 -4.13494,-4.82561 -4.13494,-7.94885z" fill="url(#color-46)" stroke="none" stroke-width="0" stroke-linecap="butt"/><path d="M146.93124,282.39419l10.41545,-9.15072l141.91961,-0.01823l9.11352,9.15072z" fill="url(#color-47)" stroke="none" stroke-width="0" stroke-linecap="butt"/><path d="M308.52325,289.92399l-5.01277,-14.89523l28.25354,3.50894l1.00255,11.88757z" fill="url(#color-48)" stroke="none" stroke-width="0" stroke-linecap="butt"/></g><path d="M104.61968,269.78163c0,0 -3.22874,-2.7679 -4.06156,-11.0123c-1.45756,-14.42904 -1.90298,-37.64344 -2.24962,-45.49262c-0.34845,-7.89004 3.35983,-8.05286 3.35983,-8.05286c0,0 22.12868,-0.67025 32.1481,0.33339c8.63268,0.86473 24.43021,5.33403 24.43021,5.33403c0,0 1.60911,0.96298 2.93866,5.52465c1.36403,4.67999 2.77523,15.60641 2.89465,19.64106c0.04975,1.68076 -0.69183,10.83572 -1.64028,17.14434c-0.7463,4.96403 -2.71735,7.54806 -2.71735,7.54806c0,0 -2.54323,1.27745 -6.89825,2.22163c-4.33929,0.94077 -10.52558,3.076 -16.51027,4.21875c-9.91905,1.894 -19.85098,2.76169 -24.07113,3.45344c-4.00771,0.65693 -7.62297,-0.86157 -7.62297,-0.86157z" fill="#ffffff" stroke="none" stroke-width="0" stroke-linecap="butt"/><path d="M146.7554,282.97854l10.41545,-9.15072l141.91961,-0.01823l9.11352,9.15072z" fill="url(#color-49)" stroke="none" stroke-width="0" stroke-linecap="butt"/></g></g></g></svg>