<svg version="1.1" xmlns="http://www.w3.org/2000/svg" xmlns:xlink="http://www.w3.org/1999/xlink" width="554" height="494.2959" viewBox="0,0,554,494.2959"><defs><linearGradient x1="240.81243" y1="287.80259" x2="240.81243" y2="543.61111" gradientUnits="userSpaceOnUse" id="color-1"><stop offset="0" stop-color="#2f1c13"/><stop offset="1" stop-color="#3b2117"/></linearGradient></defs><g transform="translate(43.5,-50.31521)"><g data-paper-data="{&quot;isPaintingLayer&quot;:true}" fill-rule="nonzero" stroke-linecap="butt" stroke-linejoin="miter" stroke-miterlimit="10" stroke-dasharray="" stroke-dashoffset="0" style="mix-blend-mode: normal"><path d="M-43.5,359v-107h554v107z" fill="#550000" stroke="none" stroke-width="0"/><path d="M90.5,262.5v-198h299v198z" fill="#373e46" stroke="#000000" stroke-width="2"/><path d="M391.5,262.5v-198l76,-13l1,257z" fill="#373e46" stroke="#000000" stroke-width="2"/><path d="M11.5,308.5l1,-257l76,13v198z" data-paper-data="{&quot;index&quot;:null}" fill="#373e46" stroke="#000000" stroke-width="2"/><path d="M152.5,263v-166h175v166z" fill="#000000" stroke="none" stroke-width="0"/><path d="M13.94114,543.61111v-255.80852h453.74258v255.80852z" fill="url(#color-1)" stroke="#000000" stroke-width="2"/><path d="M13.86787,287.71046l73,-20.32157h303.19099l80,20.32157z" fill="#56341b" stroke="#000000" stroke-width="2"/><path d="M14.86787,307.71046v-18.32157h456.19099v18.32157c0,0 -308.51759,0 -385.55886,0c-32.97457,0 -70.63213,0 -70.63213,0z" fill="#875336" stroke="#000000" stroke-width="2"/></g></g></svg>