<svg version="1.1" xmlns="http://www.w3.org/2000/svg" xmlns:xlink="http://www.w3.org/1999/xlink" width="680.97214" height="375.57184" viewBox="0,0,680.97214,375.57184"><defs><radialGradient cx="240.51646" cy="183.77085" r="340.48607" gradientUnits="userSpaceOnUse" id="color-1"><stop offset="0" stop-color="#434b4a"/><stop offset="1" stop-color="#434b4a" stop-opacity="0"/></radialGradient><radialGradient cx="240.00006" cy="180.62789" r="261.625" gradientUnits="userSpaceOnUse" id="color-2"><stop offset="0" stop-color="#b1c6c4"/><stop offset="1" stop-color="#b1c6c4" stop-opacity="0"/></radialGradient><radialGradient cx="236.2327" cy="181.25579" r="158.85719" gradientUnits="userSpaceOnUse" id="color-3"><stop offset="0" stop-color="#91a2a3"/><stop offset="1" stop-color="#373c3e"/></radialGradient><radialGradient cx="221.16325" cy="186.27894" r="120.5863" gradientUnits="userSpaceOnUse" id="color-4"><stop offset="0" stop-color="#859395"/><stop offset="1" stop-color="#272b2c"/></radialGradient><radialGradient cx="214.88429" cy="185.02315" r="99.83515" gradientUnits="userSpaceOnUse" id="color-5"><stop offset="0" stop-color="#606565"/><stop offset="1" stop-color="#2e3030"/></radialGradient><radialGradient cx="203.58224" cy="185.02315" r="76.25294" gradientUnits="userSpaceOnUse" id="color-6"><stop offset="0" stop-color="#595e5e"/><stop offset="1" stop-color="#333636"/></radialGradient><radialGradient cx="192.90802" cy="187.53473" r="57.4109" gradientUnits="userSpaceOnUse" id="color-7"><stop offset="0" stop-color="#4a4a4a"/><stop offset="1" stop-color="#2e2e2e"/></radialGradient><radialGradient cx="187.96412" cy="194.60243" r="41.33275" gradientUnits="userSpaceOnUse" id="color-8"><stop offset="0" stop-color="#0d0d0d"/><stop offset="1" stop-color="#000000"/></radialGradient><linearGradient x1="251.60912" y1="227.27029" x2="400.58603" y2="229.89313" gradientUnits="userSpaceOnUse" id="color-9"><stop offset="0" stop-color="#000000"/><stop offset="1" stop-color="#000000" stop-opacity="0"/></linearGradient><linearGradient x1="137.96213" y1="230.56598" x2="78.19809" y2="233.17601" gradientUnits="userSpaceOnUse" id="color-10"><stop offset="0" stop-color="#000000"/><stop offset="1" stop-color="#000000" stop-opacity="0"/></linearGradient><radialGradient cx="233.60037" cy="60.33125" r="161" gradientUnits="userSpaceOnUse" id="color-11"><stop offset="0" stop-color="#939393"/><stop offset="1" stop-color="#434343"/></radialGradient><linearGradient x1="248.09757" y1="206.20516" x2="248.09757" y2="313.05838" gradientUnits="userSpaceOnUse" id="color-12"><stop offset="0" stop-color="#000000"/><stop offset="1" stop-color="#000000" stop-opacity="0"/></linearGradient><linearGradient x1="179.91079" y1="212.69623" x2="192.61446" y2="329.52599" gradientUnits="userSpaceOnUse" id="color-13"><stop offset="0" stop-color="#000000"/><stop offset="1" stop-color="#000000" stop-opacity="0"/></linearGradient><radialGradient cx="62.60037" cy="168.83125" r="131.5" gradientUnits="userSpaceOnUse" id="color-14"><stop offset="0" stop-color="#939393"/><stop offset="1" stop-color="#434343"/></radialGradient><radialGradient cx="401.60037" cy="175.33125" r="108.50143" gradientUnits="userSpaceOnUse" id="color-15"><stop offset="0" stop-color="#939393"/><stop offset="1" stop-color="#434343"/></radialGradient><radialGradient cx="236.60037" cy="286.33125" r="161" gradientUnits="userSpaceOnUse" id="color-16"><stop offset="0" stop-color="#939393"/><stop offset="1" stop-color="#434343"/></radialGradient><radialGradient cx="67.09757" cy="287.08171" r="12" gradientUnits="userSpaceOnUse" id="color-17"><stop offset="0" stop-color="#acacac"/><stop offset="1" stop-color="#000000"/></radialGradient><radialGradient cx="72.09757" cy="287.08171" r="12" gradientUnits="userSpaceOnUse" id="color-18"><stop offset="0" stop-color="#acacac"/><stop offset="1" stop-color="#000000"/></radialGradient><radialGradient cx="65.09757" cy="49.08171" r="12" gradientUnits="userSpaceOnUse" id="color-19"><stop offset="0" stop-color="#acacac"/><stop offset="1" stop-color="#000000"/></radialGradient><radialGradient cx="70.09757" cy="49.08171" r="12" gradientUnits="userSpaceOnUse" id="color-20"><stop offset="0" stop-color="#acacac"/><stop offset="1" stop-color="#000000"/></radialGradient><radialGradient cx="400.09757" cy="73.08171" r="12" gradientUnits="userSpaceOnUse" id="color-21"><stop offset="0" stop-color="#acacac"/><stop offset="1" stop-color="#000000"/></radialGradient><radialGradient cx="405.09757" cy="73.08171" r="12" gradientUnits="userSpaceOnUse" id="color-22"><stop offset="0" stop-color="#acacac"/><stop offset="1" stop-color="#000000"/></radialGradient><radialGradient cx="401.09757" cy="276.08171" r="12" gradientUnits="userSpaceOnUse" id="color-23"><stop offset="0" stop-color="#acacac"/><stop offset="1" stop-color="#000000"/></radialGradient><radialGradient cx="406.09757" cy="276.08171" r="12" gradientUnits="userSpaceOnUse" id="color-24"><stop offset="0" stop-color="#acacac"/><stop offset="1" stop-color="#000000"/></radialGradient><linearGradient x1="247.64773" y1="177.74838" x2="247.64773" y2="50.93356" gradientUnits="userSpaceOnUse" id="color-25"><stop offset="0" stop-color="#000000"/><stop offset="1" stop-color="#000000" stop-opacity="0"/></linearGradient><linearGradient x1="183.79968" y1="173.41488" x2="196.50335" y2="56.58512" gradientUnits="userSpaceOnUse" id="color-26"><stop offset="0" stop-color="#000000"/><stop offset="1" stop-color="#000000" stop-opacity="0"/></linearGradient></defs><g transform="translate(99.96962,5.69681)"><g data-paper-data="{&quot;isPaintingLayer&quot;:true}" fill-rule="nonzero" stroke-width="0" stroke-linecap="butt" stroke-linejoin="miter" stroke-miterlimit="10" stroke-dasharray="" stroke-dashoffset="0" style="mix-blend-mode: normal"><path d="M-99.96962,369.87503v-372.20837h680.97214v372.20837z" fill="url(#color-1)" stroke="none"/><path d="M-21.62492,366.95258v-372.64938h523.25v372.64938z" fill="url(#color-2)" stroke="#000000"/><path d="M78.63132,295.93305l-1.25579,-229.35453l317.71438,16.32524l-3.76736,202.98298z" fill="url(#color-3)" stroke="#3f3f3f"/><path d="M101.53021,273.32887l-0.95325,-174.09986l241.1726,12.39227l-2.85975,154.08157z" fill="url(#color-4)" stroke="none"/><path d="M115.83837,257.09305l-0.78921,-144.1398l199.6703,10.25974l-2.36763,127.56638z" fill="url(#color-5)" stroke="#000000"/><path d="M127.93208,238.25623l-0.60278,-106.46616l152.50587,7.57816l-1.80836,94.22451z" fill="url(#color-6)" stroke="none"/><path d="M135.95093,223.08652l-0.45384,-71.10359l114.8218,5.06109l-1.36153,62.92798z" fill="url(#color-7)" stroke="#000000"/><path d="M146.9581,217.75433l-0.32674,-46.3038l82.66552,3.29586l-0.98022,40.97972z" fill="url(#color-8)" stroke="#000000"/><path d="M390.57931,287.87546l-162.97691,-72.62283l1.01346,-46.96467l165.97691,-85.37717z" data-paper-data="{&quot;index&quot;:null}" fill="url(#color-9)" stroke="none"/><path d="M77.60237,67.91079l69.58381,103.96062l0.40656,46.73554l-68.38032,77.26852z" data-paper-data="{&quot;index&quot;:null}" fill="url(#color-10)" stroke="none"/><path d="M70.60035,65.61696l2,-28.28572l319,23l3,23z" fill="url(#color-11)" stroke="none"/><g stroke="none"><path d="M78.09757,296.08171l70,-78.89164l82,-1.99725l157,70.9026z" fill="url(#color-12)"/><path d="M348.30844,268.21833c0,0 -3.17126,0.06599 -7.36325,0.15323c-24.51407,0.51013 -251.80247,5.23988 -251.80247,5.23988l52.85188,-59.05198l83.61016,-1.50422z" data-paper-data="{&quot;index&quot;:null}" fill="url(#color-13)"/></g><path d="M47.60037,300.33125v-263h30v263z" fill="url(#color-14)" stroke="none"/><path d="M387.87303,289.10691l3.45773,-227.95309l19.99696,0.40178c0,0 -0.0639,5.89994 -0.13772,12.71707c-0.303,27.98041 -2.32001,214.23603 -2.32001,214.23603z" fill="url(#color-15)" stroke="none"/><path d="M77.60035,300.61696l3,-24.28571l309,-7l-1,21z" fill="url(#color-16)" stroke="none"/><path d="M78.09757,287.08171c0,6.62741 -4.92487,12 -11,12c-6.07513,0 -11,-5.37259 -11,-12c0,-6.62741 4.92487,-12 11,-12c6.07513,0 11,5.37259 11,12z" fill="url(#color-17)" stroke="none"/><path d="M83.09757,287.08171c0,6.62741 -4.92487,12 -11,12c-6.07513,0 -11,-5.37259 -11,-12c0,-6.62741 4.92487,-12 11,-12c6.07513,0 11,5.37259 11,12z" fill="url(#color-18)" stroke="none"/><path d="M76.09757,49.08171c0,6.62741 -4.92487,12 -11,12c-6.07513,0 -11,-5.37259 -11,-12c0,-6.62741 4.92487,-12 11,-12c6.07513,0 11,5.37259 11,12z" fill="url(#color-19)" stroke="none"/><path d="M81.09757,49.08171c0,6.62741 -4.92487,12 -11,12c-6.07513,0 -11,-5.37259 -11,-12c0,-6.62741 4.92487,-12 11,-12c6.07513,0 11,5.37259 11,12z" fill="url(#color-20)" stroke="none"/><path d="M411.09757,73.08171c0,6.62741 -4.92487,12 -11,12c-6.07513,0 -11,-5.37259 -11,-12c0,-6.62741 4.92487,-12 11,-12c6.07513,0 11,5.37259 11,12z" fill="url(#color-21)" stroke="none"/><path d="M416.09757,73.08171c0,6.62741 -4.92487,12 -11,12c-6.07513,0 -11,-5.37259 -11,-12c0,-6.62741 4.92487,-12 11,-12c6.07513,0 11,5.37259 11,12z" fill="url(#color-22)" stroke="none"/><path d="M412.09757,276.08171c0,6.62741 -4.92487,12 -11,12c-6.07513,0 -11,-5.37259 -11,-12c0,-6.62741 4.92487,-12 11,-12c6.07513,0 11,5.37259 11,12z" fill="url(#color-23)" stroke="none"/><path d="M417.09757,276.08171c0,6.62741 -4.92487,12 -11,12c-6.07513,0 -11,-5.37259 -11,-12c0,-6.62741 4.92487,-12 11,-12c6.07513,0 11,5.37259 11,12z" fill="url(#color-24)" stroke="none"/><g stroke="none"><path d="M391.09759,82.93356l-162.50809,92.14815l-80.26537,-1.37037l-78.3694,-108.77249z" data-paper-data="{&quot;index&quot;:null}" fill="url(#color-25)"/><path d="M229.49365,173.05588l-83.61016,-1.50422l-65.62966,-100.16309l303.05461,16.50422z" fill="url(#color-26)"/></g></g></g></svg>