<svg version="1.1" xmlns="http://www.w3.org/2000/svg" xmlns:xlink="http://www.w3.org/1999/xlink" width="680.97214" height="373.90517" viewBox="0,0,680.97214,373.90517"><defs><radialGradient cx="243.84981" cy="182.1042" r="340.48607" gradientUnits="userSpaceOnUse" id="color-1"><stop offset="0" stop-color="#434b4a"/><stop offset="1" stop-color="#434b4a" stop-opacity="0"/></radialGradient><radialGradient cx="240.00007" cy="180.62792" r="261.625" gradientUnits="userSpaceOnUse" id="color-2"><stop offset="0" stop-color="#b1c6c4"/><stop offset="1" stop-color="#b1c6c4" stop-opacity="0"/></radialGradient><radialGradient cx="236.23272" cy="181.2558" r="158.85719" gradientUnits="userSpaceOnUse" id="color-3"><stop offset="0" stop-color="#91a2a3"/><stop offset="1" stop-color="#373c3e"/></radialGradient><radialGradient cx="221.16326" cy="186.27897" r="120.5863" gradientUnits="userSpaceOnUse" id="color-4"><stop offset="0" stop-color="#859395"/><stop offset="1" stop-color="#272b2c"/></radialGradient><radialGradient cx="214.88431" cy="185.02316" r="99.83515" gradientUnits="userSpaceOnUse" id="color-5"><stop offset="0" stop-color="#606565"/><stop offset="1" stop-color="#2e3030"/></radialGradient><radialGradient cx="203.58225" cy="185.02316" r="76.25294" gradientUnits="userSpaceOnUse" id="color-6"><stop offset="0" stop-color="#595e5e"/><stop offset="1" stop-color="#333636"/></radialGradient><radialGradient cx="192.90804" cy="187.53476" r="57.4109" gradientUnits="userSpaceOnUse" id="color-7"><stop offset="0" stop-color="#4a4a4a"/><stop offset="1" stop-color="#2e2e2e"/></radialGradient><radialGradient cx="187.13079" cy="189.32467" r="41.61053" gradientUnits="userSpaceOnUse" id="color-8"><stop offset="0" stop-color="#0d0d0d"/><stop offset="1" stop-color="#000000"/></radialGradient><linearGradient x1="248.09758" y1="204.9706" x2="248.09758" y2="313.2916" gradientUnits="userSpaceOnUse" id="color-9"><stop offset="0" stop-color="#000000"/><stop offset="1" stop-color="#000000" stop-opacity="0"/></linearGradient><linearGradient x1="251.60913" y1="227.2703" x2="400.58605" y2="229.89315" gradientUnits="userSpaceOnUse" id="color-10"><stop offset="0" stop-color="#000000"/><stop offset="1" stop-color="#000000" stop-opacity="0"/></linearGradient><linearGradient x1="137.96213" y1="230.56601" x2="78.19809" y2="233.17603" gradientUnits="userSpaceOnUse" id="color-11"><stop offset="0" stop-color="#000000"/><stop offset="1" stop-color="#000000" stop-opacity="0"/></linearGradient><linearGradient x1="247.64775" y1="177.74841" x2="247.64775" y2="50.93358" gradientUnits="userSpaceOnUse" id="color-12"><stop offset="0" stop-color="#000000"/><stop offset="1" stop-color="#000000" stop-opacity="0"/></linearGradient><radialGradient cx="232.48562" cy="158.02257" r="49.6239" gradientUnits="userSpaceOnUse" id="color-13"><stop offset="0" stop-color="#ffffff"/><stop offset="1" stop-color="#a7a7a7"/></radialGradient><linearGradient x1="230.90349" y1="153.48298" x2="236.7804" y2="165.88597" gradientUnits="userSpaceOnUse" id="color-14"><stop offset="0" stop-color="#000000"/><stop offset="1" stop-color="#2a1200"/></linearGradient><radialGradient cx="233.60039" cy="60.33127" r="161" gradientUnits="userSpaceOnUse" id="color-15"><stop offset="0" stop-color="#939393"/><stop offset="1" stop-color="#434343"/></radialGradient><radialGradient cx="62.60038" cy="168.83127" r="131.5" gradientUnits="userSpaceOnUse" id="color-16"><stop offset="0" stop-color="#939393"/><stop offset="1" stop-color="#434343"/></radialGradient><radialGradient cx="401.60041" cy="175.33127" r="108.50143" gradientUnits="userSpaceOnUse" id="color-17"><stop offset="0" stop-color="#939393"/><stop offset="1" stop-color="#434343"/></radialGradient><radialGradient cx="236.60039" cy="286.33127" r="161" gradientUnits="userSpaceOnUse" id="color-18"><stop offset="0" stop-color="#939393"/><stop offset="1" stop-color="#434343"/></radialGradient><radialGradient cx="67.09758" cy="287.08173" r="12" gradientUnits="userSpaceOnUse" id="color-19"><stop offset="0" stop-color="#acacac"/><stop offset="1" stop-color="#000000"/></radialGradient><radialGradient cx="72.09758" cy="287.08173" r="12" gradientUnits="userSpaceOnUse" id="color-20"><stop offset="0" stop-color="#acacac"/><stop offset="1" stop-color="#000000"/></radialGradient><radialGradient cx="65.09758" cy="49.08172" r="12" gradientUnits="userSpaceOnUse" id="color-21"><stop offset="0" stop-color="#acacac"/><stop offset="1" stop-color="#000000"/></radialGradient><radialGradient cx="70.09758" cy="49.08172" r="12" gradientUnits="userSpaceOnUse" id="color-22"><stop offset="0" stop-color="#acacac"/><stop offset="1" stop-color="#000000"/></radialGradient><radialGradient cx="400.09759" cy="73.08173" r="12" gradientUnits="userSpaceOnUse" id="color-23"><stop offset="0" stop-color="#acacac"/><stop offset="1" stop-color="#000000"/></radialGradient><radialGradient cx="405.09759" cy="73.08173" r="12" gradientUnits="userSpaceOnUse" id="color-24"><stop offset="0" stop-color="#acacac"/><stop offset="1" stop-color="#000000"/></radialGradient><radialGradient cx="401.09759" cy="276.08173" r="12" gradientUnits="userSpaceOnUse" id="color-25"><stop offset="0" stop-color="#acacac"/><stop offset="1" stop-color="#000000"/></radialGradient><radialGradient cx="406.09759" cy="276.08173" r="12" gradientUnits="userSpaceOnUse" id="color-26"><stop offset="0" stop-color="#acacac"/><stop offset="1" stop-color="#000000"/></radialGradient></defs><g transform="translate(96.63627,5.69677)"><g data-paper-data="{&quot;isPaintingLayer&quot;:true}" fill-rule="nonzero" stroke-linejoin="miter" stroke-miterlimit="10" stroke-dasharray="" stroke-dashoffset="0" style="mix-blend-mode: normal"><path d="M-96.63626,368.2084v-372.20837h680.97214v372.20837z" fill="url(#color-1)" stroke="none" stroke-width="0" stroke-linecap="butt"/><path d="M-21.62491,366.95261v-372.64938h523.25v372.64938z" fill="url(#color-2)" stroke="#000000" stroke-width="0" stroke-linecap="butt"/><path d="M78.63133,295.93307l-1.25579,-229.35453l317.71438,16.32524l-3.76736,202.98298z" fill="url(#color-3)" stroke="#3f3f3f" stroke-width="0" stroke-linecap="butt"/><path d="M101.53022,273.3289l-0.95325,-174.09986l241.1726,12.39227l-2.85975,154.08157z" fill="url(#color-4)" stroke="none" stroke-width="0" stroke-linecap="butt"/><path d="M115.83838,257.09308l-0.78921,-144.1398l199.6703,10.25974l-2.36763,127.56638z" fill="url(#color-5)" stroke="#000000" stroke-width="0" stroke-linecap="butt"/><path d="M127.9321,238.25624l-0.60278,-106.46616l152.50587,7.57816l-1.80836,94.22451z" fill="url(#color-6)" stroke="none" stroke-width="0" stroke-linecap="butt"/><path d="M135.95093,223.08655l-0.45384,-71.10359l114.8218,5.06109l-1.36153,62.92798z" fill="url(#color-7)" stroke="#000000" stroke-width="0" stroke-linecap="butt"/><path d="M145.8492,216.64324l-0.32893,-54.63714l83.22107,3.88902l-0.98681,48.35487z" fill="url(#color-8)" stroke="#000000" stroke-width="0" stroke-linecap="butt"/><path d="M78.09758,296.08173l70,-79.97531l82,-2.02469l157,71.87654z" fill="url(#color-9)" stroke="none" stroke-width="0" stroke-linecap="butt"/><path d="M390.57934,287.87548l-162.97691,-72.62283l1.01346,-46.96467l165.97691,-85.37717z" data-paper-data="{&quot;index&quot;:null}" fill="url(#color-10)" stroke="none" stroke-width="0" stroke-linecap="butt"/><path d="M77.60237,67.9108l69.58381,103.96062l0.40656,46.73554l-68.38032,77.26852z" data-paper-data="{&quot;index&quot;:null}" fill="url(#color-11)" stroke="none" stroke-width="0" stroke-linecap="butt"/><path d="M391.09761,82.93357l-162.50809,92.14815l-80.26537,-1.37037l-71.22654,-106.62963z" data-paper-data="{&quot;index&quot;:null}" fill="url(#color-12)" stroke="none" stroke-width="0" stroke-linecap="butt"/><path d="M159.70411,198.85671c-43.70473,-38.23092 -1.11836,-63.85427 -1.11836,-63.85427l156.01742,25.08201c0,0 30.48955,31.50269 3.67296,67.50372c-24.23784,23.89988 -137.28507,-10.11058 -158.57203,-28.73145z" fill="#000000" stroke="none" stroke-width="0" stroke-linecap="butt"/><path d="M220.80665,164.74119c-0.83781,1.63999 -2.65656,2.38733 -4.06227,1.66921c-1.40571,-0.71812 -1.8661,-2.62979 -1.02829,-4.26978c0.83781,-1.63999 2.65656,-2.38733 4.06229,-1.6692c1.40571,0.71812 1.86609,2.62976 1.02828,4.26977z" fill="#000000" stroke="#000000" stroke-width="1.5" stroke-linecap="butt"/><path d="M135.4648,221.14627l32.63415,-38.31215l31.57068,31.39431l-25.70022,28.82361c0,0 -35.16768,15.00562 -41.19166,12.38985c-7.80445,-3.38888 2.68705,-34.29562 2.68705,-34.29562z" fill="#000000" stroke="#000000" stroke-width="0.5" stroke-linecap="butt"/><path d="M297.1029,137.04894c1.29764,3.1427 5.40448,5.79458 6.27317,8.91613c1.89524,6.81038 4.20974,15.88173 3.39432,23.14577c-1.41906,12.64138 -2.69897,28.24458 -2.83081,28.56423c-2.76117,6.69446 -8.72781,36.93533 -38.61623,50.05433c-0.26556,0.08703 -28.65227,1.26264 -45.21357,-6.40081c-13.90777,-6.43557 -33.78485,-21.41335 -43.45746,-32.18997c-3.63377,-4.04852 -5.71424,-6.6305 -7.83363,-11.76336c-1.26086,-3.05363 -2.51681,-14.5392 -3.30668,-17.65332c-8.3245,-32.82003 9.26138,-59.48336 42.13621,-73.0576c35.99415,-14.86222 74.9055,-4.85142 89.4547,30.38462z" fill="#000000" stroke="none" stroke-width="0" stroke-linecap="butt"/><path d="M281.6769,140.91179c1.58362,4.4292 -1.59884,4.55986 -2.83112,9.30956c-3.58877,13.83249 -14.94587,32.43303 -35.18828,39.67051c-19.19879,6.86435 -40.90663,-0.41989 -52.67895,-7.73183c-4.90196,-3.04467 -5.95521,-0.9452 -7.7766,-6.03944c-1.31706,-3.68367 1.56902,-3.20682 2.22504,-7.14485c2.43,-14.58684 14.38198,-34.17944 35.79435,-41.83524c22.8795,-8.18035 43.98925,-1.98917 54.33403,9.51065c1.95036,2.16813 5.13874,1.51186 6.12154,4.26063z" fill="url(#color-13)" stroke="none" stroke-width="0" stroke-linecap="butt"/><path d="M186.84353,177.45416c0.92067,2.22973 5.07136,5.33194 3.5424,5.96325c-1.52895,0.63132 -6.42311,-3.78412 -7.34378,-6.01385c-0.92067,-2.22973 0.01896,-6.0836 1.54791,-6.71491c1.52895,-0.63132 1.33279,4.53579 2.25346,6.76551z" fill="#ba7d7d" stroke="none" stroke-width="0" stroke-linecap="butt"/><path d="M275.54772,136.36218c1.49484,-0.7083 4.83365,0.87482 5.75592,2.82124c0.92227,1.94642 0.63156,7.96196 -0.86329,8.67026c-1.49484,0.7083 -0.79967,-4.01927 -1.72194,-5.96568c-0.92227,-1.94642 -4.66554,-4.81751 -3.1707,-5.52582z" data-paper-data="{&quot;index&quot;:null}" fill="#ba7d7d" stroke="none" stroke-width="0" stroke-linecap="butt"/><path d="M188.24598,200.69559l-4.31138,-7.24055l3.59841,0.34597l4.89321,12.67931z" data-paper-data="{&quot;index&quot;:null}" fill="none" stroke="#640000" stroke-width="6" stroke-linecap="round"/><g fill="#ffffff" stroke="none" stroke-width="0" stroke-linecap="butt"><path d="M244.0542,236.938l-2.89217,-7.91245l6.55043,-2.1976l2.89217,7.91245c0,0 0.11762,4.03779 -2.02028,4.77559c-2.40496,0.82996 -4.53016,-2.57799 -4.53016,-2.57799z"/><path d="M254.56153,237.92396l-3.43142,-9.27985l7.39793,-2.44073l3.43142,9.27985c0,0 0.2086,4.71034 -2.20551,5.53091c-2.71568,0.92307 -5.19241,-3.09018 -5.19241,-3.09018z"/><path d="M264.44892,234.40352l-3.44935,-9.27135l7.23907,-2.36547l3.44935,9.27136c0,0 0.24617,4.69254 -2.11589,5.48845c-2.65713,0.89533 -5.12318,-3.12298 -5.12318,-3.12298z"/><path d="M271.9276,227.62701l-3.13709,-8.27972l6.05586,-1.91607l3.13708,8.27971c0,0 0.32139,4.15437 -1.65402,4.80085c-2.22217,0.72724 -4.40184,-2.88478 -4.40184,-2.88478z"/><path d="M279.45112,222.77266l-3.18284,-8.40049l6.14418,-1.94402l3.18285,8.40049c0,0 0.32607,4.21496 -1.67815,4.87087c-2.25459,0.73784 -4.46605,-2.92686 -4.46605,-2.92686z"/><path d="M285.03671,212.45777l-2.61087,-6.89087l5.04005,-1.59467l2.61086,6.89087c0,0 0.26748,3.45752 -1.37657,3.99555c-1.84942,0.60524 -3.66347,-2.40088 -3.66347,-2.40088z"/><path d="M287.57752,201.19943l-2.45072,-6.46818l4.73089,-1.49685l2.45072,6.46819c0,0 0.25107,3.24543 -1.29214,3.75046c-1.73598,0.56812 -3.43875,-2.25361 -3.43875,-2.25361z"/><path d="M289.609,189.32303l-1.74147,-4.59626l3.36175,-1.06366l1.74147,4.59627c0,0 0.17841,2.30619 -0.91818,2.66506c-1.23358,0.40371 -2.44356,-1.60142 -2.44356,-1.60142z"/><path d="M236.87487,236.39054l-2.61087,-6.89088l5.04005,-1.59466l2.61087,6.89087c0,0 0.26748,3.45752 -1.37658,3.99555c-1.84942,0.60524 -3.66347,-2.40088 -3.66347,-2.40088z"/><path d="M228.48346,234.49803l-2.40496,-6.34741l4.64255,-1.46891l2.40496,6.34742c0,0 0.24639,3.18483 -1.268,3.68043c-1.70356,0.55751 -3.37455,-2.21153 -3.37455,-2.21153z"/><path d="M219.15263,228.79539l-2.01602,-5.32089l3.89174,-1.23134l2.01602,5.32088c0,0 0.20654,2.66977 -1.06294,3.08522c-1.42806,0.46735 -2.8288,-1.85388 -2.8288,-1.85388z"/><path d="M211.95162,223.01894l-1.85586,-4.89819l3.58258,-1.13353l1.85586,4.89819c0,0 0.19013,2.45768 -0.9785,2.84013c-1.31461,0.43023 -2.60408,-1.7066 -2.60408,-1.7066z"/><path d="M205.02471,220.10534l-1.85586,-4.89819l3.58258,-1.13353l1.85586,4.8982c0,0 0.19013,2.45767 -0.9785,2.84013c-1.31461,0.43023 -2.60408,-1.7066 -2.60408,-1.7066z"/><path d="M198.29308,216.23328l-1.85586,-4.89819l3.58258,-1.13352l1.85586,4.89819c0,0 0.19014,2.45767 -0.97849,2.84013c-1.31461,0.43023 -2.60408,-1.7066 -2.60408,-1.7066z"/><path d="M292.38689,182.6769l-1.74147,-4.59626l3.36176,-1.06366l1.74147,4.59627c0,0 0.17841,2.30619 -0.91818,2.66506c-1.23358,0.40371 -2.44357,-1.60141 -2.44357,-1.60141z"/><path d="M295.16479,176.03078l-1.74147,-4.59627l3.36175,-1.06366l1.74147,4.59627c0,0 0.17841,2.30619 -0.91819,2.66506c-1.23358,0.40371 -2.44356,-1.60142 -2.44356,-1.60142z"/></g><g fill="#ffffff" stroke="none" stroke-width="0" stroke-linecap="butt"><path d="M236.48746,220.24232l-2.82091,-7.90828c0,0 -0.8138,-3.74433 2.09296,-4.73588c3.0788,-1.05024 4.30066,2.53061 4.30066,2.53061l2.82091,7.90828z"/><path d="M246.41105,219.89234l-3.31409,-9.29087c0,0 -0.95608,-4.39894 2.45888,-5.56385c3.61706,-1.23385 5.05254,2.97303 5.05254,2.97303l3.31409,9.29088z"/><path d="M256.12165,216.45564l-3.31408,-9.29087c0,0 -0.95608,-4.39893 2.45888,-5.56384c3.61706,-1.23385 5.05254,2.97303 5.05254,2.97303l3.31409,9.29088z"/><path d="M263.53866,210.99269l-2.96778,-8.32002c0,0 -0.85617,-3.93927 2.20194,-4.98245c3.2391,-1.10492 4.52457,2.66236 4.52457,2.66236l2.96778,8.32002z"/><path d="M271.00361,206.00555l-3.01107,-8.44138c0,0 -0.86866,-3.99673 2.23406,-5.05512c3.28634,-1.12104 4.59057,2.70119 4.59057,2.70119l3.01107,8.44138z"/><path d="M277.32156,197.3504l-2.46997,-6.92442c0,0 -0.71256,-3.27849 1.83258,-4.14669c2.69577,-0.91958 3.76563,2.21577 3.76563,2.21577l2.46997,6.92442z"/><path d="M280.06743,186.55678l-2.31846,-6.49967c0,0 -0.66885,-3.07739 1.72017,-3.89234c2.53041,-0.86318 3.53464,2.07986 3.53464,2.07986l2.31846,6.49967z"/><path d="M283.00703,176.73846l-1.64749,-4.61864c0,0 -0.47528,-2.18679 1.22235,-2.76588c1.7981,-0.61337 2.5117,1.47794 2.5117,1.47794l1.64749,4.61864z"/><path d="M229.15971,221.28318l-2.46997,-6.92442c0,0 -0.71256,-3.2785 1.83258,-4.14669c2.69577,-0.91958 3.76562,2.21578 3.76562,2.21578l2.46997,6.92442z"/><path d="M221.03196,219.98815l-2.27517,-6.37831c0,0 -0.65636,-3.01994 1.68805,-3.81966c2.48317,-0.84706 3.46864,2.04102 3.46864,2.04102l2.27517,6.37832z"/><path d="M212.19914,215.41414l-1.90722,-5.34678c0,0 -0.55021,-2.53154 1.41505,-3.20193c2.08157,-0.71007 2.90767,1.71094 2.90767,1.71094l1.90722,5.34679z"/><path d="M205.20318,210.10241l-1.75571,-4.92203c0,0 -0.5065,-2.33043 1.30264,-2.94756c1.91621,-0.65366 2.67669,1.57502 2.67669,1.57502l1.75571,4.92203z"/><path d="M198.27626,207.1888l-1.75571,-4.92203c0,0 -0.5065,-2.33043 1.30264,-2.94756c1.91621,-0.65366 2.67669,1.57503 2.67669,1.57503l1.75571,4.92203z"/><path d="M191.54465,203.31675l-1.75571,-4.92204c0,0 -0.5065,-2.33043 1.30265,-2.94756c1.91621,-0.65366 2.67668,1.57503 2.67668,1.57503l1.75571,4.92203z"/><path d="M285.78493,170.09234l-1.64749,-4.61864c0,0 -0.47528,-2.18678 1.22235,-2.76588c1.7981,-0.61337 2.5117,1.47794 2.5117,1.47794l1.64748,4.61865z"/><path d="M288.56282,163.44619l-1.64748,-4.61864c0,0 -0.47528,-2.18678 1.22234,-2.76588c1.7981,-0.61337 2.5117,1.47794 2.5117,1.47794l1.64749,4.61865z"/></g><g stroke="none" stroke-width="0" stroke-linecap="butt"><path d="M239.60947,157.30301c1.44676,3.50385 0.03739,7.41051 -3.14794,8.72575c-3.18533,1.31524 -6.94037,-0.45898 -8.38714,-3.96284c-1.44676,-3.50385 -0.03739,-7.4105 3.14794,-8.72574c3.18533,-1.31524 6.94037,0.45898 8.38714,3.96283z" fill="url(#color-14)"/><path d="M238.28011,158.0146c1.00671,2.41747 0.08897,5.06976 -2.37219,6.0768c-2.46115,1.00704 -5.27241,-0.13634 -6.27912,-2.55381c-1.00671,-2.41747 0.17237,-5.19359 2.63352,-6.20063c0.98671,-0.40374 1.98768,-0.44192 2.89776,-0.187c1.35995,0.38093 2.51692,1.41637 3.12002,2.86464z" fill="#000000"/></g><path d="M293.98044,157.1503l-2.69597,-5.67538l1.02885,-1.31704l1.05685,3.7498z" data-paper-data="{&quot;index&quot;:null}" fill="none" stroke="#640000" stroke-width="6" stroke-linecap="round"/><g stroke="none" stroke-width="0" stroke-linecap="butt"><path d="M70.60035,65.61696l2,-28.28572l319,23l3,23z" fill="url(#color-15)"/><path d="M47.60038,300.33127v-263h30v263z" fill="url(#color-16)"/><path d="M387.87306,289.10694l3.45773,-227.95309l19.99696,0.40178c0,0 -0.0639,5.89994 -0.13772,12.71707c-0.303,27.98041 -2.32001,214.23603 -2.32001,214.23603z" fill="url(#color-17)"/><path d="M77.60035,300.61699l3,-24.28571l309,-7l-1,21z" fill="url(#color-18)"/><path d="M78.09758,287.08173c0,6.62741 -4.92487,12 -11,12c-6.07513,0 -11,-5.37259 -11,-12c0,-6.62741 4.92487,-12 11,-12c6.07513,0 11,5.37259 11,12z" fill="url(#color-19)"/><path d="M83.09758,287.08173c0,6.62741 -4.92487,12 -11,12c-6.07513,0 -11,-5.37259 -11,-12c0,-6.62741 4.92487,-12 11,-12c6.07513,0 11,5.37259 11,12z" fill="url(#color-20)"/><path d="M76.09758,49.08172c0,6.62741 -4.92487,12 -11,12c-6.07513,0 -11,-5.37259 -11,-12c0,-6.62741 4.92487,-12 11,-12c6.07513,0 11,5.37259 11,12z" fill="url(#color-21)"/><path d="M81.09758,49.08172c0,6.62741 -4.92487,12 -11,12c-6.07513,0 -11,-5.37259 -11,-12c0,-6.62741 4.92487,-12 11,-12c6.07513,0 11,5.37259 11,12z" fill="url(#color-22)"/><path d="M411.09759,73.08173c0,6.62741 -4.92487,12 -11,12c-6.07513,0 -11,-5.37259 -11,-12c0,-6.62741 4.92487,-12 11,-12c6.07513,0 11,5.37259 11,12z" fill="url(#color-23)"/><path d="M416.09759,73.08173c0,6.62741 -4.92487,12 -11,12c-6.07513,0 -11,-5.37259 -11,-12c0,-6.62741 4.92487,-12 11,-12c6.07513,0 11,5.37259 11,12z" fill="url(#color-24)"/><path d="M412.09759,276.08173c0,6.62741 -4.92487,12 -11,12c-6.07513,0 -11,-5.37259 -11,-12c0,-6.62741 4.92487,-12 11,-12c6.07513,0 11,5.37259 11,12z" fill="url(#color-25)"/><path d="M417.09759,276.08173c0,6.62741 -4.92487,12 -11,12c-6.07513,0 -11,-5.37259 -11,-12c0,-6.62741 4.92487,-12 11,-12c6.07513,0 11,5.37259 11,12z" fill="url(#color-26)"/></g><path d="M109.59585,178.37518l30.70484,-75.76184l22.71023,43.0688l-18.19528,37.12254z" fill="#000000" stroke="none" stroke-width="0" stroke-linecap="butt"/><path d="M96.1708,119.11247l3.36664,-14.57903l42.67034,9.85357l-3.36664,14.57903z" fill="#000000" stroke="none" stroke-width="0" stroke-linecap="butt"/><path d="M63.90315,131.753l-4.44822,-14.28621l41.8133,-13.01916l4.44822,14.28621z" fill="#000000" stroke="none" stroke-width="0" stroke-linecap="butt"/><path d="M95.69666,136.88552l3.36664,-14.57903l42.67033,9.85357l-3.36663,14.57903z" fill="#000000" stroke="none" stroke-width="0" stroke-linecap="butt"/><path d="M65.93163,146.92638l-3.58727,-14.52632l42.51605,-10.49932l3.58727,14.52631z" fill="#000000" stroke="none" stroke-width="0" stroke-linecap="butt"/><path d="M92.66788,155.75337l3.36664,-14.57903l42.67033,9.85357l-3.36664,14.57903z" fill="#000000" stroke="none" stroke-width="0" stroke-linecap="butt"/><path d="M63.26719,163.39178l-1.97427,-14.64574l36.88992,-8.49449l1.97428,14.64574z" fill="#000000" stroke="none" stroke-width="0" stroke-linecap="butt"/><path d="M98.39777,177.17586l3.36663,-14.57903l42.67033,9.85357l-3.36664,14.57903z" fill="#000000" stroke="none" stroke-width="0" stroke-linecap="butt"/><path d="M76.56203,170.14744l7.40026,-12.77544l26.25335,8.7504l-7.40026,12.77544z" fill="#000000" stroke="none" stroke-width="0" stroke-linecap="butt"/><path d="M111.77784,101.37463l5.91917,-10.16632l28.38438,17.21157l-5.91917,10.16633z" fill="#000000" stroke="none" stroke-width="0" stroke-linecap="butt"/><path d="M85.93683,102.9733l0.21813,-11.7445l33.24755,-0.1505l-0.21813,11.7445z" fill="#000000" stroke="none" stroke-width="0" stroke-linecap="butt"/><path d="M51.99174,169.42528l-4.55501,-11.28811l27.71629,-14.28409l4.55501,11.2881z" fill="#000000" stroke="none" stroke-width="0" stroke-linecap="butt"/><path d="M44.94859,155.81313l-4.55501,-11.28811l27.71629,-14.28409l4.555,11.2881z" fill="#000000" stroke="none" stroke-width="0" stroke-linecap="butt"/><path d="M46.995,141.83605l-3.06119,-11.28811l18.62673,-14.28409l3.06119,11.2881z" fill="#000000" stroke="none" stroke-width="0" stroke-linecap="butt"/><path d="M74.24785,115.81584l-3.78234,-11.79872l23.01479,-14.93023l3.78234,11.79871z" fill="#000000" stroke="none" stroke-width="0" stroke-linecap="butt"/></g></g></svg>