<svg version="1.1" xmlns="http://www.w3.org/2000/svg" xmlns:xlink="http://www.w3.org/1999/xlink" width="680.97214" height="542.71762" viewBox="0,0,680.97214,542.71762"><defs><radialGradient cx="243.84972" cy="182.10419" r="340.48607" gradientUnits="userSpaceOnUse" id="color-1"><stop offset="0" stop-color="#434b4a"/><stop offset="1" stop-color="#434b4a" stop-opacity="0"/></radialGradient><radialGradient cx="233.60039" cy="60.33127" r="161" gradientUnits="userSpaceOnUse" id="color-2"><stop offset="0" stop-color="#939393"/><stop offset="1" stop-color="#434343"/></radialGradient><radialGradient cx="62.60039" cy="168.83128" r="131.5" gradientUnits="userSpaceOnUse" id="color-3"><stop offset="0" stop-color="#939393"/><stop offset="1" stop-color="#434343"/></radialGradient><radialGradient cx="401.60041" cy="175.33128" r="108.50143" gradientUnits="userSpaceOnUse" id="color-4"><stop offset="0" stop-color="#939393"/><stop offset="1" stop-color="#434343"/></radialGradient><radialGradient cx="236.60039" cy="286.33126" r="161" gradientUnits="userSpaceOnUse" id="color-5"><stop offset="0" stop-color="#939393"/><stop offset="1" stop-color="#434343"/></radialGradient><radialGradient cx="67.09758" cy="287.08173" r="12" gradientUnits="userSpaceOnUse" id="color-6"><stop offset="0" stop-color="#acacac"/><stop offset="1" stop-color="#000000"/></radialGradient><radialGradient cx="72.09758" cy="287.08173" r="12" gradientUnits="userSpaceOnUse" id="color-7"><stop offset="0" stop-color="#acacac"/><stop offset="1" stop-color="#000000"/></radialGradient><radialGradient cx="65.09758" cy="49.08173" r="12" gradientUnits="userSpaceOnUse" id="color-8"><stop offset="0" stop-color="#acacac"/><stop offset="1" stop-color="#000000"/></radialGradient><radialGradient cx="70.09758" cy="49.08173" r="12" gradientUnits="userSpaceOnUse" id="color-9"><stop offset="0" stop-color="#acacac"/><stop offset="1" stop-color="#000000"/></radialGradient><radialGradient cx="400.09759" cy="73.08173" r="12" gradientUnits="userSpaceOnUse" id="color-10"><stop offset="0" stop-color="#acacac"/><stop offset="1" stop-color="#000000"/></radialGradient><radialGradient cx="405.09759" cy="73.08173" r="12" gradientUnits="userSpaceOnUse" id="color-11"><stop offset="0" stop-color="#acacac"/><stop offset="1" stop-color="#000000"/></radialGradient><radialGradient cx="401.09759" cy="276.08173" r="12" gradientUnits="userSpaceOnUse" id="color-12"><stop offset="0" stop-color="#acacac"/><stop offset="1" stop-color="#000000"/></radialGradient><radialGradient cx="406.09759" cy="276.08173" r="12" gradientUnits="userSpaceOnUse" id="color-13"><stop offset="0" stop-color="#acacac"/><stop offset="1" stop-color="#000000"/></radialGradient><linearGradient x1="240.00001" y1="4.04048" x2="240.00001" y2="361.92943" gradientUnits="userSpaceOnUse" id="color-14"><stop offset="0" stop-color="#090909"/><stop offset="1" stop-color="#090909" stop-opacity="0"/></linearGradient><linearGradient x1="240" y1="358.94448" x2="240" y2="1.05552" gradientUnits="userSpaceOnUse" id="color-15"><stop offset="0" stop-color="#090909"/><stop offset="1" stop-color="#090909" stop-opacity="0"/></linearGradient><linearGradient x1="480.94393" y1="98.56369" x2="123.05597" y2="97.72216" gradientUnits="userSpaceOnUse" id="color-16"><stop offset="0" stop-color="#090909"/><stop offset="1" stop-color="#090909" stop-opacity="0"/></linearGradient><linearGradient x1="0.48465" y1="87.95656" x2="358.37261" y2="87.11503" gradientUnits="userSpaceOnUse" id="color-17"><stop offset="0" stop-color="#090909"/><stop offset="1" stop-color="#090909" stop-opacity="0"/></linearGradient></defs><g transform="translate(96.63634,174.50925)"><g data-paper-data="{&quot;isPaintingLayer&quot;:true}" fill-rule="nonzero" stroke="none" stroke-width="0" stroke-linecap="butt" stroke-linejoin="miter" stroke-miterlimit="10" stroke-dasharray="" stroke-dashoffset="0" style="mix-blend-mode: normal"><path d="M-96.63634,368.20837v-372.20837h680.97214v372.20837z" fill="url(#color-1)"/><path d="M78.63124,295.93305l-1.25579,-229.35453l317.71438,16.32524l-3.76736,202.98298z" fill="#000000"/><g><path d="M70.60035,65.61696l2,-28.28572l319,23l3,23z" fill="url(#color-2)"/><path d="M47.60039,300.33126v-263h30v263z" fill="url(#color-3)"/><path d="M387.87306,289.10694l3.45773,-227.95309l19.99696,0.40178c0,0 -0.0639,5.89994 -0.13772,12.71707c-0.303,27.98041 -2.32001,214.23603 -2.32001,214.23603z" fill="url(#color-4)"/><path d="M77.60035,300.61699l3,-24.28571l309,-7l-1,21z" fill="url(#color-5)"/><path d="M78.09758,287.08173c0,6.62741 -4.92487,12 -11,12c-6.07513,0 -11,-5.37259 -11,-12c0,-6.62741 4.92487,-12 11,-12c6.07513,0 11,5.37259 11,12z" fill="url(#color-6)"/><path d="M83.09758,287.08173c0,6.62741 -4.92487,12 -11,12c-6.07513,0 -11,-5.37259 -11,-12c0,-6.62741 4.92487,-12 11,-12c6.07513,0 11,5.37259 11,12z" fill="url(#color-7)"/><path d="M76.09758,49.08173c0,6.62741 -4.92487,12 -11,12c-6.07513,0 -11,-5.37259 -11,-12c0,-6.62741 4.92487,-12 11,-12c6.07513,0 11,5.37259 11,12z" fill="url(#color-8)"/><path d="M81.09758,49.08173c0,6.62741 -4.92487,12 -11,12c-6.07513,0 -11,-5.37259 -11,-12c0,-6.62741 4.92487,-12 11,-12c6.07513,0 11,5.37259 11,12z" fill="url(#color-9)"/><path d="M411.09759,73.08173c0,6.62741 -4.92487,12 -11,12c-6.07513,0 -11,-5.37259 -11,-12c0,-6.62741 4.92487,-12 11,-12c6.07513,0 11,5.37259 11,12z" fill="url(#color-10)"/><path d="M416.09759,73.08173c0,6.62741 -4.92487,12 -11,12c-6.07513,0 -11,-5.37259 -11,-12c0,-6.62741 4.92487,-12 11,-12c6.07513,0 11,5.37259 11,12z" fill="url(#color-11)"/><path d="M412.09759,276.08173c0,6.62741 -4.92487,12 -11,12c-6.07513,0 -11,-5.37259 -11,-12c0,-6.62741 4.92487,-12 11,-12c6.07513,0 11,5.37259 11,12z" fill="url(#color-12)"/><path d="M417.09759,276.08173c0,6.62741 -4.92487,12 -11,12c-6.07513,0 -11,-5.37259 -11,-12c0,-6.62741 4.92487,-12 11,-12c6.07513,0 11,5.37259 11,12z" fill="url(#color-13)"/></g><path d="M-21.62499,361.92943v-357.88895h523.25v357.88895z" fill="url(#color-14)"/><path d="M501.625,1.05552v357.88895h-523.25v-357.88895z" data-paper-data="{&quot;index&quot;:null}" fill="url(#color-15)"/><path d="M123.67115,-163.90212l357.88796,0.84153l-1.23036,523.24855l-357.88796,-0.84153z" data-paper-data="{&quot;index&quot;:null}" fill="url(#color-16)"/><path d="M358.98779,348.7393l-357.88796,0.84154l-1.23036,-523.24855l357.88796,-0.84153z" data-paper-data="{&quot;index&quot;:null}" fill="url(#color-17)"/></g></g></svg>