<svg version="1.1" xmlns="http://www.w3.org/2000/svg" xmlns:xlink="http://www.w3.org/1999/xlink" width="680.97214" height="372.20837" viewBox="0,0,680.97214,372.20837"><defs><radialGradient cx="243.84973" cy="182.10419" r="340.48607" gradientUnits="userSpaceOnUse" id="color-1"><stop offset="0" stop-color="#434b4a"/><stop offset="1" stop-color="#434b4a" stop-opacity="0"/></radialGradient><radialGradient cx="240.00003" cy="182.98495" r="261.625" gradientUnits="userSpaceOnUse" id="color-2"><stop offset="0" stop-color="#383f3e"/><stop offset="1" stop-color="#383f3e" stop-opacity="0"/></radialGradient><radialGradient cx="236.23266" cy="173.25578" r="158.85719" gradientUnits="userSpaceOnUse" id="color-3"><stop offset="0" stop-color="#ffffff"/><stop offset="1" stop-color="#5c5c5c"/></radialGradient><radialGradient cx="233.60035" cy="60.33125" r="161" gradientUnits="userSpaceOnUse" id="color-4"><stop offset="0" stop-color="#595959"/><stop offset="1" stop-color="#434343"/></radialGradient><radialGradient cx="62.60035" cy="168.83125" r="131.5" gradientUnits="userSpaceOnUse" id="color-5"><stop offset="0" stop-color="#595959"/><stop offset="1" stop-color="#434343"/></radialGradient><radialGradient cx="401.60035" cy="175.33125" r="108.50143" gradientUnits="userSpaceOnUse" id="color-6"><stop offset="0" stop-color="#595959"/><stop offset="1" stop-color="#434343"/></radialGradient><radialGradient cx="236.60035" cy="286.33125" r="161" gradientUnits="userSpaceOnUse" id="color-7"><stop offset="0" stop-color="#595959"/><stop offset="1" stop-color="#434343"/></radialGradient><radialGradient cx="67.09755" cy="287.08171" r="12" gradientUnits="userSpaceOnUse" id="color-8"><stop offset="0" stop-color="#acacac"/><stop offset="1" stop-color="#000000"/></radialGradient><radialGradient cx="72.09755" cy="287.08171" r="12" gradientUnits="userSpaceOnUse" id="color-9"><stop offset="0" stop-color="#acacac"/><stop offset="1" stop-color="#000000"/></radialGradient><radialGradient cx="65.09755" cy="49.08171" r="12" gradientUnits="userSpaceOnUse" id="color-10"><stop offset="0" stop-color="#acacac"/><stop offset="1" stop-color="#000000"/></radialGradient><radialGradient cx="70.09755" cy="49.08171" r="12" gradientUnits="userSpaceOnUse" id="color-11"><stop offset="0" stop-color="#acacac"/><stop offset="1" stop-color="#000000"/></radialGradient><radialGradient cx="400.09755" cy="73.08171" r="12" gradientUnits="userSpaceOnUse" id="color-12"><stop offset="0" stop-color="#acacac"/><stop offset="1" stop-color="#000000"/></radialGradient><radialGradient cx="405.09755" cy="73.08171" r="12" gradientUnits="userSpaceOnUse" id="color-13"><stop offset="0" stop-color="#acacac"/><stop offset="1" stop-color="#000000"/></radialGradient><radialGradient cx="401.09755" cy="276.08171" r="12" gradientUnits="userSpaceOnUse" id="color-14"><stop offset="0" stop-color="#acacac"/><stop offset="1" stop-color="#000000"/></radialGradient><radialGradient cx="406.09755" cy="276.08171" r="12" gradientUnits="userSpaceOnUse" id="color-15"><stop offset="0" stop-color="#acacac"/><stop offset="1" stop-color="#000000"/></radialGradient></defs><g transform="translate(96.63634,4)"><g data-paper-data="{&quot;isPaintingLayer&quot;:true}" fill-rule="nonzero" stroke-linejoin="miter" stroke-miterlimit="10" stroke-dasharray="" stroke-dashoffset="0" style="mix-blend-mode: normal"><path d="M-96.63633,368.20837v-372.20837h680.97214v372.20837z" fill="url(#color-1)" stroke="none" stroke-width="0" stroke-linecap="butt"/><path d="M-21.62498,361.92943v-357.88895h523.25v357.88895z" fill="url(#color-2)" stroke="none" stroke-width="0" stroke-linecap="butt"/><path d="M78.63126,295.93305l-1.25579,-229.35453l317.71438,16.32524l-3.76736,202.98298z" fill="#000000" stroke="none" stroke-width="0" stroke-linecap="butt"/><path d="M78.63125,279.93305l-1.25579,-213.35453l317.71438,15.18637l-3.76736,188.82269z" fill="url(#color-3)" stroke="none" stroke-width="0" stroke-linecap="butt"/><path d="M388.09755,95.08171l-311,-17l313,18" fill="none" stroke="#000000" stroke-width="6.5" stroke-linecap="round"/><path d="M78.09755,103.08171l309,13" fill="none" stroke="#000000" stroke-width="6.5" stroke-linecap="round"/><path d="M78.09755,126.08171l310,8" fill="none" stroke="#000000" stroke-width="6.5" stroke-linecap="round"/><path d="M77.09755,151.08171l309,3" fill="none" stroke="#000000" stroke-width="6.5" stroke-linecap="round"/><path d="M79.09755,179.08171l310,-4" fill="none" stroke="#000000" stroke-width="6.5" stroke-linecap="round"/><path d="M79.09755,203.08171l310,-5" fill="none" stroke="#000000" stroke-width="6.5" stroke-linecap="round"/><path d="M76.09755,228.08171l314,-8" fill="none" stroke="#000000" stroke-width="6.5" stroke-linecap="round"/><path d="M79.09755,251.08171l310,-9" fill="none" stroke="#000000" stroke-width="6.5" stroke-linecap="round"/><g stroke="none" stroke-width="0" stroke-linecap="butt"><path d="M70.60035,65.61696l2,-28.28572l319,23l3,23z" fill="url(#color-4)"/><path d="M47.60035,300.33125v-263h30v263z" fill="url(#color-5)"/><path d="M387.87301,289.10691l3.45773,-227.95309l19.99696,0.40178c0,0 -0.0639,5.89994 -0.13772,12.71707c-0.303,27.98041 -2.32001,214.23603 -2.32001,214.23603z" fill="url(#color-6)"/><path d="M77.60035,300.61696l3,-24.28571l309,-7l-1,21z" fill="url(#color-7)"/><path d="M78.09755,287.08171c0,6.62742 -4.92487,12 -11,12c-6.07513,0 -11,-5.37258 -11,-12c0,-6.62742 4.92487,-12 11,-12c6.07513,0 11,5.37258 11,12z" fill="url(#color-8)"/><path d="M83.09755,287.08171c0,6.62741 -4.92487,12 -11,12c-6.07513,0 -11,-5.37259 -11,-12c0,-6.62741 4.92487,-12 11,-12c6.07513,0 11,5.37259 11,12z" fill="url(#color-9)"/><path d="M76.09755,49.08171c0,6.62741 -4.92487,12 -11,12c-6.07513,0 -11,-5.37259 -11,-12c0,-6.62741 4.92487,-12 11,-12c6.07513,0 11,5.37259 11,12z" fill="url(#color-10)"/><path d="M81.09755,49.08171c0,6.62741 -4.92487,12 -11,12c-6.07513,0 -11,-5.37259 -11,-12c0,-6.62741 4.92487,-12 11,-12c6.07513,0 11,5.37259 11,12z" fill="url(#color-11)"/><path d="M411.09755,73.08171c0,6.62741 -4.92487,12 -11,12c-6.07513,0 -11,-5.37259 -11,-12c0,-6.62741 4.92487,-12 11,-12c6.07513,0 11,5.37259 11,12z" fill="url(#color-12)"/><path d="M416.09755,73.08171c0,6.62741 -4.92487,12 -11,12c-6.07513,0 -11,-5.37259 -11,-12c0,-6.62741 4.92487,-12 11,-12c6.07513,0 11,5.37259 11,12z" fill="url(#color-13)"/><path d="M412.09755,276.08171c0,6.62741 -4.92487,12 -11,12c-6.07513,0 -11,-5.37259 -11,-12c0,-6.62741 4.92487,-12 11,-12c6.07513,0 11,5.37259 11,12z" fill="url(#color-14)"/><path d="M417.09755,276.08171c0,6.62741 -4.92487,12 -11,12c-6.07513,0 -11,-5.37259 -11,-12c0,-6.62741 4.92487,-12 11,-12c6.07513,0 11,5.37259 11,12z" fill="url(#color-15)"/></g></g></g></svg>