<svg version="1.1" xmlns="http://www.w3.org/2000/svg" xmlns:xlink="http://www.w3.org/1999/xlink" width="680.97214" height="373.90517" viewBox="0,0,680.97214,373.90517"><defs><radialGradient cx="243.84977" cy="182.10419" r="340.48607" gradientUnits="userSpaceOnUse" id="color-1"><stop offset="0" stop-color="#434b4a"/><stop offset="1" stop-color="#434b4a" stop-opacity="0"/></radialGradient><radialGradient cx="240.00005" cy="180.62789" r="261.625" gradientUnits="userSpaceOnUse" id="color-2"><stop offset="0" stop-color="#b1c6c4"/><stop offset="1" stop-color="#ffffff"/></radialGradient><radialGradient cx="236.23269" cy="181.25579" r="158.85719" gradientUnits="userSpaceOnUse" id="color-3"><stop offset="0" stop-color="#91a2a3"/><stop offset="1" stop-color="#373c3e"/></radialGradient><radialGradient cx="221.16323" cy="186.27894" r="120.5863" gradientUnits="userSpaceOnUse" id="color-4"><stop offset="0" stop-color="#859395"/><stop offset="1" stop-color="#272b2c"/></radialGradient><radialGradient cx="214.88428" cy="185.02315" r="99.83515" gradientUnits="userSpaceOnUse" id="color-5"><stop offset="0" stop-color="#606565"/><stop offset="1" stop-color="#2e3030"/></radialGradient><radialGradient cx="203.58221" cy="185.02315" r="76.25294" gradientUnits="userSpaceOnUse" id="color-6"><stop offset="0" stop-color="#595e5e"/><stop offset="1" stop-color="#333636"/></radialGradient><radialGradient cx="192.90801" cy="187.53473" r="57.4109" gradientUnits="userSpaceOnUse" id="color-7"><stop offset="0" stop-color="#4a4a4a"/><stop offset="1" stop-color="#2e2e2e"/></radialGradient><radialGradient cx="187.13078" cy="189.32465" r="41.61053" gradientUnits="userSpaceOnUse" id="color-8"><stop offset="0" stop-color="#3d3d3d"/><stop offset="1" stop-color="#2a2a2a"/></radialGradient></defs><g transform="translate(96.6363,5.6968)"><g data-paper-data="{&quot;isPaintingLayer&quot;:true}" fill-rule="nonzero" stroke-linecap="butt" stroke-linejoin="miter" stroke-miterlimit="10" stroke-dasharray="" stroke-dashoffset="0" style="mix-blend-mode: normal"><path d="M-96.63629,368.20837v-372.20837h680.97214v372.20837z" fill="url(#color-1)" stroke="none" stroke-width="0"/><path d="M-21.62493,366.95258v-372.64938h523.25v372.64938z" fill="url(#color-2)" stroke="#000000" stroke-width="0"/><path d="M78.6313,295.93305l-1.25579,-229.35453l317.71438,16.32524l-3.76736,202.98298z" fill="url(#color-3)" stroke="#3f3f3f" stroke-width="0"/><path d="M101.53019,273.32887l-0.95325,-174.09986l241.1726,12.39227l-2.85975,154.08157z" fill="url(#color-4)" stroke="none" stroke-width="0"/><path d="M115.83836,257.09305l-0.78921,-144.1398l199.6703,10.25974l-2.36763,127.56638z" fill="url(#color-5)" stroke="#000000" stroke-width="0"/><path d="M127.93206,238.25623l-0.60278,-106.46616l152.50587,7.57816l-1.80836,94.22451z" fill="url(#color-6)" stroke="none" stroke-width="0"/><path d="M135.95092,223.08652l-0.45384,-71.10359l114.8218,5.06109l-1.36153,62.92798z" fill="url(#color-7)" stroke="#000000" stroke-width="0"/><path d="M145.84918,216.64322l-0.32893,-54.63714l83.22107,3.88902l-0.98681,48.35487z" fill="url(#color-8)" stroke="#000000" stroke-width="0"/><text transform="translate(181.38568,60.5) scale(0.5,0.5)" font-size="40" xml:space="preserve" fill="#c70000" fill-rule="nonzero" stroke="none" stroke-width="1" stroke-linecap="butt" stroke-linejoin="miter" stroke-miterlimit="10" stroke-dasharray="" stroke-dashoffset="0" font-family="Sans Serif" font-weight="normal" text-anchor="start" style="mix-blend-mode: normal"><tspan x="0" dy="0">LIGHTON</tspan></text></g></g></svg>