<svg version="1.1" xmlns="http://www.w3.org/2000/svg" xmlns:xlink="http://www.w3.org/1999/xlink" width="67.7515" height="118.53493" viewBox="0,0,67.7515,118.53493"><g transform="translate(-212.45779,-144.35908)"><g data-paper-data="{&quot;isPaintingLayer&quot;:true}" fill-rule="nonzero" stroke="#000000" stroke-width="0.5" stroke-linejoin="miter" stroke-miterlimit="10" stroke-dasharray="" stroke-dashoffset="0" style="mix-blend-mode: normal"><g stroke-linecap="butt"><g fill="#000000"><path d="M227.4706,180.96776c-1.03018,-10.78242 8.38621,-35.07758 21.31536,-36.31286c12.92915,-1.23529 24.64386,22.8239 25.67403,33.60633c1.03018,10.78242 -8.46504,18.37076 -21.3942,19.60605c-12.92915,1.23529 -24.56502,-6.11707 -25.59521,-16.8995z"/><path d="M274.00705,182.851l-14.05796,32.00974l-23.33996,-1.69251l-7.95969,-29.19294z"/></g><path d="M255.43498,167.52958c0.74387,7.72784 1.35835,10.38653 -4.72788,17.4186c-6.70807,-5.82409 -7.43355,-8.40972 -8.07294,-15.23966c-0.67789,-7.24114 -0.51295,-11.84492 5.35077,-17.56474c6.20345,4.67894 6.7062,7.65799 7.45007,15.38582z" fill="#ffffff"/><path d="M261.78182,157.92326c0.35728,3.71177 0.65242,4.98877 -2.27084,8.36634c-3.22196,-2.79738 -3.57043,-4.03928 -3.87753,-7.31979c-0.3256,-3.478 -0.24637,-5.68925 2.57003,-8.43654c2.97958,2.24735 3.22107,3.67822 3.57835,7.38999z" fill="#ffffff"/><path d="M241.43436,164.51891c0.28637,2.975 0.52293,3.99855 -1.82011,6.70569c-2.58243,-2.24212 -2.86172,-3.23752 -3.10787,-5.86687c-0.26096,-2.78764 -0.19747,-4.55998 2.0599,-6.76195c2.38816,1.80127 2.58171,2.94813 2.86807,5.92313z" fill="#ffffff"/><path d="M266.75738,171.10896c0.22994,2.38875 0.41988,3.21059 -1.46144,5.38428c-2.07354,-1.80029 -2.29778,-2.59955 -2.49544,-4.71075c-0.20954,-2.23832 -0.15856,-3.66138 1.65397,-5.42945c1.91755,1.4463 2.07295,2.36717 2.30289,4.75593z" fill="#ffffff"/><path d="M236.65001,175.37206c0.30331,3.15103 0.55387,4.23512 -1.9278,7.10246c-2.73523,-2.37478 -3.03104,-3.42909 -3.29176,-6.21401c-0.27641,-2.95259 -0.20916,-4.82979 2.18178,-7.16206c2.52947,1.90786 2.73447,3.12256 3.03778,6.2736z" fill="#ffffff"/></g><path d="M232.43793,233.98695l1.6415,-42.93459l31.22516,1.19383l-1.6415,42.93459z" fill="#000000" stroke-linecap="butt"/><path d="M254.36501,193.04513c-0.46125,3.37042 -3.55132,5.73096 -6.90186,5.27244c-3.35056,-0.45853 -5.69281,-3.56249 -5.23156,-6.93291c0.46125,-3.37042 3.55132,-5.73096 6.90186,-5.27244c3.35056,0.45853 5.69281,3.56249 5.23156,6.93291z" fill="#ffffff" stroke-linecap="butt"/><path d="M213.33083,262.64304l-0.61855,-34.56528l66.62396,-0.2627l0.61855,34.56528z" fill="#000000" stroke-linecap="butt"/><path d="M238.45002,186.39684l-0.02592,-4.39743" fill="none" stroke-linecap="round"/><path d="M240.88874,182.3367l0.02591,4.39743" fill="none" stroke-linecap="round"/><path d="M243.46359,186.45526l-0.06807,-4.08937" fill="none" stroke-linecap="round"/><path d="M245.21481,185.12566l0.24001,-4.0472" fill="none" stroke-linecap="round"/><path d="M247.79297,182.34l-0.11352,3.12295" fill="none" stroke-linecap="round"/><path d="M249.92032,185.14191l0.07136,-2.81488l3.16512,-0.19456l-0.37944,2.77272" fill="none" stroke-linecap="round"/><path d="M254.97607,184.89224l0.33729,-2.46463" fill="none" stroke-linecap="round"/><path d="M256.78239,185.45329l0.37944,-2.77272" fill="none" stroke-linecap="round"/><path d="M259.3184,182.9757l-0.64536,2.42248" fill="none" stroke-linecap="round"/><g fill="#ffffff" stroke-linecap="butt"><path d="M263.64557,189.12695l0.18642,-5.15867l0.85977,0.03107l-0.18642,5.15867z"/><path d="M256.85715,194.33399l0.24857,-6.87824l1.71956,0.06214l-0.24857,6.87824z"/><path d="M260.64499,192.74909l0.26928,-7.45141l1.43296,0.05179l-0.26928,7.45141z"/><path d="M237.93164,193.93706l0.24857,-6.87824l1.43296,0.05179l-0.24857,6.87824z"/><path d="M242.18911,195.23878l0.32106,-8.88438l1.43296,0.05179l-0.32106,8.88438z"/><path d="M246.19105,195.67037l0.34178,-9.45757l2.00615,0.0725l-0.34178,9.45757z"/><path d="M249.93749,195.23181l0.33142,-9.17098l1.43296,0.05179l-0.33142,9.17098z"/><path d="M253.38696,195.0695l0.31071,-8.59779l1.71956,0.06214l-0.31071,8.59779z"/><path d="M235.65961,193.28101l0.21749,-6.01846l0.85977,0.03107l-0.21749,6.01846z"/></g><g fill="#ffffff" stroke-linecap="butt"><path d="M236.67863,198.3817l0.05823,-5.28585l1.86559,0.02055l-0.05823,5.28585z"/><path d="M239.98854,204.34421l0.08213,-7.45583l1.43381,0.01579l-0.08213,7.45583z"/><path d="M243.37915,208.97033l0.08845,-8.02937l1.43381,0.01579l-0.08845,8.02937z"/><path d="M247.34013,213.88951l0.1232,-11.18375l1.72058,0.01896l-0.1232,11.18375z"/><path d="M251.4022,209.6323l0.09794,-8.88964l1.72058,0.01896l-0.09794,8.88964z"/><path d="M256.04095,205.09465l0.08213,-7.45583l1.72058,0.01896l-0.08213,7.45583z"/><path d="M258.9528,201.11156l0.10424,-9.46317l1.43381,0.01579l-0.10424,9.46317z"/><path d="M261.02017,195.68518l0.09478,-8.60288l1.43381,0.01579l-0.09478,8.60288z"/></g><g fill="#7e0000" stroke-linecap="butt"><path d="M250.91971,194.83495c-0.18607,1.35965 -1.36039,2.32179 -2.62292,2.14902c-1.26253,-0.17277 -2.13517,-1.41505 -1.9491,-2.7747c0.18607,-1.35965 1.36039,-2.32179 2.62292,-2.14902c1.26253,0.17277 2.13517,1.41505 1.9491,2.7747z"/><path d="M251.46619,168.85493c-0.18607,1.35965 -1.36039,2.32179 -2.62292,2.14902c-1.26253,-0.17277 -2.13517,-1.41505 -1.9491,-2.7747c0.18607,-1.35965 1.36039,-2.32179 2.62292,-2.14902c1.26253,0.17277 2.13517,1.41505 1.9491,2.7747z"/><path d="M261.3671,159.97763c-0.18607,1.35965 -1.36039,2.32179 -2.62292,2.14902c-1.26253,-0.17277 -2.13517,-1.41505 -1.9491,-2.7747c0.18607,-1.35965 1.36039,-2.32179 2.62292,-2.14902c1.26253,0.17277 2.13517,1.41505 1.9491,2.7747z"/><path d="M241.46977,165.25277c-0.18607,1.35965 -1.36039,2.32179 -2.62292,2.14902c-1.26253,-0.17277 -2.13517,-1.41505 -1.9491,-2.7747c0.18607,-1.35965 1.36039,-2.32179 2.62292,-2.14902c1.26253,0.17277 2.13517,1.41505 1.9491,2.7747z"/><path d="M266.53864,171.68616c-0.13832,1.01078 -1.01134,1.72606 -1.94992,1.59761c-0.93859,-0.12845 -1.58732,-1.05197 -1.44899,-2.06275c0.13832,-1.01078 1.01134,-1.72606 1.94992,-1.59761c0.93859,0.12845 1.58732,1.05197 1.44899,2.06275z"/><path d="M235.66507,175.40411c-0.14312,1.04581 -1.04638,1.78585 -2.01748,1.65296c-0.97111,-0.1329 -1.64232,-1.08842 -1.4992,-2.13422c0.14312,-1.04581 1.04638,-1.78585 2.01748,-1.65296c0.97111,0.1329 1.64232,1.08842 1.4992,2.13422z"/></g></g></g></svg>