<svg version="1.1" xmlns="http://www.w3.org/2000/svg" xmlns:xlink="http://www.w3.org/1999/xlink" width="223.30651" height="396.24925" viewBox="0,0,223.30651,396.24925"><g transform="translate(-118.81028,-10.82546)"><g data-paper-data="{&quot;isPaintingLayer&quot;:true}" fill-rule="nonzero" stroke="#000000" stroke-width="0.5" stroke-linejoin="miter" stroke-miterlimit="10" stroke-dasharray="" stroke-dashoffset="0" style="mix-blend-mode: normal"><g stroke-linecap="butt"><g fill="#000000"><path d="M180.37956,135.19625c-4.86984,-35.78233 23.25914,-117.97303 66.1655,-123.81239c42.90637,-5.83941 85.14041,72.74714 90.0102,108.52948c4.86984,35.78233 -25.7498,62.32779 -68.65619,68.16719c-42.90637,5.83941 -82.64971,-17.10186 -87.51958,-52.8842z"/><path d="M335.65852,135.26369l-42.56269,108.50946l-77.97857,-2.52562l-30.40952,-96.18951z"/></g><path d="M271.74572,86.69999c3.50866,25.64471 5.91026,34.41967 -13.42709,58.65744c-23.12343,-18.5073 -25.88506,-27.02411 -28.92593,-49.69154c-3.22393,-24.03213 -3.28844,-39.39079 15.48266,-59.22737c21.28969,14.75975 23.36178,24.61685 26.87045,50.26148z" fill="#ffffff"/><path d="M291.6079,53.85183c1.68524,12.31748 2.83873,16.53216 -6.44912,28.17377c-11.10643,-8.88926 -12.43296,-12.97999 -13.89352,-23.86744c-1.54852,-11.54287 -1.57945,-18.91982 7.43649,-28.44756c10.22565,7.08929 11.22097,11.8238 12.90619,24.14121z" fill="#ffffff"/><path d="M224.70363,78.5376c1.35076,9.87249 2.27532,13.25074 -5.16908,22.58154c-8.90191,-7.12485 -9.96507,-10.40356 -11.13572,-19.12994c-1.24112,-9.25172 -1.26597,-15.16446 5.96039,-22.80091c8.19598,5.68213 8.99369,9.47684 10.34434,19.34938z" fill="#ffffff"/><path d="M309.94155,97.11406c1.08456,7.92702 1.8269,10.63951 -4.15043,18.13164c-7.14771,-5.72084 -8.0013,-8.35349 -8.94136,-15.36023c-0.99651,-7.4286 -1.01648,-12.17607 4.78581,-18.30783c6.58088,4.56237 7.22134,7.60936 8.30592,15.53638z" fill="#ffffff"/><path d="M210.21284,115.33099c1.43064,10.45666 2.40992,14.03469 -5.47491,23.91767c-9.42863,-7.54638 -10.55467,-11.01919 -11.79464,-20.26187c-1.31455,-9.79917 -1.34091,-16.06168 6.31308,-24.15008c8.68091,6.01833 9.52581,10.03755 10.95648,20.49426z" fill="#ffffff"/></g><path d="M189.35295,310.07414l8.93091,-142.96929l103.97769,6.49526l-8.93091,142.96929z" fill="#000000" stroke-linecap="butt"/><path d="M275.62022,178.81962c-1.80895,11.19648 -12.29841,18.81518 -23.42885,17.01693c-11.13052,-1.79826 -18.68713,-12.33255 -16.87821,-23.52908c1.80895,-11.19648 12.29841,-18.81518 23.42885,-17.01693c11.13052,1.79826 18.68713,12.33255 16.87821,23.52908z" fill="#ffffff" stroke-linecap="butt"/><path d="M119.06182,402.3265l0.7237,-115.2564l222.07972,4.49314l-0.7237,115.2564z" fill="#000000" stroke-linecap="butt"/><path d="M213.49428,137.28137l-0.26797,14.65878" fill="none" stroke-linecap="round"/><path d="M221.41374,153.26291l0.26799,-14.65876" fill="none" stroke-linecap="round"/><path d="M230.03454,138.90343l-0.10266,13.63541" fill="none" stroke-linecap="round"/><path d="M235.87583,148.24838l1.1261,-13.47" fill="none" stroke-linecap="round"/><path d="M244.06334,149.57117l0.63002,-10.39967" fill="none" stroke-linecap="round"/><path d="M251.55808,148.68173l0.46469,-9.37628l10.56507,-0.39342l-1.48808,9.21093" fill="none" stroke-linecap="round"/><path d="M269.75188,140.06949l-1.32281,8.1875" fill="none" stroke-linecap="round"/><path d="M275.89247,141.0616l-1.48808,9.21093" fill="none" stroke-linecap="round"/><path d="M283.05656,142.21903l-2.34623,8.02218" fill="none" stroke-linecap="round"/><g fill="#ffffff" stroke-linecap="butt"><path d="M314.10048,150.43117l3.86844,-16.76979l2.79497,0.64472l-3.86844,16.76979z"/><path d="M288.58911,163.1895l5.15792,-22.35972l5.58994,1.28951l-5.15792,22.35972z"/><path d="M301.99005,160.39351l5.58775,-24.223l4.65826,1.07462l-5.58775,24.223z"/><path d="M226.88491,149.93702l5.15792,-22.35972l4.65826,1.07462l-5.15792,22.35972z"/><path d="M240.00012,156.88731l6.6623,-28.8813l4.65826,1.07462l-6.6623,28.8813z"/><path d="M252.82836,160.82775l7.09214,-30.74461l6.52162,1.50439l-7.09214,30.74461z"/><path d="M265.36976,161.75827l6.87719,-29.81298l4.65826,1.07462l-6.87719,29.81298z"/><path d="M276.7645,163.40556l6.44742,-27.94963l5.58994,1.28951l-6.44742,27.94963z"/><path d="M219.86152,146.35438l4.51318,-19.56477l2.79497,0.64472l-4.51318,19.56477z"/></g><g fill="#ffffff" stroke-linecap="butt"><path d="M198.57545,220.0094l3.95764,-17.17392l6.06137,1.3968l-3.95764,17.17392z"/><path d="M205.10518,241.78806l5.58234,-24.22428l4.65849,1.0735l-5.58234,24.22428z"/><path d="M212.85028,259.27182l6.01179,-26.08774l4.65849,1.0735l-6.01179,26.08774z"/><path d="M222.24411,278.11657l8.37354,-36.33639l5.59027,1.28825l-8.37354,36.33639z"/><path d="M238.50857,267.14699l6.65591,-28.88276l5.59027,1.28825l-6.65591,28.88276z"/><path d="M256.85107,255.67504l5.58234,-24.22428l5.59027,1.28825l-5.58234,24.22428z"/><path d="M269.17403,244.77824l7.08525,-30.74621l4.65849,1.0735l-7.08525,30.74621z"/><path d="M279.77539,228.57889l6.4412,-27.95104l4.65849,1.0735l-6.4412,27.95104z"/></g><g fill="#7e0000" stroke-linecap="butt"><path d="M262.36169,178.00316c-0.72975,4.51675 -4.72132,7.62898 -8.9154,6.95137c-4.19409,-0.67758 -7.00252,-4.88844 -6.27279,-9.40519c0.72975,-4.51675 4.72132,-7.62898 8.9154,-6.95137c4.19409,0.67758 7.00252,4.88844 6.27279,9.40519z"/><path d="M266.27664,91.45544c-0.72975,4.51675 -4.72132,7.62898 -8.9154,6.95137c-4.19409,-0.67758 -7.00252,-4.88844 -6.27279,-9.40519c0.72975,-4.51675 4.72132,-7.62898 8.9154,-6.95137c4.19409,0.67758 7.00252,4.88844 6.27279,9.40519z"/><path d="M299.99187,62.66507c-0.72975,4.51675 -4.72132,7.62898 -8.9154,6.95137c-4.19409,-0.67758 -7.00252,-4.88844 -6.27279,-9.40519c0.72975,-4.51675 4.72132,-7.62898 8.9154,-6.95137c4.19409,0.67758 7.00252,4.88844 6.27279,9.40519z"/><path d="M233.24875,78.64385c-0.72975,4.51675 -4.72132,7.62898 -8.9154,6.95137c-4.19409,-0.67758 -7.00252,-4.88844 -6.27279,-9.40519c0.72975,-4.51675 4.72132,-7.62898 8.9154,-6.95137c4.19409,0.67758 7.00252,4.88844 6.27279,9.40519z"/><path d="M316.28517,102.1065c-0.54249,3.35778 -3.50989,5.67149 -6.62789,5.16772c-3.118,-0.50376 -5.20578,-3.63412 -4.6633,-6.99193c0.54249,-3.35778 3.50989,-5.67149 6.62789,-5.16772c3.118,0.50376 5.20578,3.63412 4.6633,6.99193z"/><path d="M213.08355,112.01067c-0.5613,3.47417 -3.6315,5.86795 -6.8575,5.34677c-3.22601,-0.52122 -5.3862,-3.76007 -4.82487,-7.23422c0.5613,-3.47417 3.6315,-5.86795 6.8575,-5.34677c3.22601,0.52122 5.3862,3.76007 4.82487,7.23422z"/></g></g></g></svg>