<svg version="1.1" xmlns="http://www.w3.org/2000/svg" xmlns:xlink="http://www.w3.org/1999/xlink" width="71.84435" height="122.05963" viewBox="0,0,71.84435,122.05963"><g transform="translate(-198.1535,-198.8345)"><g data-paper-data="{&quot;isPaintingLayer&quot;:true}" fill-rule="nonzero" stroke="#000000" stroke-width="0.5" stroke-linejoin="miter" stroke-miterlimit="10" stroke-dasharray="" stroke-dashoffset="0" style="mix-blend-mode: normal"><g stroke-linecap="butt"><g fill="#000000"><path d="M213.58504,238.22372c-2.48262,-10.54317 3.55271,-35.89071 16.19498,-38.86761c12.64226,-2.9769 27.5109,19.27175 29.99352,29.81493c2.48262,10.54317 -5.89604,19.34886 -18.53831,22.32576c-12.64226,2.9769 -25.16757,-2.72989 -27.65019,-13.27307z"/><path d="M259.94709,233.77984l-9.58804,33.62022l-23.35391,1.48771l-11.84437,-27.84413z"/></g><path d="M239.46915,221.11803c1.78479,7.55562 2.75409,10.10645 -2.32249,17.89878c-7.4358,-4.86079 -8.50515,-7.32417 -10.06468,-14.00435c-1.65343,-7.08236 -2.11423,-11.66599 2.91981,-18.12803c6.78056,3.79463 7.68259,6.678 9.46738,14.23361z" fill="#ffffff"/><path d="M244.45489,210.73988c0.85725,3.62905 1.32281,4.85424 -1.11551,8.59698c-3.5715,-2.33469 -4.08513,-3.51788 -4.83419,-6.72645c-0.79416,-3.40173 -1.01549,-5.60331 1.40241,-8.7071c3.25678,1.8226 3.69004,3.20752 4.54729,6.83657z" fill="#ffffff"/><path d="M225.18961,220.03346c0.6871,2.9087 1.06025,3.89072 -0.8941,6.89055c-2.86258,-1.87127 -3.27426,-2.81961 -3.87464,-5.3913c-0.63652,-2.72652 -0.81392,-4.49109 1.12405,-6.9788c2.61033,1.46083 2.95759,2.57086 3.64468,5.47956z" fill="#ffffff"/><path d="M251.17231,223.1292c0.5517,2.33552 0.85132,3.12401 -0.71791,5.53271c-2.29849,-1.50252 -2.62903,-2.26399 -3.11111,-4.3289c-0.51109,-2.18924 -0.65353,-3.60608 0.90254,-5.60357c2.09594,1.17295 2.37477,2.06424 2.92647,4.39977z" fill="#ffffff"/><path d="M221.92098,231.43509c0.72775,3.08081 1.12298,4.12092 -0.947,7.29826c-3.03196,-1.98199 -3.46799,-2.98645 -4.1039,-5.71031c-0.67419,-2.88784 -0.86209,-4.75683 1.19055,-7.39174c2.76479,1.54727 3.13259,2.72297 3.86034,5.80378z" fill="#ffffff"/></g><path d="M213.35122,287.20261l3.5979,-42.81506l31.13823,2.61666l-3.5979,42.81506z" fill="#000000" stroke-linecap="butt"/><path d="M242.16161,245.52456c0,3.08772 -2.74148,5.59081 -6.12326,5.59081c-3.38179,0 -6.12326,-2.50309 -6.12326,-5.59081c0,-3.08772 2.74148,-5.59081 6.12326,-5.59081c3.38179,0 6.12326,2.50309 6.12326,5.59081z" fill="#ffffff" stroke-linecap="butt"/><path d="M203.73884,320.61218l-5.29944,-34.16222l65.9731,-9.2936l5.29944,34.16222z" fill="#000000" stroke-linecap="butt"/><path d="M224.87026,239.58592l0.62191,4.35331" fill="none" stroke-linecap="round"/><path d="M227.35787,239.58592l0.6219,4.35331" fill="none" stroke-linecap="round"/><path d="M229.84547,239.27497l0.6219,4.04237" fill="none" stroke-linecap="round"/><path d="M232.02213,241.76258l-0.31095,-4.04237" fill="none" stroke-linecap="round"/><path d="M234.19879,238.65307l0.31096,3.10951" fill="none" stroke-linecap="round"/><path d="M236.6864,241.14067l-0.31096,-2.79856l3.10951,-0.62191v2.79856" fill="none" stroke-linecap="round"/><path d="M241.66161,237.72021v2.48761" fill="none" stroke-linecap="round"/><path d="M243.52732,240.51877v-2.79856" fill="none" stroke-linecap="round"/><path d="M245.70398,237.72021l-0.31095,2.48761" fill="none" stroke-linecap="round"/><g fill="#ffffff" stroke-linecap="butt"><path d="M249.34578,238.19514v-5.16204h0.86034v5.16204z"/><path d="M242.74983,243.64396v-6.88273h1.72068v6.88273z"/><path d="M246.47797,241.92329v-7.45628h1.4339v7.45628z"/><path d="M223.82234,243.93075v-6.88273h1.4339v6.88273z"/><path d="M228.12404,245.07787v-8.89018h1.4339v8.89018z"/><path d="M232.13896,245.36465v-9.46375h2.00746v9.46375z"/><path d="M235.86711,244.79109v-9.17697h1.4339v9.17697z"/><path d="M239.30847,244.50431v-8.6034h1.72068v8.6034z"/><path d="M221.5281,243.35719v-6.02239h0.86034v6.02239z"/></g><g fill="#ffffff" stroke-linecap="butt"><path d="M225.03543,252.34405v-5.28617h1.8657v5.28617z"/><path d="M228.41083,258.26975v-7.45628h1.4339v7.45628z"/><path d="M231.85218,262.85824v-8.02985h1.4339v8.02985z"/><path d="M235.86711,267.7335v-11.18443h1.72068v11.18443z"/><path d="M239.88203,263.4318v-8.89018h1.72068v8.89018z"/><path d="M244.47051,258.84332v-7.45628h1.72068v7.45628z"/><path d="M247.33832,254.82839v-9.46375h1.4339v9.46375z"/><path d="M249.34578,249.37957v-8.6034h1.4339v8.6034z"/></g><g fill="#7e0000" stroke-linecap="butt"><path d="M238.79939,248.72334c0,1.37232 -1.03302,2.4848 -2.30732,2.4848c-1.2743,0 -2.30732,-1.11248 -2.30732,-2.4848c0,-1.37232 1.03302,-2.4848 2.30732,-2.4848c1.2743,0 2.30732,1.11248 2.30732,2.4848z"/><path d="M235.81828,222.90913c0,1.37232 -1.03302,2.4848 -2.30732,2.4848c-1.2743,0 -2.30732,-1.11248 -2.30732,-2.4848c0,-1.37232 1.03302,-2.4848 2.30732,-2.4848c1.2743,0 2.30732,1.11248 2.30732,2.4848z"/><path d="M244.42412,212.77138c0,1.37232 -1.03302,2.4848 -2.30732,2.4848c-1.2743,0 -2.30732,-1.11248 -2.30732,-2.4848c0,-1.37232 1.03302,-2.4848 2.30732,-2.4848c1.2743,0 2.30732,1.11248 2.30732,2.4848z"/><path d="M225.42576,220.69562c0,1.37232 -1.03302,2.4848 -2.30732,2.4848c-1.2743,0 -2.30732,-1.11248 -2.30732,-2.4848c0,-1.37232 1.03302,-2.4848 2.30732,-2.4848c1.2743,0 2.30732,1.11248 2.30732,2.4848z"/><path d="M251.13541,223.6706c0,1.0202 -0.76797,1.84724 -1.71529,1.84724c-0.94734,0 -1.71529,-0.82703 -1.71529,-1.84724c0,-1.0202 0.76797,-1.84724 1.71529,-1.84724c0.94734,0 1.71529,0.82703 1.71529,1.84724z"/><path d="M221.05106,231.54026c0,1.05556 -0.79457,1.91124 -1.77473,1.91124c-0.98016,0 -1.77473,-0.85569 -1.77473,-1.91124c0,-1.05556 0.79457,-1.91124 1.77473,-1.91124c0.98016,0 1.77473,0.85569 1.77473,1.91124z"/></g></g></g></svg>