<svg version="1.1" xmlns="http://www.w3.org/2000/svg" xmlns:xlink="http://www.w3.org/1999/xlink" width="96.98324" height="141.10376" viewBox="0,0,96.98324,141.10376"><defs><linearGradient x1="239.91659" y1="140.42848" x2="239.91659" y2="199.32398" gradientUnits="userSpaceOnUse" id="color-1"><stop offset="0" stop-color="#0a0a0a"/><stop offset="1" stop-color="#000000"/></linearGradient><linearGradient x1="239.68918" y1="190.26991" x2="239.68918" y2="202.64903" gradientUnits="userSpaceOnUse" id="color-2"><stop offset="0" stop-color="#1a1a1a"/><stop offset="1" stop-color="#ffe2e2"/></linearGradient><linearGradient x1="236.37743" y1="149.06374" x2="236.37743" y2="182.5477" gradientUnits="userSpaceOnUse" id="color-3"><stop offset="0" stop-color="#ffffff"/><stop offset="1" stop-color="#a08585"/></linearGradient><linearGradient x1="236.37743" y1="149.06374" x2="236.37743" y2="182.5477" gradientUnits="userSpaceOnUse" id="color-4"><stop offset="0" stop-color="#000000" stop-opacity="0"/><stop offset="1" stop-color="#000000" stop-opacity="0"/></linearGradient><linearGradient x1="245.37394" y1="145.76335" x2="245.37394" y2="162.84975" gradientUnits="userSpaceOnUse" id="color-5"><stop offset="0" stop-color="#ffeeee"/><stop offset="1" stop-color="#8a8484"/></linearGradient><linearGradient x1="224.68328" y1="157.55458" x2="224.68328" y2="171.24945" gradientUnits="userSpaceOnUse" id="color-6"><stop offset="0" stop-color="#ffffff"/><stop offset="1" stop-color="#767676"/></linearGradient><linearGradient x1="253.95613" y1="162.17729" x2="253.95613" y2="173.17347" gradientUnits="userSpaceOnUse" id="color-7"><stop offset="0" stop-color="#ffffff"/><stop offset="1" stop-color="#807676"/></linearGradient><linearGradient x1="220.91221" y1="169.81831" x2="220.91221" y2="184.32351" gradientUnits="userSpaceOnUse" id="color-8"><stop offset="0" stop-color="#fff5f5"/><stop offset="1" stop-color="#a19494"/></linearGradient><linearGradient x1="236.47135" y1="164.47346" x2="236.47135" y2="169.97528" gradientUnits="userSpaceOnUse" id="color-9"><stop offset="0" stop-color="#330000"/><stop offset="1" stop-color="#600000"/></linearGradient><linearGradient x1="219.26884" y1="227.92106" x2="219.26884" y2="240.54482" gradientUnits="userSpaceOnUse" id="color-10"><stop offset="0" stop-color="#0a0a0a"/><stop offset="1" stop-color="#000000"/></linearGradient><linearGradient x1="268.06626" y1="236.68111" x2="252.91477" y2="251.05356" gradientUnits="userSpaceOnUse" id="color-11"><stop offset="0" stop-color="#0a0a0a"/><stop offset="1" stop-color="#000000"/></linearGradient></defs><g transform="translate(-197.69618,-140.42849)"><g data-paper-data="{&quot;isPaintingLayer&quot;:true}" fill-rule="nonzero" stroke-linejoin="miter" stroke-miterlimit="10" stroke-dasharray="" stroke-dashoffset="0" style="mix-blend-mode: normal"><path d="M224.22705,238.1526l3.98322,-51.50282l34.47296,3.14762l-3.98322,51.50282z" fill="#000000" stroke="#000000" stroke-width="0.5" stroke-linecap="butt"/><path d="M265.73864,177.78912c0,0 -3.32909,16.47834 -5.89588,24.57351c-2.19781,6.93145 -7.16989,19.29971 -7.16989,19.29971l-17.802,2.69742c0,0 -9.08837,-15.02022 -10.64849,-16.90944c-1.72941,-2.09421 -9.1168,-23.72027 -9.1168,-23.72027z" fill="#000000" stroke="none" stroke-width="0" stroke-linecap="butt"/><path d="M214.41148,183.7593c-2.7485,-11.67229 3.93318,-39.73441 17.92937,-43.03012c13.99618,-3.29571 30.45716,21.33565 33.20566,33.00794c2.7485,11.67229 -6.52747,21.42101 -20.52366,24.71672c-13.99618,3.29571 -27.86288,-3.02225 -30.61137,-14.69454z" fill="url(#color-1)" stroke="none" stroke-width="0" stroke-linecap="butt"/><path d="M228.27991,203.25987l-4.06302,-14.80097c0,0 2.43785,1.2696 5.7863,0.7538c3.11803,-0.48031 7.06423,-2.74017 9.55632,-2.95176c2.24014,-0.1902 6.6604,1.44813 9.60613,1.39246c3.74033,-0.07069 5.81404,-1.80643 5.81404,-1.80643v14.80097c0,0 -9.10781,16.90959 -13.70216,17.35904c-4.28383,0.41907 -12.99762,-14.74711 -12.99762,-14.74711z" fill="#000000" stroke="none" stroke-width="0" stroke-linecap="butt"/><path d="M246.46821,196.45947c0,3.4184 -3.03508,6.18956 -6.77903,6.18956c-3.74396,0 -6.77903,-2.77116 -6.77903,-6.18956c0,-3.4184 3.03508,-6.18956 6.77903,-6.18956c3.74396,0 6.77903,2.77116 6.77903,6.18956z" fill="url(#color-2)" stroke="#000000" stroke-width="0.5" stroke-linecap="butt"/><path d="M242.32614,195.80314c0,1.51929 -1.14365,2.75091 -2.55442,2.75091c-1.41077,0 -2.55442,-1.23162 -2.55442,-2.75091c0,-1.51929 1.14365,-2.75091 2.55442,-2.75091c1.41077,0 2.55442,1.23162 2.55442,2.75091z" fill="#7e0000" stroke="#000000" stroke-width="0.5" stroke-linecap="butt"/><path d="M197.98489,267.52973l6.58857,-37.7018l72.47427,13.70975l-6.58857,37.7018z" fill="#000000" stroke="#000000" stroke-width="0.5" stroke-linecap="butt"/><path d="M243.06763,163.89604c1.97593,7.87342 3.04904,10.53156 -2.57122,18.65166c-8.23213,-5.06525 -9.416,-7.63224 -11.14255,-14.59341c-1.8305,-7.38027 -2.34065,-12.15669 3.2325,-18.89055c7.50672,3.95424 8.50535,6.95889 10.48128,14.83231z" fill="url(#color-3)" stroke="url(#color-4)" stroke-width="0" stroke-linecap="butt"/><path d="M248.58732,153.33209c0.94906,4.0177 1.46448,5.3741 -1.23498,9.51767c-3.95399,-2.58472 -4.52262,-3.89463 -5.3519,-7.44682c-0.87921,-3.76604 -1.12424,-6.20339 1.5526,-9.63958c3.60556,2.01779 4.08522,3.55103 5.03428,7.56873z" fill="url(#color-5)" stroke="#000000" stroke-width="0.5" stroke-linecap="butt"/><path d="M227.25883,163.62096c0.76068,3.22021 1.1738,4.30739 -0.98985,7.62849c-3.16915,-2.07167 -3.62491,-3.12158 -4.28959,-5.96868c-0.70469,-3.01852 -0.90109,-4.97206 1.24443,-7.72619c2.88988,1.61728 3.27433,2.84618 4.03501,6.06639z" fill="url(#color-6)" stroke="#000000" stroke-width="0.5" stroke-linecap="butt"/><path d="M256.02414,167.04824c0.61078,2.58564 0.94249,3.45857 -0.79479,6.12523c-2.54464,-1.66343 -2.91059,-2.50645 -3.44429,-4.7925c-0.56582,-2.42369 -0.72352,-3.99227 0.9992,-6.20368c2.3204,1.29857 2.6291,2.28531 3.23988,4.87096z" fill="url(#color-7)" stroke="#000000" stroke-width="0.5" stroke-linecap="butt"/><path d="M223.64015,176.24365c0.80569,3.41075 1.24325,4.56225 -1.04842,8.07986c-3.35667,-2.19425 -3.83939,-3.30628 -4.5434,-6.32185c-0.74639,-3.19711 -0.95441,-5.26626 1.31805,-8.18335c3.06088,1.71297 3.46807,3.01458 4.27376,6.42533z" fill="url(#color-8)" stroke="#000000" stroke-width="0.5" stroke-linecap="butt"/><path d="M239.02577,167.22437c0,1.51929 -1.14365,2.75091 -2.55442,2.75091c-1.41077,0 -2.55442,-1.23162 -2.55442,-2.75091c0,-1.51929 1.14365,-2.75091 2.55442,-2.75091c1.41077,0 2.55442,1.23162 2.55442,2.75091z" fill="url(#color-9)" stroke="none" stroke-width="0" stroke-linecap="butt"/><path d="M248.55325,156.00092c0,1.51929 -1.14365,2.75091 -2.55442,2.75091c-1.41077,0 -2.55442,-1.23162 -2.55442,-2.75091c0,-1.51929 1.14365,-2.75091 2.55442,-2.75091c1.41077,0 2.55442,1.23162 2.55442,2.75091z" fill="#7e0000" stroke="#000000" stroke-width="0.5" stroke-linecap="butt"/><path d="M227.52027,164.77381c0,1.51929 -1.14365,2.75091 -2.55442,2.75091c-1.41077,0 -2.55442,-1.23162 -2.55442,-2.75091c0,-1.51929 1.14365,-2.75091 2.55442,-2.75091c1.41077,0 2.55442,1.23162 2.55442,2.75091z" fill="#7e0000" stroke="#000000" stroke-width="0.5" stroke-linecap="butt"/><path d="M255.98328,168.06739c0,1.12946 -0.85021,2.04507 -1.89899,2.04507c-1.04879,0 -1.89899,-0.9156 -1.89899,-2.04507c0,-1.12946 0.85021,-2.04507 1.89899,-2.04507c1.04879,0 1.89899,0.9156 1.89899,2.04507z" fill="#7e0000" stroke="#000000" stroke-width="0.5" stroke-linecap="butt"/><path d="M222.67707,176.77985c0,1.1686 -0.87966,2.11592 -1.96479,2.11592c-1.08513,0 -1.96479,-0.94733 -1.96479,-2.11592c0,-1.1686 0.87966,-2.11592 1.96479,-2.11592c1.08513,0 1.96479,0.94733 1.96479,2.11592z" fill="#7e0000" stroke="#000000" stroke-width="0.5" stroke-linecap="butt"/><path d="M227.32505,189.88483l0.68851,4.81953" fill="none" stroke="#000000" stroke-width="0.5" stroke-linecap="round"/><path d="M230.76757,194.70436l-0.6885,-4.81953" fill="none" stroke="#000000" stroke-width="0.5" stroke-linecap="round"/><path d="M232.83308,189.54058l0.6885,4.47528" fill="none" stroke="#000000" stroke-width="0.5" stroke-linecap="round"/><path d="M234.8986,187.81932l0.34425,4.47528" fill="none" stroke="#000000" stroke-width="0.5" stroke-linecap="round"/><path d="M240.40663,191.60609l-0.34426,-3.09827l3.44252,-0.68851v3.09827" fill="none" stroke="#000000" stroke-width="0.5" stroke-linecap="round"/><path d="M245.91466,187.81932v2.75402" fill="none" stroke="#000000" stroke-width="0.5" stroke-linecap="round"/><path d="M247.98018,187.81932v3.09827" fill="none" stroke="#000000" stroke-width="0.5" stroke-linecap="round"/><path d="M250.04569,190.57334l0.34425,-2.75402" fill="none" stroke="#000000" stroke-width="0.5" stroke-linecap="round"/><path d="M227.50791,204.00929v-5.85229h2.06551v5.85229c0,0 -0.67583,1.2928 -1.04506,1.2928c-0.30817,0 -1.02044,-1.2928 -1.02044,-1.2928z" fill="#ffffff" stroke="#000000" stroke-width="0.5" stroke-linecap="butt"/><path d="M231.24479,210.5696v-8.25481h1.58746v8.25481c0,0 -0.50969,0.51712 -0.77023,0.51712c-0.26837,0 -0.81723,-0.51712 -0.81723,-0.51712z" fill="#ffffff" stroke="#000000" stroke-width="0.5" stroke-linecap="butt"/><path d="M235.0547,215.64949v-8.8898h1.58746v8.8898c0,0 -0.45423,0.86187 -0.70174,0.86187c-0.27808,0 -0.88572,-0.86187 -0.88572,-0.86187z" fill="#ffffff" stroke="#000000" stroke-width="0.5" stroke-linecap="butt"/><path d="M240.4211,195.78344c0,0.91636 -0.26531,1.65922 -0.59258,1.65922c-0.32727,0 -0.59258,-0.74286 -0.59258,-1.65922c0,-0.91636 0.26531,-1.65921 0.59258,-1.65921c0.32727,0 0.59258,0.74285 0.59258,1.65921z" fill="#120000" stroke="none" stroke-width="0" stroke-linecap="butt"/><path d="M239.4996,221.04686v-12.38222h1.90496v12.38222c0,0 -0.58866,1.03424 -0.89624,1.03424c-0.3263,0 -1.00872,-1.03424 -1.00872,-1.03424z" fill="#ffffff" stroke="#000000" stroke-width="0.5" stroke-linecap="butt"/><path d="M243.9445,216.28447v-9.84227h1.90496v9.84227c0,0 -0.70221,0.60331 -1.0318,0.60331c-0.30319,0 -0.87316,-0.60331 -0.87316,-0.60331z" fill="#ffffff" stroke="#000000" stroke-width="0.5" stroke-linecap="butt"/><path d="M249.02438,211.20459v-8.25481h1.90496v8.25481c0,0 -0.64099,0.77568 -0.94047,0.77568c-0.33212,0 -0.96449,-0.77568 -0.96449,-0.77568z" fill="#ffffff" stroke="#000000" stroke-width="0.5" stroke-linecap="butt"/><path d="M252.19931,206.75969v-10.47726h1.58746v10.47726c0,0 -0.53519,0.6895 -0.78136,0.6895c-0.27889,0 -0.80609,-0.6895 -0.80609,-0.6895z" fill="#ffffff" stroke="#000000" stroke-width="0.5" stroke-linecap="butt"/><path d="M254.42176,200.72733v-9.52478h1.58746v9.52478c0,0 -0.57599,0.94805 -0.84915,0.94805c-0.25471,0 -0.73831,-0.94805 -0.73831,-0.94805z" fill="#ffffff" stroke="#000000" stroke-width="0.5" stroke-linecap="butt"/><path d="M226.33113,194.11454v-7.61983c0,0 0.47319,-1.12043 0.74633,-1.12043c0.33247,0 1.1057,1.12043 1.1057,1.12043v7.61983z" fill="#ffffff" stroke="#000000" stroke-width="0.5" stroke-linecap="butt"/><path d="M231.25975,196.23025v-9.84227c0,0 0.60781,-1.12043 0.93839,-1.12043c0.37042,0 1.17822,1.12043 1.17822,1.12043v9.84227z" fill="#ffffff" stroke="#000000" stroke-width="0.5" stroke-linecap="butt"/><path d="M235.67071,196.87946v-10.47726c0,0 0.68816,-1.12043 1.06499,-1.12043c0.36352,0 1.15747,1.12043 1.15747,1.12043v10.47726z" fill="#ffffff" stroke="#000000" stroke-width="0.5" stroke-linecap="butt"/><path d="M239.91517,196.543v-10.15977c0,0 0.55325,-1.12043 0.91178,-1.12043c0.38867,0 1.33712,1.12043 1.33712,1.12043v10.15977z" fill="#ffffff" stroke="#000000" stroke-width="0.5" stroke-linecap="butt"/><path d="M243.30951,196.52401v-9.52478c0,0 0.57911,-1.03424 0.88448,-1.03424c0.328,0 1.02049,1.03424 1.02049,1.03424v9.52478z" fill="#ffffff" stroke="#000000" stroke-width="0.5" stroke-linecap="butt"/><path d="M247.11942,194.37747v-7.61983c0,0 0.5362,-1.12043 0.86679,-1.12043c0.30176,0 1.03817,1.12043 1.03817,1.12043v7.61983z" fill="#ffffff" stroke="#000000" stroke-width="0.5" stroke-linecap="butt"/><path d="M251.24683,192.47252v-8.25481c0,0 0.43999,-1.20661 0.70397,-1.20661c0.26517,0 0.88349,1.20661 0.88349,1.20661v8.25481z" fill="#ffffff" stroke="#000000" stroke-width="0.5" stroke-linecap="butt"/><path d="M254.42176,188.34511v-5.88724l0.95248,0.08619v5.80105z" fill="#ffffff" stroke="#000000" stroke-width="0.5" stroke-linecap="butt"/><path d="M223.62496,191.15783l-0.08619,-7.0121l1.03867,0.34475v6.66735z" fill="#ffffff" stroke="#000000" stroke-width="0.5" stroke-linecap="butt"/><path d="M294.42942,144.2087v0" fill="none" stroke="#000000" stroke-width="0.5" stroke-linecap="round"/><path d="M237.66921,166.99616c0,1.3226 -0.43861,2.39478 -0.97968,2.39478c-0.54107,0 -0.97968,-1.07218 -0.97968,-2.39478c0,-1.3226 0.43862,-2.39478 0.97968,-2.39478c0.54107,0 0.97968,1.07218 0.97968,2.39478z" fill="#120000" stroke="none" stroke-width="0" stroke-linecap="butt"/><path d="M246.81292,156.00194c0,1.14225 -0.34115,2.06822 -0.76198,2.06822c-0.42083,0 -0.76198,-0.92597 -0.76198,-2.06822c0,-1.14225 0.34115,-2.06822 0.76198,-2.06822c0.42083,0 0.76198,0.92597 0.76198,2.06822z" fill="#120000" stroke="none" stroke-width="0" stroke-linecap="butt"/><path d="M254.65038,168.30241c0,1.08213 -0.24367,1.95937 -0.54426,1.95937c-0.30059,0 -0.54427,-0.87724 -0.54427,-1.95937c0,-1.08213 0.24368,-1.95936 0.54427,-1.95936c0.30059,0 0.54426,0.87723 0.54426,1.95936z" fill="#120000" stroke="none" stroke-width="0" stroke-linecap="butt"/><path d="M226.13072,164.81909c0,1.3226 -0.48736,2.39478 -1.08854,2.39478c-0.60118,0 -1.08854,-1.07218 -1.08854,-2.39478c0,-1.3226 0.48736,-2.39478 1.08854,-2.39478c0.60118,0 1.08854,1.07218 1.08854,2.39478z" fill="#120000" stroke="none" stroke-width="0" stroke-linecap="butt"/><path d="M221.34116,176.90184c0,1.38272 -0.34115,2.50364 -0.76198,2.50364c-0.42083,0 -0.76198,-1.12091 -0.76198,-2.50364c0,-1.38272 0.34115,-2.50363 0.76198,-2.50363c0.42083,0 0.76198,1.12091 0.76198,2.50363z" fill="#120000" stroke="none" stroke-width="0" stroke-linecap="butt"/><path d="M204.40201,240.54482v-12.62377l25.00331,-6.41977l4.73036,19.04354z" fill="url(#color-10)" stroke="#000000" stroke-width="0.5" stroke-linecap="butt"/><path d="M243.25921,245.08845l14.81362,-17.4134l19.64899,14.97116l-15.1515,14.37246z" fill="url(#color-11)" stroke="#000000" stroke-width="0.5" stroke-linecap="butt"/></g></g></svg>