<svg version="1.1" xmlns="http://www.w3.org/2000/svg" xmlns:xlink="http://www.w3.org/1999/xlink" width="75.18853" height="142.51104" viewBox="0,0,75.18853,142.51104"><defs><linearGradient x1="251.92301" y1="121.86386" x2="237.32234" y2="178.92085" gradientUnits="userSpaceOnUse" id="color-1"><stop offset="0" stop-color="#0a0a0a"/><stop offset="1" stop-color="#000000"/></linearGradient><linearGradient x1="241.53444" y1="174.00365" x2="238.46555" y2="185.99635" gradientUnits="userSpaceOnUse" id="color-2"><stop offset="0" stop-color="#1a1a1a"/><stop offset="1" stop-color="#ffe2e2"/></linearGradient><linearGradient x1="246.35358" y1="129.35217" x2="238.05264" y2="161.79088" gradientUnits="userSpaceOnUse" id="color-3"><stop offset="0" stop-color="#ffffff"/><stop offset="1" stop-color="#a08585"/></linearGradient><linearGradient x1="246.35358" y1="129.35217" x2="238.05264" y2="161.79088" gradientUnits="userSpaceOnUse" id="color-4"><stop offset="0" stop-color="#000000" stop-opacity="0"/><stop offset="1" stop-color="#000000" stop-opacity="0"/></linearGradient><linearGradient x1="255.88744" y1="128.38512" x2="251.65159" y2="144.93813" gradientUnits="userSpaceOnUse" id="color-5"><stop offset="0" stop-color="#ffeeee"/><stop offset="1" stop-color="#8a8484"/></linearGradient><linearGradient x1="232.91953" y1="134.67889" x2="229.52446" y2="147.94625" gradientUnits="userSpaceOnUse" id="color-6"><stop offset="0" stop-color="#ffffff"/><stop offset="1" stop-color="#767676"/></linearGradient><linearGradient x1="260.13258" y1="146.41427" x2="257.40654" y2="157.06719" gradientUnits="userSpaceOnUse" id="color-7"><stop offset="0" stop-color="#ffffff"/><stop offset="1" stop-color="#807676"/></linearGradient><linearGradient x1="226.2259" y1="145.62491" x2="222.62995" y2="159.6773" gradientUnits="userSpaceOnUse" id="color-8"><stop offset="0" stop-color="#fff5f5"/><stop offset="1" stop-color="#a19494"/></linearGradient><linearGradient x1="242.62437" y1="144.30414" x2="241.26043" y2="149.63421" gradientUnits="userSpaceOnUse" id="color-9"><stop offset="0" stop-color="#330000"/><stop offset="1" stop-color="#600000"/></linearGradient><linearGradient x1="269.02794" y1="219.37093" x2="253.87645" y2="233.74338" gradientUnits="userSpaceOnUse" id="color-10"><stop offset="0" stop-color="#0a0a0a"/><stop offset="1" stop-color="#000000"/></linearGradient><linearGradient x1="214.31879" y1="216.35696" x2="229.47028" y2="230.72941" gradientUnits="userSpaceOnUse" id="color-11"><stop offset="0" stop-color="#0a0a0a"/><stop offset="1" stop-color="#000000"/></linearGradient></defs><g transform="translate(-203.88017,-120.27484)"><g data-paper-data="{&quot;isPaintingLayer&quot;:true}" fill-rule="nonzero" stroke-linejoin="miter" stroke-miterlimit="10" stroke-dasharray="" stroke-dashoffset="0" style="mix-blend-mode: normal"><path d="M204.13801,259.14653l1.22494,-37.84396l72.89242,3.37788l-1.22494,37.84396z" fill="#000000" stroke="#000000" stroke-width="0.5" stroke-linecap="butt"/><path d="M251.24724,138.72447c0,1.50304 -1.13142,2.72148 -2.5271,2.72148c-1.39568,0 -2.5271,-1.21845 -2.5271,-2.72148c0,-1.50304 1.13142,-2.72148 2.5271,-2.72148c1.39568,0 2.5271,1.21845 2.5271,2.72148z" fill="#7e0000" stroke="#000000" stroke-width="0.5" stroke-linecap="butt"/><path d="M228.05201,237.97384l-5.59862,-52.26123l34.48154,-3.1093l5.59862,52.26123z" fill="#000000" stroke="#000000" stroke-width="0.5" stroke-linecap="butt"/><path d="M267.67698,164.45973c0,0 -7.31028,15.13864 -11.8038,22.34478c-3.84756,6.17022 -11.73063,16.91977 -11.73063,16.91977l-17.915,-1.80004c0,0 -5.08103,-16.80442 -6.12409,-19.02143c-1.15625,-2.45757 -2.95176,-25.23994 -2.95176,-25.23994z" fill="#000000" stroke="none" stroke-width="0" stroke-linecap="butt"/><path d="M216.47202,157.51912c0.23095,-11.9893 13.66088,-37.51898 28.03719,-37.24204c14.3763,0.27694 24.21712,28.2202 23.98616,40.2095c-0.23095,11.9893 -11.63415,19.13411 -26.01046,18.85717c-14.3763,-0.27694 -26.24386,-9.83534 -26.0129,-21.82464z" fill="url(#color-1)" stroke="none" stroke-width="0" stroke-linecap="butt"/><path d="M225.07318,179.84905l-0.26691,-15.34619c0,0 2.047,1.83433 5.4188,2.16474c3.13977,0.30767 7.52302,-0.90335 9.98977,-0.49053c2.21736,0.37109 6.09348,3.05409 8.96106,3.73043c3.64109,0.85877 6.08037,-0.30869 6.08037,-0.30869l-3.66928,14.33894c0,0 -13.01552,14.12383 -17.57787,13.42028c-4.25399,-0.65601 -8.93595,-17.50897 -8.93595,-17.50897z" fill="#000000" stroke="none" stroke-width="0" stroke-linecap="butt"/><path d="M246.56741,181.68058c-0.84745,3.31169 -4.47478,5.24392 -8.10185,4.31577c-3.62709,-0.92816 -5.88042,-4.36523 -5.03297,-7.67692c0.84745,-3.31169 4.47478,-5.24392 8.10185,-4.31577c3.62709,0.92816 5.88042,4.36523 5.03297,7.67692z" fill="url(#color-2)" stroke="#000000" stroke-width="0.5" stroke-linecap="butt"/><path d="M242.71735,180.01789c-0.37664,1.47186 -1.78992,2.38152 -3.15665,2.03177c-1.36673,-0.34974 -2.16935,-1.82643 -1.79271,-3.2983c0.37664,-1.47186 1.78992,-2.38152 3.15665,-2.03177c1.36673,0.34974 2.16935,1.82643 1.79271,3.2983z" fill="#7e0000" stroke="#000000" stroke-width="0.5" stroke-linecap="butt"/><path d="M249.15789,145.38001c-0.03764,8.11749 0.343,10.95868 -7.11485,17.432c-6.71944,-6.94794 -7.22997,-9.72829 -7.17689,-16.90018c0.05627,-7.60368 0.74616,-12.35747 7.81471,-17.49949c6.2921,5.69178 6.51468,8.8502 6.47704,16.96769z" fill="url(#color-3)" stroke="url(#color-4)" stroke-width="0" stroke-linecap="butt"/><path d="M257.12416,136.51421c-0.07659,4.12756 0.08648,5.5694 -3.55594,8.9144c-3.18979,-3.48426 -3.41593,-4.89425 -3.33871,-8.54114c0.08187,-3.86644 0.44873,-6.28845 3.89386,-8.95376c2.99278,2.84865 3.07736,4.45294 3.00078,8.5805z" fill="url(#color-5)" stroke="#000000" stroke-width="0.5" stroke-linecap="butt"/><path d="M233.91078,141.19439c-0.06138,3.30827 0.06932,4.46392 -2.85011,7.14496c-2.55664,-2.79266 -2.73789,-3.92278 -2.676,-6.84578c0.06562,-3.09899 0.35965,-5.04024 3.12097,-7.1765c2.39873,2.28322 2.46653,3.56907 2.40514,6.87733z" fill="url(#color-6)" stroke="#000000" stroke-width="0.5" stroke-linecap="butt"/><path d="M260.92849,151.64584c-0.04929,2.65634 0.05566,3.58426 -2.28847,5.73699c-2.05283,-2.24234 -2.19836,-3.14977 -2.14867,-5.49676c0.0527,-2.4883 0.28878,-4.04701 2.50595,-5.76231c1.92604,1.83328 1.98048,2.86575 1.93119,5.5221z" fill="url(#color-7)" stroke="#000000" stroke-width="0.5" stroke-linecap="butt"/><path d="M227.27579,152.52595c-0.06501,3.50402 0.07342,4.72804 -3.01875,7.56772c-2.70791,-2.9579 -2.89988,-4.15489 -2.83433,-7.25085c0.0695,-3.28234 0.38093,-5.33847 3.30562,-7.60114c2.54067,2.41831 2.61247,3.78024 2.54746,7.28425z" fill="url(#color-8)" stroke="#000000" stroke-width="0.5" stroke-linecap="butt"/><path d="M244.41708,147.60244c-0.37664,1.47186 -1.78992,2.38152 -3.15665,2.03177c-1.36673,-0.34974 -2.16935,-1.82643 -1.79271,-3.2983c0.37664,-1.47186 1.78992,-2.38152 3.15665,-2.03177c1.36673,0.34974 2.16935,1.82643 1.79271,3.2983z" fill="url(#color-9)" stroke="none" stroke-width="0" stroke-linecap="butt"/><path d="M256.42953,139.09128c-0.37664,1.47186 -1.78992,2.38152 -3.15665,2.03177c-1.36673,-0.34974 -2.16935,-1.82643 -1.79271,-3.2983c0.37664,-1.47186 1.78992,-2.38152 3.15665,-2.03177c1.36673,0.34974 2.16935,1.82643 1.79271,3.2983z" fill="#7e0000" stroke="#000000" stroke-width="0.5" stroke-linecap="butt"/><path d="M233.87826,142.37607c-0.37664,1.47186 -1.78992,2.38152 -3.15665,2.03177c-1.36673,-0.34974 -2.16935,-1.82643 -1.79271,-3.2983c0.37664,-1.47186 1.78992,-2.38152 3.15665,-2.03177c1.36673,0.34974 2.16935,1.82643 1.79271,3.2983z" fill="#7e0000" stroke="#000000" stroke-width="0.5" stroke-linecap="butt"/><path d="M260.63625,152.62304c-0.28,1.0942 -1.33066,1.77046 -2.3467,1.51046c-1.01605,-0.26 -1.61273,-1.35779 -1.33272,-2.45201c0.28,-1.0942 1.33066,-1.77046 2.3467,-1.51046c1.01605,0.26 1.61273,1.35779 1.33272,2.45201z" fill="#7e0000" stroke="#000000" stroke-width="0.5" stroke-linecap="butt"/><path d="M226.20985,152.80665c-0.28971,1.13212 -1.37675,1.83179 -2.42801,1.56278c-1.05126,-0.26901 -1.66861,-1.40485 -1.3789,-2.53696c0.28971,-1.13212 1.37675,-1.83179 2.42801,-1.56278c1.05126,0.26901 1.66861,1.40485 1.3789,2.53696z" fill="#7e0000" stroke="#000000" stroke-width="0.5" stroke-linecap="butt"/><path d="M226.93612,171.49459l0.52778,-4.83977" fill="none" stroke="#000000" stroke-width="0.5" stroke-linecap="round"/><path d="M229.60416,172.17733l0.52779,-4.83977" fill="none" stroke="#000000" stroke-width="0.5" stroke-linecap="round"/><path d="M232.88534,167.68679l-0.44245,4.50626" fill="none" stroke="#000000" stroke-width="0.5" stroke-linecap="round"/><path d="M235.31309,166.53133l-0.77595,4.42092" fill="none" stroke="#000000" stroke-width="0.5" stroke-linecap="round"/><path d="M239.71041,171.56537l0.43457,-3.0869l3.50574,0.18641l-0.76809,3.00155" fill="none" stroke="#000000" stroke-width="0.5" stroke-linecap="round"/><path d="M245.98527,169.2623l-0.68274,2.66805" fill="none" stroke="#000000" stroke-width="0.5" stroke-linecap="round"/><path d="M247.21823,172.77591l0.76809,-3.00155" fill="none" stroke="#000000" stroke-width="0.5" stroke-linecap="round"/><path d="M249.3046,172.95446l1.01625,-2.58271" fill="none" stroke="#000000" stroke-width="0.5" stroke-linecap="round"/><path d="M240.87666,179.52652c-0.22717,0.88775 -0.66836,1.54165 -0.98542,1.46052c-0.31705,-0.08113 -0.38992,-0.86658 -0.16275,-1.75433c0.22717,-0.88775 0.66836,-1.54164 0.98541,-1.46051c0.31705,0.08113 0.38992,0.86657 0.16275,1.75432z" fill="#120000" stroke="none" stroke-width="0" stroke-linecap="butt"/><path d="M225.45243,170.50609l1.88902,-7.38197c0,0 0.73618,-0.96815 1.0008,-0.90043c0.32209,0.08242 0.79342,1.35957 0.79342,1.35957l-1.88902,7.38197z" fill="#ffffff" stroke="#000000" stroke-width="0.5" stroke-linecap="butt"/><path d="M229.7027,173.7776l2.43998,-9.53503c0,0 0.8666,-0.93477 1.18686,-0.85282c0.35886,0.09183 0.86368,1.37754 0.86368,1.37754l-2.43998,9.53503z" fill="#ffffff" stroke="#000000" stroke-width="0.5" stroke-linecap="butt"/><path d="M233.81502,175.50006l2.5974,-10.1502c0,0 0.94444,-0.91485 1.30951,-0.82143c0.35217,0.09012 0.84357,1.3724 0.84357,1.3724l-2.5974,10.1502z" fill="#ffffff" stroke="#000000" stroke-width="0.5" stroke-linecap="butt"/><path d="M238.01039,176.22633l2.51869,-9.84262c0,0 0.81374,-0.9483 1.16108,-0.85942c0.37654,0.09635 1.01762,1.41694 1.01762,1.41694l-2.51869,9.84262z" fill="#ffffff" stroke="#000000" stroke-width="0.5" stroke-linecap="butt"/><path d="M241.30348,177.04942l2.36127,-9.22745c0,0 0.81743,-0.85839 1.11327,-0.78268c0.31776,0.08131 0.73224,1.25494 0.73224,1.25494l-2.36127,9.22745z" fill="#ffffff" stroke="#000000" stroke-width="0.5" stroke-linecap="butt"/><path d="M245.5266,175.9144l1.88902,-7.38197c0,0 0.79723,-0.95253 1.1175,-0.87057c0.29234,0.07481 0.728,1.34282 0.728,1.34282l-1.88902,7.38197z" fill="#ffffff" stroke="#000000" stroke-width="0.5" stroke-linecap="butt"/><path d="M249.99742,175.09213l2.04643,-7.99712c0,0 0.72538,-1.05987 0.98112,-0.99442c0.25689,0.06574 0.55678,1.38797 0.55678,1.38797l-2.04643,7.99712z" fill="#ffffff" stroke="#000000" stroke-width="0.5" stroke-linecap="butt"/><path d="M254.09646,171.88065l1.45949,-5.70346l0.90138,0.31963l-1.43813,5.61996z" fill="#ffffff" stroke="#000000" stroke-width="0.5" stroke-linecap="butt"/><path d="M223.56373,166.9708l1.65486,-6.81457l0.92078,0.59148l-1.65289,6.45922z" fill="#ffffff" stroke="#000000" stroke-width="0.5" stroke-linecap="butt"/><path d="M243.15944,147.04504c-0.32788,1.28131 -1.0186,2.21129 -1.54278,2.07715c-0.52418,-0.13414 -0.6833,-1.28158 -0.35541,-2.56289c0.32788,-1.28131 1.01861,-2.21129 1.54278,-2.07715c0.52418,0.13414 0.6833,1.28158 0.35541,2.56289z" fill="#120000" stroke="none" stroke-width="0" stroke-linecap="butt"/><path d="M254.74328,138.66082c-0.28317,1.10659 -0.84323,1.91908 -1.25092,1.81476c-0.40769,-0.10433 -0.50864,-1.08597 -0.22547,-2.19256c0.28317,-1.10659 0.84323,-1.91908 1.25092,-1.81476c0.40769,0.10433 0.50864,1.08597 0.22547,2.19256z" fill="#120000" stroke="none" stroke-width="0" stroke-linecap="butt"/><path d="M259.28669,152.52029c-0.26827,1.04835 -0.72181,1.8378 -1.01301,1.76328c-0.29121,-0.07452 -0.3098,-0.98478 -0.04154,-2.03313c0.26827,-1.04835 0.72181,-1.83779 1.01302,-1.76327c0.29121,0.07452 0.3098,0.98477 0.04153,2.03312z" fill="#120000" stroke="none" stroke-width="0" stroke-linecap="butt"/><path d="M232.52086,142.07546c-0.32788,1.28131 -1.06583,2.1992 -1.64825,2.05017c-0.58241,-0.14904 -0.78876,-1.30857 -0.46087,-2.58988c0.32788,-1.28131 1.06583,-2.1992 1.64825,-2.05017c0.58241,0.14904 0.78876,1.30857 0.46087,2.58988z" fill="#120000" stroke="none" stroke-width="0" stroke-linecap="butt"/><path d="M224.8854,152.59365c-0.34279,1.33956 -0.95117,2.34091 -1.35887,2.23658c-0.40769,-0.10433 -0.46031,-1.27482 -0.11752,-2.61439c0.34279,-1.33956 0.95117,-2.3409 1.35886,-2.23657c0.40769,0.10433 0.46031,1.27482 0.11752,2.61438z" fill="#120000" stroke="none" stroke-width="0" stroke-linecap="butt"/><path d="M244.22089,227.77827l14.81362,-17.4134l19.64899,14.97116l-15.1515,14.37246z" fill="url(#color-10)" stroke="#000000" stroke-width="0.5" stroke-linecap="butt"/><path d="M219.81473,236.69452l-15.1515,-14.37246l19.64899,-14.97116l14.81362,17.4134z" data-paper-data="{&quot;index&quot;:null}" fill="url(#color-11)" stroke="#000000" stroke-width="0.5" stroke-linecap="butt"/><g fill="#ffffff" stroke="#000000" stroke-width="0.5" stroke-linecap="butt"><path d="M225.871,186.68376l0.33548,-5.84267l2.06211,0.1184l-0.33547,5.84267c0,0 -0.74883,1.25194 -1.11745,1.23076c-0.30766,-0.01766 -0.94465,-1.34917 -0.94465,-1.34917z"/><path d="M229.22568,193.4475l0.47319,-8.24123l1.58485,0.09099l-0.47319,8.24123c0,0 -0.53849,0.48706 -0.7986,0.47212c-0.26792,-0.01539 -0.78625,-0.56313 -0.78625,-0.56313z"/><path d="M232.73813,198.73743l0.50959,-8.87518l1.58485,0.091l-0.50958,8.87518c0,0 -0.50289,0.83442 -0.74999,0.82022c-0.27763,-0.01594 -0.83487,-0.91122 -0.83487,-0.91122z"/><path d="M236.86633,204.38072l0.70978,-12.36186l1.90183,0.10921l-0.70978,12.36186c0,0 -0.64698,0.9988 -0.95406,0.98117c-0.32576,-0.01871 -0.94777,-1.09036 -0.94777,-1.09036z"/><path d="M241.57692,199.88096l0.56419,-9.82609l1.90183,0.10921l-0.56419,9.82609c0,0 -0.73563,0.56206 -1.06469,0.54317c-0.30269,-0.01737 -0.83714,-0.65237 -0.83714,-0.65237z"/><path d="M246.93964,195.10062l0.47319,-8.24123l1.90183,0.10921l-0.47319,8.24123c0,0 -0.6844,0.73767 -0.98338,0.7205c-0.33157,-0.01905 -0.91844,-0.8297 -0.91844,-0.8297z"/><path d="M250.36414,190.84503l0.60059,-10.46004l1.58486,0.09099l-0.60059,10.46004c0,0 -0.57384,0.65769 -0.8196,0.64357c-0.27843,-0.01599 -0.76523,-0.73457 -0.76523,-0.73457z"/><path d="M252.92873,184.94999l0.54599,-9.50912l1.58486,0.09099l-0.54599,9.50912c0,0 -0.62939,0.91347 -0.9021,0.89781c-0.25429,-0.0146 -0.68274,-0.98882 -0.68274,-0.98882z"/></g></g></g></svg>