<svg version="1.1" xmlns="http://www.w3.org/2000/svg" xmlns:xlink="http://www.w3.org/1999/xlink" width="69.65628" height="120.47996" viewBox="0,0,69.65628,120.47996"><g transform="translate(-207.41981,-140.59002)"><g data-paper-data="{&quot;isPaintingLayer&quot;:true}" fill-rule="nonzero" stroke="#000000" stroke-width="0.5" stroke-linejoin="miter" stroke-miterlimit="10" stroke-dasharray="" stroke-dashoffset="0" style="mix-blend-mode: normal"><g stroke-linecap="butt"><g fill="#000000"><path d="M219.68879,178.44718c-1.65397,-10.7045 6.33713,-35.50501 19.17284,-37.48827c12.83571,-1.98327 25.92644,21.35579 27.5804,32.0603c1.65397,10.7045 -7.38504,18.8309 -20.22076,20.81417c-12.83571,1.98327 -24.87852,-4.68168 -26.53249,-15.38618z"/><path d="M266.25612,177.62752l-12.1773,32.77138l-23.39884,-0.33564l-9.63986,-28.68201z"/></g><path d="M246.82649,163.40933c1.19093,7.67167 1.95862,10.29024 -3.70941,17.66354c-7.03465,-5.42513 -7.9089,-7.96431 -8.94344,-14.74566c-1.09683,-7.18962 -1.19925,-11.79521 4.32277,-17.84557c6.46444,4.31118 7.13917,7.25605 8.3301,14.92771z" fill="#ffffff"/><path d="M252.60535,153.45099c0.57201,3.68479 0.94074,4.94252 -1.78166,8.48399c-3.37882,-2.60575 -3.79875,-3.82535 -4.29564,-7.08251c-0.52682,-3.45325 -0.57601,-5.66538 2.07627,-8.57143c3.10494,2.07071 3.42903,3.48516 4.00104,7.16995z" fill="#ffffff"/><path d="M232.67479,161.21595c0.45848,2.95338 0.75402,3.96148 -1.42803,6.79999c-2.70815,-2.08853 -3.04472,-3.06605 -3.44299,-5.67669c-0.42224,-2.76781 -0.46168,-4.54084 1.66415,-6.87006c2.48863,1.65969 2.74839,2.79339 3.20686,5.74677z" fill="#ffffff"/><path d="M258.33747,166.32584c0.36813,2.37139 0.60543,3.18082 -1.14662,5.45999c-2.17449,-1.67697 -2.44472,-2.46187 -2.76452,-4.55805c-0.33904,-2.22239 -0.3707,-3.64602 1.33621,-5.51626c1.99822,1.33262 2.20679,2.24292 2.57492,4.61432z" fill="#ffffff"/><path d="M228.52812,172.32838c0.4856,3.12813 0.79863,4.19586 -1.51252,7.20234c-2.86839,-2.2121 -3.22487,-3.24747 -3.64671,-6.01258c-0.44723,-2.93158 -0.489,-4.80952 1.76261,-7.27657c2.63589,1.7579 2.91101,2.95867 3.39661,6.0868z" fill="#ffffff"/></g><path d="M227.72356,231.0889l-0.85203,-42.95751l31.24183,-0.61965l0.85203,42.95751z" fill="#000000" stroke-linecap="butt"/><path d="M247.23855,188.94398c-0.26494,3.3915 -3.21287,5.92733 -6.58437,5.66396c-3.37152,-0.26338 -5.88989,-3.22623 -5.62495,-6.61773c0.26494,-3.3915 3.21287,-5.92733 6.58437,-5.66396c3.37152,0.26338 5.88989,3.22623 5.62495,6.61773z" fill="#ffffff" stroke-linecap="butt"/><path d="M210.31107,260.80519l-2.62275,-34.47118l66.49651,-4.12732l2.62275,34.47118z" fill="#000000" stroke-linecap="butt"/><path d="M230.6837,178.84164l0.28098,4.38852" fill="none" stroke-linecap="round"/><path d="M233.44472,183.4239l-0.28097,-4.38852" fill="none" stroke-linecap="round"/><path d="M235.9732,182.99763l-0.30519,-4.07853" fill="none" stroke-linecap="round"/><path d="M237.64915,177.51437l-0.00482,4.05431" fill="none" stroke-linecap="round"/><path d="M240.12439,181.76242l-0.06784,-3.12428" fill="none" stroke-linecap="round"/><path d="M242.34286,181.31192l-0.09206,-2.81428l3.1485,-0.37785l-0.21795,2.79006" fill="none" stroke-linecap="round"/><path d="M247.37561,180.76937l0.19374,-2.48005" fill="none" stroke-linecap="round"/><path d="M249.21144,181.22469l0.21795,-2.79006" fill="none" stroke-linecap="round"/><path d="M251.0957,181.05999l0.50374,-2.45584" fill="none" stroke-linecap="round"/><g fill="#ffffff" stroke-linecap="butt"><path d="M256.12213,180.93503l0.26844,-5.15505l0.85917,0.04474l-0.26844,5.15505z"/><path d="M249.25176,186.03346l0.35792,-6.87342l1.71835,0.08948l-0.35792,6.87342z"/><path d="M253.06433,184.509l0.38775,-7.44619l1.43196,0.07457l-0.38775,7.44619z"/><path d="M230.33496,185.3356l0.35792,-6.87342l1.43196,0.07457l-0.35792,6.87342z"/><path d="M234.57119,186.70486l0.46231,-8.87815l1.43196,0.07457l-0.46231,8.87815z"/><path d="M238.56576,187.20004l0.49214,-9.45094l2.00474,0.1044l-0.49214,9.45094z"/><path d="M242.3187,186.82112l0.47723,-9.16455l1.43196,0.07457l-0.47723,9.16455z"/><path d="M245.77031,186.71369l0.4474,-8.59176l1.71835,0.08948l-0.4474,8.59176z"/><path d="M228.07365,184.6435l0.31318,-6.01424l0.85917,0.04474l-0.31318,6.01424z"/></g><g fill="#ffffff" stroke-linecap="butt"><path d="M230.3048,199.38325l0.07857,-5.28559l1.8655,0.02773l-0.07857,5.28559z"/><path d="M233.59175,205.35846l0.11082,-7.45546l1.43374,0.02131l-0.11082,7.45546z"/><path d="M236.96453,209.99759l0.11935,-8.02897l1.43374,0.02131l-0.11935,8.02897z"/><path d="M240.90655,214.93198l0.16623,-11.1832l1.72049,0.02558l-0.16623,11.1832z"/><path d="M244.98497,210.69043l0.13214,-8.8892l1.72049,0.02558l-0.13214,8.8892z"/><path d="M249.64114,206.17066l0.11082,-7.45546l1.72049,0.02558l-0.11082,7.45546z"/><path d="M252.5683,202.1988l0.14066,-9.4627l1.43374,0.02131l-0.14066,9.4627z"/><path d="M254.65653,196.78042l0.12788,-8.60245l1.43374,0.02131l-0.12788,8.60245z"/></g><g fill="#7e0000" stroke-linecap="butt"><path d="M243.85889,190.17361c-0.10688,1.36815 -1.2234,2.3968 -2.49383,2.29756c-1.27043,-0.09924 -2.21367,-1.2888 -2.10679,-2.65695c0.10688,-1.36815 1.2234,-2.3968 2.49383,-2.29756c1.27043,0.09924 2.21367,1.2888 2.10679,2.65695z"/><path d="M242.89727,164.20564c-0.10688,1.36815 -1.2234,2.3968 -2.49383,2.29756c-1.27043,-0.09924 -2.21367,-1.2888 -2.10679,-2.65695c0.10688,-1.36815 1.2234,-2.3968 2.49383,-2.29756c1.27043,0.09924 2.21367,1.2888 2.10679,2.65695z"/><path d="M252.26651,154.76891c-0.10688,1.36815 -1.2234,2.3968 -2.49383,2.29756c-1.27043,-0.09924 -2.21367,-1.2888 -2.10679,-2.65695c0.10688,-1.36815 1.2234,-2.3968 2.49383,-2.29756c1.27043,0.09924 2.21367,1.2888 2.10679,2.65695z"/><path d="M232.70871,161.18947c-0.10688,1.36815 -1.2234,2.3968 -2.49383,2.29756c-1.27043,-0.09924 -2.21367,-1.2888 -2.10679,-2.65695c0.10688,-1.36815 1.2234,-2.3968 2.49383,-2.29756c1.27043,0.09924 2.21367,1.2888 2.10679,2.65695z"/><path d="M258.10858,166.15771c-0.07945,1.0171 -0.9095,1.78182 -1.85395,1.70804c-0.94446,-0.07378 -1.64567,-0.95811 -1.56622,-1.97522c0.07945,-1.0171 0.9095,-1.78182 1.85395,-1.70804c0.94446,0.07378 1.64567,0.95811 1.56622,1.97522z"/><path d="M227.5027,171.66046c-0.08221,1.05235 -0.94101,1.84355 -1.91819,1.76722c-0.97718,-0.07634 -1.7027,-0.99131 -1.62049,-2.04365c0.08221,-1.05235 0.94101,-1.84355 1.91819,-1.76722c0.97718,0.07634 1.7027,0.99131 1.62049,2.04365z"/></g></g></g></svg>