<svg version="1.1" xmlns="http://www.w3.org/2000/svg" xmlns:xlink="http://www.w3.org/1999/xlink" width="72.6806" height="128.62079" viewBox="0,0,72.6806,128.62079"><g transform="translate(-207.14951,-137.68566)"><g data-paper-data="{&quot;isPaintingLayer&quot;:true}" fill-rule="nonzero" stroke="#000000" stroke-width="0.5" stroke-linejoin="miter" stroke-miterlimit="10" stroke-dasharray="" stroke-dashoffset="0" style="mix-blend-mode: normal"><g stroke-linecap="butt"><g fill="#000000"><path d="M222.65043,178.43556c-1.8457,-11.47806 6.56763,-38.14868 20.33091,-40.36184c13.76329,-2.21317 27.96711,22.75001 29.81279,34.22809c1.8457,11.47806 -7.80218,20.25955 -21.56548,22.47272c-13.76329,2.21317 -26.73254,-4.86086 -28.57825,-16.33893z"/><path d="M272.62496,177.24905l-12.8538,35.25319l-25.11579,-0.20608l-10.53526,-30.72041z"/></g><path d="M251.67779,162.11691c1.32875,8.22603 2.16994,11.03143 -3.86488,18.98242c-7.5859,-5.77635 -8.54096,-8.49586 -9.69599,-15.76734c-1.22457,-7.70927 -1.36483,-12.6517 4.52199,-19.18183c6.96658,4.58453 7.71015,7.74076 9.0389,15.96677z" fill="#ffffff"/><path d="M257.81453,151.39072c0.63821,3.95106 1.04223,5.29852 -1.85633,9.11745c-3.6436,-2.77445 -4.10234,-4.08066 -4.65711,-7.57324c-0.58818,-3.70284 -0.65554,-6.07675 2.17196,-9.21325c3.34612,2.202 3.70328,3.71798 4.34148,7.66903z" fill="#ffffff"/><path d="M236.47455,159.85602c0.51154,3.16679 0.83537,4.24683 -1.48788,7.30772c-2.92037,-2.22375 -3.28804,-3.27068 -3.7327,-6.07001c-0.47142,-2.96786 -0.52542,-4.87058 1.74084,-7.38449c2.68195,1.76493 2.96821,2.97999 3.47972,6.14679z" fill="#ffffff"/><path d="M264.05154,165.17131c0.41073,2.54274 0.67075,3.40994 -1.19467,5.86767c-2.34489,-1.78554 -2.64009,-2.62618 -2.99715,-4.87386c-0.37852,-2.38302 -0.42188,-3.91076 1.39778,-5.92931c2.15344,1.41711 2.38328,2.39276 2.79401,4.93551z" fill="#ffffff"/><path d="M232.09721,171.81012c0.54179,3.35417 0.8848,4.49808 -1.57591,7.74011c-3.09317,-2.35531 -3.48259,-3.46422 -3.95357,-6.42917c-0.49932,-3.14347 -0.55652,-5.15876 1.84385,-7.82143c2.84064,1.86936 3.14383,3.15631 3.68563,6.51049z" fill="#ffffff"/></g><path d="M228.57561,235.29881l1.76183,-46.08184l33.51407,1.28134l-1.76183,46.08184z" fill="#000000" stroke-linecap="butt"/><path d="M252.11002,191.35581c-0.49506,3.61748 -3.81164,6.15106 -7.40779,5.65893c-3.59617,-0.49214 -6.11011,-3.82363 -5.61505,-7.44112c0.49506,-3.61748 3.81164,-6.15106 7.40779,-5.65893c3.59617,0.49214 6.11011,3.82363 5.61505,7.44112z" fill="#ffffff" stroke-linecap="butt"/><path d="M208.0679,266.05549l-0.66389,-37.09903l71.50772,-0.28196l0.66389,37.09903z" fill="#000000" stroke-linecap="butt"/><path d="M235.02841,184.22018l-0.02782,-4.71978" fill="none" stroke-linecap="round"/><path d="M237.6737,184.5822l-0.02781,-4.71978" fill="none" stroke-linecap="round"/><path d="M240.40949,184.28288l-0.07306,-4.38913" fill="none" stroke-linecap="round"/><path d="M242.28908,182.85582l0.2576,-4.34387" fill="none" stroke-linecap="round"/><path d="M245.05623,179.86596l-0.12184,3.35187" fill="none" stroke-linecap="round"/><path d="M247.33952,182.87326l0.07659,-3.02122l3.39713,-0.20882l-0.40725,2.97597" fill="none" stroke-linecap="round"/><path d="M253.12788,179.95999l-0.36201,2.6453" fill="none" stroke-linecap="round"/><path d="M255.11186,180.2315l-0.40725,2.97597" fill="none" stroke-linecap="round"/><path d="M256.73384,183.14832l0.69267,-2.60006" fill="none" stroke-linecap="round"/><g fill="#ffffff" stroke-linecap="butt"><path d="M262.26053,182.63369l-0.50667,-5.51722l0.91953,-0.08444l0.50667,5.51722z"/><path d="M255.74556,189.10481l-0.67555,-7.3563l1.83908,-0.16889l0.67555,7.3563z"/><path d="M259.56132,186.89983l-0.73185,-7.96931l1.53256,-0.14073l0.73185,7.96931z"/><path d="M235.54389,191.26915l-0.67555,-7.3563l1.53256,-0.14073l0.67555,7.3563z"/><path d="M240.25417,192.07296l-0.8726,-9.50188l1.53256,-0.14073l0.8726,9.50188z"/><path d="M244.57348,191.9854l-0.92889,-10.11491l2.14559,-0.19704l0.92889,10.11491z"/><path d="M248.50186,191.00643l-0.90075,-9.8084l1.53256,-0.14073l0.90075,9.8084z"/><path d="M252.15186,190.36214l-0.84444,-9.19537l1.83908,-0.16889l0.84444,9.19537z"/><path d="M233.03549,190.8813l-0.59112,-6.43676l0.91953,-0.08444l0.59112,6.43676z"/></g><g fill="#ffffff" stroke-linecap="butt"><path d="M235.59951,201.23166l-0.75081,-5.62377l1.98485,-0.26499l0.75081,5.62377z"/><path d="M240.03211,207.05636l-1.05905,-7.93247l1.52547,-0.20367l1.05905,7.93247z"/><path d="M244.34497,211.44911l-1.14051,-8.54268l1.52547,-0.20367l1.14051,8.54268z"/><path d="M249.30875,216.06545l-1.58856,-11.89871l1.83058,-0.24439l1.58856,11.89871z"/><path d="M252.96911,210.91878l-1.26269,-9.45794l1.83058,-0.24439l1.26269,9.45794z"/><path d="M257.19891,205.38555l-1.05905,-7.93247l1.83058,-0.24439l1.05905,7.93247z"/><path d="M259.67961,200.70689l-1.34418,-10.06814l1.52547,-0.20367l1.34418,10.06814z"/><path d="M261.04137,194.62496l-1.22196,-9.15285l1.52547,-0.20367l1.22196,9.15285z"/></g><g fill="#7e0000" stroke-linecap="butt"><path d="M247.27468,191.67681c-0.19971,1.45932 -1.46011,2.49199 -2.81519,2.30655c-1.35508,-0.18543 -2.29169,-1.51878 -2.09198,-2.97809c0.19971,-1.45932 1.46011,-2.49199 2.81519,-2.30655c1.35508,0.18543 2.29169,1.51878 2.09198,2.97809z"/><path d="M247.86122,163.79236c-0.19971,1.45932 -1.46011,2.49199 -2.81519,2.30655c-1.35508,-0.18543 -2.29169,-1.51878 -2.09198,-2.97809c0.19971,-1.45932 1.46011,-2.49199 2.81519,-2.30655c1.35508,0.18543 2.29169,1.51878 2.09198,2.97809z"/><path d="M258.4879,154.26432c-0.19971,1.45932 -1.46011,2.49199 -2.81519,2.30655c-1.35508,-0.18543 -2.29169,-1.51878 -2.09198,-2.97809c0.19971,-1.45932 1.46011,-2.49199 2.81519,-2.30655c1.35508,0.18543 2.29169,1.51878 2.09198,2.97809z"/><path d="M237.13203,159.92615c-0.19971,1.45932 -1.46011,2.49199 -2.81519,2.30655c-1.35508,-0.18543 -2.29169,-1.51878 -2.09198,-2.97809c0.19971,-1.45932 1.46011,-2.49199 2.81519,-2.30655c1.35508,0.18543 2.29169,1.51878 2.09198,2.97809z"/><path d="M264.03853,166.83113c-0.14846,1.08487 -1.08547,1.85259 -2.09286,1.71472c-1.00739,-0.13787 -1.70368,-1.12908 -1.55521,-2.21396c0.14846,-1.08487 1.08547,-1.85259 2.09286,-1.71472c1.00739,0.13787 1.70368,1.12908 1.55521,2.21396z"/><path d="M230.90182,170.82162c-0.15361,1.12247 -1.12308,1.91676 -2.16537,1.77413c-1.0423,-0.14264 -1.76271,-1.1682 -1.6091,-2.29067c0.15361,-1.12247 1.12308,-1.91676 2.16537,-1.77413c1.0423,0.14264 1.76271,1.1682 1.6091,2.29067z"/></g></g></g></svg>