<svg version="1.1" xmlns="http://www.w3.org/2000/svg" xmlns:xlink="http://www.w3.org/1999/xlink" width="67.7515" height="119.16406" viewBox="0,0,67.7515,119.16406"><g transform="translate(-212.07862,-147.1424)"><g data-paper-data="{&quot;isPaintingLayer&quot;:true}" fill-rule="nonzero" stroke="#000000" stroke-width="0.5" stroke-linejoin="miter" stroke-miterlimit="10" stroke-dasharray="" stroke-dashoffset="0" style="mix-blend-mode: normal"><g stroke-linecap="butt"><g fill="#000000"><path d="M227.59805,185.12627c-1.71964,-10.69414 6.11908,-35.54324 18.94237,-37.60525c12.8233,-2.06202 26.05704,21.19625 27.77667,31.89041c1.71964,10.69414 -7.26931,18.87588 -20.09262,20.9379c-12.8233,2.06202 -24.90679,-4.52888 -26.62644,-15.22303z"/><path d="M274.15947,184.0208l-11.97592,32.8455l-23.40046,-0.19201l-9.81573,-28.6223z"/></g><path d="M254.64293,169.92214c1.238,7.66422 2.02174,10.27802 -3.60092,17.68598c-7.06781,-5.38184 -7.95764,-7.91562 -9.03378,-14.69048c-1.14094,-7.18275 -1.27162,-11.78763 4.21315,-17.87177c6.49078,4.27142 7.18357,7.21209 8.42157,14.87629z" fill="#ffffff"/><path d="M260.36055,159.92851c0.59462,3.68121 0.97105,4.93665 -1.72955,8.49476c-3.39475,-2.58496 -3.82216,-3.80196 -4.33904,-7.05601c-0.54801,-3.44995 -0.61077,-5.66173 2.02362,-8.58401c3.11759,2.05161 3.45036,3.46405 4.04497,7.14526z" fill="#ffffff"/><path d="M240.47803,167.81566c0.4766,2.95051 0.77832,3.95678 -1.38626,6.80862c-2.72092,-2.07187 -3.06348,-3.0473 -3.47777,-5.65545c-0.43922,-2.76516 -0.48954,-4.53793 1.62195,-6.88015c2.49878,1.64439 2.76549,2.77647 3.24207,5.72698z" fill="#ffffff"/><path d="M266.17159,172.76793c0.38268,2.36908 0.62494,3.17705 -1.11308,5.46693c-2.18474,-1.66359 -2.45978,-2.44682 -2.79245,-4.54099c-0.35267,-2.22027 -0.39307,-3.64367 1.30232,-5.52436c2.00637,1.32033 2.22051,2.22934 2.60319,4.59843z" fill="#ffffff"/><path d="M236.39965,178.95333c0.50479,3.12509 0.82437,4.19087 -1.46828,7.21148c-2.88192,-2.19445 -3.24474,-3.22762 -3.68355,-5.99008c-0.46522,-2.92878 -0.51851,-4.80643 1.71792,-7.28725c2.64663,1.74169 2.92912,2.94074 3.43391,6.06584z" fill="#ffffff"/></g><path d="M232.05876,237.3994l1.6415,-42.93459l31.22516,1.19383l-1.6415,42.93459z" fill="#000000" stroke-linecap="butt"/><path d="M253.98584,196.45758c-0.46125,3.37042 -3.55132,5.73096 -6.90186,5.27244c-3.35056,-0.45853 -5.69281,-3.56249 -5.23156,-6.93291c0.46125,-3.37042 3.55132,-5.73096 6.90186,-5.27244c3.35056,0.45853 5.69281,3.56249 5.23156,6.93291z" fill="#ffffff" stroke-linecap="butt"/><path d="M212.95166,266.05549l-0.61855,-34.56528l66.62396,-0.2627l0.61855,34.56528z" fill="#000000" stroke-linecap="butt"/><path d="M238.07085,189.80929l-0.02592,-4.39743" fill="none" stroke-linecap="round"/><path d="M240.50957,185.74915l0.02591,4.39743" fill="none" stroke-linecap="round"/><path d="M243.01635,185.77834l0.06807,4.08937" fill="none" stroke-linecap="round"/><path d="M244.83564,188.53811l0.24001,-4.0472" fill="none" stroke-linecap="round"/><path d="M247.4138,185.75245l-0.11352,3.12295" fill="none" stroke-linecap="round"/><path d="M249.54115,188.55436l0.07136,-2.81488l3.16512,-0.19456l-0.37944,2.77272" fill="none" stroke-linecap="round"/><path d="M254.5969,188.30469l0.33729,-2.46463" fill="none" stroke-linecap="round"/><path d="M256.40322,188.86574l0.37944,-2.77272" fill="none" stroke-linecap="round"/><path d="M258.29387,188.81063l0.64536,-2.42248" fill="none" stroke-linecap="round"/><g fill="#ffffff" stroke-linecap="butt"><path d="M263.64557,192.16024l0.18642,-5.15867l0.85977,0.03107l-0.18642,5.15867z"/><path d="M256.85715,197.36728l0.24857,-6.87824l1.71956,0.06214l-0.24857,6.87824z"/><path d="M260.64499,195.78238l0.26928,-7.45141l1.43296,0.05179l-0.26928,7.45141z"/><path d="M237.93164,196.97035l0.24857,-6.87824l1.43296,0.05179l-0.24857,6.87824z"/><path d="M242.18911,198.27207l0.32106,-8.88438l1.43296,0.05179l-0.32106,8.88438z"/><path d="M246.19105,198.70366l0.34178,-9.45757l2.00615,0.0725l-0.34178,9.45757z"/><path d="M249.93749,198.2651l0.33142,-9.17098l1.43296,0.05179l-0.33142,9.17098z"/><path d="M253.38696,198.10279l0.31071,-8.59779l1.71956,0.06214l-0.31071,8.59779z"/><path d="M235.65961,196.3143l0.21749,-6.01846l0.85977,0.03107l-0.21749,6.01846z"/></g><g fill="#ffffff" stroke-linecap="butt"><path d="M236.29946,199.89834l0.05823,-5.28585l1.86559,0.02055l-0.05823,5.28585z"/><path d="M239.60937,205.86085l0.08213,-7.45583l1.43381,0.01579l-0.08213,7.45583z"/><path d="M242.99998,210.48697l0.08845,-8.02937l1.43381,0.01579l-0.08845,8.02937z"/><path d="M246.96096,215.40615l0.1232,-11.18375l1.72058,0.01896l-0.1232,11.18375z"/><path d="M251.02303,211.14894l0.09794,-8.88964l1.72058,0.01896l-0.09794,8.88964z"/><path d="M255.66178,206.61129l0.08213,-7.45583l1.72058,0.01896l-0.08213,7.45583z"/><path d="M258.57363,202.6282l0.10424,-9.46317l1.43381,0.01579l-0.10424,9.46317z"/><path d="M260.641,197.20182l0.09478,-8.60288l1.43381,0.01579l-0.09478,8.60288z"/></g><g fill="#7e0000" stroke-linecap="butt"><path d="M250.54054,197.10992c-0.18607,1.35965 -1.36039,2.32179 -2.62292,2.14902c-1.26253,-0.17277 -2.13517,-1.41505 -1.9491,-2.7747c0.18607,-1.35965 1.36039,-2.32179 2.62292,-2.14902c1.26253,0.17277 2.13517,1.41505 1.9491,2.7747z"/><path d="M251.08702,171.1299c-0.18607,1.35965 -1.36039,2.32179 -2.62292,2.14902c-1.26253,-0.17277 -2.13517,-1.41505 -1.9491,-2.7747c0.18607,-1.35965 1.36039,-2.32179 2.62292,-2.14902c1.26253,0.17277 2.13517,1.41505 1.9491,2.7747z"/><path d="M260.98793,162.2526c-0.18607,1.35965 -1.36039,2.32179 -2.62292,2.14902c-1.26253,-0.17277 -2.13517,-1.41505 -1.9491,-2.7747c0.18607,-1.35965 1.36039,-2.32179 2.62292,-2.14902c1.26253,0.17277 2.13517,1.41505 1.9491,2.7747z"/><path d="M241.0906,167.52774c-0.18607,1.35965 -1.36039,2.32179 -2.62292,2.14902c-1.26253,-0.17277 -2.13517,-1.41505 -1.9491,-2.7747c0.18607,-1.35965 1.36039,-2.32179 2.62292,-2.14902c1.26253,0.17277 2.13517,1.41505 1.9491,2.7747z"/><path d="M266.15947,173.96113c-0.13832,1.01078 -1.01134,1.72606 -1.94992,1.59761c-0.93859,-0.12845 -1.58732,-1.05197 -1.44899,-2.06275c0.13832,-1.01078 1.01134,-1.72606 1.94992,-1.59761c0.93859,0.12845 1.58732,1.05197 1.44899,2.06275z"/><path d="M235.2859,177.67908c-0.14312,1.04581 -1.04638,1.78585 -2.01748,1.65296c-0.97111,-0.1329 -1.64232,-1.08842 -1.4992,-2.13422c0.14312,-1.04581 1.04638,-1.78585 2.01748,-1.65296c0.97111,0.1329 1.64232,1.08842 1.4992,2.13422z"/></g></g></g></svg>