<svg version="1.1" xmlns="http://www.w3.org/2000/svg" xmlns:xlink="http://www.w3.org/1999/xlink" width="67.7515" height="118.53493" viewBox="0,0,67.7515,118.53493"><g transform="translate(-209.80365,-140.94662)"><g data-paper-data="{&quot;isPaintingLayer&quot;:true}" fill-rule="nonzero" stroke="#000000" stroke-width="0.5" stroke-linejoin="miter" stroke-miterlimit="10" stroke-dasharray="" stroke-dashoffset="0" style="mix-blend-mode: normal"><g stroke-linecap="butt"><g fill="#000000"><path d="M224.81647,177.5553c-1.03018,-10.78242 8.38621,-35.07758 21.31536,-36.31286c12.92915,-1.23529 24.64386,22.8239 25.67403,33.60633c1.03018,10.78242 -8.46504,18.37076 -21.3942,19.60605c-12.92915,1.23529 -24.56502,-6.11707 -25.59521,-16.8995z"/><path d="M271.35292,179.43854l-14.05796,32.00974l-23.33996,-1.69251l-7.95969,-29.19294z"/></g><path d="M252.78085,164.11712c0.74387,7.72784 1.35835,10.38653 -4.72788,17.4186c-6.70807,-5.82409 -7.43355,-8.40972 -8.07294,-15.23966c-0.67789,-7.24114 -0.51295,-11.84492 5.35077,-17.56474c6.20345,4.67894 6.7062,7.65799 7.45007,15.38582z" fill="#ffffff"/><path d="M259.12769,154.5108c0.35728,3.71177 0.65242,4.98877 -2.27084,8.36634c-3.22196,-2.79738 -3.57043,-4.03928 -3.87753,-7.31979c-0.3256,-3.478 -0.24637,-5.68925 2.57003,-8.43654c2.97958,2.24735 3.22107,3.67822 3.57835,7.38999z" fill="#ffffff"/><path d="M238.78023,161.10645c0.28637,2.975 0.52293,3.99855 -1.82011,6.70569c-2.58243,-2.24212 -2.86172,-3.23752 -3.10787,-5.86687c-0.26096,-2.78764 -0.19747,-4.55998 2.0599,-6.76195c2.38816,1.80127 2.58171,2.94813 2.86807,5.92313z" fill="#ffffff"/><path d="M264.10325,167.6965c0.22994,2.38875 0.41988,3.21059 -1.46144,5.38428c-2.07354,-1.80029 -2.29778,-2.59955 -2.49544,-4.71075c-0.20954,-2.23832 -0.15856,-3.66138 1.65397,-5.42945c1.91755,1.4463 2.07295,2.36717 2.30289,4.75593z" fill="#ffffff"/><path d="M233.99588,171.9596c0.30331,3.15103 0.55387,4.23512 -1.9278,7.10246c-2.73523,-2.37478 -3.03104,-3.42909 -3.29176,-6.21401c-0.27641,-2.95259 -0.20916,-4.82979 2.18178,-7.16206c2.52947,1.90786 2.73447,3.12256 3.03778,6.2736z" fill="#ffffff"/></g><path d="M229.7838,230.57449l1.6415,-42.93459l31.22516,1.19383l-1.6415,42.93459z" fill="#000000" stroke-linecap="butt"/><path d="M251.71088,189.63267c-0.46125,3.37042 -3.55132,5.73096 -6.90186,5.27244c-3.35056,-0.45853 -5.69281,-3.56249 -5.23156,-6.93291c0.46125,-3.37042 3.55132,-5.73096 6.90186,-5.27244c3.35056,0.45853 5.69281,3.56249 5.23156,6.93291z" fill="#ffffff" stroke-linecap="butt"/><path d="M210.6767,259.23058l-0.61855,-34.56528l66.62396,-0.2627l0.61855,34.56528z" fill="#000000" stroke-linecap="butt"/><path d="M235.79589,182.98438l-0.02592,-4.39743" fill="none" stroke-linecap="round"/><path d="M238.23461,178.92424l0.02591,4.39743" fill="none" stroke-linecap="round"/><path d="M240.80946,183.0428l-0.06807,-4.08937" fill="none" stroke-linecap="round"/><path d="M242.80069,177.666l-0.24001,4.0472" fill="none" stroke-linecap="round"/><path d="M245.13884,178.92754l-0.11352,3.12295" fill="none" stroke-linecap="round"/><path d="M247.26619,181.72945l0.07136,-2.81488l3.16512,-0.19456l-0.37944,2.77272" fill="none" stroke-linecap="round"/><path d="M252.32194,181.47978l0.33729,-2.46463" fill="none" stroke-linecap="round"/><path d="M254.12826,182.04083l0.37944,-2.77272" fill="none" stroke-linecap="round"/><path d="M256.66427,179.56324l-0.64536,2.42248" fill="none" stroke-linecap="round"/><g fill="#ffffff" stroke-linecap="butt"><path d="M260.99144,183.06036l0.18642,-5.15867l0.85977,0.03107l-0.18642,5.15867z"/><path d="M254.20302,188.2674l0.24857,-6.87824l1.71956,0.06214l-0.24857,6.87824z"/><path d="M257.99086,186.6825l0.26928,-7.45141l1.43296,0.05179l-0.26928,7.45141z"/><path d="M235.27751,187.87047l0.24857,-6.87824l1.43296,0.05179l-0.24857,6.87824z"/><path d="M239.53498,189.17219l0.32106,-8.88438l1.43296,0.05179l-0.32106,8.88438z"/><path d="M243.53692,189.60378l0.34178,-9.45757l2.00615,0.0725l-0.34178,9.45757z"/><path d="M247.28336,189.16522l0.33142,-9.17098l1.43296,0.05179l-0.33142,9.17098z"/><path d="M250.73283,189.00291l0.31071,-8.59779l1.71956,0.06214l-0.31071,8.59779z"/><path d="M233.00548,187.21442l0.21749,-6.01846l0.85977,0.03107l-0.21749,6.01846z"/></g><g fill="#ffffff" stroke-linecap="butt"><path d="M234.20003,196.41785l0.38507,-5.27213l1.86075,0.13591l-0.38507,5.27213z"/><path d="M237.1348,202.57368l0.54315,-7.43647l1.43009,0.10445l-0.54315,7.43647z"/><path d="M240.23277,207.40066l0.58493,-8.00852l1.43009,0.10445l-0.58493,8.00852z"/><path d="M243.8819,212.55543l0.81472,-11.15472l1.71611,0.12535l-0.81472,11.15472z"/><path d="M248.19951,208.55762l0.64761,-8.86656l1.71611,0.12535l-0.64761,8.86656z"/><path d="M253.11005,204.31559l0.54315,-7.43647l1.71611,0.12535l-0.54315,7.43647z"/><path d="M256.2627,200.52023l0.68938,-9.4386l1.43009,0.10445l-0.68938,9.4386z"/><path d="M258.66175,195.23212l0.62672,-8.58054l1.43009,0.10445l-0.62672,8.58054z"/></g><g fill="#7e0000" stroke-linecap="butt"><path d="M247.50725,191.42249c-0.18607,1.35965 -1.36039,2.32179 -2.62292,2.14902c-1.26253,-0.17277 -2.13517,-1.41505 -1.9491,-2.7747c0.18607,-1.35965 1.36039,-2.32179 2.62292,-2.14902c1.26253,0.17277 2.13517,1.41505 1.9491,2.7747z"/><path d="M248.05373,165.44247c-0.18607,1.35965 -1.36039,2.32179 -2.62292,2.14902c-1.26253,-0.17277 -2.13517,-1.41505 -1.9491,-2.7747c0.18607,-1.35965 1.36039,-2.32179 2.62292,-2.14902c1.26253,0.17277 2.13517,1.41505 1.9491,2.7747z"/><path d="M257.95464,156.56517c-0.18607,1.35965 -1.36039,2.32179 -2.62292,2.14902c-1.26253,-0.17277 -2.13517,-1.41505 -1.9491,-2.7747c0.18607,-1.35965 1.36039,-2.32179 2.62292,-2.14902c1.26253,0.17277 2.13517,1.41505 1.9491,2.7747z"/><path d="M238.05731,161.84031c-0.18607,1.35965 -1.36039,2.32179 -2.62292,2.14902c-1.26253,-0.17277 -2.13517,-1.41505 -1.9491,-2.7747c0.18607,-1.35965 1.36039,-2.32179 2.62292,-2.14902c1.26253,0.17277 2.13517,1.41505 1.9491,2.7747z"/><path d="M263.12618,168.2737c-0.13832,1.01078 -1.01134,1.72606 -1.94992,1.59761c-0.93859,-0.12845 -1.58732,-1.05197 -1.44899,-2.06275c0.13832,-1.01078 1.01134,-1.72606 1.94992,-1.59761c0.93859,0.12845 1.58732,1.05197 1.44899,2.06275z"/><path d="M232.25261,171.99165c-0.14312,1.04581 -1.04638,1.78585 -2.01748,1.65296c-0.97111,-0.1329 -1.64232,-1.08842 -1.4992,-2.13422c0.14312,-1.04581 1.04638,-1.78585 2.01748,-1.65296c0.97111,0.1329 1.64232,1.08842 1.4992,2.13422z"/></g></g></g></svg>