<svg version="1.1" xmlns="http://www.w3.org/2000/svg" xmlns:xlink="http://www.w3.org/1999/xlink" width="71.84435" height="126.23041" viewBox="0,0,71.84435,126.23041"><g transform="translate(-193.60354,-166.9849)"><g data-paper-data="{&quot;isPaintingLayer&quot;:true}" fill-rule="nonzero" stroke="#000000" stroke-width="0.5" stroke-linejoin="miter" stroke-miterlimit="10" stroke-dasharray="" stroke-dashoffset="0" style="mix-blend-mode: normal"><g stroke-linecap="butt"><g fill="#000000"><path d="M201.07268,206.37412c-2.48262,-10.54317 3.55271,-35.89071 16.19498,-38.86761c12.64226,-2.9769 27.5109,19.27175 29.99352,29.81493c2.48262,10.54317 -5.89604,19.34886 -18.53831,22.32576c-12.64226,2.9769 -25.16757,-2.72989 -27.65019,-13.27307z"/><path d="M247.43473,201.93024l-9.58804,33.62022l-23.35391,1.48771l-11.84437,-27.84413z"/></g><path d="M226.95679,189.26843c1.78479,7.55562 2.75409,10.10645 -2.32249,17.89878c-7.4358,-4.86079 -8.50515,-7.32417 -10.06468,-14.00435c-1.65343,-7.08236 -2.11423,-11.66599 2.91981,-18.12803c6.78056,3.79463 7.68259,6.678 9.46738,14.23361z" fill="#ffffff"/><path d="M231.94253,178.89028c0.85725,3.62905 1.32281,4.85424 -1.11551,8.59698c-3.5715,-2.33469 -4.08513,-3.51788 -4.83419,-6.72645c-0.79416,-3.40173 -1.01549,-5.60331 1.40241,-8.7071c3.25678,1.8226 3.69004,3.20752 4.54729,6.83657z" fill="#ffffff"/><path d="M212.67725,188.18386c0.6871,2.9087 1.06025,3.89072 -0.8941,6.89055c-2.86258,-1.87127 -3.27426,-2.81961 -3.87464,-5.3913c-0.63652,-2.72652 -0.81392,-4.49109 1.12405,-6.9788c2.61033,1.46083 2.95759,2.57086 3.64468,5.47956z" fill="#ffffff"/><path d="M238.65995,191.2796c0.5517,2.33552 0.85132,3.12401 -0.71791,5.53271c-2.29849,-1.50252 -2.62903,-2.26399 -3.11111,-4.3289c-0.51109,-2.18924 -0.65353,-3.60608 0.90254,-5.60357c2.09594,1.17295 2.37477,2.06424 2.92647,4.39977z" fill="#ffffff"/><path d="M209.40862,199.58549c0.72775,3.08081 1.12298,4.12092 -0.947,7.29826c-3.03196,-1.98199 -3.46799,-2.98645 -4.1039,-5.71031c-0.67419,-2.88784 -0.86209,-4.75683 1.19055,-7.39174c2.76479,1.54727 3.13259,2.72297 3.86034,5.80378z" fill="#ffffff"/></g><path d="M214.23415,261.95124l-4.19502,-42.76068l31.09868,-3.05092l4.19502,42.76068z" fill="#000000" stroke-linecap="butt"/><path d="M230.40758,218.41448c0,3.40183 -2.74148,6.15955 -6.12326,6.15955c-3.38179,0 -6.12326,-2.75772 -6.12326,-6.15955c0,-3.40183 2.74148,-6.15955 6.12326,-6.15955c3.38179,0 6.12326,2.75772 6.12326,6.15955z" fill="#ffffff" stroke-linecap="butt"/><path d="M199.18889,292.93337l-5.29944,-34.16222l65.9731,-9.2936l5.29944,34.16222z" fill="#000000" stroke-linecap="butt"/><path d="M213.73814,213.98544l-0.62191,-4.35331" fill="none" stroke-linecap="round"/><path d="M216.22574,213.98544l-0.6219,-4.35331" fill="none" stroke-linecap="round"/><path d="M218.71334,213.36355l-0.6219,-4.04237" fill="none" stroke-linecap="round"/><path d="M219.95715,207.76642l0.31095,4.04237" fill="none" stroke-linecap="round"/><path d="M222.75572,211.80879l-0.31096,-3.10951" fill="none" stroke-linecap="round"/><path d="M224.93237,211.18688l-0.31096,-2.79856l3.10951,-0.62191v2.79856" fill="none" stroke-linecap="round"/><path d="M229.90758,207.76642v2.48761" fill="none" stroke-linecap="round"/><path d="M231.77329,210.56498v-2.79856" fill="none" stroke-linecap="round"/><path d="M233.94995,207.76642l-0.31095,2.48761" fill="none" stroke-linecap="round"/><g fill="#ffffff" stroke-linecap="butt"><path d="M237.73406,208.81148l-0.65603,-5.12018l0.85336,-0.10934l0.65603,5.12018z"/><path d="M231.88408,215.05438l-0.87471,-6.82692l1.70673,-0.21868l0.87471,6.82692z"/><path d="M235.36331,212.87386l-0.9476,-7.39582l1.42227,-0.18223l0.9476,7.39582z"/><path d="M213.14651,217.74431l-0.87471,-6.82692l1.42227,-0.18223l0.87471,6.82692z"/><path d="M217.55911,218.33543l-1.12984,-8.81809l1.42227,-0.18223l1.12984,8.81809z"/><path d="M221.57792,218.10964l-1.20273,-9.38701l1.99118,-0.25512l1.20273,9.38701z"/><path d="M225.20295,217.06692l-1.16628,-9.10256l1.42227,-0.18223l1.16628,9.10256z"/><path d="M228.57996,216.34511l-1.09339,-8.53364l1.70673,-0.21868l1.09339,8.53364z"/><path d="M210.79798,217.46697l-0.76537,-5.97356l0.85336,-0.10934l0.76537,5.97356z"/></g><g fill="#ffffff" stroke-linecap="butt"><path d="M215.417,230.53791l-0.69216,-5.24066l1.84964,-0.24429l0.69216,5.24066z"/><path d="M219.53924,235.97062l-0.97631,-7.39209l1.42155,-0.18775l0.97631,7.39209z"/><path d="M223.55177,240.069l-1.05141,-7.96072l1.42155,-0.18775l1.05141,7.96072z"/><path d="M228.17049,244.37658l-1.46447,-11.08814l1.70587,-0.2253l1.46447,11.08814z"/><path d="M231.58759,239.58621l-1.16406,-8.81364l1.70587,-0.2253l1.16406,8.81364z"/><path d="M235.53576,234.43643l-0.97631,-7.39209l1.70587,-0.2253l0.97631,7.39209z"/><path d="M237.85317,230.08056l-1.23917,-9.38227l1.42155,-0.18775l1.23917,9.38227z"/><path d="M239.12989,224.4158l-1.12651,-8.52933l1.42155,-0.18775l1.12651,8.52933z"/></g><g fill="#7e0000" stroke-linecap="butt"><path d="M227.04536,218.76955c0,1.37232 -1.03302,2.4848 -2.30732,2.4848c-1.2743,0 -2.30732,-1.11248 -2.30732,-2.4848c0,-1.37232 1.03302,-2.4848 2.30732,-2.4848c1.2743,0 2.30732,1.11248 2.30732,2.4848z"/><path d="M224.06425,192.95534c0,1.37232 -1.03302,2.4848 -2.30732,2.4848c-1.2743,0 -2.30732,-1.11248 -2.30732,-2.4848c0,-1.37232 1.03302,-2.4848 2.30732,-2.4848c1.2743,0 2.30732,1.11248 2.30732,2.4848z"/><path d="M232.67009,182.81759c0,1.37232 -1.03302,2.4848 -2.30732,2.4848c-1.2743,0 -2.30732,-1.11248 -2.30732,-2.4848c0,-1.37232 1.03302,-2.4848 2.30732,-2.4848c1.2743,0 2.30732,1.11248 2.30732,2.4848z"/><path d="M213.67173,190.74183c0,1.37232 -1.03302,2.4848 -2.30732,2.4848c-1.2743,0 -2.30732,-1.11248 -2.30732,-2.4848c0,-1.37232 1.03302,-2.4848 2.30732,-2.4848c1.2743,0 2.30732,1.11248 2.30732,2.4848z"/><path d="M239.38138,193.71681c0,1.0202 -0.76797,1.84724 -1.71529,1.84724c-0.94734,0 -1.71529,-0.82703 -1.71529,-1.84724c0,-1.0202 0.76797,-1.84724 1.71529,-1.84724c0.94734,0 1.71529,0.82703 1.71529,1.84724z"/><path d="M209.29703,201.58647c0,1.05556 -0.79457,1.91124 -1.77473,1.91124c-0.98016,0 -1.77473,-0.85569 -1.77473,-1.91124c0,-1.05556 0.79457,-1.91124 1.77473,-1.91124c0.98016,0 1.77473,0.85569 1.77473,1.91124z"/></g></g></g></svg>