<svg version="1.1" xmlns="http://www.w3.org/2000/svg" xmlns:xlink="http://www.w3.org/1999/xlink" width="104.6125" height="181.70091" viewBox="0,0,104.6125,181.70091"><g transform="translate(-191.38536,-104.41824)"><g data-paper-data="{&quot;isPaintingLayer&quot;:true}" fill-rule="nonzero" stroke="#000000" stroke-width="0.5" stroke-linejoin="miter" stroke-miterlimit="10" stroke-dasharray="" stroke-dashoffset="0" style="mix-blend-mode: normal"><g stroke-linecap="butt"><g fill="#000000"><path d="M206.3021,163.30532c-3.98823,-15.5797 4.24296,-53.38067 22.92448,-58.16291c18.68153,-4.78226 41.39263,27.81806 45.38083,43.39778c3.98823,15.5797 -8.1967,28.89213 -26.87824,33.67439c-18.68153,4.78226 -37.43886,-3.32951 -41.4271,-18.90921z"/><path d="M274.99744,155.37679l-13.26743,50.18355l-34.6254,2.87928l-18.38239,-40.99351z"/></g><path d="M244.23488,137.16897c2.8665,11.16481 4.37864,14.92357 -2.93353,26.63689c-11.17782,-7.00209 -12.83601,-10.62819 -15.34297,-20.4999c-2.65789,-10.46603 -3.47359,-17.25705 3.81365,-26.99436c10.17454,5.43824 11.59639,9.6926 14.46288,20.85738z" fill="#ffffff"/><path d="M251.33793,121.61972c1.37681,5.3626 2.1031,7.16796 -1.40898,12.79397c-5.36883,-3.36318 -6.16531,-5.10484 -7.36943,-9.84634c-1.27662,-5.02694 -1.66839,-8.28875 1.83174,-12.96569c4.88694,2.61205 5.56989,4.65548 6.94669,10.01805z" fill="#ffffff"/><path d="M223.00619,135.96912c1.10353,4.29813 1.68568,5.74521 -1.12934,10.25448c-4.30316,-2.69563 -4.94152,-4.09157 -5.90664,-7.89192c-1.02321,-4.02914 -1.33724,-6.64353 1.46815,-10.39209c3.91694,2.09359 4.46431,3.73139 5.5678,8.02956z" fill="#ffffff"/><path d="M261.6656,139.81831c0.88606,3.45115 1.35348,4.61305 -0.90677,8.23375c-3.45519,-2.16443 -3.96773,-3.28531 -4.7427,-6.33675c-0.82157,-3.23517 -1.07372,-5.33432 1.17882,-8.34425c3.14506,1.681 3.58455,2.9961 4.47062,6.44725z" fill="#ffffff"/><path d="M218.48153,152.98836c1.16881,4.55247 1.7854,6.08511 -1.19615,10.86123c-4.55778,-2.85511 -5.2339,-4.33369 -6.25614,-8.35889c-1.08376,-4.26755 -1.41638,-7.0366 1.55502,-11.007c4.14869,2.21746 4.72845,3.95217 5.89727,8.50465z" fill="#ffffff"/></g><path d="M221.62618,240.89372l-3.37664,-63.7041l46.33027,-2.45572l3.37664,63.7041z" fill="#000000" stroke-linecap="butt"/><path d="M248.51277,177.39396c-0.2264,5.04578 -4.47622,8.95373 -9.49224,8.72868c-5.01605,-0.22505 -8.89883,-4.49788 -8.67245,-9.54369c0.2264,-5.04578 4.47622,-8.95373 9.49224,-8.72868c5.01605,0.22505 8.89883,4.49788 8.67245,9.54369z" fill="#ffffff" stroke-linecap="butt"/><path d="M197.24844,285.84686l-5.58697,-51.02391l98.47331,-9.39438l5.58697,51.02391z" fill="#000000" stroke-linecap="butt"/><path d="M223.44977,163.21682l0.63275,6.49844" fill="none" stroke-linecap="round"/><path d="M227.13951,163.38237l0.63274,6.49844" fill="none" stroke-linecap="round"/><path d="M230.84994,163.08666l0.65343,6.03726" fill="none" stroke-linecap="round"/><path d="M233.91295,166.92128l-0.19221,-6.01654" fill="none" stroke-linecap="round"/><path d="M237.34842,162.45396l0.2543,4.63287" fill="none" stroke-linecap="round"/><path d="M240.87263,166.30924l-0.27499,-4.17167l4.65358,-0.71552l-0.18622,4.15097" fill="none" stroke-linecap="round"/><path d="M248.3142,165.25667l0.16555,-3.68976" fill="none" stroke-linecap="round"/><path d="M251.06085,165.84205l0.18622,-4.15097" fill="none" stroke-linecap="round"/><path d="M253.84886,165.505l0.62676,-3.66908" fill="none" stroke-linecap="round"/><g fill="#ffffff" stroke-linecap="butt"><path d="M258.72747,158.01743l-1.39284,-7.5367l1.25611,-0.23214l1.39284,7.5367z"/><path d="M250.56747,167.75254l-1.85712,-10.04894l2.51224,-0.46427l1.85712,10.04894z"/><path d="M255.54634,164.23439l-2.01188,-10.88633l2.09353,-0.38688l2.01188,10.88633z"/><path d="M223.01028,173.2784l-1.85712,-10.04894l2.09353,-0.38688l1.85712,10.04894z"/><path d="M229.6004,173.7925l-2.39879,-12.97986l2.09353,-0.38688l2.39879,12.97986z"/><path d="M235.53964,173.12788l-2.55355,-13.81728l2.93095,-0.54167l2.55355,13.81728z"/><path d="M240.82807,171.28451l-2.47618,-13.39858l2.09353,-0.38688l2.47618,13.39858z"/><path d="M245.77514,169.93724l-2.3214,-12.56116l2.51224,-0.46427l2.3214,12.56116z"/><path d="M219.50588,173.06001l-1.62499,-8.79282l1.25611,-0.23214l1.62499,8.79282z"/></g><g fill="#ffffff" stroke-linecap="butt"><path d="M228.47852,208.80362l-1.74259,-7.65273l2.70095,-0.61503l1.74259,7.65273z"/><path d="M235.31845,216.26944l-2.45799,-10.79437l2.07583,-0.4727l2.45799,10.79437z"/><path d="M241.81307,221.7777l-2.64706,-11.62474l2.07583,-0.4727l2.64706,11.62474z"/><path d="M249.23255,227.51201l-3.68696,-16.19156l2.49103,-0.56723l3.68696,16.19156z"/><path d="M253.62687,219.96097l-2.93065,-12.87021l2.49103,-0.56723l2.93065,12.87021z"/><path d="M258.75694,211.80569l-2.45799,-10.79437l2.49103,-0.56723l2.45799,10.79437z"/><path d="M261.58511,205.04794l-3.11976,-13.70055l2.07583,-0.4727l3.11976,13.70055z"/><path d="M262.69509,196.498l-2.83611,-12.45504l2.07583,-0.4727l2.83611,12.45504z"/></g><g fill="#7e0000" stroke-linecap="butt"><path d="M241.38118,179.33519c-0.09133,2.03551 -1.6976,3.61686 -3.5877,3.53206c-1.8901,-0.08479 -3.3483,-1.80364 -3.25698,-3.83915c0.09133,-2.03551 1.6976,-3.61686 3.5877,-3.53206c1.8901,0.08479 3.3483,1.80364 3.25698,3.83915z"/><path d="M238.67732,140.84778c-0.09133,2.03551 -1.6976,3.61686 -3.5877,3.53206c-1.8901,-0.08479 -3.3483,-1.80364 -3.25698,-3.83915c0.09133,-2.03551 1.6976,-3.61686 3.5877,-3.53206c1.8901,0.08479 3.3483,1.80364 3.25698,3.83915z"/><path d="M252.1166,126.38361c-0.09133,2.03551 -1.6976,3.61686 -3.5877,3.53206c-1.8901,-0.08479 -3.3483,-1.80364 -3.25698,-3.83915c0.09133,-2.03551 1.6976,-3.61686 3.5877,-3.53206c1.8901,0.08479 3.3483,1.80364 3.25698,3.83915z"/><path d="M223.4099,136.87298c-0.09133,2.03551 -1.6976,3.61686 -3.5877,3.53206c-1.8901,-0.08479 -3.3483,-1.80364 -3.25698,-3.83915c0.09133,-2.03551 1.6976,-3.61686 3.5877,-3.53206c1.8901,0.08479 3.3483,1.80364 3.25698,3.83915z"/><path d="M261.34584,142.99654c-0.06789,1.51321 -1.26202,2.68883 -2.66717,2.62578c-1.40515,-0.06305 -2.48918,-1.34085 -2.42129,-2.85407c0.06789,-1.51321 1.26202,-2.68883 2.66717,-2.62578c1.40515,0.06305 2.48918,1.34085 2.42129,2.85407z"/><path d="M216.19939,152.66721c-0.07025,1.56566 -1.30575,2.78197 -2.75957,2.71675c-1.45383,-0.06524 -2.57544,-1.38731 -2.50519,-2.95297c0.07025,-1.56566 1.30575,-2.78197 2.75957,-2.71675c1.45383,0.06524 2.57544,1.38731 2.50519,2.95297z"/></g></g></g></svg>