<svg version="1.1" xmlns="http://www.w3.org/2000/svg" xmlns:xlink="http://www.w3.org/1999/xlink" width="179.21578" height="281.86092" viewBox="0,0,179.21578,281.86092"><defs><linearGradient x1="246" y1="148" x2="246" y2="274" gradientUnits="userSpaceOnUse" id="color-1"><stop offset="0" stop-color="#000000"/><stop offset="1" stop-color="#000000" stop-opacity="0"/></linearGradient><radialGradient cx="246" cy="124" r="46.15417" gradientUnits="userSpaceOnUse" id="color-2"><stop offset="0" stop-color="#ffffff"/><stop offset="1" stop-color="#ffffff" stop-opacity="0"/></radialGradient><radialGradient cx="248.5" cy="165.5" r="61" gradientUnits="userSpaceOnUse" id="color-3"><stop offset="0" stop-color="#727272"/><stop offset="1" stop-color="#727272" stop-opacity="0"/></radialGradient><radialGradient cx="247.5" cy="80.5" r="41" gradientUnits="userSpaceOnUse" id="color-4"><stop offset="0" stop-color="#dc5858"/><stop offset="1" stop-color="#dc5858" stop-opacity="0"/></radialGradient></defs><g transform="translate(-156.71743,-59.06248)"><g data-paper-data="{&quot;isPaintingLayer&quot;:true}" fill-rule="nonzero" stroke-linejoin="miter" stroke-miterlimit="10" stroke-dasharray="" stroke-dashoffset="0" style="mix-blend-mode: normal"><path d="M332.68321,145.67153c-0.27125,45.75515 -39.03761,82.61852 -86.58708,82.33663c-47.54947,-0.28189 -85.87605,-37.60229 -85.6048,-83.35744c0.27125,-45.75515 39.03761,-82.61852 86.58708,-82.33663c47.54947,0.28189 85.87605,37.60229 85.6048,83.35744z" fill="#d10000" stroke="#000000" stroke-width="6.5" stroke-linecap="butt"/><path d="M159.97295,305.65061l0.81851,-167.98828l171.56268,1.2375l-0.81851,167.98828c0,0 -33.39267,32.49171 -88.25119,30.715c-58.73815,-0.98698 -83.31149,-31.9525 -83.31149,-31.9525z" fill="#d10000" stroke="#000000" stroke-width="6.5" stroke-linecap="butt"/><path d="M171.26509,139.29898l149.44252,0.40201" fill="none" stroke="#d10000" stroke-width="16.5" stroke-linecap="round"/><path d="M159.5,274v-126h173v126z" fill="url(#color-1)" stroke="none" stroke-width="0" stroke-linecap="butt"/><path d="M322.4095,152.58353c-1.39554,22.61066 -36.82671,38.82323 -79.13774,36.21178c-42.31104,-2.61145 -75.4796,-23.058 -74.08407,-45.66866c1.39554,-22.61066 36.82671,-38.82323 79.13774,-36.21178c42.31104,2.61145 75.4796,23.058 74.08407,45.66866z" fill="#11829b" stroke="#000000" stroke-width="6.5" stroke-linecap="butt"/><path d="M292.14255,125.03564c-0.96649,7.44513 -22.40872,13.01692 -47.89255,12.44496c-25.48383,-0.57197 -45.35905,-7.07111 -44.39256,-14.51623c0.96649,-7.44513 22.40872,-13.01692 47.89255,-12.44496c25.48383,0.57197 45.35905,7.07111 44.39256,14.51623z" fill="url(#color-2)" stroke="none" stroke-width="0" stroke-linecap="butt"/><path d="M309.5,165.5c0,10.14823 -27.31063,18.375 -61,18.375c-33.68937,0 -61,-8.22677 -61,-18.375c0,-10.14823 27.31063,-18.375 61,-18.375c33.68937,0 61,8.22677 61,18.375z" fill="url(#color-3)" stroke="none" stroke-width="0" stroke-linecap="butt"/><path d="M247.5,95.08333c-22.64367,0 -41,-6.52918 -41,-14.58333c0,-8.05415 18.35633,-14.58333 41,-14.58333c22.64367,0 41,6.52918 41,14.58333c0,8.05415 -18.35633,14.58333 -41,14.58333z" fill="url(#color-4)" stroke="none" stroke-width="0" stroke-linecap="butt"/></g></g></svg>