<svg version="1.1" xmlns="http://www.w3.org/2000/svg" xmlns:xlink="http://www.w3.org/1999/xlink" width="115.31171" height="302.40066" viewBox="0,0,115.31171,302.40066"><g transform="translate(-179.76129,-106.82138)"><g data-paper-data="{&quot;isPaintingLayer&quot;:true}" fill-rule="nonzero" stroke-linejoin="miter" stroke-miterlimit="10" stroke-dasharray="" stroke-dashoffset="0" style="mix-blend-mode: normal"><g stroke="none" stroke-width="0" stroke-linecap="butt"><path d="M261.17812,123.52554c5.27306,13.46609 -1.26168,28.61528 -14.59575,33.83665c-13.33408,5.22136 -28.41814,-1.46231 -33.69121,-14.9284c-5.27307,-13.46609 1.26168,-28.61528 14.59575,-33.83665c13.33408,-5.22137 28.41814,1.46231 33.69121,14.92841z" fill="#000000"/><path d="M235.28221,127.86092c-8.78582,3.54157 -16.73539,4.36039 -17.75584,1.82888c-1.02045,-2.53151 5.27463,-7.45471 14.06045,-10.99628c8.78582,-3.54157 16.73538,-4.36039 17.75583,-1.82888c1.02046,2.53151 -5.27462,7.45471 -14.06044,10.99628z" fill="#ffffff"/></g><path d="M236.71343,170.7909v-19.47119h16.95878v19.47119z" fill="#000000" stroke="none" stroke-width="0" stroke-linecap="butt"/><path d="M224.90719,223.92858c0,0 0.42349,-5.17878 -1.15773,-12.13401c-1.16629,-5.1301 -4.28748,-11.65879 -5.02581,-15.56475c-1.72755,-9.13918 -4.21736,-27.32463 -4.21736,-27.32463c0,0 0.92067,0.40782 2.54668,-0.40651c3.37205,-1.68878 10.97951,-0.55791 17.29582,-5.08244c1.85374,-1.32788 6.76187,-3.34376 10.30078,-3.42955c5.79921,-0.14059 11.73378,4.58772 16.94231,5.83912c9.12457,2.19227 11.75616,1.55733 11.79322,1.56977c0,0 -4.63437,26.07138 -7.09025,36.05506c-1.70637,6.93676 -1.96862,18.1086 -1.96862,18.1086z" fill="#000000" stroke="none" stroke-width="0" stroke-linecap="butt"/><path d="M219.42837,254.81123l5.7141,-37.11948l39.95846,1.6326l4.8978,37.11948c0,0 -15.27425,7.24202 -23.08797,7.62661c-8.67977,0.42722 -27.48239,-9.25921 -27.48239,-9.25921z" fill="#000000" stroke="none" stroke-width="0" stroke-linecap="butt"/><path d="M200.00638,318.61972c0,0 8.10147,-26.37817 13.22359,-45.84926c2.25011,-8.55349 2.77801,-15.77407 3.72857,-18.84003c0.99314,-3.20329 5.28182,-13.91902 5.28182,-13.91902l15.15702,14.94427c0,0 9.00482,-3.60484 8.76145,0.60092c-0.20304,3.5088 -5.00583,5.62637 -8.39482,11.88238c-1.96606,3.6293 -2.91473,11.90085 -3.62325,14.18614c-3.67867,11.86524 -18.02963,41.98767 -18.02963,41.98767z" fill="#000000" stroke="#000000" stroke-width="0.5" stroke-linecap="butt"/><path d="M263.78333,326.96636c0,0 -7.22126,-27.42848 -9.50117,-42.70563c-0.17891,-1.19882 0.61451,-3.26472 0.48974,-4.28218c-0.45888,-3.7422 -2.0061,-10.28329 -1.99611,-15.5454c0.01408,-7.41124 -5.33735,-13.00668 -5.33735,-13.00668l16.06584,-15.37156c0,0 6.97019,11.15884 8.67832,18.16158c0.57884,2.37303 0.23895,6.55553 0.85041,9.52344c2.38624,11.58233 5.77523,24.89569 6.76179,32.03343c1.54166,11.15394 -0.15662,29.24885 -0.15662,29.24885z" fill="#000000" stroke="#000000" stroke-width="0.5" stroke-linecap="butt"/><path d="M196.96004,388.3975c0,0 -1.82388,-37.26612 -1.23047,-51.26462c0.46146,-10.88588 4.49567,-25.76167 4.49567,-25.76167l19.80777,3.2652c0,0 4.8978,18.72333 4.8978,29.80233c0,6.8203 -5.39881,17.57323 -6.66708,27.13129c-1.17724,8.87199 1.76928,16.82747 1.76928,16.82747z" fill="#000000" stroke="#000000" stroke-width="0.5" stroke-linecap="butt"/><path d="M255.37857,380.4161c0,0 -1.24731,-32.54244 -0.4709,-40.66641c0.55484,-5.80559 11.22262,-27.17612 11.22262,-27.17612l16.10244,0.95665c0,0 0.54453,12.14084 -0.4944,21.4363c-0.59547,5.32777 -5.45178,17.59875 -6.86978,25.95457c-1.36594,8.04907 -0.12236,20.45166 -0.12236,20.45166z" fill="#000000" stroke="#000000" stroke-width="0.5" stroke-linecap="butt"/><path d="M191.69067,283.52124l8.71823,-53.66559l15.13185,1.62866l-8.71823,53.66559z" fill="#000000" stroke="#000000" stroke-width="0.5" stroke-linecap="butt"/><path d="M189.86067,319.17859v-33.72203h18.63586v33.72203z" fill="#000000" stroke="#000000" stroke-width="0.5" stroke-linecap="butt"/><path d="M269.72864,222.44961c0,0 0.85212,-12.77822 0.43403,-25.02117c-0.12245,-3.5857 -5.80697,-8.62728 -6.24425,-11.80121c-0.42864,-3.11122 1.54542,-11.48025 1.54542,-13.28186c0,-5.24322 4.2648,-4.91591 4.2648,-4.91591l6.5652,1.4216c0,0 4.73867,5.708 4.73867,8.54444c0,3.08517 -0.92752,7.68083 -1.49928,15.23409c-0.55309,7.30658 0.81569,20.22346 0.8734,25.51946c0.04395,4.0334 0.15202,12.3563 0.15202,12.3563z" fill="#000000" stroke="#000000" stroke-width="0.5" stroke-linecap="butt"/><path d="M278.07813,283.34126l-9.44851,-57.8027l11.38538,-1.86107l9.44851,57.8027z" fill="#000000" stroke="#000000" stroke-width="0.5" stroke-linecap="butt"/><path d="M273.27832,316.51633v-27.51008h18.63586v27.51008z" fill="#000000" stroke="#000000" stroke-width="0.5" stroke-linecap="butt"/><path d="M254.64246,385.81133v-10.64907h31.05977v10.64907z" fill="#000000" stroke="#000000" stroke-width="0.5" stroke-linecap="butt"/><path d="M188.14129,406.22204v-13.31133h30.11688v13.31133z" fill="#000000" stroke="#000000" stroke-width="6" stroke-linecap="butt"/><path d="M192.52293,315.3695l-4.43711,19.52328l-5.32453,6.21195" fill="none" stroke="#000000" stroke-width="6" stroke-linecap="round"/><path d="M199.62231,317.14435l-5.32453,20.41071l-4.43711,4.43711" fill="none" stroke="#000000" stroke-width="6" stroke-linecap="round"/><path d="M207.6091,317.14435v11.53649l-7.9868,12.4239" fill="none" stroke="#000000" stroke-width="6" stroke-linecap="round"/><path d="M275.05316,313.59466v15.97359l-5.32453,13.31133" fill="none" stroke="#000000" stroke-width="6" stroke-linecap="round"/><path d="M281.26511,319.80661l1.77485,14.19875l-5.32453,7.9868" fill="none" stroke="#000000" stroke-width="6" stroke-linecap="round"/><path d="M290.13934,313.59466l1.77484,14.19875l-7.09938,7.09938" fill="none" stroke="#000000" stroke-width="6" stroke-linecap="round"/><path d="M258.19215,322.46888l5.32453,-14.19875l7.09938,-13.31133" fill="none" stroke="#000000" stroke-width="6" stroke-linecap="round"/><path d="M208.49653,289.63427l9.76164,7.09938l5.32453,17.74843" fill="none" stroke="#000000" stroke-width="6" stroke-linecap="round"/><path d="M234.99369,123.124c0,0.84168 -0.58485,1.52401 -1.30629,1.52401c-0.72144,0 -1.3063,-0.68233 -1.3063,-1.52401c0,-0.84168 0.58485,-1.52401 1.3063,-1.52401c0.72144,0 1.30629,0.68232 1.30629,1.52401z" fill="#000000" stroke="#000000" stroke-width="1.5" stroke-linecap="butt"/><path d="" fill="#000000" stroke="none" stroke-width="0.5" stroke-linecap="butt"/><path d="M202.80791,230.00602l3.30667,-5.78668l4.96001,1.65334l2.48001,6.61335l-8.26668,51.25344l-7.44002,7.44002l-5.78668,-4.13334z" fill="#000000" stroke="#000000" stroke-width="5" stroke-linecap="round"/><path d="M268.94138,230.00602l4.13334,-9.92002l7.44002,7.44002l5.78668,55.38678v13.22669l-11.57336,-4.96001l4.13334,-14.88003z" fill="#000000" stroke="#000000" stroke-width="5" stroke-linecap="round"/><g fill="#ffffff" stroke="none" stroke-width="0" stroke-linecap="butt"><path d="M229.89356,142.86294l-1.21031,-3.09081l1.5454,-0.60515l1.2103,3.09081z"/><path d="M222.32849,140.30256l-1.2103,-3.09081l1.32463,-0.5187l1.2103,3.09081z"/><path d="M226.23593,141.82798l-1.2103,-3.09081l1.32463,-0.5187l1.2103,3.09081z"/><path d="M232.70618,143.40151l-1.12385,-2.87004l2.42849,-0.95095l1.12385,2.87004z"/><path d="M236.8051,141.50865l-1.2103,-3.09081l2.20772,-0.8645l1.2103,3.09081z"/><path d="M241.307,140.00042l-1.21031,-3.09081l2.87004,-1.12385l1.2103,3.09081z"/><path d="M245.17152,137.90919l-1.46965,-3.75313l1.98694,-0.77805l1.46965,3.75313z"/><path d="M247.27573,130.5337l-0.8645,-2.20772l1.10386,-0.43225l0.8645,2.20771z"/><path d="M250.06861,127.91232l-1.0374,-2.64926l1.10386,-0.43225l1.03739,2.64926z"/><path d="M252.3335,125.24307l-1.46965,-3.75312l0.66232,-0.25935l1.46965,3.75312z"/><path d="M217.63372,138.06696l-1.29675,-3.31158l1.5454,-0.60515l1.29675,3.31158z"/></g><g fill="#ffffff" stroke="none" stroke-width="0" stroke-linecap="butt"><path d="M229.51174,151.49407l-1.38321,-3.53235l1.76618,-0.6916l1.38321,3.53235z"/><path d="M235.89554,151.54054l-1.12385,-2.87004l1.32463,-0.5187l1.12385,2.87004z"/><path d="M239.63937,151.34765l-0.8645,-2.20772l0.66232,-0.25935l0.8645,2.20772z"/><path d="M244.10268,147.34893l-1.0374,-2.64926l1.10386,-0.43225l1.0374,2.64927z"/><path d="M247.95155,146.56501l-0.8645,-2.20772l0.44154,-0.1729l0.8645,2.20772z"/><path d="M251.74185,139.98832l-1.3832,-3.53235l1.5454,-0.60515l1.3832,3.53235z"/><path d="M254.85124,136.2245l-0.60515,-1.54541l0.66231,-0.25935l0.60515,1.5454z"/><path d="M221.74181,146.98429l-0.8645,-2.20772l1.32463,-0.5187l0.8645,2.20772z"/></g><path d="M204.69535,225.72451c0,0 -0.22034,-4.32571 0.72269,-9.92359c1.00032,-5.93794 3.19102,-13.36661 4.06585,-20.72039c0.94326,-7.92907 0.47483,-15.22017 1.15834,-18.72268c0.86071,-4.41051 5.18839,-7.69372 5.18839,-7.69372l10.45246,4.00904c0,0 -3.01544,18.64898 -5.15226,28.41293c-1.78242,8.1446 -6.79931,26.19855 -6.79931,26.19855z" fill="#000000" stroke="#000000" stroke-width="0.5" stroke-linecap="butt"/></g></g></svg>