<svg version="1.1" xmlns="http://www.w3.org/2000/svg" xmlns:xlink="http://www.w3.org/1999/xlink" width="659.39632" height="927.54416" viewBox="0,0,659.39632,927.54416"><g transform="translate(128.96058,119.82791)"><g data-paper-data="{&quot;isPaintingLayer&quot;:true}" fill-rule="nonzero" stroke-linejoin="miter" stroke-miterlimit="10" stroke-dasharray="" stroke-dashoffset="0" style="mix-blend-mode: normal"><path d="" fill="#000000" stroke="none" stroke-width="0.5" stroke-linecap="butt"/><path d="M376.88522,59.69215v-53.04829h46.20336v53.04829z" fill="#000000" stroke="none" stroke-width="0" stroke-linecap="butt"/><path d="M330.02894,203.55735l-5.15334,-156.9025c0,0 32.3354,-10.54731 49.5071,-10.56686c18.62354,-0.02119 59.73399,-0.06628 59.73399,-0.06628c0.31066,0.13836 51.6705,27.29698 51.97663,27.42211l-27.85827,126.53807c0,0 -25.41017,7.22626 -30.09638,6.92597c-16.0999,-1.03166 -98.10973,6.64949 -98.10973,6.64949z" fill="#000000" stroke="none" stroke-width="0" stroke-linecap="butt"/><path d="M325.09051,294.11319l5.26052,-98.86126l118.67577,-7.3431c0,0 9.82389,8.05908 12.07491,14.43164c6.38247,18.06854 9.6916,73.91912 9.6916,73.91912c0,0 -44.99004,29.91063 -69.30455,31.37154c-17.57941,1.05624 -48.73732,-6.21017 -65.30994,-10.50755c-6.75616,-1.75191 -11.08832,-3.01039 -11.08832,-3.01039z" fill="#000000" stroke="none" stroke-width="0" stroke-linecap="butt"/><path d="M276.87868,462.44446l53.48884,-190.0559l48.38109,16.60637l-57.99334,187.0529z" fill="#000000" stroke="#000000" stroke-width="0.5" stroke-linecap="butt"/><path d="M450.63583,485.18447l-34.31578,-203.37658l52.20474,-8.29977l25.30679,206.37958z" fill="#000000" stroke="#000000" stroke-width="0.5" stroke-linecap="butt"/><path d="M268.57908,652.55057v-176.49478h62.86117v176.49478z" fill="#000000" stroke="#000000" stroke-width="0.5" stroke-linecap="butt"/><path d="M432.18541,606.34198l11.50078,-120.33852l50.54221,4.83031l-11.5008,120.33852z" fill="#000000" stroke="#000000" stroke-width="0.5" stroke-linecap="butt"/><path d="M220.88885,359.96016l27.48446,-145.55386l41.09899,5.49025l-27.48446,145.55386z" fill="#000000" stroke="#000000" stroke-width="0.5" stroke-linecap="butt"/><path d="M214.70265,445.94906v-91.874h50.77248v91.874z" fill="#000000" stroke="#000000" stroke-width="0.5" stroke-linecap="butt"/><path d="M476.15648,199.70398l-24.36259,-147.90668l21.47033,-3.53651l24.36259,147.90668z" fill="#000000" stroke="#000000" stroke-width="0.5" stroke-linecap="butt"/><path d="M495.58731,360.32403l-25.742,-157.4806l31.0189,-5.07039l25.742,157.4806z" fill="#000000" stroke="#000000" stroke-width="0.5" stroke-linecap="butt"/><path d="M476.50446,456.71388v-74.94985h50.77248v74.94985z" fill="#000000" stroke="#000000" stroke-width="0.5" stroke-linecap="butt"/><path d="M69.87612,749.10828v-29.01286h84.62081v29.01286z" fill="#000000" stroke="#000000" stroke-width="0.5" stroke-linecap="butt"/><path d="M-111.30302,804.71625v-36.26606h82.05195v36.26606z" fill="#000000" stroke="#000000" stroke-width="6" stroke-linecap="butt"/><path d="M-99.36547,557.193l-12.08869,53.19021l-14.50642,16.92415" fill="none" stroke="#000000" stroke-width="6" stroke-linecap="round"/><path d="M-80.02357,562.02849l-14.50642,55.60797l-12.08869,12.08869" fill="none" stroke="#000000" stroke-width="6" stroke-linecap="round"/><path d="M297.5919,458.42489v31.4306l-21.75964,33.8483" fill="none" stroke="#000000" stroke-width="6" stroke-linecap="round"/><path d="M481.33992,448.75393v43.51926l-14.50642,36.26606" fill="none" stroke="#000000" stroke-width="6" stroke-linecap="round"/><path d="M498.26407,465.67809l4.83549,38.68379l-14.50642,21.75964" fill="none" stroke="#000000" stroke-width="6" stroke-linecap="round"/><path d="M522.44145,448.75393l4.83546,38.68379l-19.34191,19.34191" fill="none" stroke="#000000" stroke-width="6" stroke-linecap="round"/><g stroke="none" stroke-width="0" stroke-linecap="butt"><path d="M469.78138,-14.52949c-3.23419,14.41889 -31.1236,27.06576 -40.68087,34.68027c-14.53736,11.58227 -38.30161,4.55974 -40.37486,4.0947c-15.49082,-3.47463 -24.73289,-7.88667 -33.65743,-20.68844c-9.91515,-14.22276 -20.48633,-31.18962 -21.71338,-49.29979c-0.38265,-5.64755 2.66774,-12.36934 3.88347,-17.7894c8.62326,-38.44496 45.79756,-63.14554 83.8656,-54.60681c38.06806,8.53874 61.93774,46.62656 53.31448,85.07154z" fill="#000000"/><path d="M409.89067,-55.92455c-27.01202,-6.59589 -51.25517,-17.4214 -49.69991,-24.69318c18.48287,-7.46928 24.13411,-21.64749 56.05441,-13.04692c39.78232,10.71891 33.38916,26.31151 44.90122,33.36311c-1.55524,7.27179 -26.18426,10.49903 -51.25572,4.377z" fill="#ffffff"/></g><path d="M460.16747,-30.79823l2.18233,-6.59642l3.68983,-1.25834l-2.66725,3.68565z" data-paper-data="{&quot;index&quot;:null}" fill="none" stroke="#640000" stroke-width="6" stroke-linecap="round"/><path d="M355.70386,-68.99075l-0.03398,-4.04084l1.60399,2.08747l-1.42397,6.5721z" fill="none" stroke="#810000" stroke-width="6" stroke-linecap="round"/><path d="M435.40293,472.93131l14.50642,-38.68379l19.34191,-36.26606" fill="none" stroke="#000000" stroke-width="6" stroke-linecap="round"/><path d="M257.96762,365.45702l26.59511,19.34191l14.50642,48.35472" fill="none" stroke="#000000" stroke-width="6" stroke-linecap="round"/><path d="M411.23892,-70.17396c0,2.29312 -1.59339,4.15209 -3.55892,4.15209c-1.96553,0 -3.55895,-1.85897 -3.55895,-4.15209c0,-2.29312 1.59339,-4.15209 3.55895,-4.15209c1.96553,0 3.55892,1.85895 3.55892,4.15209z" fill="#000000" stroke="#000000" stroke-width="1.5" stroke-linecap="butt"/><path d="M442.91723,52.1045l29.2788,85.58425l-13.5133,-76.5754l-9.00886,130.6286l13.5133,90.0887l-31.53105,22.52216l-27.0266,-58.55762l-38.28768,51.80099l-22.52219,-13.5133l4.50444,-85.58423l-15.76552,-114.86308l87.83645,-54.05321l31.53105,15.76552l36.03549,13.5133l-2.25222,33.78324" fill="none" stroke="#000000" stroke-width="5" stroke-linecap="round"/><path d="M389.84704,195.46506c0.35619,0.82022 0.57295,1.81852 0.57295,3.03359c0,6.81113 -6.81113,6.81113 -6.81113,6.81113h-2.25222c-7.93777,0 -15.32343,0.72797 -22.83294,1.26545l0.2124,0.63722l-6.60581,2.20193c-0.7198,0.2588 -1.49578,0.39981 -2.30469,0.39981c-3.76168,0 -6.81113,-3.04945 -6.81113,-6.81113c0,-1.43121 0.44144,-2.75932 1.19557,-3.85562l4.45279,-6.67915l0.7708,0.51386l0.76211,-2.14858c7.03009,-2.65604 15.80061,-6.9762 23.31323,-8.06699c19.83068,-2.87925 38.77904,1.44649 56.7557,9.01665c1.24881,-1.4384 3.09078,-2.34796 5.14518,-2.34796c0.80181,0 1.57125,0.13854 2.28571,0.393c0.16982,-2.46715 0.79557,-4.63955 2.74063,-5.864c4.46687,-2.81193 11.10244,0.1275 15.55539,2.9615c2.86656,1.82435 2.74829,6.22142 3.89763,9.41897c2.58602,7.19465 6.50373,17.85338 -3.18404,23.89005c-0.55219,0.3441 -1.13604,0.58475 -1.7434,0.73811c1.32011,5.61738 2.16468,11.41289 2.93679,16.97458c0.82586,5.94887 -0.87629,12.0761 0,18.01775c0.21526,1.45957 0.54192,2.9581 0.87727,4.43184c6.70228,2.28655 14.71391,7.88265 10.10311,16.88737c-2.69113,5.25568 -9.57206,9.62404 -15.40957,8.73644c-0.4006,-0.06092 -0.77797,-0.14636 -1.1334,-0.25452c-0.92988,1.50886 -2.61419,2.87539 -5.665,2.87539c-6.81113,0 -6.81113,-6.81113 -6.81113,-6.81113c0,-3.36543 0.17646,-6.88981 0.32113,-10.44148c-0.20142,-0.15243 -0.3945,-0.32116 -0.5784,-0.50784c-3.07321,-3.11969 -1.12272,-8.69138 -1.9439,-12.99285c-2.42443,-12.69954 -6.77225,-23.77663 -6.80769,-36.86767c-0.01406,-5.19275 -1.84162,-11.35783 0.2576,-15.04578c-4.81345,-2.38517 -10.71159,-4.41655 -13.82729,-5.59278c-8.08941,-3.05386 -17.94029,-4.6817 -27.43421,-4.9172z" fill="#000000" stroke="none" stroke-width="0.5" stroke-linecap="butt"/><path d="M423.91619,53.25166c-6.11993,-1.56288 -12.6372,-2.06252 -18.94635,-1.18061c-4.70237,0.65733 -8.80022,3.92888 -13.5133,4.50444c-2.29077,0.27975 -4.81814,-1.74253 -6.88599,-0.71797c-1.87532,0.92915 -1.4487,4.06177 -2.90211,5.56766c-3.91801,4.05938 -9.47354,6.40979 -13.06216,10.76308c-2.50807,3.0425 -8.20269,13.91647 -11.0623,15.20031c-18.54062,8.32399 -23.99462,-9.33045 -31.40324,-20.24479c0,0 -3.77813,-5.66721 1.88908,-9.44534c5.66721,-3.77813 9.44534,1.88908 9.44534,1.88908c2.68639,4.08847 3.89801,9.01589 6.50231,13.15713c0.6779,1.07798 5.66258,3.64308 7.1388,2.63354c3.77503,-2.58161 4.01279,-8.32538 6.95541,-11.82629c2.07957,-2.4741 4.65734,-4.44175 7.2718,-6.37794c-0.68354,-0.68809 -1.2815,-1.63178 -1.70943,-2.91554c-2.15387,-6.46161 4.30774,-8.61548 4.30774,-8.61548l6.75666,-2.25222c4.50632,-1.45374 8.40191,-4.37312 12.67469,-6.4136c10.38144,-4.95763 27.14081,-5.01675 37.51598,0c2.01402,0.97383 4.34746,1.95324 5.56071,3.81183c2.62822,0 7.21233,0 7.21233,0c3.76168,0 6.81113,3.04945 6.81113,6.81113c0,3.76168 -3.04945,6.81113 -6.81113,6.81113h-9.00886v-0.53086c-0.31296,0.05531 -0.62752,0.1029 -0.94386,0.14208l-0.14715,0.30083c-0.22321,-0.0744 -0.44716,-0.14739 -0.6718,-0.21896c-0.07021,0.00531 -0.14053,0.01022 -0.21093,0.01466c-1.01649,0.06416 -1.91575,-0.30026 -2.76327,-0.8673z" fill="#000000" stroke="none" stroke-width="0.5" stroke-linecap="butt"/><path d="M258.98579,198.49829l9.00886,-15.76552l13.5133,4.50444l6.75666,18.01775l-22.52216,139.63746l-20.26997,20.26997l-15.76552,-11.26108z" fill="#000000" stroke="#000000" stroke-width="5" stroke-linecap="round"/><path d="M470.69468,204.5043l11.26108,-27.0266l20.26997,20.26997l15.76552,150.89854v36.03546l-31.53105,-13.5133l11.26108,-40.53991z" fill="#000000" stroke="#000000" stroke-width="5" stroke-linecap="round"/><g fill="#ffffff" stroke="none" stroke-width="0" stroke-linecap="butt"><path d="M378.40232,-25.46802l1.83714,-8.85478l4.42737,0.91858l-1.83717,8.85477z"/><path d="M364.94747,-42.56847l1.83717,-8.85477l3.7949,0.78736l-1.83717,8.85477z"/><path d="M371.59503,-33.27272l1.83717,-8.85477l3.7949,0.78736l-1.83717,8.85477z"/><path d="M384.0198,-20.05358l1.70595,-8.22228l6.9573,1.44348l-1.70595,8.22228z"/><path d="M396.19094,-18.27402l1.83717,-8.85477l6.32483,1.31226l-1.83717,8.85477z"/><path d="M408.7094,-15.01701l1.83714,-8.85478l8.22228,1.70595l-1.83717,8.85477z"/><path d="M420.64075,-14.03896l2.23085,-10.75223l5.69233,1.18102l-2.23085,10.75223z"/><path d="M436.41807,-27.73996l1.31226,-6.32483l3.16241,0.65613l-1.31224,6.32481z"/><path d="M446.69266,-29.56647l1.57471,-7.58978l3.16241,0.65613l-1.57473,7.58977z"/><path d="M455.83353,-32.28789l2.23083,-10.7522l1.89746,0.39368l-2.23083,10.7522z"/><path d="M357.55986,-54.65656l1.96839,-9.48724l4.42737,0.91858l-1.96839,9.48724z"/></g><g stroke="#000000"><path d="M261.73197,194.59023l59.37535,-150.71431l24.74414,9.74819l-59.37535,150.71431z" fill="#000000" stroke-width="0.5" stroke-linecap="butt"/><path d="M311.14868,81.30345l11.12111,-29.84657l33.48705,4.99972l-42.72607,69.05583" fill="none" stroke-width="5" stroke-linecap="round"/><path d="M389.16308,40.69207l-42.48854,4.56259l-25.16519,-0.87921" fill="none" stroke-width="5" stroke-linecap="round"/></g><g fill="#ffffff" stroke="none" stroke-width="0" stroke-linecap="butt"><path d="M376.05562,-13.12133l1.83714,-8.85478l4.42737,0.91858l-1.83717,8.85477z"/><path d="M362.60077,-30.22178l1.83717,-8.85477l3.7949,0.78736l-1.83717,8.85477z"/><path d="M369.24833,-20.92603l1.83717,-8.85477l3.7949,0.78736l-1.83717,8.85477z"/><path d="M381.6731,-7.70689l1.70595,-8.22228l6.9573,1.44348l-1.70595,8.22228z"/><path d="M393.84424,-5.92733l1.83717,-8.85477l6.32483,1.31226l-1.83717,8.85477z"/><path d="M406.3627,-2.67032l1.83714,-8.85478l8.22228,1.70595l-1.83717,8.85477z"/><path d="M418.29407,-1.69227l2.23085,-10.75223l5.69233,1.18102l-2.23085,10.75223z"/><path d="M434.07137,-15.39327l1.31226,-6.32483l3.16241,0.65613l-1.31224,6.32481z"/><path d="M444.34596,-17.21978l1.57471,-7.58978l3.16241,0.65613l-1.57473,7.58977z"/><path d="M453.48683,-19.9412l2.23083,-10.7522l1.89746,0.39368l-2.23083,10.7522z"/><path d="M355.21316,-42.30987l1.96839,-9.48724l4.42737,0.91858l-1.96839,9.48724z"/></g></g></g></svg>