<svg version="1.1" xmlns="http://www.w3.org/2000/svg" xmlns:xlink="http://www.w3.org/1999/xlink" width="345.18036" height="478.14878" viewBox="0,0,345.18036,478.14878"><g transform="translate(69.49803,-72.59589)"><g data-paper-data="{&quot;isPaintingLayer&quot;:true}" fill-rule="nonzero" stroke-linejoin="miter" stroke-miterlimit="10" stroke-dasharray="" stroke-dashoffset="0" style="mix-blend-mode: normal"><path d="M244.50132,269.5828l-14.44517,-41.95391l17.62065,-6.06698l14.44516,41.95392z" fill="#000000" stroke="#000000" stroke-width="0.5" stroke-linecap="butt"/><path d="" fill="#000000" stroke="none" stroke-width="0.5" stroke-linecap="butt"/><g stroke="none" stroke-width="0" stroke-linecap="butt"><path d="M254.20226,132.42181c-5.25382,27.34305 -31.4615,45.29169 -58.53649,40.0894c-27.07499,-5.20233 -44.76455,-31.58555 -39.51075,-58.92861c5.25379,-27.34306 31.46149,-45.29169 58.53648,-40.0894c27.075,5.20231 44.76455,31.58555 39.51074,58.92862z" fill="#000000"/><path d="M207.58595,112.86748c-17.94372,-3.26302 -31.72783,-10.09951 -30.78763,-15.26976c0.9402,-5.17022 16.24865,-6.71631 34.19236,-3.45329c17.94372,3.26302 31.72782,10.09952 30.78762,15.26974c-0.94018,5.17024 -16.24862,6.71632 -34.19235,3.45331z" fill="#ffffff"/></g><path d="M179.89957,198.56036l-1.25986,-37.46684l32.63242,-1.0973l1.25986,37.46685z" fill="#000000" stroke="none" stroke-width="0" stroke-linecap="butt"/><path d="M243.6258,296.1587l-3.56002,-105.87089l15.36836,-0.51678l3.56001,105.8709z" fill="#000000" stroke="#000000" stroke-width="0.5" stroke-linecap="butt"/><path d="M201.12209,499.16645l20.29664,-48.92214l33.14081,13.74933l-20.29664,48.92215z" fill="#000000" stroke="#000000" stroke-width="0.5" stroke-linecap="butt"/><path d="M206.43393,495.2802l-11.78514,28.4064l-19.28975,19.74363" fill="none" stroke="#000000" stroke-width="6" stroke-linecap="round"/><path d="M212.89775,510.91024l-7.3194,26.5596l-15.36138,10.27483" fill="none" stroke="#000000" stroke-width="6" stroke-linecap="round"/><path d="M233.26222,506.41062l-7.31943,26.5596l-17.86292,7.38723" fill="none" stroke="#000000" stroke-width="6" stroke-linecap="round"/><path d="M169.90209,498.62167l19.94448,-21.32176l22.44603,-18.43417" fill="none" stroke="#000000" stroke-width="6" stroke-linecap="round"/><path d="M210.83098,107.8063c-0.98317,1.55107 -2.71996,1.70336 -3.87917,0.34013c-1.1592,-1.3632 -1.30191,-3.72577 -0.31873,-5.27682c0.98317,-1.55107 2.71996,-1.70334 3.87918,-0.34011c1.1592,1.3632 1.30192,3.72573 0.31872,5.27679z" fill="#000000" stroke="#000000" stroke-width="1.5" stroke-linecap="butt"/><g fill="#ffffff" stroke="none" stroke-width="0" stroke-linecap="butt"><path d="M179.8954,132.08155l0.54893,-6.36712l3.18354,0.27447l-0.54894,6.3671z"/><path d="M169.02439,121.20667l0.54894,-6.36711l2.72875,0.23526l-0.54894,6.36711z"/><path d="M174.46617,127.17393l0.54894,-6.3671l2.72875,0.23526l-0.54894,6.3671z"/><path d="M184.2899,135.41134l0.50974,-5.91231l5.00272,0.43131l-0.50974,5.91232z"/><path d="M192.97934,135.64262l0.54894,-6.3671l4.54794,0.39209l-0.54894,6.36711z"/><path d="M202.03601,136.88162l0.54893,-6.36712l5.91231,0.50974l-0.54894,6.3671z"/><path d="M210.4902,136.57051l0.66657,-7.73149l4.09313,0.35288l-0.66658,7.73149z"/><path d="M220.416,125.63738l0.39209,-4.54794l2.27397,0.19605l-0.39209,4.54791z"/><path d="M227.47316,123.49679l0.47052,-5.45751l2.27397,0.19606l-0.47054,5.4575z"/><path d="M233.65994,120.82297l0.66656,-7.73147l1.36439,0.11763l-0.66656,7.73147z"/><path d="M162.82986,113.34185l0.58814,-6.8219l3.18356,0.27447l-0.58815,6.82189z"/></g><g fill="#ffffff" stroke="none" stroke-width="0" stroke-linecap="butt"><path d="M180.09239,163.67176l-0.44781,-7.28995l3.64498,-0.22389l0.44781,7.28995z"/><path d="M191.76279,167.52831l-0.36382,-5.92309l2.73372,-0.16792l0.36382,5.92309z"/><path d="M198.73704,169.38662l-0.27986,-4.55622l1.36686,-0.08396l0.27986,4.55622z"/><path d="M209.27809,164.69606l-0.33584,-5.46745l2.27811,-0.13994l0.33584,5.46746z"/><path d="M216.79398,165.5334l-0.27986,-4.55622l0.91123,-0.05598l0.27988,4.55622z"/><path d="M227.62478,155.72131l-0.44779,-7.28995l3.18936,-0.1959l0.44779,7.28994z"/><path d="M235.54609,150.66132l-0.19591,-3.18936l1.36686,-0.08397l0.1959,3.18935z"/><path d="M168.51881,150.81764l-0.27988,-4.55622l2.73372,-0.16792l0.27986,4.55622z"/></g><g stroke="#000000"><path d="M62.44132,266.19283l79.73192,-82.14018l13.48569,13.09031l-79.73192,82.14018z" fill="#000000" stroke-width="0.5" stroke-linecap="butt"/><path d="M125.49466,205.75317l15.37404,-16.43994l20.47981,12.37221l-46.65506,33.41279" fill="none" stroke-width="5" stroke-linecap="round"/><path d="M187.4253,200.49328l-28.95233,-8.58489l-16.17344,-7.42055" fill="none" stroke-width="5" stroke-linecap="round"/></g><g fill="#000000" stroke="#000000"><path d="M27.44434,315.73723l52.7106,-90.43745l26.07284,13.37155l-52.7106,90.43745z" stroke-width="0.5" stroke-linecap="butt"/><path d="M84.36297,227.22588l9.93727,-8.11827l7.77363,6.3951l-0.10726,13.59814l-50.23411,86.41369l-18.50744,8.23695l-7.54767,-11.42306z" stroke-width="5" stroke-linecap="round"/></g><g><path d="M154.52506,295.61391l-3.66251,-108.91878l81.56346,-2.74265c0.22802,0.07592 0.45426,0.14721 0.67819,0.21413l3.65456,108.68212z" fill="#000000" stroke="none" stroke-width="0" stroke-linecap="butt"/><path d="M224.27199,191.92933l22.71154,59.75094l-11.36277,-53.7626l-3.26042,92.47409l11.68369,63.30674l-21.7348,16.65575l-20.47901,-40.7161l-25.81152,37.49521l-16.22786,-9.00926l1.14882,-60.55326l-13.86277,-80.75086l60.75324,-40.26266l22.64412,10.38601l25.77201,8.68832l-0.78837,23.91387" fill="none" stroke="#000000" stroke-width="5" stroke-linecap="round"/><path d="M209.81873,193.22647c-4.35949,-0.95848 -8.97436,-1.15658 -13.40942,-0.38389c-3.30558,0.57594 -6.12209,2.98388 -9.43718,3.50232c-1.61128,0.25198 -3.44433,-1.1163 -4.88047,-0.34355c-1.30244,0.70077 -0.92672,2.90315 -1.91747,4.00125c-2.67079,2.96011 -6.53873,4.75208 -8.9699,7.91194c-1.69915,2.20842 -5.46288,10.0237 -7.45207,10.99837c-12.89715,6.31937 -17.16846,-6.02003 -22.66022,-13.55265c0,0 -2.80301,-3.9129 1.1099,-6.71591c3.9129,-2.80301 6.71591,1.1099 6.71591,1.1099c1.99443,2.82381 2.9672,6.27515 4.90492,9.13818c0.50439,0.74525 4.08588,2.43855 5.10452,1.69047c2.6049,-1.91299 2.63643,-5.97534 4.6316,-8.51785c1.41,-1.79679 3.18389,-3.24772 4.98445,-4.67729c-0.4991,-0.46975 -0.94385,-1.12206 -1.27658,-2.01859c-1.67468,-4.51254 2.83785,-6.18722 2.83785,-6.18722l4.7186,-1.75116c3.14819,-1.13376 5.83022,-3.28819 8.79954,-4.8308c7.21444,-3.74802 19.04981,-4.18779 26.49672,-0.89098c1.44559,0.63996 3.11692,1.27628 4.01794,2.56016c1.85626,-0.06242 5.09391,-0.1713 5.09391,-0.1713c2.65679,-0.08934 4.88297,1.99201 4.97231,4.64879c0.08934,2.65679 -1.99201,4.88297 -4.6488,4.9723l-6.36276,0.21396l-0.01261,-0.37494c-0.21972,0.04649 -0.44076,0.08758 -0.66325,0.12276l-0.09679,0.21597c-0.15941,-0.04725 -0.31932,-0.09348 -0.47967,-0.1387c-0.04945,0.00543 -0.09902,0.01055 -0.14863,0.01537c-0.7164,0.06946 -1.36019,-0.16657 -1.97224,-0.54692z" fill="#000000" stroke="none" stroke-width="0.5" stroke-linecap="butt"/></g><g data-paper-data="{&quot;index&quot;:null}" stroke="#000000"><path d="M-66.49803,343.11757l26.34116,-25.21386l27.95712,-5.44043" fill="none" stroke-width="6" stroke-linecap="round"/><g><path d="M-17.12785,313.42104l63.7298,-12.40179l6.85362,35.2191l-63.7298,12.4018z" fill="#000000" stroke-width="0.5" stroke-linecap="butt"/><path d="M-49.10059,370.12062l9.78152,-12.34713l35.26438,-15.56549" fill="none" stroke-width="6" stroke-linecap="round"/><path d="M-53.38863,357.03019l6.75369,-10.01731l36.61514,-17.56894" fill="none" stroke-width="6" stroke-linecap="round"/><path d="M-13.80029,283.18312l35.50016,3.53535l17.0068,15.83719" fill="none" stroke-width="6" stroke-linecap="round"/></g></g><g fill="#000000" stroke="#000000"><path d="M253.60093,344.84346l-21.92107,-110.61377l21.78756,-4.31778l21.92107,110.61375z" stroke-width="0.5" stroke-linecap="butt"/><path d="M232.56882,242.8059l7.31159,-19.35575l14.79763,13.83483l14.71859,106.20193l0.85583,25.45106l-22.59062,-8.79531l6.99067,-28.89989z" stroke-width="5" stroke-linecap="round"/></g></g></g></svg>