<svg version="1.1" xmlns="http://www.w3.org/2000/svg" xmlns:xlink="http://www.w3.org/1999/xlink" width="451.50301" height="407.46251" viewBox="0,0,451.50301,407.46251"><g transform="translate(118.45118,-143.28217)"><g data-paper-data="{&quot;isPaintingLayer&quot;:true}" fill-rule="nonzero" stroke-linejoin="miter" stroke-miterlimit="10" stroke-dasharray="" stroke-dashoffset="0" style="mix-blend-mode: normal"><path d="" fill="#000000" stroke="none" stroke-width="0.5" stroke-linecap="butt"/><path d="M206.43393,495.2802l-11.78514,28.4064l-19.28975,19.74363" fill="none" stroke="#000000" stroke-width="6" stroke-linecap="round"/><path d="M212.89775,510.91024l-7.3194,26.5596l-15.36138,10.27483" fill="none" stroke="#000000" stroke-width="6" stroke-linecap="round"/><path d="M233.26222,506.41062l-7.31943,26.5596l-17.86292,7.38723" fill="none" stroke="#000000" stroke-width="6" stroke-linecap="round"/><g data-paper-data="{&quot;index&quot;:null}" stroke="#000000"><path d="M-94.74767,389.99665l-5.77899,-43.08402l14.40097,-30.74887" fill="none" stroke-width="6" stroke-linecap="round"/><g><path d="M-88.6654,321.58309l32.82778,-70.09377l38.73603,18.14167l-32.82777,70.09378z" fill="#000000" stroke-width="0.5" stroke-linecap="butt"/><path d="M-56.51747,392.21101l-5.02021,-18.09533l9.78268,-44.90005" fill="none" stroke-width="6" stroke-linecap="round"/><path d="M-72.13796,387.14451l-4.90341,-13.54231l8.80203,-47.60852" fill="none" stroke-width="6" stroke-linecap="round"/><path d="M-115.45118,297.13493l28.34521,-31.7081l27.20141,-5.25382" fill="none" stroke-width="6" stroke-linecap="round"/></g></g><path d="M200.48627,512.29005l21.80375,-52.55482l35.60166,14.77028l-21.80375,52.55483z" fill="#000000" stroke="#000000" stroke-width="0.5" stroke-linecap="butt"/><path d="M166.94805,511.70481l21.42544,-22.90499l24.11274,-19.80299" fill="none" stroke="#000000" stroke-width="6" stroke-linecap="round"/><path d="M287.33533,383.56614l-21.972,-52.40474l22.01,-9.22825l21.97199,52.40475z" fill="#000000" stroke="#000000" stroke-width="0.5" stroke-linecap="butt"/><g stroke="none" stroke-width="0" stroke-linecap="butt"><path d="M278.89196,208.92978c-0.60424,35.65273 -29.71297,64.06999 -65.01618,63.47169c-35.30321,-0.59834 -63.43229,-29.98561 -62.82807,-65.63834c0.6042,-35.65274 29.71296,-64.06999 65.01617,-63.47169c35.30322,0.59831 63.43229,29.98561 62.82806,65.63836z" fill="#000000"/><path d="M215.77408,194.5304c-23.3562,-0.16343 -42.25199,-5.75144 -42.20489,-12.48123c0.04711,-6.72975 19.01923,-12.0528 42.37541,-11.88936c23.3562,0.16343 42.25198,5.75146 42.20488,12.4812c-0.04707,6.72977 -19.01919,12.05281 -42.3754,11.88939z" fill="#ffffff"/></g><path d="M198.83346,298.21278l-4.74652,-47.7744l41.60997,-4.13406l4.74652,47.77441z" fill="#000000" stroke="none" stroke-width="0" stroke-linecap="butt"/><path d="M288.44126,417.60148l-13.41234,-134.99718l19.59637,-1.94696l13.41233,134.99719z" fill="#000000" stroke="#000000" stroke-width="0.5" stroke-linecap="butt"/><path d="M219.93927,182.64435c-1.12657,2.06446 -3.33331,2.40447 -4.92882,0.7594c-1.59549,-1.64503 -1.97565,-4.65227 -0.84906,-6.71671c1.12657,-2.06446 3.33331,-2.40444 4.92884,-0.75938c1.59549,1.64503 1.97565,4.65222 0.84905,6.71667z" fill="#000000" stroke="#000000" stroke-width="1.5" stroke-linecap="butt"/><g fill="#ffffff" stroke="none" stroke-width="0" stroke-linecap="butt"><path d="M193.42807,217.42082l-0.36628,-8.1762l4.08807,-0.18313l0.36626,8.17617z"/><path d="M177.80878,205.42804l-0.36626,-8.17619l3.50407,-0.15697l0.36626,8.17619z"/><path d="M185.71487,212.09611l-0.36626,-8.17617l3.50407,-0.15697l0.36626,8.17617z"/><path d="M199.56397,220.91491l-0.34009,-7.59216l6.42414,-0.28777l0.34009,7.59218z"/><path d="M210.63584,219.7575l-0.36626,-8.17617l5.84014,-0.26162l0.36626,8.17619z"/><path d="M222.34228,219.81829l-0.36628,-8.1762l7.59216,-0.34009l0.36626,8.17617z"/><path d="M233.02487,218.01147l-0.44474,-9.92823l5.2561,-0.23547l0.44473,9.92823z"/><path d="M243.80221,202.47179l-0.26162,-5.84014l2.92007,-0.13081l0.26162,5.8401z"/><path d="M252.40544,198.57532l-0.31393,-7.00814l2.92007,-0.13079l0.31391,7.00813z"/><path d="M259.81447,194.14714l-0.44475,-9.9282l1.75205,-0.07849l0.44475,9.9282z"/><path d="M168.63002,196.47628l-0.39244,-8.76019l4.0881,-0.18313l0.39241,8.76018z"/></g><g fill="#ffffff" stroke="none" stroke-width="0" stroke-linecap="butt"><path d="M189.64552,234.63355l-1.02994,-9.29671l4.64836,-0.51495l1.02994,9.29671z"/><path d="M204.81531,238.83477l-0.8368,-7.55359l3.48625,-0.38622l0.8368,7.55359z"/><path d="M213.8528,240.77444l-0.64368,-5.81045l1.74313,-0.1931l0.64368,5.81045z"/><path d="M227.04204,234.11361l-0.77244,-6.97252l2.90522,-0.32186l0.77244,6.97253z"/><path d="M236.70834,234.71338l-0.64368,-5.81045l1.16207,-0.12874l0.64371,5.81045z"/><path d="M249.94704,221.48327l-1.02991,-9.29671l4.06732,-0.45058l1.02991,9.2967z"/><path d="M259.76213,214.51416l-0.45059,-4.06732l1.74312,-0.19313l0.45058,4.06731z"/><path d="M174.03537,218.91722l-0.64371,-5.81045l3.48625,-0.38622l0.64368,5.81045z"/></g><g stroke="#000000"><path d="M34.89666,280.98376l145.83365,-14.99256l2.46146,23.94283l-145.83365,14.99256z" fill="#000000" stroke-width="0.5" stroke-linecap="butt"/><path d="M146.50636,273.56106l28.61489,-3.48117l9.91568,28.99361l-73.27776,-5.60453" fill="none" stroke-width="5" stroke-linecap="round"/><path d="M211.60701,319.36218l-21.34631,-32.24915l-9.76457,-20.59085" fill="none" stroke-width="5" stroke-linecap="round"/></g><g fill="#000000" stroke="#000000"><path d="M-37.05142,305.77463l128.20816,-39.16429l12.87807,35.24677l-128.20816,39.16429z" stroke-width="0.5" stroke-linecap="butt"/><path d="M93.437,272.0809l16.40208,1.01208l1.74486,12.77269l-11.92818,12.6889l-122.3805,37.53597l-24.56122,-8.35466l2.84075,-17.30241z" stroke-width="5" stroke-linecap="round"/></g><g><path d="M174.53148,424.36427l-13.79847,-138.88358l104.0025,-10.33293c0.29775,0.07793 0.59284,0.15009 0.88461,0.21687l13.7685,138.58181z" fill="#000000" stroke="none" stroke-width="0" stroke-linecap="butt"/><path d="M254.98303,286.0242l34.02568,74.45603l-19.02148,-67.75342l3.57483,118.44802l20.23057,79.92326l-26.38115,23.10433l-29.57918,-50.31779l-29.84634,50.07691l-21.49222,-10.15467l-3.60106,-77.47878l-24.47559,-102.03314l74.26761,-56.53862l29.80698,11.37692l33.66207,8.94555l0.99446,30.62616" fill="none" stroke="#000000" stroke-width="5" stroke-linecap="round"/><path d="M236.62142,288.8918c-5.65135,-0.85992 -11.56539,-0.72674 -17.16839,0.63197c-4.17608,1.01273 -7.57378,4.32569 -11.76682,5.26574c-2.038,0.4569 -4.49505,-1.1382 -6.26564,-0.03047c-1.60576,1.00457 -0.94124,3.78759 -2.11542,5.27383c-3.16527,4.00639 -7.95819,6.62019 -10.80053,10.86178c-1.98651,2.96444 -6.14203,13.26687 -8.60248,14.67895c-15.95259,9.15536 -22.44399,-6.25591 -30.09264,-15.42231c0,0 -3.90961,-4.76575 0.85615,-8.67536c4.76575,-3.90961 8.67536,0.85615 8.67536,0.85615c2.78513,3.44166 4.31718,7.77078 7.03312,11.26731c0.70696,0.91015 5.4256,2.77424 6.66472,1.73298c3.16873,-2.66273 2.86895,-7.85675 5.20578,-11.27291c1.65146,-2.4142 3.7969,-4.41688 5.9782,-6.3945c-0.67713,-0.55853 -1.30011,-1.35489 -1.80036,-2.47274c-2.51788,-5.6265 3.1086,-8.14438 3.1086,-8.14438l5.88342,-2.63287c3.92825,-1.71242 7.17532,-4.69014 10.84076,-6.91005c8.90576,-5.39365 23.99367,-6.94643 33.78627,-3.35677c1.90094,0.6968 4.09004,1.37006 5.34895,2.93534c2.36694,-0.23517 6.49531,-0.64534 6.49531,-0.64534c3.3877,-0.33659 6.40683,2.13686 6.74342,5.52456c0.33659,3.3877 -2.13686,6.40683 -5.52457,6.74341l-8.11323,0.80608l-0.0475,-0.47809c-0.27689,0.07781 -0.55593,0.14882 -0.83731,0.2124l-0.10561,0.2841c-0.20767,-0.04704 -0.4159,-0.09273 -0.62459,-0.1371c-0.06274,0.01108 -0.12566,0.02178 -0.18865,0.03209c-0.90969,0.14874 -1.75216,-0.09899 -2.56617,-0.53382z" fill="#000000" stroke="none" stroke-width="0.5" stroke-linecap="butt"/></g><g fill="#000000" stroke="#000000"><path d="M305.26435,478.98195l-37.27346,-139.52115l27.48143,-7.34173l37.27346,139.52113z" stroke-width="0.5" stroke-linecap="butt"/><path d="M269.84487,350.34615l7.72332,-25.34731l20.06846,16.44112l27.69989,134.4861l3.22431,32.45293l-29.60544,-9.3486l6.51422,-37.51715z" stroke-width="5" stroke-linecap="round"/></g></g></g></svg>