<svg version="1.1" xmlns="http://www.w3.org/2000/svg" xmlns:xlink="http://www.w3.org/1999/xlink" width="350.08702" height="902.35575" viewBox="0,0,350.08702,902.35575"><g transform="translate(128.96058,94.63949)"><g data-paper-data="{&quot;isPaintingLayer&quot;:true}" fill-rule="nonzero" stroke-linejoin="miter" stroke-miterlimit="10" stroke-dasharray="" stroke-dashoffset="0" style="mix-blend-mode: normal"><path d="" fill="#000000" stroke="none" stroke-width="0.5" stroke-linecap="butt"/><path d="M67.57591,68.70116v-53.04829h46.20336v53.04829z" fill="#000000" stroke="none" stroke-width="0" stroke-linecap="butt"/><path d="M25.87328,197.08011l-14.56495,-142.20261l144.38872,7.06954c0.29931,0.16145 -0.90423,-10.19449 -0.60845,-10.04657l-14.27721,130.93964z" fill="#000000" stroke="none" stroke-width="0" stroke-linecap="butt"/><path d="M36.36948,284.20809l-11.88226,-97.43602l117.1645,-11.48066l14.88525,94.43302z" fill="#000000" stroke="none" stroke-width="0" stroke-linecap="butt"/><path d="M-26.42463,463.94596l60.99634,-211.07692l52.8856,-1.41165l-70.00535,226.09194z" fill="#000000" stroke="#000000" stroke-width="0.5" stroke-linecap="butt"/><path d="M147.33252,486.68597l-37.31878,-231.90511l46.19873,-11.30278l34.3158,237.91111z" fill="#000000" stroke="#000000" stroke-width="0.5" stroke-linecap="butt"/><path d="M-40.73023,661.55958v-176.49478h62.86117v176.49478z" fill="#000000" stroke="#000000" stroke-width="0.5" stroke-linecap="butt"/><path d="M122.8761,615.35099l11.50078,-120.33852l50.54221,4.83031l-11.5008,120.33852z" fill="#000000" stroke="#000000" stroke-width="0.5" stroke-linecap="butt"/><path d="M166.84715,208.71299l-24.36259,-147.90668l21.47033,-3.53651l24.36259,147.90668z" fill="#000000" stroke="#000000" stroke-width="0.5" stroke-linecap="butt"/><path d="M186.27799,369.33304l-25.742,-157.4806l31.0189,-5.07039l25.742,157.4806z" fill="#000000" stroke="#000000" stroke-width="0.5" stroke-linecap="butt"/><path d="M167.19515,465.72289v-74.94985h50.77248v74.94985z" fill="#000000" stroke="#000000" stroke-width="0.5" stroke-linecap="butt"/><path d="M69.87612,749.10828v-29.01286h84.62081v29.01286z" fill="#000000" stroke="#000000" stroke-width="0.5" stroke-linecap="butt"/><path d="M-111.30302,804.71625v-36.26606h82.05195v36.26606z" fill="#000000" stroke="#000000" stroke-width="6" stroke-linecap="butt"/><path d="M-99.36547,557.193l-12.08869,53.19021l-14.50642,16.92415" fill="none" stroke="#000000" stroke-width="6" stroke-linecap="round"/><path d="M-80.02357,562.02849l-14.50642,55.60797l-12.08869,12.08869" fill="none" stroke="#000000" stroke-width="6" stroke-linecap="round"/><path d="M-11.71741,467.4339v31.4306l-21.75964,33.8483" fill="none" stroke="#000000" stroke-width="6" stroke-linecap="round"/><path d="M172.0306,457.76294v43.51926l-14.50642,36.26606" fill="none" stroke="#000000" stroke-width="6" stroke-linecap="round"/><path d="M188.95476,474.6871l4.83549,38.68379l-14.50642,21.75964" fill="none" stroke="#000000" stroke-width="6" stroke-linecap="round"/><path d="M213.13216,457.76294l4.83546,38.68379l-19.34191,19.34191" fill="none" stroke="#000000" stroke-width="6" stroke-linecap="round"/><g stroke="none" stroke-width="0" stroke-linecap="butt"><path d="M186.78643,24.91568c-6.60592,13.2184 -36.71787,18.78914 -47.82549,23.88254c-16.89558,7.74747 -38.27443,-4.78249 -40.17507,-5.73234c-14.20109,-7.09703 -22.11133,-13.60163 -27.69629,-28.17356c-6.20489,-16.18939 -12.38682,-35.20013 -9.22383,-53.07411c0.98636,-5.5739 5.56333,-11.36516 8.0465,-16.33396c17.61328,-35.24412 59.63574,-50.28274 94.53432,-32.84212c34.89859,17.44063 48.91106,60.15005 31.29776,95.39418z" fill="#000000"/><path d="M138.6046,-29.66416c-24.63394,-12.89667 -45.56334,-29.2332 -42.30541,-35.91778c19.73651,-2.80654 28.63073,-15.21021 57.54701,0.81239c36.03841,19.96899 26.084,33.5672 35.56304,43.1797c-3.25791,6.68459 -27.94043,3.89585 -50.80465,-8.07431z" fill="#ffffff"/></g><path d="M86.65772,-55.70315l0.82415,-3.45153l0.92651,2.11797l-2.6013,5.30133z" fill="none" stroke="#810000" stroke-width="6" stroke-linecap="round"/><path d="M126.09362,481.94032l14.50642,-38.68379l19.34191,-36.26606" fill="none" stroke="#000000" stroke-width="6" stroke-linecap="round"/><path d="M146.19506,-44.92223c-0.92733,2.09725 -3.13638,3.15306 -4.93402,2.3582c-1.79764,-0.79485 -2.50319,-3.13941 -1.57585,-5.23667c0.92733,-2.09725 3.13639,-3.15306 4.93406,-2.35819c1.79764,0.79485 2.50316,3.13939 1.57582,5.23665z" fill="#000000" stroke="#000000" stroke-width="1.5" stroke-linecap="butt"/><path d="M114.60688,62.26067c-6.11993,-1.56288 -12.6372,-2.06252 -18.94635,-1.18061c-4.70237,0.65733 -8.80022,3.92888 -13.5133,4.50444c-2.29077,0.27975 -4.81814,-1.74253 -6.88599,-0.71797c-1.87532,0.92915 -1.4487,4.06177 -2.90211,5.56766c-3.91801,4.05938 -9.47354,6.40979 -13.06216,10.76308c-2.50807,3.0425 -8.20269,13.91647 -11.0623,15.20031c-18.54062,8.32399 -23.99462,-9.33045 -31.40324,-20.24479c0,0 -3.77813,-5.66721 1.88908,-9.44534c5.66721,-3.77813 9.44534,1.88908 9.44534,1.88908c2.68639,4.08847 3.89801,9.01589 6.50231,13.15713c0.6779,1.07798 5.66258,3.64308 7.1388,2.63354c3.77503,-2.58161 4.01279,-8.32538 6.95541,-11.82629c2.07957,-2.4741 4.65734,-4.44175 7.2718,-6.37794c-0.68354,-0.68809 -1.2815,-1.63178 -1.70943,-2.91554c-2.15387,-6.46161 4.30774,-8.61548 4.30774,-8.61548l6.75666,-2.25222c4.50632,-1.45374 8.40191,-4.37312 12.67469,-6.4136c10.38144,-4.95763 27.14081,-5.01675 37.51598,0c2.01402,0.97383 4.34746,1.95324 5.56071,3.81183c2.62822,0 7.21233,0 7.21233,0c3.76168,0 6.81113,3.04945 6.81113,6.81113c0,3.76168 -3.04945,6.81113 -6.81113,6.81113h-9.00886v-0.53086c-0.31296,0.05531 -0.62752,0.1029 -0.94386,0.14208l-0.14715,0.30083c-0.22321,-0.0744 -0.44716,-0.14739 -0.6718,-0.21896c-0.07021,0.00531 -0.14053,0.01022 -0.21093,0.01466c-1.01649,0.06416 -1.91575,-0.30026 -2.76327,-0.8673z" fill="#000000" stroke="none" stroke-width="0.5" stroke-linecap="butt"/><path d="M161.38537,213.51331l11.26108,-27.0266l20.26997,20.26997l15.76552,150.89854v36.03546l-31.53105,-13.5133l11.26108,-40.53991z" fill="#000000" stroke="#000000" stroke-width="5" stroke-linecap="round"/><g fill="#ffffff" stroke="none" stroke-width="0" stroke-linecap="butt"><path d="M96.74653,-13.26069l4.39823,-7.90175l3.95086,2.19911l-4.39826,7.90174z"/><path d="M89.01393,-33.59946l4.39826,-7.90174l3.38645,1.88497l-4.39826,7.90174z"/><path d="M92.58133,-22.74244l4.39826,-7.90173l3.38645,1.88497l-4.39826,7.90173z"/><path d="M100.49023,-6.41548l4.08409,-7.33732l6.20849,3.45576l-4.08409,7.33732z"/><path d="M111.57414,-1.08159l4.39826,-7.90173l5.64409,3.1416l-4.39826,7.90174z"/><path d="M122.5482,5.76605l4.39823,-7.90176l7.33732,4.08409l-4.39826,7.90174z"/><path d="M133.6427,10.2634l5.34074,-9.59498l5.07968,2.82743l-5.34074,9.59498z"/><path d="M152.79225,1.90066l3.1416,-5.64409l2.82204,1.5708l-3.14158,5.64408z"/><path d="M163.14334,3.22661l3.76992,-6.7729l2.82204,1.5708l-3.76993,6.77289z"/><path d="M172.67978,3.35984l5.34072,-9.59495l1.69324,0.94249l-5.34072,9.59496z"/><path d="M85.57437,-47.34238l4.71241,-8.46614l3.95086,2.19911l-4.71241,8.46614z"/></g><g stroke="#000000"><path d="M-47.57733,203.59924l59.37535,-150.71431l24.74414,9.74819l-59.37535,150.71431z" fill="#000000" stroke-width="0.5" stroke-linecap="butt"/><path d="M1.83937,90.31246l11.12111,-29.84657l33.48705,4.99972l-42.72607,69.05583" fill="none" stroke-width="5" stroke-linecap="round"/><path d="M79.85377,49.70108l-42.48854,4.56259l-25.16519,-0.87921" fill="none" stroke-width="5" stroke-linecap="round"/></g><path d="M-28.73515,41.61008l19.06688,146.89376l-40.77241,7.54191l-19.06688,-146.89376z" fill="#000000" stroke="#000000" stroke-width="0.5" stroke-linecap="butt"/><path d="M11.72598,0.53643l-46.65297,79.14753l-43.73943,-25.78191l46.65297,-79.14753z" fill="#000000" stroke="#000000" stroke-width="0.5" stroke-linecap="butt"/><path d="M-64.91768,62.92401l-13.08945,-30.16746l12.05721,-49.02284" fill="none" stroke="#000000" stroke-width="6" stroke-linecap="round"/><path d="M-17.81997,209.92368l-3.66858,17.78349l-14.24401,-0.08608l-12.01705,-15.02938l-21.94695,-139.72902l12.97455,-25.56178l18.48279,5.80949z" fill="#000000" stroke="#000000" stroke-width="5" stroke-linecap="round"/><g fill="#ffffff" stroke="none" stroke-width="0" stroke-linecap="butt"><path d="M90.60735,-1.36501l4.39823,-7.90175l3.95086,2.19911l-4.39826,7.90174z"/><path d="M82.87475,-21.70378l4.39826,-7.90174l3.38645,1.88497l-4.39826,7.90174z"/><path d="M86.44215,-10.84676l4.39826,-7.90173l3.38645,1.88497l-4.39826,7.90173z"/><path d="M94.35105,5.4802l4.08409,-7.33732l6.20849,3.45576l-4.08409,7.33732z"/><path d="M105.43496,10.81409l4.39826,-7.90173l5.64409,3.1416l-4.39826,7.90174z"/><path d="M116.40902,17.66173l4.39823,-7.90176l7.33732,4.08409l-4.39826,7.90174z"/><path d="M127.50352,22.15908l5.34074,-9.59498l5.07968,2.82743l-5.34074,9.59498z"/><path d="M146.65307,13.79634l3.1416,-5.64409l2.82204,1.5708l-3.14158,5.64408z"/><path d="M157.00416,15.12229l3.76992,-6.7729l2.82204,1.5708l-3.76993,6.77289z"/><path d="M166.5406,15.25552l5.34072,-9.59495l1.69324,0.94249l-5.34072,9.59496z"/><path d="M79.43519,-35.4467l4.71241,-8.46614l3.95086,2.19911l-4.71241,8.46614z"/></g><path d="M179.47337,-0.6043l3.12308,-6.79659l2.82091,-0.78534l-2.72917,3.57139z" data-paper-data="{&quot;index&quot;:null}" fill="none" stroke="#810000" stroke-width="6" stroke-linecap="round"/></g></g></svg>