<svg version="1.1" xmlns="http://www.w3.org/2000/svg" xmlns:xlink="http://www.w3.org/1999/xlink" width="454.534" height="462.52011" viewBox="0,0,454.534,462.52011"><g transform="translate(153.81253,-88.22456)"><g data-paper-data="{&quot;isPaintingLayer&quot;:true}" fill-rule="nonzero" stroke-linejoin="miter" stroke-miterlimit="10" stroke-dasharray="" stroke-dashoffset="0" style="mix-blend-mode: normal"><path d="" fill="#000000" stroke="none" stroke-width="0.5" stroke-linecap="butt"/><path d="M201.12209,499.16645l20.29664,-48.92214l33.14081,13.74933l-20.29664,48.92215z" fill="#000000" stroke="#000000" stroke-width="0.5" stroke-linecap="butt"/><path d="M206.43393,495.2802l-11.78514,28.4064l-19.28975,19.74363" fill="none" stroke="#000000" stroke-width="6" stroke-linecap="round"/><path d="M212.89775,510.91024l-7.3194,26.5596l-15.36138,10.27483" fill="none" stroke="#000000" stroke-width="6" stroke-linecap="round"/><path d="M233.26222,506.41062l-7.31943,26.5596l-17.86292,7.38723" fill="none" stroke="#000000" stroke-width="6" stroke-linecap="round"/><path d="M169.90209,498.62167l19.94448,-21.32176l22.44603,-18.43417" fill="none" stroke="#000000" stroke-width="6" stroke-linecap="round"/><path d="M258.1438,319.63312l-20.45326,-48.78244l20.48863,-8.59038l20.45325,48.78245z" fill="#000000" stroke="#000000" stroke-width="0.5" stroke-linecap="butt"/><g stroke="none" stroke-width="0" stroke-linecap="butt"><path d="M248.33323,149.33451c-0.56247,33.18835 -27.65916,59.64136 -60.52215,59.08442c-32.86299,-0.55698 -59.04774,-27.91295 -58.48529,-61.10131c0.56244,-33.18836 27.65915,-59.64136 60.52214,-59.08442c32.863,0.55695 59.04774,27.91295 58.48528,61.10133z" fill="#000000"/><path d="M189.57817,135.93044c-21.74178,-0.15213 -39.33146,-5.35389 -39.28762,-11.61851c0.04385,-6.26458 17.70459,-11.21969 39.44635,-11.06755c21.74178,0.15213 39.33145,5.35391 39.28761,11.61848c-0.04382,6.2646 -17.70455,11.2197 -39.44634,11.06758z" fill="#ffffff"/></g><path d="M175.75933,240.17953l-4.41843,-44.47215l38.73382,-3.84831l4.41843,44.47216z" fill="#000000" stroke="none" stroke-width="0" stroke-linecap="butt"/><path d="M259.17329,351.31588l-12.48526,-125.66595l18.24184,-1.81238l12.48525,125.66596z" fill="#000000" stroke="#000000" stroke-width="0.5" stroke-linecap="butt"/><path d="M192.34866,129.80863c-1.0487,1.92176 -3.10291,2.23827 -4.58813,0.70691c-1.48521,-1.53132 -1.83909,-4.3307 -0.79037,-6.25244c1.0487,-1.92176 3.10291,-2.23824 4.58815,-0.70689c1.48521,1.53132 1.83909,4.33065 0.79036,6.2524z" fill="#000000" stroke="#000000" stroke-width="1.5" stroke-linecap="butt"/><g fill="#ffffff" stroke="none" stroke-width="0" stroke-linecap="butt"><path d="M168.40502,166.52042l-0.34096,-7.61105l3.8055,-0.17047l0.34094,7.61102z"/><path d="M153.86536,155.3566l-0.34094,-7.61104l3.26186,-0.14612l0.34094,7.61104z"/><path d="M161.22497,161.56376l-0.34094,-7.61102l3.26186,-0.14612l0.34094,7.61102z"/><path d="M174.11679,169.77299l-0.31658,-7.06738l5.98009,-0.26788l0.31658,7.0674z"/><path d="M184.42336,168.69558l-0.34094,-7.61102l5.43646,-0.24354l0.34094,7.61104z"/><path d="M195.32063,168.75217l-0.34096,-7.61105l7.06738,-0.31658l0.34094,7.61102z"/><path d="M205.26482,167.07024l-0.414,-9.24197l4.89279,-0.21919l0.41399,9.24197z"/><path d="M215.29721,152.60469l-0.24354,-5.43646l2.71823,-0.12177l0.24354,5.43642z"/><path d="M223.30577,148.97755l-0.29223,-6.52373l2.71823,-0.12175l0.29221,6.52372z"/><path d="M230.20268,144.85545l-0.41401,-9.24195l1.63095,-0.07306l0.41401,9.24195z"/><path d="M145.32105,147.0236l-0.36531,-8.15467l3.80552,-0.17047l0.36529,8.15466z"/></g><g fill="#ffffff" stroke="none" stroke-width="0" stroke-linecap="butt"><path d="M167.12769,204.75442l-1.52512,-8.57244l4.28623,-0.76254l1.52512,8.57244z"/><path d="M181.4753,207.72925l-1.23913,-6.96512l3.21465,-0.57191l1.23913,6.96512z"/><path d="M189.98854,208.97836l-0.95317,-5.35778l1.60733,-0.28595l0.95317,5.35778z"/><path d="M201.83233,201.98488l-1.14382,-6.42932l2.67889,-0.4766l1.14382,6.42933z"/><path d="M210.84772,201.95095l-0.95317,-5.35778l1.07154,-0.19064l0.9532,5.35778z"/><path d="M222.33578,188.85246l-1.52509,-8.57244l3.75045,-0.66722l1.52509,8.57243z"/><path d="M231.02658,181.77894l-0.66723,-3.75045l1.60732,-0.28597l0.66722,3.75044z"/><path d="M151.66696,191.11049l-0.9532,-5.35778l3.21465,-0.57191l0.95317,5.35778z"/></g><g stroke="#000000"><path d="M23.15412,224.14141l135.75338,-13.95625l2.29132,22.28786l-135.75338,13.95625z" fill="#000000" stroke-width="0.5" stroke-linecap="butt"/><path d="M127.04917,217.23178l26.63698,-3.24055l9.23029,26.98952l-68.21268,-5.21714" fill="none" stroke-width="5" stroke-linecap="round"/><path d="M187.64995,259.86705l-19.87082,-30.02003l-9.08963,-19.16758" fill="none" stroke-width="5" stroke-linecap="round"/></g><g fill="#000000" stroke="#000000"><path d="M-43.82079,247.21869l119.3462,-36.45719l11.98792,32.81045l-119.3462,36.45719z" stroke-width="0.5" stroke-linecap="butt"/><path d="M77.64805,215.85393l15.26834,0.94212l1.62425,11.88982l-11.10368,11.81182l-113.92135,34.94142l-22.86351,-7.77717l2.64439,-16.10644z" stroke-width="5" stroke-linecap="round"/></g><g><path d="M153.13714,357.61122l-12.8447,-129.28371l96.81367,-9.6187c0.27717,0.07254 0.55186,0.13972 0.82346,0.20188l12.8168,129.0028z" fill="#000000" stroke="none" stroke-width="0" stroke-linecap="butt"/><path d="M228.02775,228.83345l31.67377,69.3095l-17.70668,-63.07019l3.32773,110.26069l18.8322,74.39883l-24.55764,21.50732l-27.53462,-46.83974l-27.78331,46.61551l-20.00664,-9.45276l-3.35215,-72.12332l-22.7838,-94.98044l69.13411,-52.63058l27.74667,10.59053l31.33529,8.32722l0.92572,28.50923" fill="none" stroke="#000000" stroke-width="5" stroke-linecap="round"/><path d="M210.93532,231.50283c-5.26072,-0.80048 -10.76597,-0.67651 -15.98168,0.58829c-3.88742,0.94273 -7.05027,4.02669 -10.95348,4.90176c-1.89713,0.42532 -4.18434,-1.05953 -5.83255,-0.02836c-1.49477,0.93513 -0.87618,3.52579 -1.9692,4.90929c-2.94648,3.72946 -7.40811,6.16259 -10.05398,10.111c-1.8492,2.75953 -5.71748,12.34984 -8.00786,13.66432c-14.84992,8.52253 -20.89262,-5.82349 -28.01259,-14.35629c0,0 -3.63937,-4.43633 0.79697,-8.0757c4.43633,-3.63937 8.0757,0.79697 8.0757,0.79697c2.59262,3.20377 4.01877,7.23365 6.54698,10.48849c0.65809,0.84724 5.05057,2.58248 6.20404,1.61319c2.9497,-2.47868 2.67064,-7.31368 4.84595,-10.49371c1.53731,-2.24733 3.53445,-4.11158 5.56498,-5.9525c-0.63033,-0.51992 -1.21024,-1.26124 -1.67592,-2.30182c-2.34384,-5.23759 2.89373,-7.58143 2.89373,-7.58143l5.47675,-2.45088c3.65672,-1.59405 6.67935,-4.36595 10.09143,-6.43242c8.29018,-5.02083 22.33519,-6.46628 31.45091,-3.12474c1.76954,0.64864 3.80733,1.27536 4.97922,2.73244c2.20333,-0.21891 6.04634,-0.60073 6.04634,-0.60073c3.15354,-0.31332 5.96398,1.98916 6.2773,5.14269c0.31332,3.15354 -1.98916,5.96398 -5.1427,6.27729l-7.55243,0.75036l-0.04422,-0.44504c-0.25775,0.07243 -0.5175,0.13853 -0.77943,0.19772l-0.09831,0.26446c-0.19332,-0.04379 -0.38715,-0.08632 -0.58142,-0.12762c-0.0584,0.01031 -0.11697,0.02027 -0.17561,0.02987c-0.84681,0.13846 -1.63105,-0.09215 -2.38879,-0.49692z" fill="#000000" stroke="none" stroke-width="0.5" stroke-linecap="butt"/></g><g data-paper-data="{&quot;index&quot;:null}" stroke="#000000"><path d="M-130.10902,347.56302l-5.77899,-43.08402l14.40097,-30.74887" fill="none" stroke-width="6" stroke-linecap="round"/><g><path d="M-124.02675,279.14946l32.82778,-70.09377l38.73603,18.14167l-32.82777,70.09378z" fill="#000000" stroke-width="0.5" stroke-linecap="butt"/><path d="M-91.87882,349.77738l-5.02021,-18.09533l9.78268,-44.90005" fill="none" stroke-width="6" stroke-linecap="round"/><path d="M-107.49931,344.71088l-4.90341,-13.54231l8.80203,-47.60852" fill="none" stroke-width="6" stroke-linecap="round"/><path d="M-150.81253,254.7013l28.34521,-31.7081l27.20141,-5.25382" fill="none" stroke-width="6" stroke-linecap="round"/></g></g><g fill="#000000" stroke="#000000"><path d="M274.83354,408.45363l-34.69706,-129.87721l25.58187,-6.83426l34.69706,129.87719z" stroke-width="0.5" stroke-linecap="butt"/><path d="M241.86231,288.70936l7.18947,-23.59526l18.68129,15.30468l25.78523,125.19019l3.00144,30.20973l-27.55906,-8.70241l6.06395,-34.9239z" stroke-width="5" stroke-linecap="round"/></g></g></g></svg>