<svg version="1.1" xmlns="http://www.w3.org/2000/svg" xmlns:xlink="http://www.w3.org/1999/xlink" width="883.41546" height="984.37582" viewBox="0,0,883.41546,984.37582"><g transform="translate(211.20893,323.25603)"><g data-paper-data="{&quot;isPaintingLayer&quot;:true}" fill-rule="nonzero" stroke-linejoin="miter" stroke-miterlimit="10" stroke-dasharray="" stroke-dashoffset="0" style="mix-blend-mode: normal"><path d="" fill="#000000" stroke="none" stroke-width="0.5" stroke-linecap="butt"/><path d="M206.43393,495.2802l-11.78514,28.4064l-19.28975,19.74363" fill="none" stroke="#000000" stroke-width="6" stroke-linecap="round"/><path d="M212.89775,510.91024l-7.3194,26.5596l-15.36138,10.27483" fill="none" stroke="#000000" stroke-width="6" stroke-linecap="round"/><path d="M233.26222,506.41062l-7.31943,26.5596l-17.86292,7.38723" fill="none" stroke="#000000" stroke-width="6" stroke-linecap="round"/><path d="M200.48627,512.29005l21.80375,-52.55482l35.60166,14.77028l-21.80375,52.55483z" fill="#000000" stroke="#000000" stroke-width="0.5" stroke-linecap="butt"/><path d="M166.94805,511.70481l21.42544,-22.90499l24.11274,-19.80299" fill="none" stroke="#000000" stroke-width="6" stroke-linecap="round"/><g data-paper-data="{&quot;index&quot;:null}" stroke="#000000"><path d="M-144.16722,425.96007l-7.07385,-52.73758l17.6277,-37.63858" fill="none" stroke-width="6" stroke-linecap="round"/><g><path d="M-136.72213,342.21751l40.18329,-85.79924l47.41537,22.20656l-40.18328,85.79925z" fill="#000000" stroke-width="0.5" stroke-linecap="butt"/><path d="M-97.37102,428.67058l-6.14506,-22.14984l11.97462,-54.96052" fill="none" stroke-width="6" stroke-linecap="round"/><path d="M-116.49149,422.46886l-6.00209,-16.57665l10.77425,-58.27586" fill="none" stroke-width="6" stroke-linecap="round"/><path d="M-169.50963,312.29141l34.69634,-38.81273l33.29626,-6.43101" fill="none" stroke-width="6" stroke-linecap="round"/></g></g><path d="M350.36056,439.10954l-36.68942,-87.50681l36.75288,-15.40958l36.6894,87.50682z" fill="#000000" stroke="#000000" stroke-width="0.5" stroke-linecap="butt"/><path d="M352.20727,495.94264l-22.39628,-225.42182l32.72253,-3.25109l22.39626,225.42185z" fill="#000000" stroke="#000000" stroke-width="0.5" stroke-linecap="butt"/><g stroke="#000000"><path d="M-71.16815,267.81479l243.51685,-25.03497l4.11022,39.98038l-243.51685,25.03497z" fill="#000000" stroke-width="0.5" stroke-linecap="butt"/><path d="M115.20065,255.42017l47.78191,-5.81295l16.55748,48.41429l-122.36112,-9.35859" fill="none" stroke-width="5" stroke-linecap="round"/><path d="M223.90743,331.90008l-35.64463,-53.85048l-16.30513,-34.38315" fill="none" stroke-width="5" stroke-linecap="round"/></g><g fill="#000000" stroke="#000000"><path d="M-191.30894,309.21122l214.08535,-65.39756l21.50414,58.85598l-214.08535,65.39756z" stroke-width="0.5" stroke-linecap="butt"/><path d="M26.58404,252.94856l27.38863,1.69l2.91361,21.32817l-19.91799,21.18825l-204.35416,62.67855l-41.01298,-13.95083l4.74356,-28.89202z" stroke-width="5" stroke-linecap="round"/></g><g><path d="M161.99773,507.23531l-23.04105,-231.91144l173.6661,-17.25419c0.49718,0.13013 0.98994,0.25062 1.47714,0.36215l22.99101,231.40754z" fill="#000000" stroke="none" stroke-width="0" stroke-linecap="butt"/><path d="M296.33784,276.23145l56.81698,124.32862l-31.76257,-113.13644l5.96935,197.7876l33.78153,133.45796l-44.05193,38.58022l-49.3921,-84.02197l-49.83819,83.61973l-35.88828,-16.95654l-6.01314,-129.37609l-40.86998,-170.3776l124.01399,-94.40967l49.77248,18.99747l56.20981,14.93751l1.66056,51.14037" fill="none" stroke="#000000" stroke-width="5" stroke-linecap="round"/><path d="M265.67715,281.01985c-9.43678,-1.43591 -19.31219,-1.21352 -28.66824,1.05528c-6.97333,1.69108 -12.64691,7.22315 -19.64854,8.79287c-3.40311,0.76294 -7.50595,-1.90061 -10.46252,-0.05088c-2.68133,1.67747 -1.57171,6.32462 -3.53239,8.80638c-5.28545,6.68997 -13.2888,11.05456 -18.03501,18.13727c-3.31712,4.9501 -10.25613,22.15338 -14.36465,24.51129c-26.63804,15.28786 -37.47756,-10.44628 -50.24948,-25.75259c0,0 -6.52837,-7.95797 1.42961,-14.48635c7.95797,-6.52837 14.48635,1.42961 14.48635,1.42961c4.65069,5.74698 7.20895,12.97584 11.74409,18.81446c1.1805,1.5198 9.05981,4.6325 11.12892,2.89377c5.29122,-4.44629 4.79065,-13.11941 8.69275,-18.8238c2.75766,-4.03129 6.34016,-7.37542 9.98257,-10.6777c-1.13069,-0.93266 -2.17096,-2.26243 -3.00629,-4.12906c-4.20442,-9.39528 5.19083,-13.59969 5.19083,-13.59969l9.82428,-4.39643c6.5595,-2.85944 11.98153,-7.83172 18.10219,-11.53858c14.87106,-9.00645 40.06526,-11.59933 56.41719,-5.60521c3.17423,1.16355 6.82966,2.28776 8.93182,4.90151c3.95239,-0.39269 10.84603,-1.07762 10.84603,-1.07762c5.65688,-0.56204 10.69829,3.56819 11.26033,9.22505c0.56204,5.65688 -3.56819,10.69829 -9.22506,11.26032l-13.54768,1.34601l-0.0793,-0.79832c-0.46236,0.12993 -0.9283,0.24851 -1.39816,0.35466l-0.17635,0.47439c-0.34676,-0.07855 -0.69448,-0.15483 -1.04295,-0.22892c-0.10476,0.0185 -0.20982,0.03636 -0.31502,0.0536c-1.51903,0.24837 -2.9258,-0.1653 -4.28506,-0.89138z" fill="#000000" stroke="none" stroke-width="0.5" stroke-linecap="butt"/></g><g fill="#000000" stroke="#000000"><path d="M380.29891,598.43735l-62.24019,-232.97606l45.88921,-12.25941l62.24019,232.97604z" stroke-width="0.5" stroke-linecap="butt"/><path d="M321.15452,383.63792l12.8966,-42.32561l33.51084,27.45381l46.25399,224.56841l5.38404,54.19076l-49.43594,-15.61054l10.87761,-62.64712z" stroke-width="5" stroke-linecap="round"/></g><path d="M200.45203,375.28997l-10.73564,-108.0556l94.11296,-9.35036l10.73564,108.05562z" fill="#000000" stroke="none" stroke-width="0" stroke-linecap="butt"/><g stroke="none" stroke-width="0" stroke-linecap="butt"><path d="M660.81237,159.95973c-48.65225,207.1263 -239.17128,332.05653 -425.53604,279.03937c-186.36478,-53.01748 -298.0028,-263.90532 -249.35064,-471.03162c48.65209,-207.12638 239.17116,-332.05654 425.53598,-279.03942c186.36485,53.01721 298.0028,263.90532 249.35057,471.03169z" fill="#000000"/><path d="M344.60705,-12.58498c-123.59306,-33.71987 -216.62825,-92.82563 -207.79959,-132.01656c8.82866,-39.19074 116.17764,-43.62564 239.77063,-9.90571c123.59306,33.71987 216.62818,92.82569 207.79949,132.01642c-8.82838,39.19085 -116.17744,43.62582 -239.77057,9.90598z" fill="#ffffff"/></g><path d="M361.87382,21.2139c-4.97615,7.87318 -13.2916,8.31785 -18.57276,0.99309c-5.28109,-7.32457 -5.52837,-19.64519 -0.55217,-27.51826c4.97615,-7.87318 13.2916,-8.31773 18.57286,-0.99303c5.28109,7.32457 5.5284,19.64495 0.55212,27.51807z" fill="#000000" stroke="#000000" stroke-width="1.5" stroke-linecap="butt"/><g fill="#ffffff" stroke="none" stroke-width="0" stroke-linecap="butt"><path d="M275.14126,-46.41092l9.72541,-28.9263l14.46302,4.86271l-9.72539,28.92616z"/><path d="M236.95712,-109.12911l9.72544,-28.92621l12.39691,4.16801l-9.72544,28.92621z"/><path d="M255.48099,-75.30442l9.72539,-28.92616l12.39691,4.16801l-9.72539,28.92616z"/><path d="M291.77897,-26.00549l9.0308,-26.85999l22.72771,7.64144l-9.03081,26.86007z"/><path d="M331.8395,-15.13587l9.72539,-28.92616l20.66162,6.94673l-9.72544,28.92621z"/><path d="M372.46799,0.82382l9.72541,-28.9263l26.85999,9.0308l-9.72539,28.92616z"/><path d="M412.04841,8.91136l11.80948,-35.1247l18.59537,6.25198l-11.8095,35.1247z"/><path d="M470.4327,-30.63099l6.94673,-20.66162l10.3308,3.47335l-6.94667,20.66146z"/><path d="M505.59306,-32.60775l8.33608,-24.79381l10.33076,3.47343l-8.33612,24.79377z"/><path d="M537.31576,-38.04006l11.80942,-35.12459l6.19854,2.08403l-11.80942,35.12459z"/><path d="M217.07957,-152.60759l10.42003,-30.99237l14.46311,4.86273l-10.42015,30.9923z"/></g><g fill="#ffffff" stroke="none" stroke-width="0" stroke-linecap="butt"><path d="M108.48978,418.18487l7.5199,-34.05668l17.02835,3.76001l-7.5199,34.05668z"/><path d="M157.00323,451.22031l6.11004,-27.67105l12.77118,2.81996l-6.11004,27.67105z"/><path d="M186.58126,468.91296l4.70005,-21.2854l6.38561,1.41002l-4.70005,21.2854z"/><path d="M241.13696,461.22472l5.63997,-25.54247l10.64272,2.34993l-5.64,25.5425z"/><path d="M274.54281,474.94157l4.70005,-21.2854l4.25703,0.93997l-4.69997,21.28543z"/><path d="M337.15622,444.12079l7.51997,-34.05662l14.89976,3.29001l-7.51997,34.0566z"/><path d="M380.16987,431.29529l3.29,-14.89982l6.3856,1.40991l-3.28998,14.89976z"/><path d="M72.23975,343.96856l4.69997,-21.28543l12.77118,2.81996l-4.70005,21.2854z"/></g></g></g></svg>