<svg version="1.1" xmlns="http://www.w3.org/2000/svg" xmlns:xlink="http://www.w3.org/1999/xlink" width="1134.99932" height="1351.50875" viewBox="0,0,1134.99932,1351.50875"><defs><linearGradient x1="225.10474" y1="-68.03207" x2="255.60808" y2="186.24967" gradientUnits="userSpaceOnUse" id="color-1"><stop offset="0" stop-color="#ffffff"/><stop offset="1" stop-color="#a7a7a7"/></linearGradient><linearGradient x1="238.77528" y1="42.73381" x2="245.04014" y2="94.95899" gradientUnits="userSpaceOnUse" id="color-2"><stop offset="0" stop-color="#000000"/><stop offset="1" stop-color="#2a1200"/></linearGradient></defs><g transform="translate(158.3652,143.54706)"><g data-paper-data="{&quot;isPaintingLayer&quot;:true}" fill-rule="nonzero" stroke-linejoin="miter" stroke-miterlimit="10" stroke-dasharray="" stroke-dashoffset="0" style="mix-blend-mode: normal"><path d="" fill="#000000" stroke="none" stroke-width="0.5" stroke-linecap="butt"/><path d="M-87.27678,756.15422v-176.49478h62.86117v176.49478z" fill="#000000" stroke="#000000" stroke-width="0.5" stroke-linecap="butt"/><path d="M-106.61866,567.57071v-91.874h50.77248v91.874z" fill="#000000" stroke="#000000" stroke-width="0.5" stroke-linecap="butt"/><path d="M69.87613,749.10833v-29.01286h84.62081v29.01286z" fill="#000000" stroke="#000000" stroke-width="0.5" stroke-linecap="butt"/><path d="M-111.30303,804.7163v-36.26606h82.05195v36.26606z" fill="#000000" stroke="#000000" stroke-width="6" stroke-linecap="butt"/><path d="M-99.36546,557.19301l-12.08869,53.19021l-14.50642,16.92415" fill="none" stroke="#000000" stroke-width="6" stroke-linecap="round"/><path d="M-80.02357,562.02852l-14.50642,55.60797l-12.08869,12.08869" fill="none" stroke="#000000" stroke-width="6" stroke-linecap="round"/><path d="M-58.26395,562.02852v31.4306l-21.75964,33.8483" fill="none" stroke="#000000" stroke-width="6" stroke-linecap="round"/><path d="M178.08556,565.62238l-91.91799,-348.56325l288.57899,-76.09983l91.91799,348.56325z" fill="#000000" stroke="none" stroke-width="0" stroke-linecap="butt"/><path d="M502.31078,76.56435c0.89161,12.99996 12.5894,27.6346 11.94786,40.03572c-1.39966,27.05592 -18.88946,66.1203 -30.692,91.52641c-20.53963,44.21346 -40.45362,92.3486 -41.3217,93.34981c-18.18054,20.9685 -77.0377,95.95379 -201.61949,107.26018c-1.07097,-0.00688 -101.1428,-14.99986 -152.00325,-63.00225c-42.71134,-40.31121 -89.72686,-102.82379 -111.76478,-153.75731c-8.27912,-19.1345 -12.69793,-31.04939 -14.15415,-52.28174c-0.86634,-12.6315 8.54557,-55.89968 9.46452,-68.17792c9.68469,-129.40144 106.03896,-204.89979 242.02765,-214.22657c148.89195,-10.21177 278.11872,73.51776 288.11539,219.2737z" fill="#000000" stroke="none" stroke-width="0" stroke-linecap="butt"/><path d="M-127.90737,1196.89668l-30.45783,-130.08878l419.46445,-332.53794l30.45784,130.08877z" fill="#000000" stroke="none" stroke-width="0" stroke-linecap="butt"/><path d="M526.71183,875.42374l30.45784,-130.08877l419.46445,332.53794l-30.45784,130.08878z" data-paper-data="{&quot;index&quot;:null}" fill="#000000" stroke="none" stroke-width="0" stroke-linecap="butt"/><path d="M38.36463,192.63346l-15.95805,-48.79108l29.4521,8.71331l5.47748,80.44269z" data-paper-data="{&quot;index&quot;:null}" fill="none" stroke="#640000" stroke-width="6" stroke-linecap="round"/><path d="M469.17028,203.90859l-2.19603,-82.66639l24.52929,-10.26673l-9.51232,50.71451z" data-paper-data="{&quot;index&quot;:null}" fill="none" stroke="#640000" stroke-width="6" stroke-linecap="round"/><g fill="#ffffff" stroke="none" stroke-width="0" stroke-linecap="butt"><path d="M189.53521,368.65863l-0.88226,-32.2741l26.47918,-0.01546l0.88226,32.2741c0,0 -4.48593,14.81694 -13.15309,14.8967c-9.74986,0.08972 -13.32611,-14.88122 -13.32611,-14.88122z"/><path d="M226.5203,385.02751l-1.17803,-37.89955l29.85492,0.13222l1.17803,37.89955c0,0 -4.97369,17.37179 -14.74537,17.41622c-10.99234,0.04998 -15.10955,-17.54843 -15.10955,-17.54843z"/><path d="M266.73607,384.26523l-1.25354,-37.8905l29.18602,0.21246l1.25354,37.8905c0,0 -4.81547,17.35281 -14.36798,17.37095c-10.74578,0.02041 -14.81804,-17.58341 -14.81804,-17.58341z"/><path d="M302.16039,368.73898l-1.32539,-33.90679l24.33923,0.40583l1.3254,33.90679c0,0 -3.88726,15.48854 -11.85278,15.43415c-8.96056,-0.06118 -12.48647,-15.83996 -12.48647,-15.83996z"/><path d="M335.40873,360.25266l-1.34472,-34.40135l24.69425,0.41173l1.34473,34.40136c0,0 -3.94395,15.71446 -12.02566,15.65927c-9.09126,-0.06209 -12.66859,-16.07101 -12.66859,-16.07101z"/><path d="M368.25903,329.56396l-1.10308,-28.21927l20.25658,0.33773l1.10307,28.21927c0,0 -3.23521,12.8905 -9.8646,12.84524c-7.45752,-0.05093 -10.39198,-13.18297 -10.39198,-13.18297z"/><path d="M391.19228,291.74164l-1.0354,-26.48827l19.01403,0.31702l1.0354,26.48827c0,0 -3.03676,12.09979 -9.25951,12.0573c-7.00006,-0.04781 -9.75452,-12.37432 -9.75452,-12.37432z"/><path d="M413.02664,251.05343l-0.73577,-18.82247l13.5113,0.22528l0.73577,18.82247c0,0 -2.15792,8.59806 -6.57976,8.56786c-4.97422,-0.03396 -6.93153,-8.79315 -6.93153,-8.79315z"/><path d="M164.11084,357.93295l-1.10307,-28.21927l20.25658,0.33774l1.10308,28.21927c0,0 -3.2352,12.89049 -9.8646,12.84523c-7.45752,-0.05093 -10.39198,-13.18297 -10.39198,-13.18297z"/><path d="M135.91841,340.84431l-1.01609,-25.99371l18.659,0.31111l1.01608,25.9937c0,0 -2.98005,11.87386 -9.08661,11.83216c-6.86935,-0.0469 -9.57239,-12.14328 -9.57239,-12.14328z"/><path d="M108.94832,308.76608l-0.85175,-21.78988l15.64139,0.2608l0.85175,21.78988c0,0 -2.49811,9.95357 -7.61708,9.9186c-5.75841,-0.03932 -8.02431,-10.1794 -8.02431,-10.1794z"/><path d="M89.80803,279.01128l-0.7841,-20.05891l14.39884,0.24008l0.7841,20.05891c0,0 -2.29966,9.16285 -7.01198,9.13068c-5.30097,-0.0362 -7.38685,-9.37076 -7.38685,-9.37076z"/><path d="M68.18022,259.99391l-0.7841,-20.05891l14.39884,0.24008l0.7841,20.05891c0,0 -2.29966,9.16285 -7.01198,9.13068c-5.30097,-0.0362 -7.38685,-9.37076 -7.38685,-9.37076z"/><path d="M48.42845,237.73107l-0.7841,-20.05891l14.39884,0.24008l0.7841,20.05891c0,0 -2.29966,9.16285 -7.01198,9.13068c-5.30097,-0.0362 -7.38685,-9.37076 -7.38685,-9.37076z"/><path d="M431.20919,230.28092l-0.73577,-18.82247l13.5113,0.22528l0.73577,18.82247c0,0 -2.15792,8.59806 -6.57976,8.56786c-4.97422,-0.03396 -6.93153,-8.79315 -6.93153,-8.79315z"/><path d="M449.39166,209.50838l-0.73577,-18.82247l13.5113,0.22528l0.73577,18.82247c0,0 -2.15792,8.59806 -6.57976,8.56786c-4.97422,-0.03396 -6.93153,-8.79315 -6.93153,-8.79315z"/></g><g fill="#ffffff" stroke="none" stroke-width="0" stroke-linecap="butt"><path d="M188.94633,284.89938l-0.62838,-32.17223c0,0 1.59882,-14.59757 13.36892,-14.66392c12.4667,-0.07026 12.54974,14.42976 12.54974,14.42976l0.62838,32.17223z"/><path d="M225.43567,295.70303l-0.73822,-37.79685c0,0 1.87833,-17.14966 15.70619,-17.22761c14.64624,-0.08256 14.74381,16.95249 14.74381,16.95249l0.73822,37.79686z"/><path d="M264.90709,295.02998l-0.73822,-37.79685c0,0 1.87833,-17.14966 15.70619,-17.22761c14.64624,-0.08256 14.74381,16.95249 14.74381,16.95249l0.73822,37.79686z"/><path d="M298.50895,284.20227l-0.66109,-33.84726c0,0 1.68206,-15.3576 14.06497,-15.4274c13.11577,-0.07393 13.20315,15.18104 13.20315,15.18104l0.66109,33.84726z"/><path d="M331.70597,275.16211l-0.67073,-34.34096c0,0 1.70658,-15.5816 14.27013,-15.65242c13.30708,-0.07501 13.39574,15.40246 13.39574,15.40246l0.67073,34.34096z"/><path d="M365.1981,251.39627l-0.55019,-28.16971c0,0 1.3999,-12.78152 11.70571,-12.8396c10.91572,-0.06153 10.98846,12.63455 10.98846,12.63455l0.55019,28.16971z"/><path d="M388.31105,215.51229l-0.51645,-26.44177c0,0 1.31405,-11.99749 10.98767,-12.05202c10.24615,-0.05776 10.31442,11.85956 10.31442,11.85956l0.51645,26.44176z"/><path d="M410.94127,183.40842l-0.36698,-18.78942c0,0 0.93376,-8.52537 7.80779,-8.56412c7.2809,-0.04105 7.32938,8.42735 7.32938,8.42735l0.36698,18.78942z"/><path d="M161.04989,279.76527l-0.55019,-28.16971c0,0 1.39991,-12.78152 11.70571,-12.8396c10.91572,-0.06153 10.98845,12.63455 10.98845,12.63455l0.55019,28.16971z"/><path d="M133.08849,265.1688l-0.5068,-25.94807c0,0 1.2895,-11.77348 10.78252,-11.82699c10.05484,-0.05669 10.12183,11.63811 10.12183,11.63811l0.50679,25.94807z"/><path d="M106.55488,237.79812l-0.42485,-21.75161c0,0 1.08095,-9.86941 9.03872,-9.91428c8.42873,-0.04752 8.48488,9.75595 8.48488,9.75595l0.42484,21.75162z"/><path d="M87.59429,209.98169l-0.39109,-20.02367c0,0 0.99509,-9.08539 8.32068,-9.12668c7.75915,-0.04374 7.81084,8.98093 7.81084,8.98093l0.3911,20.02368z"/><path d="M65.96649,190.96434l-0.39109,-20.02367c0,0 0.99509,-9.08539 8.32068,-9.12668c7.75915,-0.04374 7.81084,8.98093 7.81084,8.98093l0.3911,20.02368z"/><path d="M46.21472,168.70149l-0.39109,-20.02367c0,0 0.99509,-9.08539 8.32068,-9.12668c7.75915,-0.04374 7.81084,8.98093 7.81084,8.98093l0.3911,20.02368z"/><path d="M429.12378,162.6359l-0.36698,-18.78942c0,0 0.93376,-8.52537 7.80779,-8.56412c7.2809,-0.04105 7.32938,8.42735 7.32938,8.42735l0.36698,18.78942z"/><path d="M447.3063,141.86337l-0.36698,-18.78942c0,0 0.93376,-8.52537 7.80779,-8.56412c7.2809,-0.04105 7.32938,8.42735 7.32938,8.42735l0.36698,18.78942z"/></g><g stroke="none" stroke-width="0" stroke-linecap="butt"><path d="M440.85549,55.05845c0.3654,18.02325 -11.35898,14.62551 -21.61692,30.38699c-29.87402,45.90192 -93.78098,99.67859 -176.15114,101.34857c-78.12348,1.58389 -148.14848,-51.30297 -182.03298,-92.20046c-14.10942,-17.02958 -20.49175,-10.68157 -20.91202,-31.41095c-0.3039,-14.98954 9.60418,-9.74468 16.78025,-23.25763c26.5808,-50.05333 93.85684,-106.71143 180.9878,-108.47793c93.10096,-1.88755 162.28253,46.29919 185.88318,100.67885c4.44958,10.25252 16.83508,11.74733 17.06186,22.93258z" fill="url(#color-1)"/><path d="M51.75364,72.46014c0.63258,9.2234 11.94177,25.54795 5.61716,25.98172c-6.32462,0.43377 -18.73763,-21.56789 -19.37021,-30.79129c-0.63258,-9.2234 7.47169,-22.08543 13.79632,-22.51919c6.32462,-0.43377 -0.67583,18.10535 -0.04325,27.32876z" fill="#ba7d7d"/><path d="M424.11752,31.06638c6.29434,-0.75506 16.50152,9.06102 17.48466,17.25678c0.98315,8.19576 -7.39331,29.70318 -13.68764,30.45824c-6.29434,0.75506 1.98473,-15.57955 1.00158,-23.77531c-0.98315,-8.19576 -11.09295,-23.18465 -4.79859,-23.93971z" data-paper-data="{&quot;index&quot;:null}" fill="#ba7d7d"/></g><g stroke="none" stroke-width="0" stroke-linecap="butt"><path d="M265.76549,67.21009c0.99406,14.49391 -8.88157,26.97612 -22.05785,27.87982c-13.17629,0.90371 -24.66363,-10.11333 -25.65767,-24.60724c-0.99406,-14.49391 8.88157,-26.97612 22.05785,-27.87981c13.17629,-0.90371 24.66363,10.11333 25.65767,24.60724z" fill="url(#color-2)"/><path d="M260.06853,68.17848c0.71679,10.01038 -5.84578,18.53237 -16.01533,19.19722c-10.16953,0.66487 -18.99467,-6.91119 -19.71147,-16.92156c-0.71679,-10.01038 6.94618,-18.66436 17.11571,-19.3292c10.16954,-0.66485 17.89428,7.04317 18.61108,17.05356z" fill="#000000"/></g></g></g></svg>