<svg version="1.1" xmlns="http://www.w3.org/2000/svg" xmlns:xlink="http://www.w3.org/1999/xlink" width="1134.99933" height="1373.10137" viewBox="0,0,1134.99933,1373.10137"><defs><linearGradient x1="182.15765" y1="-64.63748" x2="265.87222" y2="177.39873" gradientUnits="userSpaceOnUse" id="color-1"><stop offset="0" stop-color="#ffffff"/><stop offset="1" stop-color="#a7a7a7"/></linearGradient><linearGradient x1="212.31372" y1="37.06131" x2="229.50728" y2="86.77146" gradientUnits="userSpaceOnUse" id="color-2"><stop offset="0" stop-color="#000000"/><stop offset="1" stop-color="#2a1200"/></linearGradient></defs><g transform="translate(158.36521,165.13968)"><g data-paper-data="{&quot;isPaintingLayer&quot;:true}" fill-rule="nonzero" stroke-linejoin="miter" stroke-miterlimit="10" stroke-dasharray="" stroke-dashoffset="0" style="mix-blend-mode: normal"><path d="" fill="#000000" stroke="none" stroke-width="0.5" stroke-linecap="butt"/><path d="M-87.27679,756.15422v-176.49478h62.86117v176.49478z" fill="#000000" stroke="#000000" stroke-width="0.5" stroke-linecap="butt"/><path d="M-106.61867,567.57071v-91.874h50.77248v91.874z" fill="#000000" stroke="#000000" stroke-width="0.5" stroke-linecap="butt"/><path d="M69.87611,749.10833v-29.01286h84.62081v29.01286z" fill="#000000" stroke="#000000" stroke-width="0.5" stroke-linecap="butt"/><path d="M-111.30304,804.7163v-36.26606h82.05195v36.26606z" fill="#000000" stroke="#000000" stroke-width="6" stroke-linecap="butt"/><path d="M-99.36547,557.19301l-12.08869,53.19021l-14.50642,16.92415" fill="none" stroke="#000000" stroke-width="6" stroke-linecap="round"/><path d="M-80.02357,562.02852l-14.50642,55.60797l-12.08869,12.08869" fill="none" stroke="#000000" stroke-width="6" stroke-linecap="round"/><path d="M-58.26396,562.02852v31.4306l-21.75964,33.8483" fill="none" stroke="#000000" stroke-width="6" stroke-linecap="round"/><path d="M209.16202,544.11088l-117.83209,-340.67705l282.04993,-97.55437l117.83209,340.67705z" fill="#000000" stroke="none" stroke-width="0" stroke-linecap="butt"/><path d="M479.48133,1.66407c3.62717,12.5155 18.16145,24.33774 20.16338,36.59301c4.36765,26.73771 13.57454,67.12037 7.426,94.45105c-10.70013,47.56273 -12.44997,95.82239 -13.08608,96.98486c-13.32229,24.34597 -39.93082,173.16706 -159.28435,210.62624c-1.04809,0.22031 -127.54938,-21.74649 -187.4298,-57.87614c-50.28608,-30.34078 -124.49994,-111.49593 -156.83425,-156.60011c-12.14722,-16.94455 -18.99141,-27.65191 -24.91552,-48.093c-3.52436,-12.16077 -3.49867,-56.44077 -5.20344,-68.63476c-17.96688,-128.51349 60.1928,-222.72182 191.11364,-260.6645c143.34323,-41.54287 287.38258,12.88925 328.05046,153.21335z" fill="#000000" stroke="none" stroke-width="0" stroke-linecap="butt"/><path d="M419.09854,9.91908c4.1778,17.53617 -8.0004,16.70107 -14.68396,34.27888c-19.46443,51.19159 -70.51898,117.29351 -150.66305,136.38696c-76.01216,18.10908 -155.65701,-18.73138 -197.44114,-51.51629c-17.3988,-13.65153 -22.29038,-6.09481 -27.09547,-26.26397c-3.47458,-14.58444 7.32016,-11.55916 11.46855,-26.28625c15.36602,-54.55052 69.10224,-124.18259 153.87846,-144.3796c90.58487,-21.58086 168.40908,10.8451 203.00113,58.9858c6.52185,9.07626 18.94275,7.91152 21.5355,18.79448z" fill="url(#color-1)" stroke="none" stroke-width="0" stroke-linecap="butt"/><path d="M42.52897,109.4099c2.57345,8.87967 17.0862,22.43581 10.99729,24.20046c-6.08892,1.76465 -22.88388,-17.10556 -25.45733,-25.98523c-2.57345,-8.87967 2.62005,-23.16739 8.70897,-24.93204c6.08892,-1.76465 3.17763,17.83713 5.75108,26.71681z" fill="#ba7d7d" stroke="none" stroke-width="0" stroke-linecap="butt"/><path d="M397.65497,-9.97948c5.99122,-2.07222 18.0473,5.35697 20.7455,13.15805c2.69821,7.80108 -0.92858,30.59539 -6.9198,32.66761c-5.99122,2.07222 -1.36304,-15.6462 -4.06125,-23.44728c-2.69821,-7.80108 -15.75568,-20.30616 -9.76445,-22.37838z" data-paper-data="{&quot;index&quot;:null}" fill="#ba7d7d" stroke="none" stroke-width="0" stroke-linecap="butt"/><path d="M-127.90738,1196.89668l-30.45783,-130.08878l419.46445,-332.53794l30.45784,130.08877z" fill="#000000" stroke="none" stroke-width="0" stroke-linecap="butt"/><path d="M526.71183,875.42374l30.45784,-130.08877l419.46445,332.53794l-30.45784,130.08878z" data-paper-data="{&quot;index&quot;:null}" fill="#000000" stroke="none" stroke-width="0" stroke-linecap="butt"/><path d="M55.91043,237.53676l-31.16418,-68.39014l31.56308,6.57406l31.02156,117.17231z" data-paper-data="{&quot;index&quot;:null}" fill="none" stroke="#640000" stroke-width="6" stroke-linecap="round"/><path d="M479.18217,156.61747l-24.20051,-101.20635l21.23277,-17.82701l4.23389,64.39056z" data-paper-data="{&quot;index&quot;:null}" fill="none" stroke="#640000" stroke-width="6" stroke-linecap="round"/><g fill="#ffffff" stroke="none" stroke-width="0" stroke-linecap="butt"><path d="M253.71338,397.13637l-7.7039,-31.35356l25.8741,-5.62836l7.7039,31.35356c0,0 -1.24297,15.43115 -9.69624,17.34641c-9.50924,2.15453 -16.17787,-11.71805 -16.17787,-11.71805z"/><path d="M293.32788,405.29287l-9.18548,-36.78847l29.20442,-6.19964l9.18548,36.78847c0,0 -1.17805,18.03133 -10.71823,20.14622c-10.73191,2.37908 -18.48619,-13.94657 -18.48619,-13.94657z"/><path d="M332.46804,396.02267l-9.25735,-36.76361l28.56773,-5.97943l9.25735,36.76361c0,0 -1.02746,17.97924 -10.35902,20.02198c-10.49723,2.29791 -18.20872,-14.04254 -18.20872,-14.04254z"/><path d="M363.79589,373.3398l-8.48308,-32.8552l23.87209,-4.763l8.48309,32.8552c0,0 -0.51554,15.96057 -8.31155,17.59601c-8.76987,1.83973 -15.56055,-12.83299 -15.56055,-12.83299z"/><path d="M394.48958,357.99812l-8.60681,-33.33443l24.22029,-4.83249l8.60682,33.33444c0,0 -0.52305,16.19337 -8.43278,17.85266c-8.8978,1.86656 -15.78751,-13.02018 -15.78751,-13.02018z"/><path d="M420.08767,321.04306l-7.06014,-27.34407l19.86779,-3.96407l7.06013,27.34407c0,0 -0.42906,13.28335 -6.91738,14.64446c-7.29882,1.53113 -12.95041,-10.68039 -12.95041,-10.68039z"/><path d="M434.48184,279.21878l-6.62705,-25.66676l18.64909,-3.72091l6.62705,25.66676c0,0 -0.40274,12.46854 -6.49306,13.74616c-6.8511,1.43721 -12.15603,-10.02525 -12.15603,-10.02525z"/><path d="M447.19458,234.82672l-4.70917,-18.23871l13.25198,-2.64406l4.70917,18.23871c0,0 -0.28619,8.8601 -4.61394,9.76796c-4.86837,1.02129 -8.63803,-7.12391 -8.63803,-7.12391z"/><path d="M226.59313,392.04411l-7.06013,-27.34407l19.86779,-3.96406l7.06014,27.34407c0,0 -0.42906,13.28334 -6.91738,14.64445c-7.29882,1.53113 -12.95041,-10.68039 -12.95041,-10.68039z"/><path d="M195.41887,381.32028l-6.50333,-25.18754l18.30088,-3.65143l6.50332,25.18754c0,0 -0.39522,12.23573 -6.37182,13.48949c-6.72317,1.41038 -11.92906,-9.83807 -11.92906,-9.83807z"/><path d="M162.26157,355.68843l-5.45157,-21.11409l15.34118,-3.0609l5.45157,21.11409c0,0 -0.3313,10.25691 -5.34134,11.3079c-5.63587,1.18229 -9.99984,-8.247 -9.99984,-8.247z"/><path d="M137.24865,330.66738l-5.01851,-19.43679l14.12248,-2.81774l5.01851,19.43679c0,0 -0.30498,9.4421 -4.91702,10.40961c-5.18816,1.08836 -9.20544,-7.59187 -9.20544,-7.59187z"/><path d="M112.08096,316.66705l-5.01851,-19.43679l14.12248,-2.81774l5.01851,19.43679c0,0 -0.30498,9.4421 -4.91702,10.40961c-5.18816,1.08836 -9.20544,-7.59187 -9.20544,-7.59187z"/><path d="M88.05866,299.09731l-5.01851,-19.43679l14.12248,-2.81774l5.01851,19.43679c0,0 -0.30498,9.4421 -4.91702,10.40961c-5.18816,1.08836 -9.20544,-7.59187 -9.20544,-7.59187z"/><path d="M460.56037,210.67185l-4.70917,-18.23871l13.25198,-2.64406l4.70917,18.23871c0,0 -0.28619,8.8601 -4.61394,9.76796c-4.86837,1.02129 -8.63803,-7.12391 -8.63803,-7.12391z"/><path d="M473.92609,186.51697l-4.70917,-18.23871l13.25198,-2.64406l4.70917,18.23871c0,0 -0.28619,8.8601 -4.61394,9.76796c-4.86837,1.02129 -8.63803,-7.12391 -8.63803,-7.12391z"/></g><g fill="#ffffff" stroke="none" stroke-width="0" stroke-linecap="butt"><path d="M212.2251,267.67588l-7.4342,-31.30783c0,0 -1.53201,-14.60473 9.95651,-17.16468c12.16847,-2.71145 15.32345,11.44141 15.32345,11.44141l7.4342,31.30783z"/><path d="M250.17537,270.49871l-8.7339,-36.78132c0,0 -1.79987,-17.15807 11.69719,-20.16557c14.29586,-3.1855 18.00243,13.4417 18.00243,13.4417l8.7339,36.78133z"/><path d="M288.60702,261.47353l-8.7339,-36.78132c0,0 -1.79987,-17.15807 11.69719,-20.16557c14.29586,-3.1855 18.00243,13.4417 18.00243,13.4417l8.7339,36.78133z"/><path d="M319.14986,243.76874l-7.82125,-32.93785c0,0 -1.61178,-15.36513 10.47489,-18.05836c12.80201,-2.85263 16.12126,12.03711 16.12126,12.03711l7.82125,32.93785z"/><path d="M349.67599,227.8967l-7.93533,-33.41828c0,0 -1.6353,-15.58925 10.62768,-18.32176c12.98874,-2.89424 16.35641,12.21268 16.35641,12.21268l7.93533,33.41828z"/><path d="M377.36887,197.57109l-6.50931,-27.41285c0,0 -1.34143,-12.78778 8.71783,-15.02925c10.65459,-2.37413 13.41708,10.01799 13.41708,10.01799l6.50931,27.41285z"/><path d="M392.34957,157.60302l-6.11003,-25.73133c0,0 -1.25914,-12.00337 8.18307,-14.10735c10.00104,-2.2285 12.59407,9.40349 12.59407,9.40349l6.11003,25.73132z"/><path d="M407.65985,121.43147l-4.34176,-18.28459c0,0 -0.89474,-8.52955 5.81486,-10.02463c7.10671,-1.58357 8.94929,6.68207 8.94929,6.68207l4.34176,18.28459z"/><path d="M183.87431,268.57215l-6.50931,-27.41285c0,0 -1.34142,-12.78779 8.71783,-15.02925c10.65459,-2.37413 13.41707,10.01799 13.41707,10.01799l6.50931,27.41285z"/><path d="M153.45415,260.23489l-5.99595,-25.25089c0,0 -1.23564,-11.77926 8.03029,-13.84395c9.8143,-2.1869 12.35892,9.22791 12.35892,9.22791l5.99594,25.2509z"/><path d="M121.72134,239.11106l-5.02625,-21.16719c0,0 -1.0358,-9.87425 6.73158,-11.60504c8.22709,-1.83322 10.36017,7.73553 10.36017,7.73553l5.02625,21.1672z"/><path d="M97.29496,215.94623l-4.62696,-19.48567c0,0 -0.95351,-9.08984 6.19683,-10.68313c7.57353,-1.68758 9.53716,7.12102 9.53716,7.12102l4.62697,19.48568z"/><path d="M72.12726,201.94592l-4.62696,-19.48567c0,0 -0.95351,-9.08984 6.19683,-10.68313c7.57353,-1.68758 9.53716,7.12102 9.53716,7.12102l4.62697,19.48568z"/><path d="M48.10497,184.37617l-4.62696,-19.48567c0,0 -0.95351,-9.08984 6.19683,-10.68313c7.57353,-1.68758 9.53716,7.12102 9.53716,7.12102l4.62697,19.48568z"/><path d="M421.02561,97.2766l-4.34176,-18.28459c0,0 -0.89474,-8.52955 5.81486,-10.02463c7.10671,-1.58357 8.94929,6.68207 8.94929,6.68207l4.34176,18.28459z"/><path d="M434.39137,73.12172l-4.34176,-18.28459c0,0 -0.89474,-8.52955 5.81486,-10.02463c7.10671,-1.58357 8.94929,6.68207 8.94929,6.68207l4.34176,18.28459z"/></g><g stroke="none" stroke-width="0" stroke-linecap="butt"><path d="M243.87918,55.25972c4.04399,13.95376 -2.96112,28.24581 -15.64636,31.92217c-12.68524,3.67637 -26.24698,-4.65511 -30.29096,-18.60888c-4.04399,-13.95376 2.96112,-28.24581 15.64636,-31.92216c12.68524,-3.67637 26.24698,4.65511 30.29096,18.60888z" fill="url(#color-2)"/><path d="M238.51698,57.41378c2.82257,9.63092 -1.7843,19.3504 -11.58177,22.15596c-9.79746,2.80556 -20.02805,-2.72749 -22.85063,-12.35839c-2.82257,-9.63092 2.8317,-19.71267 12.62917,-22.51821c9.79747,-2.80555 18.98066,3.08974 21.80324,12.72066z" fill="#000000"/></g></g></g></svg>