<svg version="1.1" xmlns="http://www.w3.org/2000/svg" xmlns:xlink="http://www.w3.org/1999/xlink" width="490.59144" height="457.88673" viewBox="0,0,490.59144,457.88673"><g transform="translate(118.45118,-92.85794)"><g data-paper-data="{&quot;isPaintingLayer&quot;:true}" fill-rule="nonzero" stroke-linejoin="miter" stroke-miterlimit="10" stroke-dasharray="" stroke-dashoffset="0" style="mix-blend-mode: normal"><path d="" fill="#000000" stroke="none" stroke-width="0.5" stroke-linecap="butt"/><path d="M206.43393,495.2802l-11.78514,28.4064l-19.28975,19.74363" fill="none" stroke="#000000" stroke-width="6" stroke-linecap="round"/><path d="M212.89775,510.91024l-7.3194,26.5596l-15.36138,10.27483" fill="none" stroke="#000000" stroke-width="6" stroke-linecap="round"/><path d="M233.26222,506.41062l-7.31943,26.5596l-17.86292,7.38723" fill="none" stroke="#000000" stroke-width="6" stroke-linecap="round"/><g data-paper-data="{&quot;index&quot;:null}" stroke="#000000"><path d="M-94.74767,389.99665l-5.77899,-43.08402l14.40097,-30.74887" fill="none" stroke-width="6" stroke-linecap="round"/><g><path d="M-88.6654,321.58309l32.82778,-70.09377l38.73603,18.14167l-32.82777,70.09378z" fill="#000000" stroke-width="0.5" stroke-linecap="butt"/><path d="M-56.51747,392.21101l-5.02021,-18.09533l9.78268,-44.90005" fill="none" stroke-width="6" stroke-linecap="round"/><path d="M-72.13796,387.14451l-4.90341,-13.54231l8.80203,-47.60852" fill="none" stroke-width="6" stroke-linecap="round"/><path d="M-115.45118,297.13493l28.34521,-31.7081l27.20141,-5.25382" fill="none" stroke-width="6" stroke-linecap="round"/></g></g><path d="M200.48627,512.29005l21.80375,-52.55482l35.60166,14.77028l-21.80375,52.55483z" fill="#000000" stroke="#000000" stroke-width="0.5" stroke-linecap="butt"/><path d="M166.94805,511.70481l21.42544,-22.90499l24.11274,-19.80299" fill="none" stroke="#000000" stroke-width="6" stroke-linecap="round"/><path d="M323.04494,356.38095l-23.60685,-56.30398l23.64768,-9.91489l23.60684,56.30399z" fill="#000000" stroke="#000000" stroke-width="0.5" stroke-linecap="butt"/><g stroke="none" stroke-width="0" stroke-linecap="butt"><path d="M316.4244,167.95555c-3.19606,38.17747 -36.43252,66.56095 -74.23572,63.39624c-37.8032,-3.16476 -65.85783,-36.67922 -62.66179,-74.85669c3.19602,-38.17748 36.43251,-66.56095 74.23571,-63.39624c37.80321,3.16472 65.85783,36.67922 62.66178,74.85671z" fill="#000000"/><path d="M249.78959,148.00765c-25.02678,-1.8446 -44.88415,-9.18568 -44.35264,-16.39683c0.53152,-7.2111 21.25059,-11.5615 46.27735,-9.71689c25.02678,1.8446 44.88414,9.1857 44.35263,16.39679c-0.53147,7.21112 -21.25055,11.56152 -46.27734,9.71693z" fill="#ffffff"/></g><path d="M227.95798,264.67677l-5.09969,-51.32911l44.70601,-4.44166l5.09969,51.32912z" fill="#000000" stroke="none" stroke-width="0" stroke-linecap="butt"/><path d="M324.23316,392.94873l-14.4103,-145.04181l21.05446,-2.09183l14.41029,145.04182z" fill="#000000" stroke="#000000" stroke-width="0.5" stroke-linecap="butt"/><path d="M251.52774,142.29643c-1.21039,2.21807 -3.58133,2.58338 -5.29555,0.8159c-1.7142,-1.76743 -2.12265,-4.99843 -0.91224,-7.21648c1.21039,-2.21807 3.58133,-2.58335 5.29558,-0.81588c1.7142,1.76743 2.12265,4.99837 0.91222,7.21643z" fill="#000000" stroke="#000000" stroke-width="1.5" stroke-linecap="butt"/><g fill="#ffffff" stroke="none" stroke-width="0" stroke-linecap="butt"><path d="M223.85681,179.94241l0.16794,-8.79177l4.39585,0.08398l-0.16796,8.79173z"/><path d="M207.93195,166.0125l0.16796,-8.79175l3.76788,0.07198l-0.16796,8.79175z"/><path d="M215.95173,173.70426l0.16796,-8.79173l3.76788,0.07198l-0.16796,8.79173z"/><path d="M230.19622,184.10959l0.15597,-8.16375l6.9078,0.13197l-0.15597,8.16378z"/><path d="M242.14702,183.62783l0.16796,-8.79173l6.27983,0.11996l-0.16796,8.79175z"/><path d="M254.69468,184.49576l0.16794,-8.79177l8.16375,0.15597l-0.16796,8.79173z"/><path d="M266.27262,183.291l0.20395,-10.6757l5.65182,0.10795l-0.20396,10.6757z"/><path d="M278.89386,167.36815l0.11996,-6.27983l3.13991,0.05998l-0.11996,6.27979z"/><path d="M288.38557,163.78024l0.14397,-7.53576l3.13991,0.06l-0.14399,7.53575z"/><path d="M296.6333,159.54034l0.20394,-10.67567l1.88396,0.03599l-0.20394,10.67567z"/><path d="M198.70419,155.78487l0.17993,-9.41972l4.39588,0.08398l-0.17997,9.41971z"/></g><g fill="#ffffff" stroke="none" stroke-width="0" stroke-linecap="butt"><path d="M213.56961,206.201l0.0719,-10.0493l5.02465,0.03597l-0.0719,10.0493z"/><path d="M229.22666,212.59421l0.05845,-8.16506l3.76847,0.02697l-0.05845,8.16506z"/><path d="M238.62537,215.80203l0.04497,-6.28081l1.88424,0.01349l-0.04497,6.28081z"/><path d="M253.53715,210.356l0.05394,-7.53696l3.1404,0.02246l-0.05394,7.53697z"/><path d="M263.77555,212.21334l0.04497,-6.28081l1.25614,0.00899l-0.04494,6.28082z"/><path d="M279.56746,199.76413l0.07193,-10.04929l4.39657,0.03148l-0.07193,10.04928z"/><path d="M290.91785,193.56422l0.03147,-4.39658l1.88423,0.01346l-0.03147,4.39656z"/><path d="M198.89293,187.46572l0.04494,-6.28082l3.76847,0.02697l-0.04497,6.28081z"/></g><g stroke="#000000"><path d="M51.82326,246.1658l156.68458,-16.1081l2.64461,25.72433l-156.68458,16.1081z" fill="#000000" stroke-width="0.5" stroke-linecap="butt"/><path d="M171.73741,238.1908l30.74402,-3.74019l10.65347,31.15092l-78.73008,-6.02154" fill="none" stroke-width="5" stroke-linecap="round"/><path d="M241.68196,287.39981l-22.93461,-34.64869l-10.49111,-22.12294" fill="none" stroke-width="5" stroke-linecap="round"/></g><g fill="#000000" stroke="#000000"><path d="M-25.47821,272.80126l137.74765,-42.07836l13.83628,37.86935l-137.74765,42.07836z" stroke-width="0.5" stroke-linecap="butt"/><path d="M114.71936,236.60051l17.6225,1.08739l1.87469,13.72306l-12.81571,13.63303l-131.48637,40.32888l-26.38873,-8.9763l3.05212,-18.58982z" stroke-width="5" stroke-linecap="round"/></g><g><path d="M201.84778,400.21471l-14.82516,-149.21738l111.74093,-11.10176c0.3199,0.08373 0.63695,0.16126 0.95043,0.23301l14.79296,148.89316z" fill="#000000" stroke="none" stroke-width="0" stroke-linecap="butt"/><path d="M288.28543,251.58128l36.5574,79.99602l-20.4368,-72.7947l3.84082,127.26129l21.73585,85.87005l-28.34407,24.82344l-31.78006,-54.06175l-32.06709,53.80294l-23.09138,-10.91024l-3.869,-83.24368l-26.29673,-109.62504l79.79358,-60.74545l32.02481,12.22343l36.16674,9.61115l1.06845,32.90494" fill="none" stroke="#000000" stroke-width="5" stroke-linecap="round"/><path d="M268.5576,254.66225c-6.07185,-0.9239 -12.42593,-0.78081 -18.44583,0.67899c-4.48681,1.08808 -8.13732,4.64755 -12.64234,5.65754c-2.18964,0.4909 -4.82951,-1.22289 -6.73184,-0.03274c-1.72524,1.07932 -1.01127,4.06941 -2.27282,5.66624c-3.40079,4.30449 -8.55033,7.11277 -11.60416,11.66996c-2.13432,3.18501 -6.59904,14.25401 -9.24256,15.77116c-17.13956,9.83658 -24.11396,-6.72139 -32.33172,-16.56983c0,0 -4.20051,-5.12035 0.91985,-9.32086c5.12035,-4.20051 9.32086,0.91985 9.32086,0.91985c2.99236,3.69774 4.63841,8.34897 7.55643,12.10567c0.75956,0.97787 5.8293,2.98066 7.16062,1.86192c3.4045,-2.86085 3.08242,-8.44134 5.59312,-12.11168c1.77434,-2.59383 4.07941,-4.74552 6.42302,-6.87029c-0.72751,-0.60009 -1.39685,-1.4557 -1.93432,-2.65673c-2.70523,-6.04515 3.3399,-8.75037 3.3399,-8.75037l6.32118,-2.82877c4.22054,-1.83983 7.70921,-5.03912 11.64738,-7.4242c9.5684,-5.79497 25.77895,-7.46329 36.30018,-3.60653c2.04238,0.74865 4.39436,1.472 5.74695,3.15375c2.54306,-0.25267 6.9786,-0.69336 6.9786,-0.69336c3.63977,-0.36163 6.88354,2.29586 7.24517,5.93562c0.36163,3.63977 -2.29586,6.88354 -5.93563,7.24516l-8.7169,0.86606l-0.05103,-0.51366c-0.29749,0.0836 -0.59729,0.15989 -0.89961,0.2282l-0.11347,0.30524c-0.22312,-0.05054 -0.44685,-0.09963 -0.67106,-0.1473c-0.06741,0.0119 -0.13501,0.0234 -0.20269,0.03448c-0.97738,0.15981 -1.88253,-0.10636 -2.75711,-0.57354z" fill="#000000" stroke="none" stroke-width="0.5" stroke-linecap="butt"/></g><g fill="#000000" stroke="#000000"><path d="M342.30799,458.89629l-40.04684,-149.90239l29.52622,-7.888l40.04684,149.90237z" stroke-width="0.5" stroke-linecap="butt"/><path d="M304.25308,320.68918l8.29798,-27.23331l21.56168,17.66444l29.76093,144.4927l3.46422,34.86763l-31.80827,-10.04419l6.99892,-40.30866z" stroke-width="5" stroke-linecap="round"/></g></g></g></svg>