<svg version="1.1" xmlns="http://www.w3.org/2000/svg" xmlns:xlink="http://www.w3.org/1999/xlink" width="308.1587" height="375.96225" viewBox="0,0,308.1587,375.96225"><g transform="translate(-29.01139,-174.78242)"><g data-paper-data="{&quot;isPaintingLayer&quot;:true}" fill-rule="nonzero" stroke-linejoin="miter" stroke-miterlimit="10" stroke-dasharray="" stroke-dashoffset="0" style="mix-blend-mode: normal"><path d="M257.01117,371.4368l4.22132,-44.16983l18.55134,1.77295l-4.22133,44.16983z" fill="#000000" stroke="#000000" stroke-width="0.5" stroke-linecap="butt"/><path d="" fill="#000000" stroke="none" stroke-width="0.5" stroke-linecap="butt"/><g stroke="none" stroke-width="0" stroke-linecap="butt"><path d="M327.80439,253.90813c-16.10322,22.71412 -47.3904,28.20131 -69.88184,12.25597c-22.49143,-15.94537 -27.67011,-47.28506 -11.5669,-69.99919c16.10321,-22.71413 47.39039,-28.20131 69.88183,-12.25597c22.49145,15.94536 27.67011,47.28506 11.56688,69.9992z" fill="#000000"/><path d="M293.4674,216.80796c-14.98251,-10.39946 -24.69915,-22.32952 -21.70269,-26.64652c2.99646,-4.31699 17.5713,0.61383 32.55381,11.01329c14.98251,10.39946 24.69914,22.32951 21.70268,26.6465c-2.99645,4.31701 -17.57128,-0.61381 -32.5538,-11.01327z" fill="#ffffff"/></g><path d="M227.61208,280.04059l14.36563,-34.6263l30.1584,12.512l-14.36563,34.62631z" fill="#000000" stroke="none" stroke-width="0" stroke-linecap="butt"/><path d="M245.21097,395.26536l40.59327,-97.84429l14.20321,5.89258l-40.59328,97.84429z" fill="#000000" stroke="#000000" stroke-width="0.5" stroke-linecap="butt"/><path d="M201.12209,499.16645l20.29664,-48.92214l33.14081,13.74933l-20.29664,48.92215z" fill="#000000" stroke="#000000" stroke-width="0.5" stroke-linecap="butt"/><path d="M206.43392,495.2802l-11.78514,28.4064l-19.28975,19.74363" fill="none" stroke="#000000" stroke-width="6" stroke-linecap="round"/><path d="M212.89774,510.91024l-7.3194,26.5596l-15.36138,10.27483" fill="none" stroke="#000000" stroke-width="6" stroke-linecap="round"/><path d="M233.26221,506.41062l-7.31943,26.5596l-17.86292,7.38723" fill="none" stroke="#000000" stroke-width="6" stroke-linecap="round"/><path d="M169.90209,498.62167l19.94448,-21.32176l22.44603,-18.43417" fill="none" stroke="#000000" stroke-width="6" stroke-linecap="round"/><path d="M300.78684,211.33903c-1.35471,0.88924 -3.07085,0.66878 -3.83305,-0.49241c-0.7622,-1.16118 -0.28186,-2.82343 1.07285,-3.71266c1.35471,-0.88924 3.07085,-0.66877 3.83306,0.49243c0.7622,1.16118 0.28188,2.8234 -1.07286,3.71264z" fill="#000000" stroke="#000000" stroke-width="1.5" stroke-linecap="butt"/><g fill="#ffffff" stroke="none" stroke-width="0" stroke-linecap="butt"><path d="M270.62795,228.98435l3.69609,-5.21348l2.60673,1.84804l-3.6961,5.21346z"/><path d="M266.75649,214.10303l3.6961,-5.21347l2.23434,1.58404l-3.6961,5.21347z"/><path d="M268.42947,222.00381l3.6961,-5.21346l2.23434,1.58404l-3.6961,5.21346z"/><path d="M272.73263,234.08037l3.4321,-4.84107l4.09629,2.90407l-3.4321,4.84108z"/><path d="M280.10977,238.67794l3.6961,-5.21346l3.72391,2.64007l-3.6961,5.21347z"/><path d="M287.29358,244.33048l3.69609,-5.21348l4.84107,3.4321l-3.6961,5.21346z"/><path d="M294.74236,248.34119l4.48812,-6.33064l3.35151,2.37605l-4.48813,6.33064z"/><path d="M308.8366,243.9358l2.64007,-3.72391l1.86195,1.32003l-2.64005,3.72389z"/><path d="M316.00649,245.66157l3.16808,-4.46868l1.86195,1.32004l-3.16809,4.46866z"/><path d="M322.69561,246.48693l4.48811,-6.33063l1.11718,0.79203l-4.48811,6.33063z"/><path d="M265.39475,204.1847l3.9601,-5.58586l2.60673,1.84805l-3.9601,5.58585z"/></g><g fill="#ffffff" stroke="none" stroke-width="0" stroke-linecap="butt"><path d="M260.33241,235.48858l4.2241,-5.95826l2.97913,2.11206l-4.2241,5.95826z"/><path d="M267.0021,245.81265l3.4321,-4.84107l2.23434,1.58404l-3.4321,4.84108z"/><path d="M271.26791,251.63471l2.64007,-3.7239l1.11717,0.79202l-2.64007,3.7239z"/><path d="M282.4195,254.59394l3.16808,-4.46868l1.86195,1.32003l-3.16809,4.46869z"/><path d="M287.74758,259.96063l2.64007,-3.7239l0.74478,0.528l-2.64007,3.72391z"/><path d="M302.33747,259.113l4.22411,-5.95825l2.60673,1.84805l-4.22411,5.95824z"/><path d="M311.68056,260.14121l1.84806,-2.60674l1.11717,0.79201l-1.84805,2.60672z"/><path d="M259.38214,218.21799l2.64007,-3.72391l2.23434,1.58404l-2.64007,3.7239z"/></g><g stroke="#000000"><path d="M92.69227,292.97256l106.58558,-41.75767l6.85573,17.49912l-106.58558,41.75767z" fill="#000000" stroke-width="0.5" stroke-linecap="butt"/><path d="M175.11128,264.06262l20.80106,-8.59934l13.51953,19.74124l-56.30229,11.09778" fill="none" stroke-width="5" stroke-linecap="round"/><path d="M233.66219,284.91594l-22.79982,-19.80167l-11.64975,-13.45096" fill="none" stroke-width="5" stroke-linecap="round"/></g><g fill="#000000" stroke="#000000"><path d="M75.08354,404.70171l7.36961,-104.41757l29.29768,0.48733l-7.36961,104.41757z" stroke-width="0.5" stroke-linecap="butt"/><path d="M87.07924,300.15463l5.3324,-11.67138l9.79835,2.30626l5.90704,12.24859l-6.92393,99.71384l-12.96978,15.56141l-11.81535,-6.91747z" stroke-width="5" stroke-linecap="round"/></g><g><path d="M164.33144,357.87899l41.76191,-100.66111l75.37973,31.27326c0.17613,0.16352 0.35255,0.32207 0.52867,0.4757l-41.67116,100.44239z" fill="#000000" stroke="none" stroke-width="0" stroke-linecap="butt"/><path d="M270.74811,292.37616l-4.06527,63.79234l11.91628,-53.64263l-41.25497,82.82581l-15.57572,62.46319l-26.68038,6.16223l-1.78355,-45.5413l-39.01944,23.44373l-11.0415,-14.91963l26.11665,-54.64373l20.8146,-79.24412l71.9714,-11.49588l16.31197,18.82936l19.86207,18.57907l-10.6187,21.44149" fill="none" stroke="#000000" stroke-width="5" stroke-linecap="round"/><path d="M257.05478,287.5728c-3.57144,-2.67744 -7.69016,-4.76846 -12.04716,-5.90135c-3.2474,-0.84436 -6.80813,0.18138 -10.04038,-0.71925c-1.57101,-0.43775 -2.67307,-2.44218 -4.30027,-2.33339c-1.4757,0.09864 -2.04556,2.25894 -3.40204,2.84829c-3.6567,1.58868 -7.91947,1.6184 -11.44076,3.48813c-2.46102,1.30674 -9.12278,6.8624 -11.33701,6.92602c-14.35621,0.41247 -13.13533,-12.58809 -15.01554,-21.7185c0,0 -0.93141,-4.7223 3.79089,-5.65371c4.7223,-0.93141 5.65371,3.79089 5.65371,3.79089c0.64632,3.39616 0.10282,6.94055 0.68127,10.34893c0.15057,0.88721 2.70959,3.9114 3.94655,3.6522c3.16318,-0.66281 4.87381,-4.34756 7.74262,-5.83585c2.0274,-1.05177 4.24283,-1.63805 6.4737,-2.19385c-0.25983,-0.63424 -0.39458,-1.41215 -0.32626,-2.36599c0.34393,-4.80097 5.14489,-4.45704 5.14489,-4.45704l5.0202,0.35963c3.33509,0.27143 6.66844,-0.57922 10.01,-0.75402c8.11883,-0.42468 19.07421,4.07522 24.48787,10.15944c1.0509,1.18105 2.30879,2.45225 2.5974,3.99397c1.71553,0.71173 4.70772,1.95311 4.70772,1.95311c2.45536,1.01867 3.62004,3.83495 2.60137,6.29032c-1.01867,2.45536 -3.83495,3.62004 -6.29031,2.60136l-5.88037,-2.43962l0.14376,-0.34651c-0.21925,-0.04865 -0.43747,-0.10277 -0.65456,-0.16286l-0.17752,0.15652c-0.12555,-0.10901 -0.25196,-0.2173 -0.3792,-0.32485c-0.04726,-0.01554 -0.0945,-0.03139 -0.14165,-0.04755c-0.68087,-0.23339 -1.16916,-0.71478 -1.56881,-1.31441z" fill="#000000" stroke="none" stroke-width="0.5" stroke-linecap="butt"/></g><g stroke="#000000"><path d="M95.87684,438.46801l-10.91429,26.30736l-29.96663,20.77491" fill="none" stroke-width="6" stroke-linecap="round"/><g><path d="M60.81334,429.35621l24.87975,-59.96908l33.14081,13.74933l-24.87974,59.96908z" fill="#000000" stroke-width="0.5" stroke-linecap="butt"/><path d="M68.35804,424.54656l-22.29473,31.44529l-14.05191,7.11855" fill="none" stroke-width="6" stroke-linecap="round"/><path d="M79.67365,432.94068l-24.5276,32.36871l-11.16432,4.61702" fill="none" stroke-width="6" stroke-linecap="round"/><path d="M115.75163,390.56584l12.12162,19.82711l-3.62579,35.49104" fill="none" stroke-width="6" stroke-linecap="round"/></g></g><g fill="#000000" stroke="#000000"><path d="M234.13396,443.7113l25.84359,-109.7636l21.6201,5.09041l-25.84358,109.76359z" stroke-width="0.5" stroke-linecap="butt"/><path d="M257.23591,342.12236l14.66935,-14.59159l7.74169,18.72001l-30.57311,102.76562l-9.7585,23.52149l-16.92187,-17.35926l18.32879,-23.41215z" stroke-width="5" stroke-linecap="round"/></g></g></g></svg>