<svg version="1.1" xmlns="http://www.w3.org/2000/svg" xmlns:xlink="http://www.w3.org/1999/xlink" width="1134.99933" height="1380.84219" viewBox="0,0,1134.99933,1380.84219"><defs><linearGradient x1="190.8623" y1="-92.98465" x2="256.16603" y2="154.65436" gradientUnits="userSpaceOnUse" id="color-1"><stop offset="0" stop-color="#ffffff"/><stop offset="1" stop-color="#a7a7a7"/></linearGradient><linearGradient x1="216.29968" y1="27.20796" x2="229.71196" y2="78.06883" gradientUnits="userSpaceOnUse" id="color-2"><stop offset="0" stop-color="#000000"/><stop offset="1" stop-color="#2a1200"/></linearGradient></defs><g transform="translate(158.36521,172.8805)"><g data-paper-data="{&quot;isPaintingLayer&quot;:true}" fill-rule="nonzero" stroke-linejoin="miter" stroke-miterlimit="10" stroke-dasharray="" stroke-dashoffset="0" style="mix-blend-mode: normal"><path d="" fill="#000000" stroke="none" stroke-width="0.5" stroke-linecap="butt"/><path d="M-87.27679,756.15422v-176.49478h62.86117v176.49478z" fill="#000000" stroke="#000000" stroke-width="0.5" stroke-linecap="butt"/><path d="M-106.61867,567.57071v-91.874h50.77248v91.874z" fill="#000000" stroke="#000000" stroke-width="0.5" stroke-linecap="butt"/><path d="M69.87611,749.10833v-29.01286h84.62081v29.01286z" fill="#000000" stroke="#000000" stroke-width="0.5" stroke-linecap="butt"/><path d="M-111.30304,804.7163v-36.26606h82.05195v36.26606z" fill="#000000" stroke="#000000" stroke-width="6" stroke-linecap="butt"/><path d="M-99.36547,557.19301l-12.08869,53.19021l-14.50642,16.92415" fill="none" stroke="#000000" stroke-width="6" stroke-linecap="round"/><path d="M-80.02357,562.02852l-14.50642,55.60797l-12.08869,12.08869" fill="none" stroke="#000000" stroke-width="6" stroke-linecap="round"/><path d="M-58.26396,562.02852v31.4306l-21.75964,33.8483" fill="none" stroke="#000000" stroke-width="6" stroke-linecap="round"/><path d="M175.08254,532.58935l-91.91799,-348.56325l288.57899,-76.09983l91.91799,348.56325z" fill="#000000" stroke="none" stroke-width="0" stroke-linecap="butt"/><path d="M485.37098,11.97226c2.67714,12.75253 16.28266,25.63277 17.35869,38.00377c2.34759,26.99019 2.42826,54.58096 -5.75518,81.37279c-14.2414,46.62498 -25.82043,113.5643 -26.54203,114.67572c-15.11282,23.27687 -24.01938,150.71232 -145.84876,179.10349c-121.82938,28.39117 -162.30514,-42.94011 -219.30352,-83.46418c-47.86582,-34.0311 -95.55104,-95.46313 -124.40719,-142.86795c-10.84056,-17.80885 -16.86141,-28.99991 -21.23388,-49.82813c-2.60126,-12.39108 0.74934,-56.54414 -0.03497,-68.83171c-8.26608,-129.4998 76.74704,-217.57315 210.14737,-245.57787c146.05799,-30.66195 285.60338,34.43241 315.61951,177.41409z" fill="#000000" stroke="none" stroke-width="0" stroke-linecap="butt"/><path d="M-127.90738,1196.89668l-30.45783,-130.08878l419.46445,-332.53794l30.45784,130.08877z" fill="#000000" stroke="none" stroke-width="0" stroke-linecap="butt"/><path d="M526.71183,875.42374l30.45784,-130.08877l419.46445,332.53794l-30.45784,130.08878z" data-paper-data="{&quot;index&quot;:null}" fill="#000000" stroke="none" stroke-width="0" stroke-linecap="butt"/><path d="M45.28426,215.3731l-25.94078,-70.53718l30.98032,8.92557l22.13551,119.17091z" data-paper-data="{&quot;index&quot;:null}" fill="none" stroke="#640000" stroke-width="6" stroke-linecap="round"/><path d="M473.43723,166.46572l-16.5326,-102.73784l22.51145,-16.18231l-0.61315,64.52669z" data-paper-data="{&quot;index&quot;:null}" fill="none" stroke="#640000" stroke-width="6" stroke-linecap="round"/><g fill="#ffffff" stroke="none" stroke-width="0" stroke-linecap="butt"><path d="M230.54443,389.37514l-5.32781,-31.84353l26.22368,-3.66958l5.32781,31.84353c0,0 -2.39819,15.29425 -10.97141,16.56935c-9.64418,1.4344 -15.25229,-12.89976 -15.25229,-12.89976z"/><path d="M269.43462,400.48326l-6.3971,-37.37434l29.5875,-3.98918l6.3971,37.37434c0,0 -2.5287,17.89196 -12.20075,19.28451c-10.88026,1.5665 -17.38675,-15.29532 -17.38675,-15.29532z"/><path d="M309.16038,394.17827l-6.47064,-37.35495l28.93607,-3.8174l6.47064,37.35495c0,0 -2.37462,17.85133 -11.83322,19.18759c-10.64014,1.50319 -17.10286,-15.37019 -17.10286,-15.37019z"/><path d="M342.10303,373.91184l-5.99203,-33.39944l24.16235,-2.957l5.99204,33.39944c0,0 -1.71256,15.8768 -9.60937,16.92222c-8.88326,1.17601 -14.55299,-13.9652 -14.55299,-13.9652z"/><path d="M373.86209,360.91827l-6.07943,-33.8866l24.51478,-3.00015l6.07944,33.88661c0,0 -1.73753,16.10838 -9.74953,17.16904c-9.01284,1.19315 -14.76525,-14.1689 -14.76525,-14.1689z"/><path d="M402.16284,325.9897l-4.98694,-27.79702l20.10936,-2.46101l4.98693,27.79702c0,0 -1.42529,13.21363 -7.9975,14.08369c-7.39319,0.97874 -12.11186,-11.62268 -12.11186,-11.62268z"/><path d="M419.65697,285.36436l-4.68102,-26.09192l18.87584,-2.31005l4.68102,26.09192c0,0 -1.33787,12.4031 -7.50693,13.21979c-6.93968,0.9187 -11.36891,-10.90974 -11.36891,-10.90974z"/><path d="M435.66721,242.05222l-3.32633,-18.54083l13.41311,-1.6415l3.32633,18.54083c0,0 -0.95069,8.8136 -5.33439,9.39392c-4.93131,0.65284 -8.07871,-7.75243 -8.07871,-7.75243z"/><path d="M203.88313,382.2608l-4.98693,-27.79702l20.10936,-2.461l4.98694,27.79702c0,0 -1.42529,13.21362 -7.9975,14.08368c-7.39319,0.97874 -12.11186,-11.62268 -12.11186,-11.62268z"/><path d="M173.60213,369.22637l-4.59364,-25.60476l18.5234,-2.26691l4.59363,25.60476c0,0 -1.31288,12.17151 -7.36676,12.97295c-6.81009,0.90156 -11.15664,-10.70605 -11.15664,-10.70605z"/><path d="M142.46314,341.1771l-3.85072,-21.46384l15.52771,-1.90029l3.85072,21.46384c0,0 -1.10056,10.20308 -6.17537,10.87489c-5.70874,0.75575 -9.35234,-8.9746 -9.35234,-8.9746z"/><path d="M119.39966,314.34847l-3.54483,-19.75876l14.29419,-1.74933l3.54483,19.75876c0,0 -1.01313,9.39254 -5.6848,10.011c-5.25524,0.69571 -8.60938,-8.26167 -8.60938,-8.26167z"/><path d="M95.35431,298.49783l-3.54483,-19.75876l14.29419,-1.74933l3.54483,19.75876c0,0 -1.01313,9.39254 -5.6848,10.011c-5.25524,0.69571 -8.60938,-8.26167 -8.60938,-8.26167z"/><path d="M72.71914,279.17386l-3.54483,-19.75876l14.29419,-1.74933l3.54483,19.75876c0,0 -1.01313,9.39254 -5.6848,10.011c-5.25524,0.69571 -8.60938,-8.26167 -8.60938,-8.26167z"/><path d="M450.80906,218.96919l-3.32633,-18.54083l13.41311,-1.6415l3.32633,18.54083c0,0 -0.95069,8.8136 -5.33439,9.39392c-4.93131,0.65284 -8.07871,-7.75243 -8.07871,-7.75243z"/><path d="M465.95083,195.88613l-3.32633,-18.54083l13.41311,-1.6415l3.32633,18.54083c0,0 -0.95069,8.8136 -5.33439,9.39392c-4.93131,0.65284 -8.07871,-7.75243 -8.07871,-7.75243z"/></g><g fill="#ffffff" stroke="none" stroke-width="0" stroke-linecap="butt"><path d="M201.89747,245.15278l-5.06231,-31.77767c0,0 -0.43102,-14.67854 11.2173,-16.36859c12.33772,-1.79006 14.42105,12.55975 14.42105,12.55975l5.06231,31.77767z"/><path d="M239.52863,250.81733l-5.94733,-37.33331c0,0 -0.50639,-17.24478 13.1784,-19.2303c14.4947,-2.10303 16.94227,14.75555 16.94227,14.75555l5.94733,37.33332z"/><path d="M278.52948,244.70346l-5.94733,-37.33331c0,0 -0.50639,-17.24478 13.1784,-19.2303c14.4947,-2.10303 16.94227,14.75555 16.94227,14.75555l5.94733,37.33332z"/><path d="M310.31554,229.34211l-5.32587,-33.43216c0,0 -0.45346,-15.44278 11.80132,-17.22082c12.98007,-1.88327 15.17188,13.21367 15.17188,13.21367l5.32587,33.43216z"/><path d="M341.94732,215.80709l-5.40355,-33.9198c0,0 -0.46009,-15.66803 11.97346,-17.472c13.1694,-1.91074 15.39318,13.4064 15.39318,13.4064l5.40355,33.9198z"/><path d="M371.83917,187.64655l-4.4325,-27.82424c0,0 -0.37741,-12.85241 9.82176,-14.3322c10.80278,-1.56737 12.62695,10.99719 12.62695,10.99719l4.4325,27.82424z"/><path d="M389.77878,148.91622l-4.16062,-26.11749c0,0 -0.35425,-12.06403 9.21929,-13.45306c10.14014,-1.47123 11.85241,10.32263 11.85241,10.32263l4.16062,26.11748z"/><path d="M407.76195,113.99644l-2.95651,-18.55899c0,0 -0.25173,-8.57266 6.55119,-9.55969c7.20556,-1.04546 8.42227,7.33521 8.42227,7.33521l2.95651,18.55899z"/><path d="M173.55942,243.91766l-4.4325,-27.82424c0,0 -0.3774,-12.85241 9.82176,-14.3322c10.80278,-1.56737 12.62694,10.99719 12.62694,10.99719l4.4325,27.82424z"/><path d="M143.85119,233.31969l-4.08293,-25.62984c0,0 -0.34765,-11.83879 9.04716,-13.20187c9.95081,-1.44377 11.6311,10.12989 11.6311,10.12989l4.08292,25.62985z"/><path d="M113.79416,209.87268l-3.42262,-21.48485c0,0 -0.29142,-9.92415 7.584,-11.0668c8.34152,-1.21027 9.75006,8.49164 9.75006,8.49164l3.42262,21.48486z"/><path d="M91.17618,184.93908l-3.15072,-19.7781c0,0 -0.26826,-9.13578 6.98153,-10.18765c7.67887,-1.11412 8.97552,7.81706 8.97552,7.81706l3.15073,19.77811z"/><path d="M67.13082,169.08845l-3.15072,-19.7781c0,0 -0.26826,-9.13578 6.98153,-10.18765c7.67887,-1.11412 8.97552,7.81706 8.97552,7.81706l3.15073,19.77811z"/><path d="M44.49566,149.76447l-3.15072,-19.7781c0,0 -0.26826,-9.13578 6.98153,-10.18765c7.67887,-1.11412 8.97552,7.81706 8.97552,7.81706l3.15073,19.77811z"/><path d="M422.90376,90.9134l-2.95651,-18.55899c0,0 -0.25173,-8.57266 6.55119,-9.55969c7.20556,-1.04546 8.42227,7.33521 8.42227,7.33521l2.95651,18.55899z"/><path d="M438.04558,67.83035l-2.95651,-18.55899c0,0 -0.25173,-8.57266 6.55119,-9.55969c7.20556,-1.04546 8.42227,7.33521 8.42227,7.33521l2.95651,18.55899z"/></g><g stroke="none" stroke-width="0" stroke-linecap="butt"><path d="M421.53581,-0.8467c2.84921,17.80037 -9.2319,16.05317 -17.2165,33.07948c-23.25345,49.58548 -79.12745,111.66709 -160.47898,124.68862c-77.15737,12.3502 -153.81101,-30.36678 -193.01536,-66.1967c-16.32459,-14.91946 -21.76979,-7.75139 -25.04681,-28.22442c-2.36963,-14.80417 8.16747,-10.97686 13.41001,-25.35086c19.41883,-53.24268 78.23201,-118.64311 164.28548,-132.41725c91.94963,-14.71792 167.11926,23.46031 197.99877,74.06262c5.8219,9.54036 18.29519,9.31159 20.06342,20.35852z" fill="url(#color-1)"/><path d="M38.55861,70.08664c1.89941,9.04784 15.35326,23.65547 9.14903,24.95792c-6.20424,1.30245 -21.53482,-18.77562 -23.43423,-27.82346c-1.89941,-9.04784 4.35229,-22.90524 10.55653,-24.20769c6.20424,-1.30245 1.82927,18.02538 3.72868,27.07323z" fill="#ba7d7d"/><path d="M401.64695,-22.29927c6.12991,-1.61649 17.59409,6.69702 19.69889,14.67868c2.10481,7.98166 -3.22337,30.43928 -9.35327,32.05577c-6.12991,1.61649 -0.18432,-15.70438 -2.28913,-23.68604c-2.10481,-7.98166 -14.18641,-21.43192 -8.05649,-23.04841z" data-paper-data="{&quot;index&quot;:null}" fill="#ba7d7d"/></g><g stroke="none" stroke-width="0" stroke-linecap="butt"><path d="M246.4095,47.72524c2.98479,14.21803 -5.07374,27.94371 -17.99922,30.65716c-12.92549,2.71346 -25.82333,-6.61285 -28.8081,-20.83089c-2.98479,-14.21803 5.07374,-27.94371 17.99922,-30.65715c12.92549,-2.71346 25.82333,6.61285 28.8081,20.83089z" fill="url(#color-2)"/><path d="M240.90069,49.47057c2.09142,9.81568 -3.23228,19.16179 -13.21276,21.22373c-9.98047,2.06195 -19.7667,-4.2237 -21.85813,-14.03935c-2.09142,-9.81568 4.30393,-19.44438 14.28441,-21.50631c9.98048,-2.06194 18.69506,4.50627 20.78649,14.32195z" fill="#000000"/></g></g></g></svg>