<svg version="1.1" xmlns="http://www.w3.org/2000/svg" xmlns:xlink="http://www.w3.org/1999/xlink" width="303.54047" height="818.8404" viewBox="0,0,303.54047,818.8404"><defs><linearGradient x1="23.00516" y1="38.5335" x2="23.00516" y2="116.01898" gradientUnits="userSpaceOnUse" id="color-1"><stop offset="0" stop-color="#000000"/><stop offset="1" stop-color="#360000"/></linearGradient></defs><g transform="translate(128.96058,11.12416)"><g data-paper-data="{&quot;isPaintingLayer&quot;:true}" fill-rule="nonzero" stroke-linejoin="miter" stroke-miterlimit="10" stroke-dasharray="" stroke-dashoffset="0" style="mix-blend-mode: normal"><path d="" fill="#000000" stroke="none" stroke-width="0.5" stroke-linecap="butt"/><g stroke="none" stroke-width="0" stroke-linecap="butt"><path d="M95.28327,52.05139c5.38808,13.75983 -10.64911,39.84759 -14.30904,51.50636c-5.20881,16.59277 -26.63495,25.33664 -28.0623,25.98651c-19.44502,7.86075 -28.01943,7.30371 -42.57948,1.68787c-16.1762,-6.23919 -34.43165,-14.38554 -45.58267,-28.7082c-3.47738,-4.46644 -4.71066,-11.74424 -6.73604,-16.91656c-2.9678,-7.579 -10.94803,-14.00472 -9.13939,-21.49112c6.7613,-27.9867 19.26517,-59.4085 48.08849,-70.69516c29.43827,-11.52746 53.71889,3.42394 79.39269,16.70662c6.29712,3.2579 9.67274,17.00711 12.39735,23.96509z" fill="#000000"/><path d="M22.48342,51.25767c-18.98674,7.02511 -39.04771,4.6363 -49.06339,3.81824c-3.74064,-0.30553 -6.74264,0.7408 -7.49863,-1.13463c11.13853,-16.53299 9.44241,-26.78363 40.70992,-37.51759c38.96875,-13.37775 42.39554,1.56844 55.88239,0.97074c0.58863,1.46026 -2.88958,3.86707 -4.06848,6.02247c-0.40976,0.74917 -18.6633,21.44031 -35.96182,27.84077z" fill="#ffffff"/></g><path d="M76.00727,60.36023l-8.44811,-20.77916l4.76426,-9.16063l2.63736,15.62871z" data-paper-data="{&quot;index&quot;:null}" fill="none" stroke="#640000" stroke-width="6" stroke-linecap="round"/><path d="M-28.01359,83.83473l-8.9793,-13.0608l9.7956,3.2652l3.57927,16.20056z" fill="none" stroke="#810000" stroke-width="6" stroke-linecap="round"/><path d="M21.02936,163.29575v-53.04829h46.20336v53.04829z" fill="#000000" stroke="none" stroke-width="0" stroke-linecap="butt"/><path d="M-12.00622,314.04456l-23.34571,-160.61225c0,0 41.59888,-16.64974 61.45274,-17.80413c10.03392,-0.58342 24.35428,-5.78967 37.75454,-3.74333c19.25979,2.94114 58.66772,27.43066 58.98122,27.54162l-21.41338,148.61207z" fill="#000000" stroke="none" stroke-width="0" stroke-linecap="butt"/><path d="M-14.61256,387.75705l2.14134,-87.78637h115.86374l9.63602,87.78637z" fill="#000000" stroke="none" stroke-width="0" stroke-linecap="butt"/><path d="M-78.97719,566.04806l67.62936,-225.59698l37.45258,45.72344l-61.20535,193.47691z" fill="#000000" stroke="#000000" stroke-width="0.5" stroke-linecap="butt"/><path d="M94.77998,588.78806l-26.37744,-199.95557c0,0 -1.84036,-14.34947 1.24895,-14.72829c7.27303,-0.89184 43.01745,-3.41651 43.01745,-3.41651l25.30679,212.80359z" fill="#000000" stroke="#000000" stroke-width="0.5" stroke-linecap="butt"/><path d="M-87.27678,756.15417v-176.49478h62.86117v176.49478z" fill="#000000" stroke="#000000" stroke-width="0.5" stroke-linecap="butt"/><path d="M76.32956,709.94558l11.50078,-120.33852l50.54221,4.83031l-11.5008,120.33852z" fill="#000000" stroke="#000000" stroke-width="0.5" stroke-linecap="butt"/><path d="M-101.63292,470.42399l23.75239,-146.20925l39.08464,-1.98681l-21.61105,152.63326z" fill="#000000" stroke="#000000" stroke-width="0.5" stroke-linecap="butt"/><path d="M-106.61867,567.57068v-91.874h50.77248v91.874z" fill="#000000" stroke="#000000" stroke-width="0.5" stroke-linecap="butt"/><path d="M106.69501,325.45072c0,0 5.81304,-17.31786 6.18488,-32.19181c0.75752,-30.30178 -11.53822,-124.13191 -11.53822,-124.13191l22.38665,-8.98336c0,0 11.82273,105.4957 13.11008,134.18634c0.57659,12.85029 3.39361,26.83807 3.39361,26.83807z" fill="#000000" stroke="#000000" stroke-width="0.5" stroke-linecap="butt"/><path d="M133.72544,469.93364l-25.742,-157.4806l31.0189,-5.07039l25.742,157.4806z" fill="#000000" stroke="#000000" stroke-width="0.5" stroke-linecap="butt"/><path d="M120.64861,560.31747v-74.94985h50.77248v74.94985z" fill="#000000" stroke="#000000" stroke-width="0.5" stroke-linecap="butt"/><path d="M69.87612,749.10828v-29.01286h84.62081v29.01286z" fill="#000000" stroke="#000000" stroke-width="0.5" stroke-linecap="butt"/><path d="M-111.30302,804.71625v-36.26606h82.05195v36.26606z" fill="#000000" stroke="#000000" stroke-width="6" stroke-linecap="butt"/><path d="M-99.36547,557.193l-12.08869,53.19021l-14.50642,16.92415" fill="none" stroke="#000000" stroke-width="6" stroke-linecap="round"/><path d="M-80.02357,562.02849l-14.50642,55.60797l-12.08869,12.08869" fill="none" stroke="#000000" stroke-width="6" stroke-linecap="round"/><path d="M-58.26395,562.02849v31.4306l-21.75964,33.8483" fill="none" stroke="#000000" stroke-width="6" stroke-linecap="round"/><path d="M125.48406,552.35753v43.51926l-14.50642,36.26606" fill="none" stroke="#000000" stroke-width="6" stroke-linecap="round"/><path d="M142.40821,569.28169l4.83549,38.68379l-14.50642,21.75964" fill="none" stroke="#000000" stroke-width="6" stroke-linecap="round"/><path d="M166.5856,552.35753l4.83546,38.68379l-19.34191,19.34191" fill="none" stroke="#000000" stroke-width="6" stroke-linecap="round"/><path d="M79.54707,576.53491l14.50642,-38.68379l19.34191,-36.26606" fill="none" stroke="#000000" stroke-width="6" stroke-linecap="round"/><path d="M-55.84619,487.07864l26.59511,19.34191l14.50642,48.35472" fill="none" stroke="#000000" stroke-width="6" stroke-linecap="round"/><path d="M16.34402,33.42963c0,2.29312 -1.59339,4.15209 -3.55892,4.15209c-1.96553,0 -3.55895,-1.85897 -3.55895,-4.15209c0,-2.29312 1.59339,-4.15209 3.55895,-4.15209c1.96553,0 3.55892,1.85895 3.55892,4.15209z" fill="#000000" stroke="#000000" stroke-width="1.5" stroke-linecap="butt"/><path d="M-71.34455,324.62442l9.00886,-15.76552l13.5133,4.50444l1.40332,15.87641l-17.16882,141.7788l-20.26997,20.26997l-15.76552,-11.26108z" fill="#000000" stroke="#000000" stroke-width="5" stroke-linecap="round"/><path d="M-17.15213,105.46326l-15.79275,-36.6832c0,0 29.72486,18.93642 59.78153,9.02681c38.3135,-12.63187 36.32577,-39.27337 36.32577,-39.27337l15.79275,37.49951c0,0 -13.10787,30.01117 -37.32193,37.71013c-25.69241,8.169 -58.78536,-8.27987 -58.78536,-8.27987z" fill="url(#color-1)" stroke="none" stroke-width="0" stroke-linecap="butt"/><path d="M108.83282,324.62442l11.26108,-27.0266l20.26997,20.26997l15.76552,150.89854v36.03546l-31.53105,-13.5133l11.26108,-40.53991z" fill="#000000" stroke="#000000" stroke-width="5" stroke-linecap="round"/><g fill="#ffffff" stroke="none" stroke-width="0" stroke-linecap="butt"><path d="M2.44896,87.20741l-3.29743,-8.42076l4.21037,-1.6487l3.2974,8.42076z"/><path d="M-18.16171,80.23178l-3.2974,-8.42076l3.60889,-1.41317l3.2974,8.42076z"/><path d="M-7.51607,84.38771l-3.2974,-8.42076l3.60889,-1.41317l3.2974,8.42076z"/><path d="M10.11181,88.67471l-3.06187,-7.81928l6.6163,-2.59082l3.06187,7.81928z"/><path d="M21.27911,83.51771l-3.2974,-8.42076l6.01482,-2.35529l3.2974,8.42076z"/><path d="M33.54431,79.4086l-3.29743,-8.42076l7.81928,-3.06187l3.2974,8.42076z"/><path d="M44.07301,73.71116l-4.00399,-10.22522l5.41332,-2.11976l4.00399,10.22522z"/><path d="M51.43843,64.22889l-2.35529,-6.01482l3.00741,-1.17764l2.35529,6.0148z"/><path d="M58.23119,57.90338l-2.82634,-7.21778l3.00741,-1.17764l2.82632,7.21778z"/><path d="M65.21807,48.99854l-4.00399,-10.22519l1.80446,-0.70659l4.00399,10.22519z"/><path d="M-30.13606,77.4062l-3.53293,-9.02224l4.21037,-1.6487l3.53293,9.02224z"/></g><g stroke="#000000"><path d="M-77.97966,324.73702c0,0 10.92405,-16.70152 13.84199,-30.0013c6.48171,-29.54324 22.75425,-141.68218 22.75425,-141.68218l40.17194,19.23989c0,0 -33.16113,95.18283 -37.61096,125.24342c-1.99658,13.48778 -1.12662,34.6627 -1.12662,34.6627z" fill="#000000" stroke-width="0.5" stroke-linecap="butt"/><path d="M-42.0657,191.74362l4.50442,-31.53105l33.78324,-2.25222l-27.0266,76.57537" fill="none" stroke-width="5" stroke-linecap="round"/><path d="M25.50078,135.43819l-40.53991,13.5133l-24.77438,4.50442" fill="none" stroke-width="5" stroke-linecap="round"/></g><g data-paper-data="{&quot;index&quot;:null}" fill="#ffffff" stroke="none" stroke-width="0" stroke-linecap="butt"><path d="M17.30667,122.41051l-3.37763,-8.42076l4.31277,-1.6487l3.37759,8.42076z"/><path d="M-3.80525,115.43488l-3.37759,-8.42076l3.69666,-1.41317l3.3776,8.42076z"/><path d="M7.09929,119.59081l-3.37759,-8.42076l3.69666,-1.41317l3.3776,8.42076z"/><path d="M25.15589,123.87781l-3.13634,-7.81928l6.77722,-2.59082l3.13634,7.81928z"/><path d="M36.5948,118.72081l-3.37759,-8.42076l6.1611,-2.35529l3.3776,8.42076z"/><path d="M49.1583,114.61171l-3.37763,-8.42076l8.00945,-3.06187l3.3776,8.42076z"/><path d="M59.94306,108.91426l-4.10137,-10.22522l5.54498,-2.11976l4.10137,10.22522z"/><path d="M67.48761,99.432l-2.41257,-6.01482l3.08055,-1.17764l2.41258,6.0148z"/><path d="M74.44557,93.10648l-2.89508,-7.21778l3.08055,-1.17764l2.89506,7.21778z"/><path d="M81.60237,84.20164l-4.10137,-10.22519l1.84834,-0.70659l4.10137,10.22519z"/><path d="M-16.07084,112.6093l-3.61885,-9.02224l4.31277,-1.6487l3.61886,9.02224z"/></g><path d="M-24.45109,4.58883l17.91732,-9.48641l14.24967,-3.93804l25.5031,-0.78191l18.21838,5.34637l14.83446,10.02252l12.44484,3.60454l13.10206,31.98241l2.16614,18.66738l0.77534,4.83604" fill="none" stroke="#ffffff" stroke-width="3" stroke-linecap="round"/><path d="M65.92158,132.17717l41.99165,17.08897l24.28023,7.68213l-2.38807,17.45332l3.95586,76.8801l6.05252,61.55654l6.35978,19.63905l1.58118,34.72777" data-paper-data="{&quot;index&quot;:null}" fill="none" stroke="#ffffff" stroke-width="3" stroke-linecap="round"/><path d="M-17.86559,146.07452l34.2846,-11.4282" data-paper-data="{&quot;index&quot;:null}" fill="none" stroke="#ffffff" stroke-width="3" stroke-linecap="round"/></g></g></svg>