<svg version="1.1" xmlns="http://www.w3.org/2000/svg" xmlns:xlink="http://www.w3.org/1999/xlink" width="1134.99933" height="1360.62379" viewBox="0,0,1134.99933,1360.62379"><defs><linearGradient x1="210.61786" y1="-76.21902" x2="253.03227" y2="176.34914" gradientUnits="userSpaceOnUse" id="color-1"><stop offset="0" stop-color="#ffffff"/><stop offset="1" stop-color="#a7a7a7"/></linearGradient><linearGradient x1="229.47647" y1="33.78242" x2="238.18767" y2="85.65566" gradientUnits="userSpaceOnUse" id="color-2"><stop offset="0" stop-color="#000000"/><stop offset="1" stop-color="#2a1200"/></linearGradient></defs><g transform="translate(158.36521,152.6621)"><g data-paper-data="{&quot;isPaintingLayer&quot;:true}" fill-rule="nonzero" stroke-linejoin="miter" stroke-miterlimit="10" stroke-dasharray="" stroke-dashoffset="0" style="mix-blend-mode: normal"><path d="" fill="#000000" stroke="none" stroke-width="0.5" stroke-linecap="butt"/><path d="M-87.27678,756.15422v-176.49478h62.86117v176.49478z" fill="#000000" stroke="#000000" stroke-width="0.5" stroke-linecap="butt"/><path d="M-106.61866,567.57071v-91.874h50.77248v91.874z" fill="#000000" stroke="#000000" stroke-width="0.5" stroke-linecap="butt"/><path d="M69.87612,749.10833v-29.01286h84.62081v29.01286z" fill="#000000" stroke="#000000" stroke-width="0.5" stroke-linecap="butt"/><path d="M-111.30303,804.7163v-36.26606h82.05195v36.26606z" fill="#000000" stroke="#000000" stroke-width="6" stroke-linecap="butt"/><path d="M-99.36546,557.19301l-12.08869,53.19021l-14.50642,16.92415" fill="none" stroke="#000000" stroke-width="6" stroke-linecap="round"/><path d="M-80.02357,562.02852l-14.50642,55.60797l-12.08869,12.08869" fill="none" stroke="#000000" stroke-width="6" stroke-linecap="round"/><path d="M-58.26395,562.02852v31.4306l-21.75964,33.8483" fill="none" stroke="#000000" stroke-width="6" stroke-linecap="round"/><path d="M175.08255,543.09986l-91.91799,-348.56325l288.57899,-76.09983l91.91799,348.56325z" fill="#000000" stroke="none" stroke-width="0" stroke-linecap="butt"/><path d="M494.31022,55.19618c1.50129,12.94373 13.87362,27.01271 13.81533,39.43028c-0.12718,27.0918 -15.76264,66.93463 -26.35872,92.86711c-18.44005,45.12949 -36.07094,94.14694 -36.89103,95.18782c-17.17549,21.79937 -72.44528,99.46667 -196.35843,116.61274c-1.07011,0.04344 -101.73576,-10.23217 -154.79495,-55.79243c-44.55779,-38.26037 -94.4579,-98.49541 -118.86407,-148.33749c-9.16881,-18.72447 -14.14244,-30.41864 -16.59443,-51.55914c-1.45874,-12.57686 5.91028,-56.2394 6.25145,-68.54725c3.59544,-129.71353 96.29685,-209.65472 231.6973,-225.3592c148.24789,-17.19461 281.26516,60.37213 298.0976,205.49758z" fill="#000000" stroke="none" stroke-width="0" stroke-linecap="butt"/><path d="M-127.90737,1196.89668l-30.45783,-130.08878l419.46445,-332.53794l30.45784,130.08877z" fill="#000000" stroke="none" stroke-width="0" stroke-linecap="butt"/><path d="M526.71183,875.42374l30.45784,-130.08877l419.46445,332.53794l-30.45784,130.08878z" data-paper-data="{&quot;index&quot;:null}" fill="#000000" stroke="none" stroke-width="0" stroke-linecap="butt"/><path d="M37.48648,217.55469l-19.39034,-72.61152l30.03569,11.71764l11.15935,120.69447z" data-paper-data="{&quot;index&quot;:null}" fill="none" stroke="#640000" stroke-width="6" stroke-linecap="round"/><path d="M468.31675,207.9541l-7.08066,-103.81837l23.89527,-14.05875l-6.50369,64.20103z" data-paper-data="{&quot;index&quot;:null}" fill="none" stroke="#640000" stroke-width="6" stroke-linecap="round"/><g fill="#ffffff" stroke="none" stroke-width="0" stroke-linecap="butt"><path d="M206.08114,392.734l-2.39734,-32.19703l26.44922,-1.25929l2.39734,32.19703c0,0 -3.78496,15.01131 -12.43881,15.49811c-9.73488,0.54762 -14.01044,-14.23881 -14.01044,-14.23881z"/><path d="M243.79432,407.34746l-2.95704,-37.80238l29.82817,-1.27034l2.95704,37.80238c0,0 -4.15217,17.58625 -13.91098,18.08965c-10.97786,0.56628 -15.9172,-16.8193 -15.9172,-16.8193z"/><path d="M283.92988,404.6969l-3.03204,-37.78979l29.16378,-1.15877l3.03204,37.78979c0,0 -3.99502,17.55986 -13.53613,18.0267c-10.73296,0.52516 -15.62765,-16.86793 -15.62765,-16.86793z"/><path d="M318.58576,387.52376l-2.91668,-33.8071l24.33143,-0.73794l2.91669,33.8071c0,0 -3.1554,15.65404 -11.11469,15.97389c-8.95354,0.3598 -13.21676,-15.23593 -13.21676,-15.23593z"/><path d="M351.39876,377.48498l-2.95922,-34.30021l24.68633,-0.74872l2.95923,34.30022c0,0 -3.20142,15.88238 -11.2768,16.20688c-9.08414,0.36504 -13.40953,-15.45817 -13.40953,-15.45817z"/><path d="M382.77121,345.28704l-2.42745,-28.1363l20.25008,-0.61418l2.42744,28.1363c0,0 -2.62611,13.02824 -9.25031,13.29444c-7.45168,0.29944 -10.99977,-12.68026 -10.99977,-12.68026z"/><path d="M403.90246,306.42919l-2.27853,-26.41039l19.00793,-0.5765l2.27853,26.41039c0,0 -2.46503,12.22908 -8.6829,12.47895c-6.99458,0.28107 -10.32503,-11.90245 -10.32503,-11.90245z"/><path d="M423.80141,264.76024l-1.61913,-18.76713l13.50697,-0.40965l1.61913,18.76713c0,0 -1.75165,8.68994 -6.17003,8.86748c-4.97032,0.19974 -7.33693,-8.45784 -7.33693,-8.45784z"/><path d="M180.181,383.21446l-2.42744,-28.1363l20.25008,-0.61417l2.42745,28.1363c0,0 -2.62611,13.02823 -9.25031,13.29443c-7.45168,0.29944 -10.99977,-12.68026 -10.99977,-12.68026z"/><path d="M151.21696,367.469l-2.23601,-25.91728l18.65302,-0.56573l2.236,25.91728c0,0 -2.41899,12.00074 -8.52077,12.24594c-6.86397,0.27584 -10.13225,-11.68022 -10.13225,-11.68022z"/><path d="M122.76979,336.69309l-1.87438,-21.72582l15.63637,-0.47423l1.87438,21.72582c0,0 -2.02779,10.05993 -7.14275,10.26546c-5.7539,0.23122 -8.49362,-9.79123 -8.49362,-9.79123z"/><path d="M102.25291,307.87024l-1.72549,-19.99993l14.39422,-0.43656l1.72549,19.99993c0,0 -1.8667,9.26076 -6.57533,9.44998c-5.29682,0.21285 -7.81888,-9.01342 -7.81888,-9.01342z"/><path d="M79.75565,289.88982l-1.72549,-19.99993l14.39422,-0.43656l1.72549,19.99993c0,0 -1.8667,9.26076 -6.57533,9.44998c-5.29682,0.21285 -7.81888,-9.01342 -7.81888,-9.01342z"/><path d="M58.9799,268.57938l-1.72549,-19.99993l14.39422,-0.43656l1.72549,19.99993c0,0 -1.8667,9.26076 -6.57533,9.44998c-5.29682,0.21285 -7.81888,-9.01342 -7.81888,-9.01342z"/><path d="M440.98811,243.15655l-1.61913,-18.76713l13.50697,-0.40965l1.61913,18.76713c0,0 -1.75165,8.68994 -6.17003,8.86748c-4.97032,0.19974 -7.33693,-8.45784 -7.33693,-8.45784z"/><path d="M458.17473,221.55283l-1.61913,-18.76713l13.50697,-0.40965l1.61913,18.76713c0,0 -1.75165,8.68994 -6.17003,8.86748c-4.97032,0.19974 -7.33693,-8.45784 -7.33693,-8.45784z"/></g><g fill="#ffffff" stroke="none" stroke-width="0" stroke-linecap="butt"><path d="M190.72546,270.52212l-2.13896,-32.1072c0,0 0.91134,-14.65656 12.66533,-15.27573c12.44964,-0.6558 13.21372,13.82431 13.21372,13.82431l2.13896,32.1072z"/><path d="M227.68202,279.59978l-2.51289,-37.72045c0,0 1.07066,-17.21896 14.87959,-17.94638c14.62619,-0.77047 15.52387,16.24119 15.52387,16.24119l2.51289,37.72046z"/><path d="M267.07825,277.07333l-2.51289,-37.72045c0,0 1.07066,-17.21896 14.87959,-17.94638c14.62619,-0.77047 15.52387,16.24119 15.52387,16.24119l2.51289,37.72046z"/><path d="M300.13439,264.67914l-2.25032,-33.77884c0,0 0.95879,-15.41966 13.32475,-16.07106c13.09782,-0.68995 13.9017,14.54407 13.9017,14.54407l2.25032,33.77884z"/><path d="M332.8701,254.08955l-2.28314,-34.27154c0,0 0.97276,-15.64457 13.51911,-16.30547c13.28887,-0.70002 14.10447,14.7562 14.10447,14.7562l2.28314,34.27154z"/><path d="M365.20888,228.77667l-1.87284,-28.11277c0,0 0.79795,-12.83317 11.08965,-13.3753c10.90078,-0.57422 11.56983,12.10443 11.56983,12.10443l1.87284,28.11277z"/><path d="M386.61068,191.84659l-1.75797,-26.38832c0,0 0.74902,-12.04597 10.4094,-12.55486c10.23213,-0.539 10.86013,11.36195 10.86013,11.36195l1.75797,26.38831z"/><path d="M407.70786,158.71511l-1.2492,-18.75144c0,0 0.53225,-8.55982 7.39688,-8.92143c7.27093,-0.38302 7.71716,8.07375 7.71716,8.07375l1.2492,18.75144z"/><path d="M162.61864,266.7041l-1.87284,-28.11277c0,0 0.79796,-12.83317 11.08965,-13.3753c10.90078,-0.57422 11.56982,12.10443 11.56982,12.10443l1.87284,28.11277z"/><path d="M134.00245,253.43722l-1.72514,-25.89562c0,0 0.73502,-11.82106 10.21505,-12.32044c10.04108,-0.52895 10.65735,11.1498 10.65735,11.1498l1.72513,25.89562z"/><path d="M106.21241,227.34315l-1.44615,-21.70764c0,0 0.61615,-9.90929 8.56302,-10.32792c8.41719,-0.4434 8.93379,9.34661 8.93379,9.34661l1.44614,21.70765z"/><path d="M85.96609,200.44809l-1.33126,-19.98319c0,0 0.56721,-9.1221 7.88277,-9.50746c7.74853,-0.40817 8.22409,8.60411 8.22409,8.60411l1.33127,19.9832z"/><path d="M63.46883,182.46769l-1.33126,-19.98319c0,0 0.56721,-9.1221 7.88277,-9.50746c7.74853,-0.40817 8.22409,8.60411 8.22409,8.60411l1.33127,19.9832z"/><path d="M42.69308,161.15724l-1.33126,-19.98319c0,0 0.56721,-9.1221 7.88277,-9.50746c7.74853,-0.40817 8.22409,8.60411 8.22409,8.60411l1.33127,19.9832z"/><path d="M424.89452,137.11141l-1.2492,-18.75144c0,0 0.53225,-8.55982 7.39688,-8.92143c7.27093,-0.38302 7.71716,8.07375 7.71716,8.07375l1.2492,18.75144z"/><path d="M442.08119,115.5077l-1.2492,-18.75144c0,0 0.53225,-8.55982 7.39688,-8.92143c7.27093,-0.38302 7.71716,8.07375 7.71716,8.07375l1.2492,18.75144z"/></g><g stroke="none" stroke-width="0" stroke-linecap="butt"><path d="M431.91255,36.60085c1.21163,17.98619 -10.65942,15.14295 -20.16564,31.36889c-27.68482,47.25456 -88.99511,103.97386 -171.19589,109.51129c-77.96284,5.25195 -150.39487,-44.28714 -186.1631,-83.54778c-14.8938,-16.348 -20.97089,-9.70719 -22.36445,-30.39394c-1.00769,-14.95872 9.13583,-10.18507 15.66921,-24.0202c24.20023,-51.24669 88.74052,-111.0025 175.69232,-116.85998c92.90952,-6.25883 164.27826,38.62495 190.40731,91.83595c4.92627,10.03219 17.36832,10.94354 18.12027,22.10579z" fill="url(#color-1)"/><path d="M44.05767,72.26117c1.06515,9.1835 13.12869,24.95879 6.83144,25.68918c-6.29726,0.73039 -19.73008,-20.66389 -20.79523,-29.84739c-1.06515,-9.1835 6.42599,-22.41203 12.72326,-23.14241c6.29726,-0.73039 0.1754,18.11711 1.24055,27.30062z" fill="#ba7d7d"/><path d="M414.06604,13.42152c6.25192,-1.0499 16.90894,8.27587 18.27599,16.4164c1.36706,8.14053 -5.98986,30.01769 -12.24177,31.06759c-6.25192,1.0499 1.2507,-15.65558 -0.11636,-23.79611c-1.36706,-8.14053 -12.16979,-22.63797 -5.91785,-23.68787z" data-paper-data="{&quot;index&quot;:null}" fill="#ba7d7d"/></g><g stroke="none" stroke-width="0" stroke-linecap="butt"><path d="M257.58665,56.96383c1.67381,14.43121 -7.60458,27.36355 -20.72386,28.8852c-13.11929,1.52166 -25.11147,-8.94361 -26.78526,-23.37482c-1.67381,-14.43121 7.60458,-27.36355 20.72386,-28.88519c13.11929,-1.52166 25.11147,8.94361 26.78526,23.37482z" fill="url(#color-2)"/><path d="M251.94147,58.19876c1.18623,9.96566 -4.96878,18.78651 -15.09587,19.92834c-10.12707,1.14184 -19.29835,-6.0113 -20.48459,-15.97694c-1.18623,-9.96566 6.06176,-18.97005 16.18884,-20.11186c10.12708,-1.14182 18.20538,6.19482 19.39162,16.16049z" fill="#000000"/></g></g></g></svg>