<svg version="1.1" xmlns="http://www.w3.org/2000/svg" xmlns:xlink="http://www.w3.org/1999/xlink" width="1134.99931" height="1449.3964" viewBox="0,0,1134.99931,1449.3964"><defs><linearGradient x1="263.02554" y1="-157.21301" x2="272.61932" y2="128.70129" gradientUnits="userSpaceOnUse" id="color-1"><stop offset="0" stop-color="#ffffff"/><stop offset="1" stop-color="#a7a7a7"/></linearGradient><linearGradient x1="263.12658" y1="-11.61017" x2="265.09695" y2="47.1118" gradientUnits="userSpaceOnUse" id="color-2"><stop offset="0" stop-color="#000000"/><stop offset="1" stop-color="#2a1200"/></linearGradient></defs><g transform="translate(158.36518,241.43471)"><g data-paper-data="{&quot;isPaintingLayer&quot;:true}" fill-rule="nonzero" stroke-linejoin="miter" stroke-miterlimit="10" stroke-dasharray="" stroke-dashoffset="0" style="mix-blend-mode: normal"><path d="" fill="#000000" stroke="none" stroke-width="0.5" stroke-linecap="butt"/><path d="M-87.27676,756.15422v-176.49478h62.86117v176.49478z" fill="#000000" stroke="#000000" stroke-width="0.5" stroke-linecap="butt"/><path d="M-106.61864,567.57071v-91.874h50.77248v91.874z" fill="#000000" stroke="#000000" stroke-width="0.5" stroke-linecap="butt"/><path d="M69.87615,749.10833v-29.01286h84.62081v29.01286z" fill="#000000" stroke="#000000" stroke-width="0.5" stroke-linecap="butt"/><path d="M-111.30301,804.7163v-36.26606h82.05195v36.26606z" fill="#000000" stroke="#000000" stroke-width="6" stroke-linecap="butt"/><path d="M-99.36544,557.19301l-12.08869,53.19021l-14.50642,16.92415" fill="none" stroke="#000000" stroke-width="6" stroke-linecap="round"/><path d="M-80.02356,562.02852l-14.50642,55.60797l-12.08869,12.08869" fill="none" stroke="#000000" stroke-width="6" stroke-linecap="round"/><path d="M-58.26393,562.02852v31.4306l-21.75964,33.8483" fill="none" stroke="#000000" stroke-width="6" stroke-linecap="round"/><path d="M178.08558,565.62238l-91.91799,-348.56325l288.57899,-76.09983l91.91799,348.56325z" fill="#000000" stroke="none" stroke-width="0" stroke-linecap="butt"/><path d="M-127.90735,1196.89668l-30.45783,-130.08878l419.46445,-332.53794l30.45784,130.08877z" fill="#000000" stroke="none" stroke-width="0" stroke-linecap="butt"/><path d="M526.71183,875.42374l30.45784,-130.08877l419.46445,332.53794l-30.45784,130.08878z" data-paper-data="{&quot;index&quot;:null}" fill="#000000" stroke="none" stroke-width="0" stroke-linecap="butt"/><path d="M557.68243,30.25918c-0.25278,14.55319 11.36418,31.96058 9.4625,45.70048c-4.14897,29.97677 -27.35493,71.77686 -42.92336,98.9212c-27.0933,47.23846 -46.3584,100.40281 -47.42038,101.43393c-22.24156,21.59483 -116.01318,178.00024 -254.17679,157.11803c-75.1667,-11.36078 -112.62779,-72.92696 -164.63352,-131.22047c-43.67311,-48.95344 -76.49656,-135.03925 -96.14466,-193.83438c-7.38132,-22.08792 -11.15792,-35.77133 -10.74505,-59.54051c0.24562,-14.1407 14.86422,-61.3929 17.06288,-74.96947c23.17156,-143.08469 137.63608,-217.87931 289.87261,-215.23493c166.68146,2.89528 302.48014,108.45539 299.64583,271.62616z" fill="#000000" stroke="none" stroke-width="0" stroke-linecap="butt"/><path d="M19.77939,132.56147l-18.25962,-77.89499l44.56869,17.46566l-2.24416,125.64291z" data-paper-data="{&quot;index&quot;:null}" fill="none" stroke="#640000" stroke-width="6" stroke-linecap="round"/><path d="M505.60068,195.83495l5.47336,-115.44873l28.2822,-11.36409l-15.44352,69.52378z" data-paper-data="{&quot;index&quot;:null}" fill="none" stroke="#640000" stroke-width="6" stroke-linecap="round"/><g fill="#ffffff" stroke="none" stroke-width="0" stroke-linecap="butt"><path d="M174.10847,370.4231l2.10916,-36.00269l29.47044,2.51882l-2.10916,36.00269c0,0 -6.41153,16.0603 -16.06494,15.31897c-10.85932,-0.83394 -13.40553,-17.83777 -13.40553,-17.83777z"/><path d="M213.70185,392.18243l2.31877,-42.29163l33.21319,3.00649l-2.31877,42.29164c0,0 -7.19905,18.8569 -18.07831,17.97047c-12.23828,-0.99716 -15.13489,-20.97695 -15.13489,-20.97695z"/><path d="M258.53141,395.18573l2.23387,-42.2888l32.46108,3.03173l-2.23387,42.2888c0,0 -7.02114,18.85093 -17.65397,17.95623c-11.96105,-1.00646 -14.80711,-20.98796 -14.80711,-20.98796z"/><path d="M299.44253,381.29915l1.77237,-37.86216l27.04852,2.78273l-1.77236,37.86216c0,0 -5.80958,16.86506 -14.66928,16.04164c-9.96644,-0.92628 -12.37926,-18.82435 -12.37926,-18.82435z"/><path d="M337.25774,375.03898l1.79822,-38.41441l27.44306,2.8233l-1.79821,38.41443c0,0 -5.89431,17.11106 -14.88325,16.27562c-10.11182,-0.93981 -12.55981,-19.09893 -12.55981,-19.09893z"/><path d="M376.75638,344.03143l1.47506,-31.51117l22.51141,2.31593l-1.47507,31.51117c0,0 -4.83508,14.03612 -12.20867,13.35082c-8.29467,-0.77092 -10.30275,-15.66675 -10.30275,-15.66675z"/><path d="M405.90146,304.13499l1.38459,-29.57825l21.13055,2.17388l-1.3846,29.57824c0,0 -4.5385,13.17514 -11.45979,12.53187c-7.78586,-0.72364 -9.67076,-14.70575 -9.67076,-14.70575z"/><path d="M434.09805,260.94382l0.98386,-21.01819l15.01529,1.54475l-0.98387,21.01819c0,0 -3.22505,9.3622 -8.14327,8.90509c-5.53261,-0.5142 -6.87201,-10.44986 -6.87201,-10.44986z"/><path d="M146.84067,356.05137l1.47507,-31.51117l22.51141,2.31594l-1.47506,31.51117c0,0 -4.83507,14.03612 -12.20867,13.35082c-8.29467,-0.77092 -10.30275,-15.66675 -10.30275,-15.66675z"/><path d="M117.10166,334.33312l1.35872,-29.02599l20.73601,2.13329l-1.35873,29.02598c0,0 -4.45374,12.92913 -11.2458,12.29787c-7.64048,-0.7101 -9.4902,-14.43117 -9.4902,-14.43117z"/><path d="M90.15865,296.04987l1.139,-24.33176l17.38249,1.78829l-1.13899,24.33176c0,0 -3.73347,10.83818 -9.42708,10.30899c-6.40483,-0.59527 -7.95541,-12.09729 -7.95541,-12.09729z"/><path d="M71.70697,261.10228l1.0485,-22.39887l16.00163,1.64623l-1.0485,22.39887c0,0 -3.43688,9.97718 -8.67819,9.49006c-5.89604,-0.54798 -7.32342,-11.13629 -7.32342,-11.13629z"/><path d="M49.45853,237.86626l1.0485,-22.39887l16.00163,1.64623l-1.0485,22.39887c0,0 -3.43688,9.97719 -8.67819,9.49006c-5.89604,-0.54798 -7.32342,-11.13629 -7.32342,-11.13629z"/><path d="M29.60879,211.19799l1.0485,-22.39887l16.00163,1.64623l-1.0485,22.39887c0,0 -3.43689,9.97719 -8.6782,9.49006c-5.89604,-0.54798 -7.32342,-11.13629 -7.32342,-11.13629z"/><path d="M456.32308,239.56731l0.98386,-21.0182l15.01529,1.54475l-0.98387,21.0182c0,0 -3.22505,9.3622 -8.14327,8.90509c-5.53261,-0.5142 -6.87201,-10.44986 -6.87201,-10.44986z"/><path d="M478.54802,218.19074l0.98387,-21.0182l15.01529,1.54476l-0.98387,21.01819c0,0 -3.22505,9.3622 -8.14327,8.90509c-5.53261,-0.5142 -6.87202,-10.44986 -6.87202,-10.44986z"/></g><g fill="#ffffff" stroke="none" stroke-width="0" stroke-linecap="butt"><path d="M191.98561,212.58558l2.38195,-35.865c0,0 3.17742,-16.09266 16.28284,-15.03923c13.88105,1.1158 12.58473,17.26098 12.58473,17.26098l-2.38195,35.865z"/><path d="M231.56028,228.10383l2.7984,-42.13522c0,0 3.73292,-18.90614 19.12955,-17.66853c16.30786,1.31086 14.78493,20.27869 14.78493,20.27869l-2.7984,42.13523z"/><path d="M275.5529,231.13514l2.79841,-42.13522c0,0 3.73292,-18.90615 19.12955,-17.66854c16.30786,1.31086 14.78493,20.27869 14.78493,20.27869l-2.79841,42.13523z"/><path d="M313.98578,222.30307l2.50597,-37.73229c0,0 3.34285,-16.93054 17.13061,-15.82225c14.60376,1.17388 13.23997,18.15967 13.23997,18.15967l-2.50598,37.73229z"/><path d="M351.79692,215.42161l2.54253,-38.28266c0,0 3.39159,-17.17748 17.38048,-16.05303c14.81678,1.191 13.4331,18.42453 13.4331,18.42453l-2.54253,38.28266z"/><path d="M391.34683,192.18005l2.08563,-31.40307c0,0 2.7821,-14.09062 14.25711,-13.16822c12.15412,0.97697 11.01911,15.11354 11.01911,15.11354l-2.08563,31.40306z"/><path d="M420.50625,154.45802l1.95769,-29.47679c0,0 2.61147,-13.22629 13.38257,-12.36049c11.40858,0.91704 10.34319,14.18649 10.34319,14.18649l-1.95769,29.47678z"/><path d="M448.7664,120.89668l1.39113,-20.9461c0,0 1.85571,-9.39855 9.5096,-8.78331c8.10693,0.65164 7.34982,10.08086 7.34982,10.08086l-1.39114,20.94609z"/><path d="M161.43109,204.2l2.08563,-31.40307c0,0 2.78212,-14.09061 14.25711,-13.16822c12.15412,0.97697 11.01909,15.11354 11.01909,15.11354l-2.08563,31.40306z"/><path d="M131.71051,185.27745l1.92114,-28.92642c0,0 2.5627,-12.97933 13.13271,-12.12969c11.19557,0.89991 10.15006,13.92159 10.15006,13.92159l-1.92115,28.92642z"/><path d="M104.8024,152.27508l1.61043,-24.24829c0,0 2.14824,-10.88024 11.00883,-10.16802c9.38497,0.75437 8.50854,11.67013 8.50854,11.67013l-1.61044,24.2483z"/><path d="M86.36506,119.50194l1.48251,-22.32201c0,0 1.97759,-10.01593 10.13427,-9.36027c8.63943,0.69445 7.83262,10.74305 7.83262,10.74305l-1.4825,22.32203z"/><path d="M64.11663,96.26593l1.48251,-22.32201c0,0 1.9776,-10.01592 10.13428,-9.36027c8.63943,0.69445 7.83262,10.74305 7.83262,10.74305l-1.4825,22.32202z"/><path d="M44.2669,69.59765l1.48251,-22.32201c0,0 1.97759,-10.01592 10.13427,-9.36027c8.63943,0.69445 7.83262,10.74305 7.83262,10.74305l-1.4825,22.32202z"/><path d="M470.99139,99.52015l1.39113,-20.9461c0,0 1.85571,-9.39855 9.5096,-8.78331c8.10693,0.65164 7.34982,10.08085 7.34982,10.08085l-1.39114,20.9461z"/><path d="M493.21638,78.1436l1.39113,-20.9461c0,0 1.85571,-9.39855 9.5096,-8.78331c8.10693,0.65164 7.34982,10.08085 7.34982,10.08085l-1.39113,20.9461z"/></g><g stroke="none" stroke-width="0" stroke-linecap="butt"><path d="M491.34791,0.43918c-1.31951,20.09326 -14.04228,15.18898 -26.968,31.74765c-37.64335,48.22356 -113.91652,101.95153 -205.74709,95.9211c-87.09614,-5.71952 -159.9625,-71.28448 -193.75598,-120.045c-14.07152,-20.30372 -21.78246,-13.85022 -20.26484,-36.96042c1.0974,-16.71112 11.62189,-9.92512 20.90241,-24.27654c34.37589,-53.15912 114.67452,-109.77118 211.81268,-103.39221c103.79383,6.81603 176.17167,67.0694 197.22889,129.84944c3.97005,11.83629 17.61085,14.6861 16.79197,27.15601z" fill="url(#color-1)"/><path d="M56.64569,-17.46036c-0.17936,10.32541 10.84328,29.5763 3.76301,29.45331c-7.08028,-0.12299 -18.78765,-25.79772 -18.60829,-36.12312c0.17936,-10.32541 10.43055,-23.86351 17.51084,-23.74051c7.08028,0.12299 -2.48617,20.08491 -2.66553,30.41032z" fill="#ba7d7d"/><path d="M475.01788,-27.86492c7.07735,-0.23747 17.4969,11.66453 17.8061,20.87984c0.30921,9.21531 -11.0729,32.34889 -18.15025,32.58637c-7.07735,0.23747 3.70096,-17.14857 3.39174,-26.36387c-0.30921,-9.21531 -10.12496,-26.86487 -3.04759,-27.10234z" data-paper-data="{&quot;index&quot;:null}" fill="#ba7d7d"/></g><g stroke="none" stroke-width="0" stroke-linecap="butt"><path d="M290.82007,18.21472c-0.28185,16.22563 -12.46802,29.17138 -27.21859,28.91516c-14.75059,-0.25621 -26.47982,-13.61738 -26.19795,-29.84301c0.28185,-16.22563 12.46802,-29.17139 27.21859,-28.91516c14.75059,0.25621 26.47982,13.61738 26.19795,29.84301z" fill="url(#color-2)"/><path d="M284.38712,18.74683c-0.16102,11.20931 -8.28076,20.065 -19.66224,19.83093c-11.38145,-0.23404 -20.47745,-9.51075 -20.31645,-20.72004c0.16102,-11.20931 9.51805,-20.1065 20.8995,-19.87242c11.38146,0.23407 19.24018,9.55224 19.07917,20.76156z" fill="#000000"/></g></g></g></svg>