<svg version="1.1" xmlns="http://www.w3.org/2000/svg" xmlns:xlink="http://www.w3.org/1999/xlink" width="1134.99929" height="1680.20076" viewBox="0,0,1134.99929,1680.20076"><defs><linearGradient x1="291.07192" y1="-124.89918" x2="293.60291" y2="-49.46963" gradientUnits="userSpaceOnUse" id="color-1"><stop offset="0" stop-color="#000000"/><stop offset="1" stop-color="#2a1200"/></linearGradient></defs><g transform="translate(158.36517,472.23906)"><g data-paper-data="{&quot;isPaintingLayer&quot;:true}" fill-rule="nonzero" stroke-linejoin="miter" stroke-miterlimit="10" stroke-dasharray="" stroke-dashoffset="0" style="mix-blend-mode: normal"><path d="" fill="#000000" stroke="none" stroke-width="0.5" stroke-linecap="butt"/><path d="M-87.27675,756.15423v-176.49478h62.86117v176.49478z" fill="#000000" stroke="#000000" stroke-width="0.5" stroke-linecap="butt"/><path d="M-106.61862,567.57071v-91.874h50.77248v91.874z" fill="#000000" stroke="#000000" stroke-width="0.5" stroke-linecap="butt"/><path d="M69.87616,749.10834v-29.01286h84.62081v29.01286z" fill="#000000" stroke="#000000" stroke-width="0.5" stroke-linecap="butt"/><path d="M-111.303,804.71631v-36.26606h82.05195v36.26606z" fill="#000000" stroke="#000000" stroke-width="6" stroke-linecap="butt"/><path d="M-99.36543,557.19301l-12.08869,53.19021l-14.50642,16.92415" fill="none" stroke="#000000" stroke-width="6" stroke-linecap="round"/><path d="M-80.02355,562.02852l-14.50642,55.60797l-12.08869,12.08869" fill="none" stroke="#000000" stroke-width="6" stroke-linecap="round"/><path d="M-58.26392,562.02852v31.4306l-21.75964,33.8483" fill="none" stroke="#000000" stroke-width="6" stroke-linecap="round"/><path d="M151.05855,552.10887l-91.91799,-348.56325l288.57899,-76.09983l91.91799,348.56325z" fill="#000000" stroke="none" stroke-width="0" stroke-linecap="butt"/><path d="M-127.90734,1196.89669l-30.45783,-130.08878l419.46445,-332.53794l30.45784,130.08877z" fill="#000000" stroke="none" stroke-width="0" stroke-linecap="butt"/><path d="M526.71183,875.42375l30.45784,-130.08877l419.46445,332.53794l-30.45784,130.08878z" data-paper-data="{&quot;index&quot;:null}" fill="#000000" stroke="none" stroke-width="0" stroke-linecap="butt"/><path d="M683.74826,-50.59092c-2.15356,20.58198 10.5211,46.55472 6.36008,65.79754c-9.07827,41.9827 -44.02652,98.54483 -67.35965,135.21876c-40.60596,63.82248 -81.35798,133.94737 -82.84643,135.28702c-16.1492,14.53443 -55.80044,117.00187 -107.90026,157.23623c-48.47044,37.43155 -106.70594,13.59358 -192.91151,6.38693c-1.04237,-0.20115 -62.93926,39.18059 -133.68482,4.11757c-31.75775,-15.73982 -82.08365,-85.65623 -100.42817,-113.06481c-49.723,-74.29124 -75.67132,-262.53947 -93.41701,-348.03928c-6.66664,-32.12024 -9.77798,-51.92819 -6.26063,-85.54395c2.09253,-19.99861 26.73901,-85.25783 31.25948,-104.23562c47.64127,-200.00856 203.50278,-292.93052 397.9547,-271.8895c212.90246,23.03747 373.38024,187.96349 349.23428,418.72916z" fill="#000000" stroke="none" stroke-width="0" stroke-linecap="butt"/><path d="M-15.08328,7.58454l-5.92045,-198.50909l53.11404,49.10824l-31.0057,316.58972z" data-paper-data="{&quot;index&quot;:null}" fill="none" stroke="#640000" stroke-width="6" stroke-linecap="round"/><path d="M602.53473,198.9368l7.03064,-284.10702l36.32905,-27.96583l-19.83751,171.09062z" data-paper-data="{&quot;index&quot;:null}" fill="none" stroke="#640000" stroke-width="6" stroke-linecap="round"/><g fill="#ffffff" stroke="none" stroke-width="0" stroke-linecap="butt"><path d="M131.33572,417.74753l6.78899,-45.8253l37.42084,6.571l-6.78899,45.8253c0,0 -10.02811,19.8205 -22.29529,17.77523c-13.7996,-2.30077 -15.12559,-24.3462 -15.12559,-24.3462z"/><path d="M179.52275,450.08658l7.77168,-53.8481l42.15423,7.62018l-7.77168,53.84811c0,0 -11.35345,23.30923 -25.17261,20.93904c-15.54541,-2.66627 -16.98164,-28.55922 -16.98164,-28.55922z"/><path d="M236.54032,459.02246l7.66273,-53.85412l41.18905,7.56703l-7.66273,53.85412c0,0 -11.12515,23.32181 -24.62806,20.96902c-15.18965,-2.64668 -16.561,-28.53607 -16.561,-28.53607z"/><path d="M290.46322,445.90278l6.56933,-48.24273l34.29204,6.63351l-6.56932,48.24273c0,0 -9.34935,20.91857 -20.59167,18.85843c-12.64668,-2.31747 -13.7004,-25.49193 -13.7004,-25.49193z"/><path d="M339.55847,442.18926l6.66515,-48.94639l34.79223,6.73025l-6.66514,48.94641c0,0 -9.48571,21.22368 -20.89202,19.13349c-12.83116,-2.3513 -13.90022,-25.86375 -13.90022,-25.86375z"/><path d="M393.61925,407.00309l5.46737,-40.15051l28.53991,5.52078l-5.46738,40.15051c0,0 -7.7811,17.40969 -17.13764,15.69512c-10.52533,-1.92876 -11.40229,-21.21591 -11.40229,-21.21591z"/><path d="M435.44269,359.26738l5.13202,-37.68764l26.78925,5.18214l-5.13203,37.68763c0,0 -7.3038,16.34177 -16.0864,14.73238c-9.87968,-1.81046 -10.70285,-19.91452 -10.70285,-19.91452z"/><path d="M476.42688,307.20839l3.64675,-26.7807l19.03635,3.68242l-3.64677,26.7807c0,0 -5.19007,11.61239 -11.43092,10.46875c-7.02047,-1.28648 -7.60541,-14.15119 -7.60541,-14.15119z"/><path d="M98.07976,396.26115l5.46738,-40.15051l28.53991,5.52079l-5.46737,40.15051c0,0 -7.78109,17.40969 -17.13764,15.69512c-10.52533,-1.92876 -11.40229,-21.21591 -11.40229,-21.21591z"/><path d="M62.49658,365.09424l5.03618,-36.98398l26.28906,5.08538l-5.03619,36.98396c0,0 -7.1674,16.03664 -15.78604,14.45729c-9.69521,-1.77661 -10.50302,-19.54269 -10.50302,-19.54269z"/><path d="M32.37283,313.05031l4.22172,-31.00273l22.03747,4.26296l-4.2217,31.00274c0,0 -6.00827,13.44312 -13.23304,12.11917c-8.12726,-1.48931 -8.80443,-16.38214 -8.80443,-16.38214z"/><path d="M12.73466,266.23903l3.88633,-28.53992l20.28682,3.92432l-3.88633,28.53992c0,0 -5.53097,12.37519 -12.1818,11.15645c-7.48164,-1.37099 -8.10499,-15.08076 -8.10499,-15.08076z"/><path d="M-13.09201,233.98117l3.88633,-28.53992l20.28682,3.92432l-3.88633,28.53992c0,0 -5.53097,12.3752 -12.1818,11.15645c-7.48164,-1.37099 -8.10499,-15.08076 -8.10499,-15.08076z"/><path d="M-35.45963,197.60432l3.88633,-28.53992l20.28682,3.92432l-3.88633,28.53992c0,0 -5.53098,12.3752 -12.18183,11.15644c-7.48164,-1.37099 -8.10499,-15.08076 -8.10499,-15.08076z"/><path d="M507.29212,282.38248l3.64675,-26.78071l19.03635,3.68242l-3.64677,26.78071c0,0 -5.19007,11.61239 -11.43092,10.46875c-7.02047,-1.28648 -7.60541,-14.15119 -7.60541,-14.15119z"/><path d="M538.15728,257.55649l3.64677,-26.78071l19.03635,3.68243l-3.64677,26.7807c0,0 -5.19007,11.61239 -11.43092,10.46875c-7.02047,-1.28648 -7.60542,-14.15119 -7.60542,-14.15119z"/></g><g fill="#ffffff" stroke="none" stroke-width="0" stroke-linecap="butt"><path d="M191.88395,-7.48291l7.12239,-45.61814c0,0 5.89379,-20.22934 22.5423,-17.39255c17.63384,3.00471 14.14093,23.51496 14.14093,23.51496l-7.12239,45.61814z"/><path d="M240.75611,16.86865l8.36759,-53.59348c0,0 6.92419,-23.76603 26.48335,-20.43328c20.71674,3.53001 16.6132,27.62604 16.6132,27.62604l-8.36759,53.59349z"/><path d="M296.69966,25.74527l8.3676,-53.59348c0,0 6.92419,-23.76605 26.48335,-20.43329c20.71674,3.53001 16.6132,27.62604 16.6132,27.62604l-8.3676,53.59349z"/><path d="M346.87744,18.81121l7.49321,-47.99322c0,0 6.20064,-21.2826 23.71597,-18.2981c18.55193,3.16113 14.87719,24.73926 14.87719,24.73926l-7.49322,47.99322z"/><path d="M396.03806,14.30229l7.60251,-48.69325c0,0 6.29107,-21.59302 24.06191,-18.56499c18.82255,3.20723 15.0942,25.10009 15.0942,25.10009l-7.60251,48.69325z"/><path d="M449.28215,-10.9416l6.23631,-39.94283c0,0 5.16053,-17.71267 19.73784,-15.22876c15.44003,2.63088 12.3817,20.58946 12.3817,20.58946l-6.23631,39.94282z"/><path d="M490.87687,-55.89353l5.85377,-37.49272c0,0 4.84401,-16.62615 18.52711,-14.29465c14.49293,2.4695 11.62221,19.32653 11.62221,19.32653l-5.85377,37.4927z"/><path d="M530.84831,-95.62408l4.15966,-26.64218c0,0 3.44215,-11.81447 13.16529,-10.15771c10.29866,1.75482 8.25868,13.73335 8.25868,13.73335l-4.15967,26.64217z"/><path d="M153.74259,-21.68352l6.23631,-39.94283c0,0 5.16055,-17.71265 19.73784,-15.22876c15.44003,2.63088 12.38168,20.58946 12.38168,20.58946l-6.23631,39.94282z"/><path d="M117.86537,-49.27127l5.74447,-36.79267c0,0 4.75355,-16.31571 18.1812,-14.02773c14.22233,2.42337 11.40519,18.96565 11.40519,18.96565l-5.74449,36.79267z"/><path d="M87.18629,-94.55443l4.81543,-30.84237c0,0 3.98477,-13.67705 15.24086,-11.7591c11.92223,2.03146 9.56068,15.89845 9.56068,15.89845l-4.81544,30.84238z"/><path d="M67.31941,-138.58191l4.43291,-28.39226c0,0 3.66823,-12.59056 14.03009,-10.82496c10.97513,1.87009 8.80117,14.63547 8.80117,14.63547l-4.43289,28.39229z"/><path d="M41.49277,-170.83974l4.43291,-28.39226c0,0 3.66824,-12.59055 14.03011,-10.82496c10.97513,1.87009 8.80117,14.63547 8.80117,14.63547l-4.43289,28.39228z"/><path d="M19.12517,-207.2166l4.43291,-28.39226c0,0 3.66823,-12.59055 14.03009,-10.82496c10.97513,1.87009 8.80117,14.63547 8.80117,14.63547l-4.43289,28.39228z"/><path d="M561.71353,-120.45001l4.15966,-26.64218c0,0 3.44215,-11.81447 13.16529,-10.15771c10.29866,1.75482 8.25868,13.73333 8.25868,13.73333l-4.15967,26.64218z"/><path d="M592.57873,-145.27596l4.15966,-26.64218c0,0 3.44215,-11.81447 13.16529,-10.15771c10.29866,1.75482 8.25868,13.73333 8.25868,13.73333l-4.15966,26.64218z"/></g><g stroke="none" stroke-width="0" stroke-linecap="butt"><path d="M326.64475,-86.58851c-0.36204,20.84214 -16.01542,37.47122 -34.96282,37.1421c-18.94742,-0.32911 -34.01385,-17.4918 -33.65179,-38.33394c0.36204,-20.84214 16.01542,-37.47124 34.96282,-37.1421c18.94742,0.32911 34.01385,17.4918 33.65179,38.33394z" fill="url(#color-1)"/><path d="M318.38149,-85.905c-0.20683,14.39858 -10.6368,25.77389 -25.25654,25.47323c-14.6197,-0.30063 -26.3037,-12.21675 -26.09688,-26.6153c0.20683,-14.39858 12.22613,-25.8272 26.84583,-25.52652c14.61971,0.30067 24.7144,12.27005 24.50757,26.66864z" fill="#000000"/></g></g></g></svg>