<svg version="1.1" xmlns="http://www.w3.org/2000/svg" xmlns:xlink="http://www.w3.org/1999/xlink" width="266.30543" height="446.20924" viewBox="0,0,266.30543,446.20924"><g transform="translate(-51.48091,-104.53543)"><g data-paper-data="{&quot;isPaintingLayer&quot;:true}" fill-rule="nonzero" stroke-linejoin="miter" stroke-miterlimit="10" stroke-dasharray="" stroke-dashoffset="0" style="mix-blend-mode: normal"><path d="M261.72494,304.20109l-2.96641,-44.27182l18.59417,-1.2459l2.9664,44.27182z" fill="#000000" stroke="#000000" stroke-width="0.5" stroke-linecap="butt"/><path d="" fill="#000000" stroke="none" stroke-width="0.5" stroke-linecap="butt"/><g stroke="none" stroke-width="0" stroke-linecap="butt"><path d="M312.61116,176.78343c-12.22413,25.01631 -42.21467,35.48359 -66.98573,23.37932c-24.77105,-12.10431 -34.94235,-42.19649 -22.71824,-67.21281c12.22411,-25.01632 42.21466,-35.48359 66.98572,-23.37932c24.77107,12.10429 34.94235,42.19649 22.71822,67.21282z" fill="#000000"/><path d="M272.73402,145.7147c-16.46515,-7.84368 -27.98068,-18.04818 -25.72063,-22.79239c2.26005,-4.74419 17.43983,-2.23155 33.90497,5.61213c16.46515,7.84368 27.98067,18.04818 25.72062,22.79237c-2.26004,4.74421 -17.4398,2.23157 -33.90496,-5.61211z" fill="#ffffff"/></g><path d="M217.95344,218.75152l8.58582,-36.49158l31.783,7.47797l-8.58582,36.49159z" fill="#000000" stroke="none" stroke-width="0" stroke-linecap="butt"/><path d="M253.92732,329.62238l24.26113,-103.11506l14.96832,3.52178l-24.26114,103.11507z" fill="#000000" stroke="#000000" stroke-width="0.5" stroke-linecap="butt"/><path d="M201.12209,499.16645l20.29664,-48.92214l33.14081,13.74933l-20.29664,48.92215z" fill="#000000" stroke="#000000" stroke-width="0.5" stroke-linecap="butt"/><path d="M206.43393,495.2802l-11.78514,28.4064l-19.28975,19.74363" fill="none" stroke="#000000" stroke-width="6" stroke-linecap="round"/><path d="M212.89775,510.91024l-7.3194,26.5596l-15.36138,10.27483" fill="none" stroke="#000000" stroke-width="6" stroke-linecap="round"/><path d="M233.26222,506.41062l-7.31943,26.5596l-17.86292,7.38723" fill="none" stroke="#000000" stroke-width="6" stroke-linecap="round"/><path d="M169.90209,498.62167l19.94448,-21.32176l22.44603,-18.43417" fill="none" stroke="#000000" stroke-width="6" stroke-linecap="round"/><path d="M281.992,143.88006c-1.35471,1.23984 -3.07085,0.93246 -3.83305,-0.68655c-0.7622,-1.61899 -0.28186,-3.93661 1.07285,-5.17643c1.35471,-1.23984 3.07085,-0.93244 3.83306,0.68658c0.7622,1.61899 0.28188,3.93657 -1.07286,5.1764z" fill="#000000" stroke="#000000" stroke-width="1.5" stroke-linecap="butt"/><g fill="#ffffff" stroke="none" stroke-width="0" stroke-linecap="butt"><path d="M252.16048,161.4193l2.80574,-5.74189l2.87093,1.40287l-2.80575,5.74187z"/><path d="M245.93687,147.35842l2.80575,-5.74188l2.4608,1.20246l-2.80575,5.74188z"/><path d="M248.86367,154.88537l2.80575,-5.74187l2.4608,1.20246l-2.80575,5.74187z"/><path d="M255.06043,166.10859l2.60535,-5.33174l4.51147,2.20451l-2.60535,5.33175z"/><path d="M263.08315,169.4546l2.80575,-5.74187l4.10135,2.0041l-2.80575,5.74188z"/><path d="M271.08543,173.87296l2.80574,-5.74189l5.33174,2.60535l-2.80575,5.74187z"/><path d="M279.08409,176.62824l3.40698,-6.97228l3.6912,1.80368l-3.40699,6.97228z"/><path d="M292.282,170.00479l2.0041,-4.10135l2.05067,1.00205l-2.00409,4.10132z"/><path d="M299.63647,170.55016l2.40492,-4.9216l2.05067,1.00206l-2.40494,4.92158z"/><path d="M306.37108,170.28456l3.40697,-6.97227l1.23041,0.60124l-3.40697,6.97227z"/><path d="M242.99143,137.79014l3.00615,-6.15201l2.87094,1.40288l-3.00615,6.152z"/></g><g fill="#ffffff" stroke="none" stroke-width="0" stroke-linecap="butt"><path d="M244.78718,182.52706l3.20655,-6.56216l3.28108,1.60329l-3.20655,6.56216z"/><path d="M253.03642,191.63866l2.60535,-5.33174l2.4608,1.20246l-2.60535,5.33175z"/><path d="M258.18637,196.69549l2.00411,-4.10134l1.2304,0.60123l-2.00411,4.10134z"/><path d="M269.66946,197.81518l2.40492,-4.9216l2.05067,1.00205l-2.40493,4.92161z"/><path d="M275.7942,202.25109l2.00411,-4.10134l0.82026,0.40081l-2.0041,4.10135z"/><path d="M290.05575,199.05868l3.20657,-6.56215l2.87094,1.40288l-3.20657,6.56214z"/><path d="M299.44226,198.56472l1.40288,-2.87095l1.2304,0.60122l-1.40288,2.87093z"/><path d="M241.06061,165.63656l2.0041,-4.10135l2.4608,1.20246l-2.00411,4.10134z"/></g><g stroke="#000000"><path d="M86.89241,253.29998l98.444,-58.4206l9.59143,16.16244l-98.444,58.4206z" fill="#000000" stroke-width="0.5" stroke-linecap="butt"/><path d="M163.56157,211.46081l19.1395,-11.84534l16.52983,17.2991l-53.77141,20.04357" fill="none" stroke-width="5" stroke-linecap="round"/><path d="M224.7114,222.58595l-25.69809,-15.8602l-13.66886,-11.39329" fill="none" stroke-width="5" stroke-linecap="round"/></g><g fill="#000000" stroke="#000000"><path d="M87.55625,366.40626l-9.58795,-104.23728l28.99189,-4.24991l9.58795,104.23728z" stroke-width="0.5" stroke-linecap="butt"/><path d="M82.51276,261.29417l3.37778,-12.37926l10.04217,0.6938l7.80736,11.13401l9.26825,99.52332l-10.28679,17.45149l-12.77729,-4.9188z" stroke-width="5" stroke-linecap="round"/></g><g><path d="M168.07222,305.78668l24.95958,-106.08362l79.44036,18.6909c0.20022,0.13293 0.39993,0.26092 0.59855,0.38409l-24.90534,105.85312z" fill="#000000" stroke="none" stroke-width="0" stroke-linecap="butt"/><path d="M262.51527,223.95981l6.28896,63.61162l3.09794,-54.86285l-27.33926,88.40052l-5.28506,64.15856l-25.3352,10.38958l-9.11394,-44.65565l-34.7218,29.43674l-13.30575,-12.94091l16.95031,-58.14382l7.74548,-81.56522l69.1706,-22.96661l19.13838,15.94828l22.60147,15.12802l-7.01708,22.87477" fill="none" stroke="#000000" stroke-width="5" stroke-linecap="round"/><path d="M248.22602,221.43062c-3.95691,-2.0656 -8.35923,-3.46411 -12.84198,-3.87859c-3.34113,-0.3089 -6.6895,1.27834 -10.02476,0.91146c-1.62108,-0.17833 -3.03234,-1.9785 -4.62062,-1.60838c-1.44041,0.33563 -1.65395,2.5596 -2.89747,3.36026c-3.35218,2.1583 -7.55421,2.87596 -10.72737,5.28975c-2.21772,1.68699 -7.89495,8.24545 -10.06985,8.66577c-14.10121,2.72523 -14.99562,-10.30186 -18.32549,-19.00885c0,0 -1.68172,-4.50993 2.82821,-6.19165c4.50993,-1.68172 6.19165,2.82821 6.19165,2.82821c1.18623,3.24723 1.2222,6.83286 2.34343,10.10311c0.29186,0.85125 3.30563,3.42254 4.4845,2.967c3.01464,-1.16489 4.10783,-5.07751 6.69867,-7.00951c1.83096,-1.36534 3.92265,-2.30167 6.03449,-3.2104c-0.35883,-0.58396 -0.61743,-1.3299 -0.70403,-2.28226c-0.43582,-4.7935 4.35767,-5.22932 4.35767,-5.22932l5.01239,-0.45573c3.33515,-0.27067 6.4874,-1.64841 9.75688,-2.36049c7.94371,-1.7301 19.48194,0.94173 25.80701,6.07193c1.22782,0.99586 2.67447,2.04726 3.20824,3.52214c1.80794,0.42537 4.96132,1.1673 4.96132,1.1673c2.58763,0.60882 4.19178,3.20008 3.58296,5.78771c-0.60882,2.58763 -3.20008,4.19178 -5.78771,3.58295l-6.19714,-1.45807l0.08592,-0.36518c-0.22423,-0.01261 -0.44832,-0.03078 -0.67227,-0.05503l-0.14992,0.18313c-0.1415,-0.08731 -0.28374,-0.17376 -0.42668,-0.25936c-0.04915,-0.0077 -0.09833,-0.01572 -0.14747,-0.02405c-0.70962,-0.12038 -1.26924,-0.51661 -1.76047,-1.04384z" fill="#000000" stroke="none" stroke-width="0.5" stroke-linecap="butt"/></g><g stroke="#000000"><path d="M113.52909,396.37183l-6.52307,27.72451l-26.21874,25.34114" fill="none" stroke-width="6" stroke-linecap="round"/><g><path d="M77.45441,393.0415l14.86973,-63.19955l34.92607,8.21748l-14.86972,63.19955z" fill="#000000" stroke-width="0.5" stroke-linecap="butt"/><path d="M84.12346,387.07668l-16.92452,34.63267l-12.71803,9.29417" fill="none" stroke-width="6" stroke-linecap="round"/><path d="M96.64601,393.53345l-18.97897,35.90453l-10.27227,6.35919" fill="none" stroke-width="6" stroke-linecap="round"/><path d="M125.40805,345.88901l15.16413,17.60957l2.15272,35.61076" fill="none" stroke-width="6" stroke-linecap="round"/></g></g><g fill="#000000" stroke="#000000"><path d="M250.81849,379.22122l7.78034,-112.49625l22.15835,1.5325l-7.78033,112.49623z" stroke-width="0.5" stroke-linecap="butt"/><path d="M257.21318,275.23506l12.12066,-16.76884l10.66291,17.22425l-13.57779,106.3538l-5.8323,24.78857l-19.50289,-14.39899l14.30778,-26.06455z" stroke-width="5" stroke-linecap="round"/></g></g></g></svg>