<svg version="1.1" xmlns="http://www.w3.org/2000/svg" xmlns:xlink="http://www.w3.org/1999/xlink" width="672.19576" height="665.98996" viewBox="0,0,672.19576,665.98996"><g transform="translate(211.20894,4.87016)"><g data-paper-data="{&quot;isPaintingLayer&quot;:true}" fill-rule="nonzero" stroke-linejoin="miter" stroke-miterlimit="10" stroke-dasharray="" stroke-dashoffset="0" style="mix-blend-mode: normal"><path d="" fill="#000000" stroke="none" stroke-width="0.5" stroke-linecap="butt"/><path d="M206.43393,495.2802l-11.78514,28.4064l-19.28975,19.74363" fill="none" stroke="#000000" stroke-width="6" stroke-linecap="round"/><path d="M212.89775,510.91024l-7.3194,26.5596l-15.36138,10.27483" fill="none" stroke="#000000" stroke-width="6" stroke-linecap="round"/><path d="M233.26222,506.41062l-7.31943,26.5596l-17.86292,7.38723" fill="none" stroke="#000000" stroke-width="6" stroke-linecap="round"/><path d="M200.48627,512.29005l21.80375,-52.55482l35.60166,14.77028l-21.80375,52.55483z" fill="#000000" stroke="#000000" stroke-width="0.5" stroke-linecap="butt"/><path d="M166.94805,511.70481l21.42544,-22.90499l24.11274,-19.80299" fill="none" stroke="#000000" stroke-width="6" stroke-linecap="round"/><g data-paper-data="{&quot;index&quot;:null}" stroke="#000000"><path d="M-144.16722,425.96007l-7.07385,-52.73758l17.6277,-37.63858" fill="none" stroke-width="6" stroke-linecap="round"/><g><path d="M-136.72213,342.21751l40.18329,-85.79924l47.41537,22.20656l-40.18328,85.79925z" fill="#000000" stroke-width="0.5" stroke-linecap="butt"/><path d="M-97.37102,428.67058l-6.14506,-22.14984l11.97462,-54.96052" fill="none" stroke-width="6" stroke-linecap="round"/><path d="M-116.49149,422.46886l-6.00209,-16.57665l10.77425,-58.27586" fill="none" stroke-width="6" stroke-linecap="round"/><path d="M-169.50963,312.29141l34.69634,-38.81273l33.29626,-6.43101" fill="none" stroke-width="6" stroke-linecap="round"/></g></g><path d="M350.36056,439.10954l-36.68942,-87.50681l36.75288,-15.40958l36.6894,87.50682z" fill="#000000" stroke="#000000" stroke-width="0.5" stroke-linecap="butt"/><path d="M352.20727,495.94264l-22.39628,-225.42182l32.72253,-3.25109l22.39626,225.42185z" fill="#000000" stroke="#000000" stroke-width="0.5" stroke-linecap="butt"/><g stroke="#000000"><path d="M-71.16815,267.81479l243.51685,-25.03497l4.11022,39.98038l-243.51685,25.03497z" fill="#000000" stroke-width="0.5" stroke-linecap="butt"/><path d="M115.20065,255.42017l47.78191,-5.81295l16.55748,48.41429l-122.36112,-9.35859" fill="none" stroke-width="5" stroke-linecap="round"/><path d="M223.90743,331.90008l-35.64463,-53.85048l-16.30513,-34.38315" fill="none" stroke-width="5" stroke-linecap="round"/></g><g fill="#000000" stroke="#000000"><path d="M-191.30894,309.21122l214.08535,-65.39756l21.50414,58.85598l-214.08535,65.39756z" stroke-width="0.5" stroke-linecap="butt"/><path d="M26.58404,252.94856l27.38863,1.69l2.91361,21.32817l-19.91799,21.18825l-204.35416,62.67855l-41.01298,-13.95083l4.74356,-28.89202z" stroke-width="5" stroke-linecap="round"/></g><g><path d="M161.99773,507.23531l-23.04105,-231.91144l173.6661,-17.25419c0.49718,0.13013 0.98994,0.25062 1.47714,0.36215l22.99101,231.40754z" fill="#000000" stroke="none" stroke-width="0" stroke-linecap="butt"/><path d="M296.33784,276.23145l56.81698,124.32862l-31.76257,-113.13644l5.96935,197.7876l33.78153,133.45796l-44.05193,38.58022l-49.3921,-84.02197l-49.83819,83.61973l-35.88828,-16.95654l-6.01314,-129.37609l-40.86998,-170.3776l124.01399,-94.40967l49.77248,18.99747l56.20981,14.93751l1.66056,51.14037" fill="none" stroke="#000000" stroke-width="5" stroke-linecap="round"/><path d="M265.67715,281.01985c-9.43678,-1.43591 -19.31219,-1.21352 -28.66824,1.05528c-6.97333,1.69108 -12.64691,7.22315 -19.64854,8.79287c-3.40311,0.76294 -7.50595,-1.90061 -10.46252,-0.05088c-2.68133,1.67747 -1.57171,6.32462 -3.53239,8.80638c-5.28545,6.68997 -13.2888,11.05456 -18.03501,18.13727c-3.31712,4.9501 -10.25613,22.15338 -14.36465,24.51129c-26.63804,15.28786 -37.47756,-10.44628 -50.24948,-25.75259c0,0 -6.52837,-7.95797 1.42961,-14.48635c7.95797,-6.52837 14.48635,1.42961 14.48635,1.42961c4.65069,5.74698 7.20895,12.97584 11.74409,18.81446c1.1805,1.5198 9.05981,4.6325 11.12892,2.89377c5.29122,-4.44629 4.79065,-13.11941 8.69275,-18.8238c2.75766,-4.03129 6.34016,-7.37542 9.98257,-10.6777c-1.13069,-0.93266 -2.17096,-2.26243 -3.00629,-4.12906c-4.20442,-9.39528 5.19083,-13.59969 5.19083,-13.59969l9.82428,-4.39643c6.5595,-2.85944 11.98153,-7.83172 18.10219,-11.53858c14.87106,-9.00645 40.06526,-11.59933 56.41719,-5.60521c3.17423,1.16355 6.82966,2.28776 8.93182,4.90151c3.95239,-0.39269 10.84603,-1.07762 10.84603,-1.07762c5.65688,-0.56204 10.69829,3.56819 11.26033,9.22505c0.56204,5.65688 -3.56819,10.69829 -9.22506,11.26032l-13.54768,1.34601l-0.0793,-0.79832c-0.46236,0.12993 -0.9283,0.24851 -1.39816,0.35466l-0.17635,0.47439c-0.34676,-0.07855 -0.69448,-0.15483 -1.04295,-0.22892c-0.10476,0.0185 -0.20982,0.03636 -0.31502,0.0536c-1.51903,0.24837 -2.9258,-0.1653 -4.28506,-0.89138z" fill="#000000" stroke="none" stroke-width="0.5" stroke-linecap="butt"/></g><g fill="#000000" stroke="#000000"><path d="M380.29891,598.43735l-62.24019,-232.97606l45.88921,-12.25941l62.24019,232.97604z" stroke-width="0.5" stroke-linecap="butt"/><path d="M321.15452,383.63792l12.8966,-42.32561l33.51084,27.45381l46.25399,224.56841l5.38404,54.19076l-49.43594,-15.61054l10.87761,-62.64712z" stroke-width="5" stroke-linecap="round"/></g><g stroke="none" stroke-width="0" stroke-linecap="butt"><path d="M459.00589,197.38636c-14.40356,96.37821 -103.44401,162.94631 -198.87734,148.684c-95.43335,-14.26247 -161.12094,-103.9543 -146.71742,-200.33251c14.40349,-96.37823 103.44395,-162.94631 198.87731,-148.68402c95.43339,14.26236 161.12094,103.9543 146.71739,200.33254z" fill="#000000"/><path d="M293.15566,135.77266c-63.22083,-8.80614 -112.41458,-30.71205 -109.87718,-48.92831c2.53741,-18.21617 55.84499,-25.84444 119.06576,-17.03827c63.22083,8.80614 112.41455,30.71209 109.87712,48.92825c-2.53727,18.2162 -55.84488,25.84451 -119.06573,17.03839z" fill="#ffffff"/></g><path d="M200.45203,375.28997l-10.73564,-108.0556l94.11296,-9.35036l10.73564,108.05562z" fill="#000000" stroke="none" stroke-width="0" stroke-linecap="butt"/><path d="M284.13925,121.89615c-3.64714,5.2923 -9.74174,5.59121 -13.61243,0.66755c-3.87064,-4.92353 -4.05188,-13.20537 -0.4047,-18.4976c3.64714,-5.2923 9.74174,-5.59113 13.6125,-0.66751c3.87064,4.92353 4.0519,13.20521 0.40466,18.49747z" fill="#000000" stroke="#000000" stroke-width="1.5" stroke-linecap="butt"/><g fill="#ffffff" stroke="none" stroke-width="0" stroke-linecap="butt"><path d="M212.87885,165.32032l6.25139,-21.47561l10.73771,3.12571l-6.25139,21.47551z"/><path d="M183.02876,120.54062l6.25141,-21.47554l9.20378,2.67916l-6.25141,21.47554z"/><path d="M197.61191,144.75314l6.25139,-21.47551l9.20378,2.67916l-6.25139,21.47551z"/><path d="M225.67688,179.76261l5.80491,-19.94153l16.87363,4.91184l-5.80492,19.94159z"/><path d="M255.3406,186.5168l6.25139,-21.47551l15.33971,4.46529l-6.25141,21.47554z"/><path d="M285.57342,196.9814l6.25139,-21.47561l19.94153,5.80491l-6.25139,21.47551z"/><path d="M314.80182,201.71272l7.59102,-26.07746l13.80567,4.0187l-7.59103,26.07746z"/><path d="M356.36691,170.99843l4.46529,-15.33971l7.66984,2.23263l-4.46525,15.33959z"/><path d="M382.05556,168.49264l5.35836,-18.40754l7.66982,2.23269l-5.35838,18.40752z"/><path d="M405.1228,163.55978l7.59098,-26.07738l4.60195,1.3396l-7.59098,26.07738z"/><path d="M167.16375,89.29931l6.69789,-23.00952l10.73778,3.12572l-6.69798,23.00946z"/></g><g fill="#ffffff" stroke="none" stroke-width="0" stroke-linecap="butt"><path d="M148.0926,316.29276l5.51152,-24.96097l12.48049,2.7558l-5.51152,24.96097z"/><path d="M183.64929,340.50524l4.4782,-20.28079l9.36031,2.06682l-4.4782,20.28079z"/><path d="M205.32775,353.47262l3.44478,-15.60059l4.68017,1.03344l-3.44478,15.60059z"/><path d="M245.31295,347.83772l4.13367,-18.7207l7.80031,1.72232l-4.13369,18.72072z"/><path d="M269.79691,357.89113l3.44478,-15.60059l3.12008,0.68893l-3.44472,15.60061z"/><path d="M315.68781,335.30183l5.51157,-24.96093l10.9204,2.41133l-5.51157,24.96091z"/><path d="M347.21356,325.90171l2.41132,-10.92044l4.68016,1.03336l-2.41131,10.9204z"/><path d="M121.52407,261.89782l3.44472,-15.60061l9.36031,2.06682l-3.44478,15.60059z"/></g></g></g></svg>