<svg version="1.1" xmlns="http://www.w3.org/2000/svg" xmlns:xlink="http://www.w3.org/1999/xlink" width="1186.55223" height="1045.0592" viewBox="0,0,1186.55223,1045.0592"><defs><linearGradient x1="289.23128" y1="-51.46998" x2="289.23128" y2="216.26735" gradientUnits="userSpaceOnUse" id="color-1"><stop offset="0" stop-color="#ffffff"/><stop offset="1" stop-color="#a7a7a7"/></linearGradient><linearGradient x1="290.27843" y1="58.76574" x2="290.27843" y2="113.75446" gradientUnits="userSpaceOnUse" id="color-2"><stop offset="0" stop-color="#000000"/><stop offset="1" stop-color="#2a1200"/></linearGradient></defs><g transform="translate(327.03525,159.43236)"><g data-paper-data="{&quot;isPaintingLayer&quot;:true}" fill-rule="nonzero" stroke-linejoin="miter" stroke-miterlimit="10" stroke-dasharray="" stroke-dashoffset="0" style="mix-blend-mode: normal"><path d="M107.88787,556.43284v-376.85256h312v376.85256z" fill="#000000" stroke="none" stroke-width="0" stroke-linecap="butt"/><path d="" fill="#000000" stroke="none" stroke-width="0.5" stroke-linecap="butt"/><path d="M-87.2768,756.15421v-176.49478h62.86117v176.49478z" fill="#000000" stroke="#000000" stroke-width="0.5" stroke-linecap="butt"/><path d="M-106.61868,567.57071v-91.874h50.77248v91.874z" fill="#000000" stroke="#000000" stroke-width="0.5" stroke-linecap="butt"/><path d="M69.8761,749.10832v-29.01286h84.62081v29.01286z" fill="#000000" stroke="#000000" stroke-width="0.5" stroke-linecap="butt"/><path d="M-111.30305,804.71629v-36.26606h82.05195v36.26606z" fill="#000000" stroke="#000000" stroke-width="6" stroke-linecap="butt"/><path d="M-99.36548,557.19301l-12.08869,53.19021l-14.50642,16.92415" fill="none" stroke="#000000" stroke-width="6" stroke-linecap="round"/><path d="M-80.02358,562.02852l-14.50642,55.60797l-12.08869,12.08869" fill="none" stroke="#000000" stroke-width="6" stroke-linecap="round"/><path d="M-58.26397,562.02852v31.4306l-21.75964,33.8483" fill="none" stroke="#000000" stroke-width="6" stroke-linecap="round"/><path d="M560.32823,104.58039c-0.69322,13.60471 9.62661,30.25172 7.41659,43.04394c-4.82169,27.9092 -27.83982,66.2795 -43.25407,91.18092c-26.82495,43.33516 -53.48879,90.81887 -54.51451,91.75001c-21.48192,19.50112 -91.91122,90.00572 -222.63236,86.22925c-1.11079,-0.14049 -103.11645,-28.16332 -149.93154,-84.32171c-39.31415,-47.16041 -80.33155,-117.9013 -96.86447,-173.5133c-6.21102,-20.89209 -9.31408,-33.8097 -8.18186,-56.02977c0.67358,-13.21911 15.83047,-56.95867 18.31313,-69.58881c26.1649,-133.11014 135.57932,-199.47834 277.8941,-192.22674c155.81829,7.93966 279.52745,110.93982 271.75502,263.47623z" fill="#000000" stroke="none" stroke-width="0" stroke-linecap="butt"/><path d="M497.84953,103.15962c-1.86488,18.75327 -13.61149,13.76662 -26.22154,28.84945c-36.72408,43.92549 -109.75419,91.7872 -195.46067,83.2643c-81.28778,-8.08348 -147.3871,-71.6981 -177.46617,-118.36799c-12.52484,-19.4332 -19.94001,-13.63877 -17.79513,-35.20778c1.55098,-15.59667 11.1823,-8.9189 20.31347,-22.05157c33.82271,-48.64461 110.70863,-99.07769 201.36874,-90.06219c96.87192,9.63322 162.68099,68.2642 180.4069,127.64779c3.34197,11.19595 16.01175,14.2897 14.85441,25.928z" fill="url(#color-1)" stroke="none" stroke-width="0" stroke-linecap="butt"/><path d="M93.18524,71.39105c-0.49184,9.65246 9.21421,28.00518 2.59538,27.66792c-6.61883,-0.33726 -16.76375,-24.72013 -16.27191,-34.37259c0.49184,-9.65246 10.50543,-21.99389 17.12426,-21.65663c6.61883,0.33726 -2.95589,18.70884 -3.44773,28.3613z" fill="#ba7d7d" stroke="none" stroke-width="0" stroke-linecap="butt"/><path d="M483.46323,76.17221c6.62741,0 16,11.45983 16,20.08928c0,8.62945 -11.37259,29.91072 -18,29.91072c-6.62741,0 4,-15.92412 4,-24.55357c0,-8.62945 -8.62741,-25.44643 -2,-25.44643z" data-paper-data="{&quot;index&quot;:null}" fill="#ba7d7d" stroke="none" stroke-width="0" stroke-linecap="butt"/><path d="M-295.19399,874.05925l-31.84126,-135.99755l438.51698,-347.64217l31.84127,135.99754z" fill="#000000" stroke="none" stroke-width="0" stroke-linecap="butt"/><path d="M389.15874,537.98466l31.84127,-135.99754l438.51698,347.64217l-31.84127,135.99755z" data-paper-data="{&quot;index&quot;:null}" fill="#000000" stroke="none" stroke-width="0" stroke-linecap="butt"/><path d="M57.00868,156.56331l-3.18827,-33.61175l12.43495,7.42591l-4.03565,54.3016z" data-paper-data="{&quot;index&quot;:null}" fill="none" stroke="#640000" stroke-width="6" stroke-linecap="round"/><path d="M500.43828,204.52395l4.00299,-40.59789l10.15115,-3.88396l-6.68276,24.39909z" data-paper-data="{&quot;index&quot;:null}" fill="none" stroke="#640000" stroke-width="6" stroke-linecap="round"/><g fill="#ffffff" stroke="none" stroke-width="0" stroke-linecap="butt"><path d="M192.98339,369.76335l3.10284,-33.6097l27.48678,3.281l-3.10284,33.6097c0,0 -6.50123,14.82111 -15.50749,13.8247c-10.13131,-1.12087 -11.97929,-17.10571 -11.97929,-17.10571z"/><path d="M229.33498,391.35911l3.49629,-39.48565l30.97232,3.85462l-3.49629,39.48565c0,0 -7.32563,17.41226 -17.47397,16.24166c-11.41604,-1.31683 -13.49836,-20.09628 -13.49836,-20.09628z"/><path d="M271.17305,395.57532l3.41679,-39.48565l30.26804,3.85462l-3.41679,39.48565c0,0 -7.15905,17.41226 -17.07662,16.24166c-11.15644,-1.31683 -13.19143,-20.09628 -13.19143,-20.09628z"/><path d="M309.87599,383.87026l2.84617,-35.35958l25.21309,3.45183l-2.84616,35.35958c0,0 -5.96345,15.59276 -14.22472,14.54448c-9.29325,-1.17922 -10.98838,-17.99631 -10.98838,-17.99631z"/><path d="M345.44377,379.20154l2.88768,-35.87534l25.58086,3.50217l-2.88768,35.87535c0,0 -6.05043,15.8202 -14.43221,14.75663c-9.42881,-1.19643 -11.14865,-18.25881 -11.14865,-18.25881z"/><path d="M383.3629,351.43765l2.36874,-29.42836l20.98386,2.87282l-2.36875,29.42836c0,0 -4.96314,12.97724 -11.83867,12.10479c-7.7344,-0.98143 -9.14518,-14.97761 -9.14518,-14.97761z"/><path d="M411.87659,315.03438l2.22345,-27.6232l19.69669,2.6966l-2.22345,27.6232c0,0 -4.6587,12.1812 -11.11248,11.36228c-7.25997,-0.92122 -8.58421,-14.05887 -8.58421,-14.05887z"/><path d="M439.60647,275.51957l1.57997,-19.62895l13.9964,1.91619l-1.57997,19.62895c0,0 -3.31045,8.65592 -7.89648,8.07399c-5.15891,-0.65461 -6.09991,-9.99019 -6.09991,-9.99019z"/><path d="M167.92892,355.4646l2.36875,-29.42836l20.98385,2.87282l-2.36874,29.42836c0,0 -4.96314,12.97723 -11.83867,12.10478c-7.7344,-0.98143 -9.14518,-14.97761 -9.14518,-14.97761z"/><path d="M140.79355,334.21656l2.18193,-27.10745l19.32893,2.64625l-2.18194,27.10745c0,0 -4.57171,11.95376 -10.90499,11.15013c-7.12441,-0.90402 -8.42393,-13.79638 -8.42393,-13.79638z"/><path d="M116.79336,297.56184l1.82906,-22.7235l16.20296,2.21829l-1.82906,22.7235c0,0 -3.83235,10.02054 -9.14138,9.34687c-5.97222,-0.75782 -7.06158,-11.56516 -7.06158,-11.56516z"/><path d="M100.63105,264.29372l1.68376,-20.91835l14.9158,2.04207l-1.68376,20.91835c0,0 -3.52791,9.22451 -8.41519,8.60436c-5.49779,-0.69762 -6.5006,-10.64643 -6.5006,-10.64643z"/><path d="M80.54979,241.86111l1.68376,-20.91835l14.9158,2.04207l-1.68376,20.91835c0,0 -3.52791,9.22451 -8.41519,8.60436c-5.49779,-0.69762 -6.5006,-10.64643 -6.5006,-10.64643z"/><path d="M62.8199,216.29334l1.68376,-20.91835l14.9158,2.04207l-1.68376,20.91835c0,0 -3.52791,9.22451 -8.41519,8.60436c-5.49779,-0.69762 -6.5006,-10.64643 -6.5006,-10.64643z"/><path d="M461.06607,256.22212l1.57997,-19.62895l13.9964,1.91619l-1.57997,19.62895c0,0 -3.31045,8.65592 -7.89648,8.07399c-5.15891,-0.65461 -6.09991,-9.99019 -6.09991,-9.99019z"/><path d="M482.5256,236.92465l1.57997,-19.62895l13.9964,1.91619l-1.57997,19.62895c0,0 -3.31045,8.65592 -7.89648,8.07399c-5.15891,-0.65461 -6.09991,-9.99019 -6.09991,-9.99019z"/></g><g fill="#ffffff" stroke="none" stroke-width="0" stroke-linecap="butt"><path d="M198.13928,310.09584l3.35368,-33.47235c0,0 3.47716,-14.9529 15.70254,-13.55622c12.94893,1.47935 11.22966,16.54041 11.22966,16.54041l-3.35368,33.47235z"/><path d="M234.66927,325.85326l3.94,-39.32427c0,0 4.08506,-17.56711 18.44779,-15.92624c15.21277,1.73798 13.19293,19.43216 13.19293,19.43216l-3.94,39.32428z"/><path d="M275.72358,330.06944l3.94,-39.32427c0,0 4.08506,-17.56711 18.44779,-15.92624c15.21277,1.73798 13.19293,19.43216 13.19293,19.43216l-3.94,39.32428z"/><path d="M311.94983,323.01443l3.52829,-35.21507c0,0 3.65819,-15.73142 16.52008,-14.26202c13.62311,1.55637 11.81433,17.40159 11.81433,17.40159l-3.52829,35.21507z"/><path d="M347.53329,317.76446l3.57975,-35.72872c0,0 3.71155,-15.96089 16.76105,-14.47005c13.82182,1.57907 11.98666,17.65541 11.98666,17.65541l-3.57975,35.72872z"/><path d="M385.25663,297.26626l2.93645,-29.30809c0,0 3.04456,-13.09263 13.749,-11.86971c11.33796,1.2953 9.8326,14.48264 9.8326,14.48264l-2.93645,29.30809z"/><path d="M413.71548,262.89734l2.75633,-27.51032c0,0 2.85781,-12.28952 12.90563,-11.14162c10.64249,1.21585 9.22946,13.59427 9.22946,13.59427l-2.75633,27.51031z"/><path d="M441.2026,232.39198l1.95864,-19.54873c0,0 2.03075,-8.73289 9.17069,-7.91719c7.56252,0.86398 6.55842,9.66003 6.55842,9.66003l-1.95864,19.54873z"/><path d="M169.82262,301.29321l2.93645,-29.30809c0,0 3.04457,-13.09264 13.749,-11.86971c11.33796,1.2953 9.83259,14.48264 9.83259,14.48264l-2.93645,29.30809z"/><path d="M142.61675,282.66078l2.70486,-26.99666c0,0 2.80445,-12.06007 12.66467,-10.93359c10.44378,1.19314 9.05713,13.34044 9.05713,13.34044l-2.70487,26.99667z"/><path d="M118.48345,250.94674l2.26742,-22.63063c0,0 2.3509,-10.10965 10.61647,-9.16536c8.75476,1.00018 7.59237,11.18296 7.59237,11.18296l-2.26742,22.63064z"/><path d="M102.26632,219.71299l2.0873,-20.83285c0,0 2.16415,-9.30654 9.7731,-8.43726c8.05928,0.92073 6.98923,10.29459 6.98923,10.29459l-2.0873,20.83286z"/><path d="M82.18504,197.28038l2.0873,-20.83285c0,0 2.16415,-9.30654 9.7731,-8.43726c8.05928,0.92073 6.98923,10.29459 6.98923,10.29459l-2.0873,20.83286z"/><path d="M64.45517,171.71261l2.0873,-20.83285c0,0 2.16415,-9.30654 9.7731,-8.43726c8.05928,0.92073 6.98923,10.29459 6.98923,10.29459l-2.0873,20.83286z"/><path d="M462.66216,213.09453l1.95864,-19.54873c0,0 2.03075,-8.73289 9.17069,-7.91719c7.56252,0.86398 6.55842,9.66003 6.55842,9.66003l-1.95864,19.54873z"/><path d="M484.12173,193.79706l1.95864,-19.54873c0,0 2.03075,-8.73289 9.17069,-7.91719c7.56252,0.86398 6.55842,9.66003 6.55842,9.66003l-1.95864,19.54873z"/></g><g stroke="none" stroke-width="0" stroke-linecap="butt"><path d="M315.24605,87.5323c-0.77289,15.16815 -12.57782,26.89478 -26.36705,26.19216c-13.78923,-0.70262 -24.34107,-13.56843 -23.56817,-28.73658c0.77289,-15.16815 12.57782,-26.89478 26.36705,-26.19215c13.78923,0.70262 24.34107,13.56843 23.56817,28.73658z" fill="url(#color-2)"/><path d="M309.21214,87.8281c-0.50243,10.47982 -8.37536,18.50832 -19.01392,17.93217c-10.63855,-0.57615 -18.85553,-9.53879 -18.35311,-20.0186c0.50243,-10.47982 9.53398,-18.50832 20.17253,-17.93216c10.63855,0.57616 17.69692,9.53878 17.1945,20.0186z" fill="#000000"/></g></g></g></svg>