<svg version="1.1" xmlns="http://www.w3.org/2000/svg" xmlns:xlink="http://www.w3.org/1999/xlink" width="1134.99934" height="991.72102" viewBox="0,0,1134.99934,991.72102"><defs><linearGradient x1="431.12597" y1="308.93522" x2="431.12597" y2="565.04" gradientUnits="userSpaceOnUse" id="color-1"><stop offset="0" stop-color="#ffffff"/><stop offset="1" stop-color="#a7a7a7"/></linearGradient><linearGradient x1="426.38256" y1="414.90471" x2="426.38256" y2="467.5043" gradientUnits="userSpaceOnUse" id="color-2"><stop offset="0" stop-color="#000000"/><stop offset="1" stop-color="#2a1200"/></linearGradient></defs><g transform="translate(158.36523,-216.24066)"><g data-paper-data="{&quot;isPaintingLayer&quot;:true}" fill-rule="nonzero" stroke-linejoin="miter" stroke-miterlimit="10" stroke-dasharray="" stroke-dashoffset="0" style="mix-blend-mode: normal"><path d="" fill="#000000" stroke="none" stroke-width="0.5" stroke-linecap="butt"/><path d="M-87.2768,756.15421v-176.49478h62.86117v176.49478z" fill="#000000" stroke="#000000" stroke-width="0.5" stroke-linecap="butt"/><path d="M-106.61868,567.57071v-91.874h50.77248v91.874z" fill="#000000" stroke="#000000" stroke-width="0.5" stroke-linecap="butt"/><path d="M69.8761,749.10832v-29.01286h84.62081v29.01286z" fill="#000000" stroke="#000000" stroke-width="0.5" stroke-linecap="butt"/><path d="M-111.30305,804.71629v-36.26606h82.05195v36.26606z" fill="#000000" stroke="#000000" stroke-width="6" stroke-linecap="butt"/><path d="M-99.36548,557.19301l-12.08869,53.19021l-14.50642,16.92415" fill="none" stroke="#000000" stroke-width="6" stroke-linecap="round"/><path d="M-80.02358,562.02852l-14.50642,55.60797l-12.08869,12.08869" fill="none" stroke="#000000" stroke-width="6" stroke-linecap="round"/><path d="M-58.26397,562.02852v31.4306l-21.75964,33.8483" fill="none" stroke="#000000" stroke-width="6" stroke-linecap="round"/><path d="M257.66151,893.07038v-360.4792h298.44433v360.4792z" fill="#000000" stroke="none" stroke-width="0" stroke-linecap="butt"/><path d="M690.44439,468.78268c-0.6631,13.01362 9.20836,28.93735 7.09436,41.17378c-4.6122,26.69661 -26.63025,63.39981 -41.37478,87.21932c-25.65947,41.45235 -51.16483,86.873 -52.14598,87.76369c-20.54858,18.65384 -87.91789,86.09518 -212.95951,82.48279c-1.06253,-0.13439 -98.63628,-26.93969 -143.41737,-80.65813c-37.60604,-45.1114 -76.84133,-112.77877 -92.65594,-165.97456c-5.94117,-19.98438 -8.90941,-32.34075 -7.82638,-53.59541c0.64431,-12.64477 15.14267,-54.48395 17.51747,-66.56534c25.0281,-127.32682 129.68872,-190.81148 265.82026,-183.87494c149.04835,7.5947 267.38264,106.11975 259.9479,252.02881z" fill="#000000" stroke="none" stroke-width="0" stroke-linecap="butt"/><path d="M630.68025,456.84653c-1.78386,17.93848 -13.0201,13.16849 -25.08228,27.59601c-35.12851,42.01703 -104.98563,87.79926 -186.96836,79.64666c-77.75602,-7.73227 -140.98348,-68.58299 -169.75568,-113.22518c-11.98067,-18.58887 -19.07366,-13.0462 -17.02197,-33.67808c1.48359,-14.91903 10.69646,-8.53139 19.4309,-21.09348c32.35319,-46.53112 105.8986,-94.773 192.61974,-86.1492c92.66306,9.21468 155.61288,65.29828 172.56864,122.10179c3.19677,10.70951 15.31608,13.66885 14.20902,24.80149z" fill="url(#color-1)" stroke="none" stroke-width="0" stroke-linecap="butt"/><path d="M242.27554,427.78038c-0.47047,9.23308 8.81387,26.78842 2.48262,26.46581c-6.33126,-0.32261 -16.0354,-23.6461 -15.56493,-32.87918c0.47047,-9.23308 10.04899,-21.03831 16.38025,-20.7157c6.33126,0.32261 -2.82746,17.89598 -3.29793,27.12907z" fill="#ba7d7d" stroke="none" stroke-width="0" stroke-linecap="butt"/><path d="M616.919,431.03166c6.33946,0 15.30484,10.96193 15.30484,19.21645c0,8.25452 -10.87848,28.61117 -17.21794,28.61117c-6.33946,0 3.82621,-15.23225 3.82621,-23.48678c0,-8.25452 -8.25257,-24.34084 -1.9131,-24.34084z" data-paper-data="{&quot;index&quot;:null}" fill="#ba7d7d" stroke="none" stroke-width="0" stroke-linecap="butt"/><path d="M-127.90739,1196.89667l-30.45783,-130.08878l419.46445,-332.53794l30.45784,130.08877z" fill="#000000" stroke="none" stroke-width="0" stroke-linecap="butt"/><path d="M526.71182,875.42373l30.45784,-130.08877l419.46445,332.53794l-30.45784,130.08878z" data-paper-data="{&quot;index&quot;:null}" fill="#000000" stroke="none" stroke-width="0" stroke-linecap="butt"/><path d="M208.9929,510.57424l-3.04975,-32.1514l11.89468,7.10327l-3.86031,51.94232z" data-paper-data="{&quot;index&quot;:null}" fill="none" stroke="#640000" stroke-width="6" stroke-linecap="round"/><path d="M633.15653,556.4511l3.82907,-38.83401l9.71011,-3.71521l-6.39241,23.33901z" data-paper-data="{&quot;index&quot;:null}" fill="none" stroke="#640000" stroke-width="6" stroke-linecap="round"/><g fill="#ffffff" stroke="none" stroke-width="0" stroke-linecap="butt"><path d="M339.05983,702.15549l2.96803,-32.14944l26.29254,3.13845l-2.96803,32.14944c0,0 -6.21877,14.17717 -14.83373,13.22405c-9.69113,-1.07217 -11.45882,-16.36251 -11.45882,-16.36251z"/><path d="M373.83203,722.81297l3.34438,-37.77009l29.62665,3.68715l-3.34438,37.77009c0,0 -7.00735,16.65574 -16.71477,15.536c-10.92004,-1.25962 -12.91189,-19.22314 -12.91189,-19.22314z"/><path d="M413.85232,726.84599l3.26834,-37.77009l28.95296,3.68715l-3.26834,37.77009c0,0 -6.84801,16.65574 -16.33468,15.536c-10.67172,-1.25962 -12.61829,-19.22314 -12.61829,-19.22314z"/><path d="M450.87372,715.64949l2.72251,-33.82329l24.11764,3.30186l-2.7225,33.82329c0,0 -5.70435,14.91529 -13.60669,13.91256c-8.88948,-1.12799 -10.51096,-17.21441 -10.51096,-17.21441z"/><path d="M484.89616,711.18361l2.76222,-34.31664l24.46943,3.35001l-2.76222,34.31665c0,0 -5.78755,15.13285 -13.80516,14.11549c-9.01915,-1.14445 -10.66427,-17.46551 -10.66427,-17.46551z"/><path d="M521.1678,684.626l2.26582,-28.14977l20.07216,2.748l-2.26583,28.14977c0,0 -4.7475,12.41341 -11.32431,11.57887c-7.39836,-0.93879 -8.74784,-14.32687 -8.74784,-14.32687z"/><path d="M548.44263,649.80437l2.12685,-26.42304l18.84092,2.57944l-2.12685,26.42304c0,0 -4.45629,11.65196 -10.62967,10.86862c-6.94454,-0.8812 -8.21125,-13.44805 -8.21125,-13.44805z"/><path d="M574.96772,612.00638l1.51132,-18.77612l13.38829,1.83294l-1.51132,18.77612c0,0 -3.16662,8.27984 -7.5534,7.72319c-4.93477,-0.62617 -5.83488,-9.55614 -5.83488,-9.55614z"/><path d="M315.09392,688.47799l2.26583,-28.14977l20.07215,2.748l-2.26582,28.14977c0,0 -4.7475,12.4134 -11.32431,11.57886c-7.39836,-0.93879 -8.74784,-14.32687 -8.74784,-14.32687z"/><path d="M289.13751,668.15313l2.08713,-25.9297l18.48913,2.53128l-2.08714,25.9297c0,0 -4.37308,11.4344 -10.43119,10.66568c-6.81487,-0.86474 -8.05793,-13.19696 -8.05793,-13.19696z"/><path d="M266.18008,633.09097l1.74959,-21.73622l15.49898,2.12191l-1.74959,21.73622c0,0 -3.66584,9.58517 -8.74421,8.94077c-5.71274,-0.72489 -6.75477,-11.06268 -6.75477,-11.06268z"/><path d="M250.71998,601.26827l1.6106,-20.0095l14.26774,1.95335l-1.6106,20.0095c0,0 -3.37463,8.82373 -8.04957,8.23052c-5.25892,-0.66731 -6.21816,-10.18387 -6.21816,-10.18387z"/><path d="M231.5112,579.8103l1.6106,-20.0095l14.26774,1.95335l-1.6106,20.0095c0,0 -3.37463,8.82373 -8.04957,8.23052c-5.25892,-0.66731 -6.21816,-10.18387 -6.21816,-10.18387z"/><path d="M214.55164,555.35339l1.6106,-20.0095l14.26774,1.95335l-1.6106,20.0095c0,0 -3.37463,8.82373 -8.04957,8.23052c-5.25892,-0.66731 -6.21816,-10.18387 -6.21816,-10.18387z"/><path d="M595.49495,593.54736l1.51132,-18.77612l13.38829,1.83294l-1.51132,18.77612c0,0 -3.16662,8.27984 -7.5534,7.72319c-4.93477,-0.62617 -5.83488,-9.55614 -5.83488,-9.55614z"/><path d="M616.02211,575.08832l1.51132,-18.77612l13.38829,1.83294l-1.51132,18.77612c0,0 -3.16662,8.27984 -7.5534,7.72319c-4.93477,-0.62617 -5.83488,-9.55614 -5.83488,-9.55614z"/></g><g fill="#ffffff" stroke="none" stroke-width="0" stroke-linecap="butt"><path d="M343.99171,657.43614l3.20797,-32.01806c0,0 3.32609,-14.30323 15.0203,-12.96723c12.38633,1.41508 10.74176,15.82177 10.74176,15.82177l-3.20797,32.01806z"/><path d="M378.93455,672.50894l3.76882,-37.61572c0,0 3.90757,-16.80386 17.64628,-15.23428c14.55181,1.66247 12.61973,18.58788 12.61973,18.58788l-3.76882,37.61573z"/><path d="M418.20515,676.54194l3.76882,-37.61572c0,0 3.90757,-16.80386 17.64628,-15.23428c14.55181,1.66247 12.61973,18.58788 12.61973,18.58788l-3.76882,37.61573z"/><path d="M452.85746,669.79345l3.37499,-33.68506c0,0 3.49925,-15.04793 15.80232,-13.64237c13.03122,1.48875 11.30103,16.64553 11.30103,16.64553l-3.37499,33.68506z"/><path d="M486.8949,664.77158l3.42422,-34.17639c0,0 3.55029,-15.26743 16.03282,-13.84136c13.22129,1.51046 11.46587,16.88832 11.46587,16.88832l-3.42422,34.17639z"/><path d="M522.97925,645.16398l2.80887,-28.03472c0,0 2.91228,-12.52379 13.15164,-11.354c10.84535,1.23902 9.4054,13.8534 9.4054,13.8534l-2.80887,28.03472z"/><path d="M550.20163,612.28831l2.63657,-26.31506c0,0 2.73364,-11.75557 12.34491,-10.65754c10.1801,1.16302 8.82846,13.00363 8.82846,13.00363l-2.63657,26.31505z"/><path d="M576.4945,583.10833l1.87354,-18.69938c0,0 1.94252,-8.35347 8.77225,-7.57321c7.23395,0.82644 6.27347,9.24032 6.27347,9.24032l-1.87354,18.69938z"/><path d="M316.90534,649.01597l2.80887,-28.03472c0,0 2.91229,-12.5238 13.15164,-11.354c10.84535,1.23902 9.40539,13.8534 9.40539,13.8534l-2.80887,28.03472z"/><path d="M290.8815,631.19307l2.58734,-25.82372c0,0 2.6826,-11.53609 12.11442,-10.45855c9.99002,1.1413 8.66362,12.76083 8.66362,12.76083l-2.58735,25.82373z"/><path d="M267.79674,600.85693l2.16891,-21.64738c0,0 2.24876,-9.67041 10.15521,-8.76715c8.37439,0.95672 7.2625,10.69709 7.2625,10.69709l-2.16891,21.64739z"/><path d="M252.2842,570.98021l1.99661,-19.92771c0,0 2.07012,-8.90219 9.34848,-8.07068c7.70912,0.88073 6.68556,9.84731 6.68556,9.84731l-1.99661,19.92772z"/><path d="M233.07541,549.52225l1.99661,-19.92771c0,0 2.07012,-8.90219 9.34848,-8.07068c7.70912,0.88073 6.68556,9.84731 6.68556,9.84731l-1.99661,19.92772z"/><path d="M216.11586,525.06534l1.99661,-19.92771c0,0 2.07012,-8.90219 9.34848,-8.07068c7.70912,0.88073 6.68556,9.84731 6.68556,9.84731l-1.99661,19.92772z"/><path d="M597.02169,564.64931l1.87354,-18.69938c0,0 1.94252,-8.35347 8.77225,-7.57321c7.23395,0.82644 6.27347,9.24032 6.27347,9.24032l-1.87354,18.69938z"/><path d="M617.54889,546.19027l1.87354,-18.69938c0,0 1.94252,-8.35347 8.77225,-7.57321c7.23395,0.82644 6.27347,9.24032 6.27347,9.24032l-1.87354,18.69938z"/></g><g stroke="none" stroke-width="0" stroke-linecap="butt"><path d="M450.26541,442.42143c-0.73931,14.50913 -12.03134,25.72627 -25.22146,25.05417c-13.19012,-0.67209 -23.28351,-12.97891 -22.54419,-27.48804c0.73931,-14.50913 12.03134,-25.72627 25.22146,-25.05416c13.19012,0.67209 23.28351,12.97891 22.54419,27.48804z" fill="url(#color-2)"/><path d="M444.49366,442.70438c-0.4806,10.0245 -8.01147,17.70418 -18.18781,17.15306c-10.17633,-0.55112 -18.0363,-9.12435 -17.55571,-19.14884c0.4806,-10.0245 9.11975,-17.70418 19.29608,-17.15305c10.17633,0.55113 16.92803,9.12434 16.44744,19.14884z" fill="#000000"/></g></g></g></svg>