<svg version="1.1" xmlns="http://www.w3.org/2000/svg" xmlns:xlink="http://www.w3.org/1999/xlink" width="489.15554" height="352.91889" viewBox="0,0,489.15554,352.91889"><defs><radialGradient cx="230" cy="247.80141" r="217.71772" gradientUnits="userSpaceOnUse" id="color-1"><stop offset="0" stop-color="#900000"/><stop offset="1" stop-color="#150300"/></radialGradient><linearGradient x1="209.92849" y1="139.31727" x2="209.92849" y2="200.45765" gradientUnits="userSpaceOnUse" id="color-2"><stop offset="0" stop-color="#000000"/><stop offset="1" stop-color="#1d1d1d"/></linearGradient><linearGradient x1="321.7945" y1="165.5747" x2="427.64621" y2="165.5747" gradientUnits="userSpaceOnUse" id="color-3"><stop offset="0" stop-color="#4d4d4d"/><stop offset="1" stop-color="#3d3d3d"/></linearGradient><linearGradient x1="-14.43782" y1="162.97164" x2="94.85085" y2="162.97164" gradientUnits="userSpaceOnUse" id="color-4"><stop offset="0" stop-color="#2b2424"/><stop offset="1" stop-color="#666666"/></linearGradient><linearGradient x1="356.37881" y1="164.25549" x2="398.47892" y2="164.25549" gradientUnits="userSpaceOnUse" id="color-5"><stop offset="0" stop-color="#161616"/><stop offset="1" stop-color="#000000"/></linearGradient><radialGradient cx="103" cy="128.54648" r="71.5" gradientUnits="userSpaceOnUse" id="color-6"><stop offset="0" stop-color="#838383"/><stop offset="1" stop-color="#1a1a1a"/></radialGradient><radialGradient cx="314" cy="128.04648" r="70" gradientUnits="userSpaceOnUse" id="color-7"><stop offset="0" stop-color="#7d7d7d"/><stop offset="1" stop-color="#1a1a1a"/></radialGradient><radialGradient cx="208" cy="97.04648" r="96.5" gradientUnits="userSpaceOnUse" id="color-8"><stop offset="0" stop-color="#9d9d9d"/><stop offset="1" stop-color="#3e3e3e"/></radialGradient><radialGradient cx="208.5" cy="130.04648" r="97" gradientUnits="userSpaceOnUse" id="color-9"><stop offset="0" stop-color="#a29100"/><stop offset="1" stop-color="#735900"/></radialGradient><linearGradient x1="208" y1="55.55931" x2="208" y2="98.55931" gradientUnits="userSpaceOnUse" id="color-10"><stop offset="0" stop-color="#202020"/><stop offset="1" stop-color="#494949"/></linearGradient><linearGradient x1="132.5" y1="71.5593" x2="150.5" y2="71.5593" gradientUnits="userSpaceOnUse" id="color-11"><stop offset="0" stop-color="#818181"/><stop offset="1" stop-color="#ffffff"/></linearGradient><linearGradient x1="173.5" y1="71.5593" x2="191.5" y2="71.5593" gradientUnits="userSpaceOnUse" id="color-12"><stop offset="0" stop-color="#818181"/><stop offset="1" stop-color="#ffffff"/></linearGradient><linearGradient x1="232.5" y1="71.5593" x2="250.5" y2="71.5593" gradientUnits="userSpaceOnUse" id="color-13"><stop offset="0" stop-color="#ffffff"/><stop offset="1" stop-color="#818181"/></linearGradient><linearGradient x1="268.5" y1="71.5593" x2="286.5" y2="71.5593" gradientUnits="userSpaceOnUse" id="color-14"><stop offset="0" stop-color="#ffffff"/><stop offset="1" stop-color="#818181"/></linearGradient><radialGradient cx="211" cy="74.70191" r="49.5" gradientUnits="userSpaceOnUse" id="color-15"><stop offset="0" stop-color="#ffffff"/><stop offset="1" stop-color="#ffffff" stop-opacity="0"/></radialGradient></defs><g transform="translate(0.43782,-8.41124)"><g data-paper-data="{&quot;isPaintingLayer&quot;:true}" fill-rule="nonzero" stroke-linecap="butt" stroke-linejoin="miter" stroke-miterlimit="10" stroke-dasharray="" stroke-dashoffset="0" style="mix-blend-mode: normal"><path d="M1.28228,353.58876l82,-172.5747h229.43544l176,167.5747z" fill="url(#color-1)" stroke="none" stroke-width="0"/><path d="M93.25104,200.45765v-61.14038h233.3549v61.14038z" fill="url(#color-2)" stroke="none" stroke-width="0"/><path d="M321.7945,199.25479v-141.93752l160.85171,-35.44863l-1,322.41211z" fill="url(#color-3)" stroke="none" stroke-width="0"/><path d="M2.56218,361.33013l-3,-352.91889l95.28867,48.44584v139.128z" data-paper-data="{&quot;index&quot;:null}" fill="url(#color-4)" stroke="none" stroke-width="0"/><path d="M356.37881,231.61567v-163.58901l42.10011,-7.21716l-1.20286,206.89198z" fill="url(#color-5)" stroke="none" stroke-width="0"/><path d="M94.5,200.04648v-143h17v143z" fill="url(#color-6)" stroke="none" stroke-width="0"/><path d="M305.5,198.04648v-140h17v140z" fill="url(#color-7)" stroke="none" stroke-width="0"/><path d="M111.5,136.04648v-78h193v78z" fill="url(#color-8)" stroke="#000000" stroke-width="0.5"/><path d="M111.5,139.04648v-18h194v18z" fill="url(#color-9)" stroke="#000000" stroke-width="0.5"/><text transform="translate(115.5,117.91124) scale(0.5,0.5)" font-size="40" xml:space="preserve" fill="#000000" fill-rule="nonzero" stroke="none" stroke-width="1" stroke-linecap="butt" stroke-linejoin="miter" stroke-miterlimit="10" stroke-dasharray="" stroke-dashoffset="0" font-family="Pixel" font-weight="normal" text-anchor="start" style="mix-blend-mode: normal"><tspan x="0" dy="0">EXPERIMENT 42</tspan></text><path d="M111.5,98.55931v-43h193v43z" fill="url(#color-10)" stroke="none" stroke-width="0"/><path d="M132.5,98.55931v-54h18v54z" fill="url(#color-11)" stroke="none" stroke-width="0"/><path d="M173.5,98.55931v-54h18v54z" fill="url(#color-12)" stroke="none" stroke-width="0"/><path d="M232.5,98.55931v-54h18v54z" fill="url(#color-13)" stroke="none" stroke-width="0"/><path d="M268.5,98.55931v-54h18v54z" fill="url(#color-14)" stroke="none" stroke-width="0"/><path d="M196.5,94.20191v-38h30v38z" fill="#ffffff" stroke="none" stroke-width="0"/><path d="M260.5,74.70191c0,26.23353 -22.1619,47.5 -49.5,47.5c-27.3381,0 -49.5,-21.26647 -49.5,-47.5c0,-26.23353 22.1619,-47.5 49.5,-47.5c27.3381,0 49.5,21.26647 49.5,47.5z" fill="url(#color-15)" stroke="none" stroke-width="0"/></g></g></svg>