<svg version="1.1" xmlns="http://www.w3.org/2000/svg" xmlns:xlink="http://www.w3.org/1999/xlink" width="565.1882" height="355.53366" viewBox="0,0,565.1882,355.53366"><defs><radialGradient cx="230" cy="247.80142" r="217.71772" gradientUnits="userSpaceOnUse" id="color-1"><stop offset="0" stop-color="#900000"/><stop offset="1" stop-color="#150300"/></radialGradient><linearGradient x1="209.92849" y1="139.31728" x2="209.92849" y2="200.45766" gradientUnits="userSpaceOnUse" id="color-2"><stop offset="0" stop-color="#000000"/><stop offset="1" stop-color="#0e0e0e"/></linearGradient><linearGradient x1="-14.43782" y1="162.97165" x2="94.85085" y2="162.97165" gradientUnits="userSpaceOnUse" id="color-3"><stop offset="0" stop-color="#131010"/><stop offset="1" stop-color="#4d4d4d"/></linearGradient><linearGradient x1="321.7945" y1="165.57471" x2="427.64621" y2="165.57471" gradientUnits="userSpaceOnUse" id="color-4"><stop offset="0" stop-color="#393939"/><stop offset="1" stop-color="#2b2b2b"/></linearGradient><linearGradient x1="356.37881" y1="164.2555" x2="398.47892" y2="164.2555" gradientUnits="userSpaceOnUse" id="color-5"><stop offset="0" stop-color="#161616"/><stop offset="1" stop-color="#000000"/></linearGradient><linearGradient x1="361" y1="150.91125" x2="401" y2="150.91125" gradientUnits="userSpaceOnUse" id="color-6"><stop offset="0" stop-color="#646464"/><stop offset="1" stop-color="#2e2e2e"/></linearGradient><radialGradient cx="103" cy="128.54649" r="71.5" gradientUnits="userSpaceOnUse" id="color-7"><stop offset="0" stop-color="#838383"/><stop offset="1" stop-color="#1a1a1a"/></radialGradient><radialGradient cx="314" cy="129.04649" r="70" gradientUnits="userSpaceOnUse" id="color-8"><stop offset="0" stop-color="#7d7d7d"/><stop offset="1" stop-color="#1a1a1a"/></radialGradient><radialGradient cx="208" cy="97.04649" r="96.5" gradientUnits="userSpaceOnUse" id="color-9"><stop offset="0" stop-color="#9d9d9d"/><stop offset="1" stop-color="#3e3e3e"/></radialGradient><radialGradient cx="208.5" cy="130.04649" r="97" gradientUnits="userSpaceOnUse" id="color-10"><stop offset="0" stop-color="#a29100"/><stop offset="1" stop-color="#735900"/></radialGradient><linearGradient x1="208" y1="55.55932" x2="208" y2="98.55932" gradientUnits="userSpaceOnUse" id="color-11"><stop offset="0" stop-color="#494949"/><stop offset="1" stop-color="#202020"/></linearGradient><linearGradient x1="132.5" y1="71.55931" x2="150.5" y2="71.55931" gradientUnits="userSpaceOnUse" id="color-12"><stop offset="0" stop-color="#818181"/><stop offset="1" stop-color="#ffffff"/></linearGradient><linearGradient x1="173.5" y1="71.55931" x2="191.5" y2="71.55931" gradientUnits="userSpaceOnUse" id="color-13"><stop offset="0" stop-color="#818181"/><stop offset="1" stop-color="#ffffff"/></linearGradient><linearGradient x1="232.5" y1="71.55931" x2="250.5" y2="71.55931" gradientUnits="userSpaceOnUse" id="color-14"><stop offset="0" stop-color="#ffffff"/><stop offset="1" stop-color="#818181"/></linearGradient><linearGradient x1="268.5" y1="71.55931" x2="286.5" y2="71.55931" gradientUnits="userSpaceOnUse" id="color-15"><stop offset="0" stop-color="#ffffff"/><stop offset="1" stop-color="#818181"/></linearGradient><radialGradient cx="209" cy="30.04648" r="96.5" gradientUnits="userSpaceOnUse" id="color-16"><stop offset="0" stop-color="#6d6d6d"/><stop offset="1" stop-color="#252525"/></radialGradient><linearGradient x1="237.1882" y1="30.91125" x2="237.1882" y2="243.91125" gradientUnits="userSpaceOnUse" id="color-17"><stop offset="0" stop-color="#000000"/><stop offset="1" stop-color="#000000" stop-opacity="0"/></linearGradient><linearGradient x1="353" y1="140.91125" x2="360" y2="140.91125" gradientUnits="userSpaceOnUse" id="color-18"><stop offset="0" stop-color="#646464"/><stop offset="1" stop-color="#2e2e2e"/></linearGradient><linearGradient x1="398" y1="160.41125" x2="405" y2="160.41125" gradientUnits="userSpaceOnUse" id="color-19"><stop offset="0" stop-color="#626262"/><stop offset="1" stop-color="#1d1d1d"/></linearGradient><radialGradient cx="211" cy="74.70192" r="49.5" gradientUnits="userSpaceOnUse" id="color-20"><stop offset="0" stop-color="#ffffff"/><stop offset="1" stop-color="#ffffff" stop-opacity="0"/></radialGradient><linearGradient x1="210" y1="68.49136" x2="210" y2="356.49136" gradientUnits="userSpaceOnUse" id="color-21"><stop offset="0" stop-color="#000000" stop-opacity="0"/><stop offset="1" stop-color="#000000"/></linearGradient></defs><g transform="translate(72.5,-5.79648)"><g data-paper-data="{&quot;isPaintingLayer&quot;:true}" fill-rule="nonzero" stroke-linejoin="miter" stroke-miterlimit="10" stroke-dasharray="" stroke-dashoffset="0" style="mix-blend-mode: normal"><path d="M1.28228,353.58877l82,-172.5747h229.43544l176,167.5747z" fill="url(#color-1)" stroke="none" stroke-width="0" stroke-linecap="butt"/><path d="M93.25104,200.45766v-61.14038h233.3549v61.14038z" fill="url(#color-2)" stroke="none" stroke-width="0" stroke-linecap="butt"/><path d="M2.56218,361.33014l-3,-352.91889l95.28867,48.44584v139.128z" data-paper-data="{&quot;index&quot;:null}" fill="url(#color-3)" stroke="none" stroke-width="0" stroke-linecap="butt"/><path d="M321.7945,199.2548v-141.93752l160.85171,-35.44863l-1,322.41211z" fill="url(#color-4)" stroke="none" stroke-width="0" stroke-linecap="butt"/><path d="M356.37881,231.61568v-163.58901l42.10011,-7.21716l-1.20286,206.89198z" fill="url(#color-5)" stroke="none" stroke-width="0" stroke-linecap="butt"/><path d="M361,233.91125v-166h40l-0.51282,180z" fill="url(#color-6)" stroke="none" stroke-width="0" stroke-linecap="butt"/><path d="M94.5,200.04649v-143h17v143z" fill="url(#color-7)" stroke="none" stroke-width="0" stroke-linecap="butt"/><path d="M305.5,200.04649v-142h17v142z" fill="url(#color-8)" stroke="none" stroke-width="0" stroke-linecap="butt"/><path d="M111.5,136.04649v-78h193v78z" fill="url(#color-9)" stroke="#000000" stroke-width="0.5" stroke-linecap="butt"/><path d="M111.5,139.04649v-18h194v18z" fill="url(#color-10)" stroke="#000000" stroke-width="0.5" stroke-linecap="butt"/><text transform="translate(113.5,117.91125) scale(0.54762,0.5)" font-size="40" xml:space="preserve" fill="#000000" fill-rule="nonzero" stroke="none" stroke-width="1" stroke-linecap="butt" stroke-linejoin="miter" stroke-miterlimit="10" stroke-dasharray="" stroke-dashoffset="0" font-family="Pixel" font-weight="normal" text-anchor="start" style="mix-blend-mode: normal"><tspan x="0" dy="0">0-42</tspan></text><path d="M111.5,98.55932v-43h193v43z" fill="url(#color-11)" stroke="none" stroke-width="0" stroke-linecap="butt"/><path d="M132.5,98.55932v-54h18v54z" fill="url(#color-12)" stroke="none" stroke-width="0" stroke-linecap="butt"/><path d="M173.5,98.55932v-54h18v54z" fill="url(#color-13)" stroke="none" stroke-width="0" stroke-linecap="butt"/><path d="M232.5,98.55932v-54h18v54z" fill="url(#color-14)" stroke="none" stroke-width="0" stroke-linecap="butt"/><path d="M268.5,98.55932v-54h18v54z" fill="url(#color-15)" stroke="none" stroke-width="0" stroke-linecap="butt"/><path d="M112.5,54.04648v-48h193v48z" fill="url(#color-16)" stroke="#000000" stroke-width="0.5" stroke-linecap="butt"/><path d="M-18.3118,243.91125v-213h511v213z" fill="url(#color-17)" stroke="none" stroke-width="0" stroke-linecap="butt"/><path d="M353,233.91125v-186h7v186z" fill="url(#color-18)" stroke="#000000" stroke-width="0" stroke-linecap="butt"/><path d="M196.5,94.20192v-38h30v38z" fill="#ffffff" stroke="none" stroke-width="0" stroke-linecap="butt"/><path d="M86,36.0224l5,29.07212l16,63l1,59l-21,51l-9,51l-4,35l-13,27" fill="none" stroke="#000000" stroke-width="12.5" stroke-linecap="round"/><path d="M398,276.91125v-233h7v233z" fill="url(#color-19)" stroke="#000000" stroke-width="0" stroke-linecap="butt"/><path d="M359,44.09452l-5,38l-7,27l-5,11h-16l-7,-22l5,-37" fill="none" stroke="#000000" stroke-width="12.5" stroke-linecap="round"/><path d="M443.1882,13.04406l-5.1882,30.05046l-12,17l-26,2l-25,-15" fill="none" stroke="#000000" stroke-width="12.5" stroke-linecap="round"/><path d="M30.68378,18.00504l15.36165,27.06201l-0.88872,71.56263l11.86735,41.34206l-7.9864,44.47716l3.80233,14.51008" fill="none" stroke="#000000" stroke-width="12.5" stroke-linecap="round"/><path d="M73,31.0224l4,53l-8,19l-5,22.80774l1,15" fill="none" stroke="#000000" stroke-width="12.5" stroke-linecap="round"/><path d="M260.5,74.70192c0,26.23353 -22.1619,47.5 -49.5,47.5c-27.3381,0 -49.5,-21.26647 -49.5,-47.5c0,-26.23353 22.1619,-47.5 49.5,-47.5c27.3381,0 49.5,21.26647 49.5,47.5z" fill="url(#color-20)" stroke="none" stroke-width="0" stroke-linecap="butt"/><path d="M-72.5,356.49136v-288h565v288z" fill="url(#color-21)" stroke="none" stroke-width="0" stroke-linecap="butt"/></g></g></svg>