<svg version="1.1" xmlns="http://www.w3.org/2000/svg" xmlns:xlink="http://www.w3.org/1999/xlink" width="585.06415" height="465.39869" viewBox="0,0,585.06415,465.39869"><defs><linearGradient x1="237.1882" y1="30.91127" x2="237.1882" y2="243.91128" gradientUnits="userSpaceOnUse" id="color-1"><stop offset="0" stop-color="#000000"/><stop offset="1" stop-color="#000000" stop-opacity="0"/></linearGradient><linearGradient x1="-66.71772" y1="320.98526" x2="486.71772" y2="320.98526" gradientUnits="userSpaceOnUse" id="color-2"><stop offset="0" stop-color="#676767"/><stop offset="1" stop-color="#000000"/></linearGradient><linearGradient x1="209.92849" y1="57.31728" x2="209.92849" y2="232.24552" gradientUnits="userSpaceOnUse" id="color-3"><stop offset="0" stop-color="#877272"/><stop offset="1" stop-color="#000000"/></linearGradient><linearGradient x1="402.22036" y1="36.86865" x2="402.22036" y2="310.89715" gradientUnits="userSpaceOnUse" id="color-4"><stop offset="0" stop-color="#877272"/><stop offset="1" stop-color="#000000"/></linearGradient><linearGradient x1="15.70652" y1="14.41126" x2="15.70652" y2="317.53207" gradientUnits="userSpaceOnUse" id="color-5"><stop offset="0" stop-color="#c1c1c1"/><stop offset="1" stop-color="#000000"/></linearGradient><linearGradient x1="138.07769" y1="155.92013" x2="157.07769" y2="155.92013" gradientUnits="userSpaceOnUse" id="color-6"><stop offset="0" stop-color="#626262"/><stop offset="1" stop-color="#1d1d1d"/></linearGradient><linearGradient x1="275.07769" y1="196.15493" x2="292.07769" y2="196.15493" gradientUnits="userSpaceOnUse" id="color-7"><stop offset="0" stop-color="#626262"/><stop offset="1" stop-color="#1d1d1d"/></linearGradient><linearGradient x1="493.51249" y1="193.23522" x2="119.05577" y2="193.23522" gradientUnits="userSpaceOnUse" id="color-8"><stop offset="0" stop-color="#000000"/><stop offset="1" stop-color="#000000" stop-opacity="0"/></linearGradient><linearGradient x1="402.02915" y1="55.64584" x2="402.02915" y2="357.63036" gradientUnits="userSpaceOnUse" id="color-9"><stop offset="0" stop-color="#000000" stop-opacity="0"/><stop offset="1" stop-color="#000000"/></linearGradient><linearGradient x1="83.00987" y1="124.94398" x2="83.00987" y2="314.9486" gradientUnits="userSpaceOnUse" id="color-10"><stop offset="0" stop-color="#000000" stop-opacity="0"/><stop offset="1" stop-color="#000000"/></linearGradient><linearGradient x1="301.55886" y1="199.3641" x2="301.55886" y2="329.40528" gradientUnits="userSpaceOnUse" id="color-11"><stop offset="0" stop-color="#696969"/><stop offset="1" stop-color="#131313"/></linearGradient><linearGradient x1="210" y1="-19.91043" x2="210" y2="356.49139" gradientUnits="userSpaceOnUse" id="color-12"><stop offset="0" stop-color="#000000" stop-opacity="0"/><stop offset="1" stop-color="#000000"/></linearGradient><linearGradient x1="215.59397" y1="58.04201" x2="215.59397" y2="89.73322" gradientUnits="userSpaceOnUse" id="color-13"><stop offset="0" stop-color="#ff0000"/><stop offset="1" stop-color="#ff0000" stop-opacity="0"/></linearGradient><linearGradient x1="5.54062" y1="131.01119" x2="199.71366" y2="291.00917" gradientUnits="userSpaceOnUse" id="color-14"><stop offset="0" stop-color="#939393"/><stop offset="1" stop-color="#939393" stop-opacity="0"/></linearGradient><linearGradient x1="398.36729" y1="193.60345" x2="420.04082" y2="193.60345" gradientUnits="userSpaceOnUse" id="color-15"><stop offset="0" stop-color="#676767"/><stop offset="1" stop-color="#000000"/></linearGradient><linearGradient x1="375.24886" y1="216.60689" x2="383.91827" y2="216.60689" gradientUnits="userSpaceOnUse" id="color-16"><stop offset="0" stop-color="#676767"/><stop offset="1" stop-color="#000000"/></linearGradient><linearGradient x1="125.94611" y1="198.16865" x2="104.27258" y2="198.16865" gradientUnits="userSpaceOnUse" id="color-17"><stop offset="0" stop-color="#000000"/><stop offset="1" stop-color="#676767"/></linearGradient><linearGradient x1="149.06454" y1="165.19502" x2="140.39513" y2="165.19502" gradientUnits="userSpaceOnUse" id="color-18"><stop offset="0" stop-color="#000000"/><stop offset="1" stop-color="#676767"/></linearGradient></defs><g transform="translate(72.5,19.91043)"><g data-paper-data="{&quot;isPaintingLayer&quot;:true}" fill-rule="nonzero" stroke-linejoin="miter" stroke-miterlimit="10" stroke-dasharray="" stroke-dashoffset="0" style="mix-blend-mode: normal"><path d="M-18.3118,243.91128v-213h511v213z" fill="url(#color-1)" stroke="none" stroke-width="0" stroke-linecap="butt"/><path d="M-7.86276,299.14144v-130.04118h474.65032v130.04118z" fill="#000000" stroke="none" stroke-width="0" stroke-linecap="butt"/><path d="M-66.71772,345.58879v-49.20704h553.43544v49.20704z" fill="url(#color-2)" stroke="none" stroke-width="0" stroke-linecap="butt"/><path d="M93.25104,232.24552v-174.92822h233.3549v174.92822z" fill="url(#color-3)" stroke="none" stroke-width="0" stroke-linecap="butt"/><path d="M324.02026,220.94696l-0.05841,-163.75457l158.68436,-20.32372v274.02848z" fill="url(#color-4)" stroke="none" stroke-width="0" stroke-linecap="butt"/><path d="M-63.43782,317.53207v-303.1208l158.28867,43.30298v144.82732z" data-paper-data="{&quot;index&quot;:null}" fill="url(#color-5)" stroke="none" stroke-width="0" stroke-linecap="butt"/><path d="M176.06094,201.24515v-95h79.66021v95z" fill="#000000" stroke="none" stroke-width="0" stroke-linecap="butt"/><path d="M138.07769,255.01398v-198.18771h19v198.18771z" fill="url(#color-6)" stroke="none" stroke-width="0" stroke-linecap="butt"/><path d="M155.07769,114.83015v-9h123v9z" fill="#626262" stroke="none" stroke-width="0" stroke-linecap="butt"/><path d="M275.07769,334.48359v-276.65732h17v276.65732z" fill="url(#color-7)" stroke="none" stroke-width="0" stroke-linecap="butt"/><path d="M119.05577,350.44033v-314.4102h374.45672v314.4102z" data-paper-data="{&quot;index&quot;:null}" fill="url(#color-8)" stroke="none" stroke-width="0" stroke-linecap="butt"/><path d="M291.49414,357.63036v-301.98452h221.07001v301.98452z" fill="url(#color-9)" stroke="none" stroke-width="0" stroke-linecap="butt"/><path d="M-27.16391,314.9486v-190.00461h220.34756v190.00462z" fill="url(#color-10)" stroke="none" stroke-width="0" stroke-linecap="butt"/><path d="M157.06866,332.29508l20.22862,-132.93099h78.02471l173.38824,129.31873z" fill="url(#color-11)" stroke="none" stroke-width="0" stroke-linecap="butt"/><path d="M254.59954,158.90684l168.33109,96.80844l0.72245,69.3553" fill="none" stroke="#676767" stroke-width="2.5" stroke-linecap="round"/><path d="M156.3462,329.40528l18.78373,-171.22089" fill="none" stroke="#676767" stroke-width="2.5" stroke-linecap="round"/><path d="M396.92239,243.74432l0.72245,60.68588" fill="none" stroke="#676767" stroke-width="2.5" stroke-linecap="round"/><path d="M354.18347,216.89932l0.72245,60.68589" fill="none" stroke="#676767" stroke-width="2.5" stroke-linecap="round"/><path d="M333.17523,202.39314l0.72245,60.68588" fill="none" stroke="#676767" stroke-width="2.5" stroke-linecap="round"/><path d="M312.167,192.94412l0.72245,54.18382" fill="none" stroke="#676767" stroke-width="2.5" stroke-linecap="round"/><path d="M294.04856,234.06667l-0.72245,-51.29402" fill="none" stroke="#676767" stroke-width="2.5" stroke-linecap="round"/><path d="M273.76277,171.15627l0.72245,47.68177" fill="none" stroke="#676767" stroke-width="2.5" stroke-linecap="round"/><path d="M261.42395,163.15214l0.72245,41.17971" fill="none" stroke="#676767" stroke-width="2.5" stroke-linecap="round"/><path d="M-72.5,356.49139v-376.40181h565v376.40181z" fill="url(#color-12)" stroke="none" stroke-width="0" stroke-linecap="butt"/><text transform="translate(166.89104,84.85348) scale(0.2641,0.2641)" font-size="40" xml:space="preserve" fill="#ff0000" fill-rule="nonzero" stroke="none" stroke-width="1" stroke-linecap="butt" stroke-linejoin="miter" stroke-miterlimit="10" stroke-dasharray="" stroke-dashoffset="0" font-family="Pixel" font-weight="normal" text-anchor="start" style="mix-blend-mode: normal"><tspan x="0" dy="0">     AUTHORIZED </tspan><tspan x="0" dy="46.15px">PERSONNEL ONLY</tspan></text><path d="M88.07769,203.99614v-146.99612h9v146.99612z" fill="#000000" stroke="none" stroke-width="0" stroke-linecap="butt"/><path d="M156.79843,89.73322v-31.69121h117.59108v31.69121z" fill="url(#color-13)" stroke="none" stroke-width="0" stroke-linecap="butt"/><path d="M38.01256,431.60469l-86.24438,-409.98489l136.70619,36.69277l165.8529,211.04221z" fill="url(#color-14)" stroke="none" stroke-width="0" stroke-linecap="butt"/><path d="M90.07769,62.27084l-131,-34" fill="#ffffff" stroke="#ffffff" stroke-width="15" stroke-linecap="round"/><path d="M376.63661,231.40549l0.72245,60.68588" fill="none" stroke="#676767" stroke-width="2.5" stroke-linecap="round"/><path d="M398.36729,385.90501v-384.6031h21.67353v384.6031z" fill="url(#color-15)" stroke="none" stroke-width="0" stroke-linecap="butt"/><path d="M375.24886,445.48827v-457.76277h8.66941v457.76277z" fill="url(#color-16)" stroke="none" stroke-width="0" stroke-linecap="butt"/><path d="M104.27258,389.4601v-382.5829h21.67353v382.5829z" data-paper-data="{&quot;index&quot;:null}" fill="url(#color-17)" stroke="none" stroke-width="0" stroke-linecap="butt"/><path d="M140.39513,338.387v-346.38395h8.66941v346.38395z" data-paper-data="{&quot;index&quot;:null}" fill="url(#color-18)" stroke="none" stroke-width="0" stroke-linecap="butt"/></g></g></svg>