<svg version="1.1" xmlns="http://www.w3.org/2000/svg" xmlns:xlink="http://www.w3.org/1999/xlink" width="802.85577" height="616.87929" viewBox="0,0,802.85577,616.87929"><defs><linearGradient x1="227.98104" y1="208.88553" x2="227.98104" y2="344.28332" gradientUnits="userSpaceOnUse" id="color-1"><stop offset="0" stop-color="#303030"/><stop offset="1" stop-color="#000000"/></linearGradient><radialGradient cx="255.25378" cy="124.87308" r="100.25638" gradientUnits="userSpaceOnUse" id="color-2"><stop offset="0" stop-color="#000000"/><stop offset="1" stop-color="#3b3b3b"/></radialGradient><linearGradient x1="345.97483" y1="181.56551" x2="436.92908" y2="181.56551" gradientUnits="userSpaceOnUse" id="color-3"><stop offset="0" stop-color="#1e1e1e"/><stop offset="1" stop-color="#000000"/></linearGradient><linearGradient x1="12.45251" y1="191.10271" x2="155.60047" y2="191.10271" gradientUnits="userSpaceOnUse" id="color-4"><stop offset="0" stop-color="#000000"/><stop offset="1" stop-color="#454545"/></linearGradient><linearGradient x1="116.27079" y1="158.06824" x2="173.36757" y2="158.06824" gradientUnits="userSpaceOnUse" id="color-5"><stop offset="0" stop-color="#004369"/><stop offset="1" stop-color="#0d0ff4"/></linearGradient><linearGradient x1="68.09977" y1="179.22333" x2="125.19656" y2="179.22333" gradientUnits="userSpaceOnUse" id="color-6"><stop offset="0" stop-color="#690000"/><stop offset="1" stop-color="#cd0606"/></linearGradient><linearGradient x1="292.55681" y1="379.23122" x2="442.05295" y2="379.23122" gradientUnits="userSpaceOnUse" id="color-7"><stop offset="0" stop-color="#a3a3a3"/><stop offset="1" stop-color="#1a1a1a"/></linearGradient><linearGradient x1="116.51197" y1="113.43709" x2="173.60876" y2="113.43709" gradientUnits="userSpaceOnUse" id="color-8"><stop offset="0" stop-color="#131313"/><stop offset="1" stop-color="#9d9d9d"/></linearGradient><linearGradient x1="110.43789" y1="159.51651" x2="184.14779" y2="159.51651" gradientUnits="userSpaceOnUse" id="color-9"><stop offset="0" stop-color="#131313"/><stop offset="1" stop-color="#9d9d9d"/></linearGradient><linearGradient x1="108.17072" y1="47.20356" x2="181.88062" y2="47.20356" gradientUnits="userSpaceOnUse" id="color-10"><stop offset="0" stop-color="#131313"/><stop offset="1" stop-color="#9d9d9d"/></linearGradient><linearGradient x1="191.51865" y1="318.97169" x2="-2.6187" y2="318.97169" gradientUnits="userSpaceOnUse" id="color-11"><stop offset="0" stop-color="#a3a3a3"/><stop offset="1" stop-color="#1a1a1a"/></linearGradient><linearGradient x1="146.51133" y1="56.81723" x2="146.51133" y2="107.3888" gradientUnits="userSpaceOnUse" id="color-12"><stop offset="0" stop-color="#000000"/><stop offset="1" stop-color="#000000" stop-opacity="0"/></linearGradient><linearGradient x1="145.78888" y1="169.00047" x2="145.78888" y2="214.51488" gradientUnits="userSpaceOnUse" id="color-13"><stop offset="0" stop-color="#000000"/><stop offset="1" stop-color="#000000" stop-opacity="0"/></linearGradient><linearGradient x1="380.80106" y1="142.94077" x2="422.32777" y2="142.94077" gradientUnits="userSpaceOnUse" id="color-14"><stop offset="0" stop-color="#a3a3a3"/><stop offset="1" stop-color="#1a1a1a"/></linearGradient><linearGradient x1="67.90893" y1="134.39128" x2="125.00572" y2="134.39128" gradientUnits="userSpaceOnUse" id="color-15"><stop offset="0" stop-color="#131313"/><stop offset="1" stop-color="#9d9d9d"/></linearGradient><linearGradient x1="96.71937" y1="85.04997" x2="96.71937" y2="135.62154" gradientUnits="userSpaceOnUse" id="color-16"><stop offset="0" stop-color="#000000"/><stop offset="1" stop-color="#000000" stop-opacity="0"/></linearGradient><linearGradient x1="95.99692" y1="197.23321" x2="95.99692" y2="242.74763" gradientUnits="userSpaceOnUse" id="color-17"><stop offset="0" stop-color="#000000"/><stop offset="1" stop-color="#000000" stop-opacity="0"/></linearGradient><linearGradient x1="60.43789" y1="188.51651" x2="134.14779" y2="188.51651" gradientUnits="userSpaceOnUse" id="color-18"><stop offset="0" stop-color="#131313"/><stop offset="1" stop-color="#9d9d9d"/></linearGradient><linearGradient x1="58.17072" y1="76.20356" x2="131.88062" y2="76.20356" gradientUnits="userSpaceOnUse" id="color-19"><stop offset="0" stop-color="#131313"/><stop offset="1" stop-color="#9d9d9d"/></linearGradient><linearGradient x1="38.19362" y1="254.73947" x2="38.19362" y2="337.79288" gradientUnits="userSpaceOnUse" id="color-20"><stop offset="0" stop-color="#f7b874"/><stop offset="1" stop-color="#996400"/></linearGradient><linearGradient x1="43.90355" y1="232.93795" x2="43.90355" y2="334.67838" gradientUnits="userSpaceOnUse" id="color-21"><stop offset="0" stop-color="#f7b874"/><stop offset="1" stop-color="#996400"/></linearGradient><linearGradient x1="280.21633" y1="29.20197" x2="280.21633" y2="80.76254" gradientUnits="userSpaceOnUse" id="color-22"><stop offset="0" stop-color="#5b442b"/><stop offset="1" stop-color="#b68756"/></linearGradient><linearGradient x1="114.61203" y1="-4.54785" x2="114.61203" y2="68.17969" gradientUnits="userSpaceOnUse" id="color-23"><stop offset="0" stop-color="#5b442b"/><stop offset="1" stop-color="#b68756"/></linearGradient><linearGradient x1="259.20453" y1="7.29272" x2="259.20453" y2="68.62266" gradientUnits="userSpaceOnUse" id="color-24"><stop offset="0" stop-color="#5b442b"/><stop offset="1" stop-color="#b68756"/></linearGradient><linearGradient x1="352.75812" y1="-11.26031" x2="352.75812" y2="68.52289" gradientUnits="userSpaceOnUse" id="color-25"><stop offset="0" stop-color="#5b442b"/><stop offset="1" stop-color="#b68756"/></linearGradient><linearGradient x1="240" y1="25.92859" x2="240" y2="334.07141" gradientUnits="userSpaceOnUse" id="color-26"><stop offset="0" stop-color="#000000"/><stop offset="1" stop-color="#000000" stop-opacity="0"/></linearGradient><linearGradient x1="716.02005" y1="160.99864" x2="200.38851" y2="160.99864" gradientUnits="userSpaceOnUse" id="color-27"><stop offset="0" stop-color="#000000"/><stop offset="1" stop-color="#000000" stop-opacity="0"/></linearGradient><linearGradient x1="210" y1="-19.91044" x2="210" y2="356.49137" gradientUnits="userSpaceOnUse" id="color-28"><stop offset="0" stop-color="#000000" stop-opacity="0"/><stop offset="1" stop-color="#000000"/></linearGradient><linearGradient x1="-86.58572" y1="181.94972" x2="429.04582" y2="181.94972" gradientUnits="userSpaceOnUse" id="color-29"><stop offset="0" stop-color="#000000"/><stop offset="1" stop-color="#000000" stop-opacity="0"/></linearGradient><linearGradient x1="334.80137" y1="218.47068" x2="334.80137" y2="423.31061" gradientUnits="userSpaceOnUse" id="color-30"><stop offset="0" stop-color="#ffffff"/><stop offset="1" stop-color="#ffffff" stop-opacity="0"/></linearGradient><linearGradient x1="174.5871" y1="200.31438" x2="98.33476" y2="390.43271" gradientUnits="userSpaceOnUse" id="color-31"><stop offset="0" stop-color="#ffffff"/><stop offset="1" stop-color="#ffffff" stop-opacity="0"/></linearGradient><radialGradient cx="250.94763" cy="147.13847" r="117.66128" gradientUnits="userSpaceOnUse" id="color-32"><stop offset="0" stop-color="#ffffff"/><stop offset="1" stop-color="#ffffff" stop-opacity="0"/></radialGradient><radialGradient cx="249.51515" cy="143.44006" r="117.66127" gradientUnits="userSpaceOnUse" id="color-33"><stop offset="0" stop-color="#ffffff"/><stop offset="1" stop-color="#ffffff" stop-opacity="0"/></radialGradient><radialGradient cx="253.67875" cy="143.11059" r="117.66128" gradientUnits="userSpaceOnUse" id="color-34"><stop offset="0" stop-color="#ffffff"/><stop offset="1" stop-color="#ffffff" stop-opacity="0"/></radialGradient><radialGradient cx="249.66202" cy="140.75054" r="117.66128" gradientUnits="userSpaceOnUse" id="color-35"><stop offset="0" stop-color="#ffffff"/><stop offset="1" stop-color="#ffffff" stop-opacity="0"/></radialGradient><radialGradient cx="251.37399" cy="131.47344" r="4.9336" gradientUnits="userSpaceOnUse" id="color-36"><stop offset="0" stop-color="#0d0d0d"/><stop offset="1" stop-color="#000000"/></radialGradient><radialGradient cx="264.60757" cy="143.5308" r="4.9336" gradientUnits="userSpaceOnUse" id="color-37"><stop offset="0" stop-color="#0d0d0d"/><stop offset="1" stop-color="#000000"/></radialGradient><radialGradient cx="251.37607" cy="157.9406" r="4.9336" gradientUnits="userSpaceOnUse" id="color-38"><stop offset="0" stop-color="#0d0d0d"/><stop offset="1" stop-color="#000000"/></radialGradient><radialGradient cx="238.14458" cy="144.12099" r="4.9336" gradientUnits="userSpaceOnUse" id="color-39"><stop offset="0" stop-color="#0d0d0d"/><stop offset="1" stop-color="#000000"/></radialGradient><linearGradient x1="249.46283" y1="170.53565" x2="249.46283" y2="208.17486" gradientUnits="userSpaceOnUse" id="color-40"><stop offset="0" stop-color="#000000"/><stop offset="1" stop-color="#000000" stop-opacity="0"/></linearGradient><linearGradient x1="250.93416" y1="120.25305" x2="250.93416" y2="82.61384" gradientUnits="userSpaceOnUse" id="color-41"><stop offset="0" stop-color="#000000"/><stop offset="1" stop-color="#000000" stop-opacity="0"/></linearGradient><linearGradient x1="274.76745" y1="143.94314" x2="312.37929" y2="145.3784" gradientUnits="userSpaceOnUse" id="color-42"><stop offset="0" stop-color="#000000"/><stop offset="1" stop-color="#000000" stop-opacity="0"/></linearGradient><linearGradient x1="226.19547" y1="143.24225" x2="188.63634" y2="140.78836" gradientUnits="userSpaceOnUse" id="color-43"><stop offset="0" stop-color="#000000"/><stop offset="1" stop-color="#000000" stop-opacity="0"/></linearGradient></defs><g transform="translate(86.83572,141.09847)"><g data-paper-data="{&quot;isPaintingLayer&quot;:true}" fill-rule="nonzero" stroke-linejoin="miter" stroke-miterlimit="10" stroke-dasharray="" stroke-dashoffset="0" style="mix-blend-mode: normal"><path d="M15.31573,344.28332v-135.39779h425.33062v135.3978z" fill="url(#color-1)" stroke="none" stroke-width="0" stroke-linecap="butt"/><path d="M154.9974,218.03467v-186.32317h200.51276v186.32318z" fill="url(#color-2)" stroke="none" stroke-width="0" stroke-linecap="butt"/><path d="M329.61838,141.50382c0,44.10455 -35.40835,79.85834 -79.08676,79.85834c-43.67841,0 -79.08676,-35.7538 -79.08676,-79.85834c0,-44.10454 35.40835,-79.85834 79.08676,-79.85834c43.67841,0 79.08676,35.7538 79.08676,79.85834z" fill="#000000" stroke="none" stroke-width="0" stroke-linecap="butt"/><g fill="#686868" stroke="none" stroke-width="0" stroke-linecap="butt"><path d="M235.22454,127.78879v-66.03914h29.76412v66.03914z"/><path d="M168.57229,126.35911l65.99581,2.39164l-1.07792,29.7446l-65.99582,-2.39165z"/><path d="M279.29492,143.95531c0,15.41088 -12.90941,27.90385 -28.83398,27.90385c-15.92457,0 -28.83399,-12.49298 -28.83399,-27.90385c0,-15.41088 12.90942,-27.90386 28.83399,-27.90386c15.92457,0 28.83398,12.49298 28.83398,27.90386z"/><path d="M235.57888,218.36561v-66.03914h29.76412v66.03914z"/><path d="M327.98576,161.23324l-66.02054,-1.56682l0.70617,-29.75574l66.02055,1.56682z"/></g><path d="M345.97483,212.40719l-3.1145,-176.69319l93.03058,-31.18332l1.03816,294.89409z" fill="url(#color-3)" stroke="none" stroke-width="0" stroke-linecap="butt"/><path d="M319.88954,94.79108v-33.94943h229.10293v33.94943z" fill="#3f3f3f" stroke="none" stroke-width="0" stroke-linecap="butt"/><path d="M16.3104,343.32263l-5.93423,-353.23372l142.10979,39.62074l3.11451,186.86095z" data-paper-data="{&quot;index&quot;:null}" fill="url(#color-4)" stroke="#000000" stroke-width="4" stroke-linecap="butt"/><path d="M367.20442,237.86333v-140.56565l36.17498,-6.20142l-1.03357,177.77421z" fill="#000000" stroke="none" stroke-width="0" stroke-linecap="butt"/><path d="M116.27079,291.85237v-267.56823h57.09679v267.56824z" fill="url(#color-5)" stroke="none" stroke-width="0" stroke-linecap="butt"/><path d="M68.09977,355.3283v-352.20994h57.09679v352.20994z" fill="url(#color-6)" stroke="none" stroke-width="0" stroke-linecap="butt"/><path d="M353.29906,95.00096l-33.94894,0.18471l-1.2846,-236.09943l33.94894,-0.18471z" fill="#3f3f3f" stroke="none" stroke-width="0" stroke-linecap="butt"/><path d="M176.66862,98.86653l-33.17701,-7.20078l50.07815,-230.73095l33.17701,7.20078z" fill="#3f3f3f" stroke="none" stroke-width="0" stroke-linecap="butt"/><path d="M-58.9094,97.16642v-33.94943h236.10293v33.94944z" fill="#3f3f3f" stroke="none" stroke-width="0" stroke-linecap="butt"/><path d="M292.55681,475.78082v-193.09919h149.49614v193.09919z" fill="url(#color-7)" stroke="none" stroke-width="0" stroke-linecap="butt"/><path d="M116.51197,251.12985v-275.38553h57.09678v275.38553z" fill="url(#color-8)" stroke="none" stroke-width="0" stroke-linecap="butt"/><path d="M110.43789,168.34093v-17.64885h73.7099v17.64885z" fill="url(#color-9)" stroke="none" stroke-width="0" stroke-linecap="butt"/><path d="M108.17072,56.02799v-17.64885h73.70991v17.64885z" fill="url(#color-10)" stroke="none" stroke-width="0" stroke-linecap="butt"/><path d="M-2.6187,363.19306v-88.44273h194.13735v88.44273z" data-paper-data="{&quot;index&quot;:null}" fill="url(#color-11)" stroke="none" stroke-width="0" stroke-linecap="butt"/><path d="M120.14187,107.3888v-50.57157h52.73893v50.57157z" fill="url(#color-12)" stroke="none" stroke-width="0" stroke-linecap="butt"/><path d="M118.69697,214.51488v-45.51441h54.18383v45.51441z" fill="url(#color-13)" stroke="none" stroke-width="0" stroke-linecap="butt"/><path d="M380.80106,284.13157v-282.3816h41.5267v282.3816z" fill="url(#color-14)" stroke="none" stroke-width="0" stroke-linecap="butt"/><path d="M67.90893,272.08405v-275.38553h57.09679v275.38553z" fill="url(#color-15)" stroke="none" stroke-width="0" stroke-linecap="butt"/><path d="M70.34991,135.62154v-50.57157h52.73892v50.57157z" fill="url(#color-16)" stroke="none" stroke-width="0" stroke-linecap="butt"/><path d="M68.90501,242.74763v-45.51441h54.18383v45.51441z" fill="url(#color-17)" stroke="none" stroke-width="0" stroke-linecap="butt"/><path d="M60.43789,197.34093v-17.64885h73.7099v17.64885z" fill="url(#color-18)" stroke="none" stroke-width="0" stroke-linecap="butt"/><path d="M58.17072,85.02799v-17.64885h73.70991v17.64885z" fill="url(#color-19)" stroke="none" stroke-width="0" stroke-linecap="butt"/><g fill="none" stroke-width="10.5" stroke-linecap="round"><path d="M-8.00483,254.73947h92.39692v83.05342" stroke="url(#color-20)"/><path d="M-11.11934,232.93795l110.04577,1.03817l-1.03816,100.70226" stroke="url(#color-21)"/></g><g fill="none" stroke-linecap="round"><path d="M333.73605,29.20197l0.93894,51.56057l-107.0394,-0.54274l-1.87789,-39.07748" stroke="url(#color-22)" stroke-width="10.5"/><path d="M191.10298,-4.54785l0.32441,72.72754l-150.9819,-0.76556l-1.76588,-55.11982" stroke="url(#color-23)" stroke-width="10.5"/><path d="M322.86482,7.29273l1.11684,61.32994l-127.32055,-0.64558l-0.2337,-46.48164" stroke="url(#color-24)" stroke-width="6.5"/><path d="M428.24907,-11.2603l1.3244,79.78319l-150.98189,-0.83982l-0.88295,-60.46727" stroke="url(#color-25)" stroke-width="18.5"/></g><path d="M-17.81577,334.07141v-308.14282h515.63154v308.14282z" fill="url(#color-26)" stroke="#ffffff" stroke-width="0.5" stroke-linecap="butt"/><path d="M716.02005,6.92723v308.14282h-515.63154v-308.14282z" data-paper-data="{&quot;index&quot;:null}" fill="url(#color-27)" stroke="none" stroke-width="0" stroke-linecap="butt"/><path d="M-72.5,356.49137v-376.40181h565v376.40181z" fill="url(#color-28)" stroke="none" stroke-width="0" stroke-linecap="butt"/><path d="M429.04582,27.87831v308.14282h-515.63154v-308.14282z" data-paper-data="{&quot;index&quot;:null}" fill="url(#color-29)" stroke="#ffffff" stroke-width="0.5" stroke-linecap="butt"/><path d="M293.06426,367.50539l-26.69002,-149.91763c0,0 32.83466,1.96767 52.29689,5.26152c20.53753,3.47585 58.95238,22.99226 58.95238,22.99226l3.05998,2.51821c0,0 1.24756,36.3239 -0.35599,35.79886c-2.00984,-0.65808 -87.32106,-0.66968 -87.4262,-0.9279c-0.08745,-0.21478 0.16296,84.27469 0.16296,84.27469z" fill="url(#color-30)" stroke="none" stroke-width="0" stroke-linecap="butt"/><path d="M191.62416,274.17739l-16.23173,-0.48445c0,0 0.1301,-48.36394 -0.97498,-48.7716c1.02152,-0.28685 62.24181,-7.01765 62.24181,-7.01765l-31.31667,144.10008c0,0 -15.56437,-45.34691 -11.70909,-10.50041c0.20018,1.80934 -2.00934,-77.32596 -2.00934,-77.32596z" data-paper-data="{&quot;index&quot;:null}" fill="url(#color-31)" stroke="none" stroke-width="0" stroke-linecap="butt"/><g stroke="none" stroke-width="0" stroke-linecap="butt"><path d="M235.6005,214.10773c0,14.05951 -8.21681,47.00534 -8.90668,57.72897c-2.41045,37.46927 -5.2143,34.35377 -55.73726,34.35377c-29.85613,0 7.79443,-41.30881 2.81483,-84.19424c-0.32978,-2.84014 -1.05622,-53.34816 0.17084,-53.68741c0.38645,-0.06283 8.9443,0.38873 9.09498,0.38557c1.05812,-0.02219 0.60773,-10.16147 0.79466,-9.65703c-0.00689,0.33661 33.14295,-1.66748 41.07216,-1.66748c1.25284,0 2.37531,3.69618 4.81082,6.45247c1.47931,1.67416 4.65867,4.01277 5.24615,4.29921c0.82853,0.40397 0.63951,28.65479 0.63951,45.98617z" fill="url(#color-32)"/><path d="M173.36773,125.29592c0.33282,-0.42318 0.42825,-51.67162 0.42825,-51.67162l47.45601,-1.24457l0.41374,11.89064l14.59466,0.32665c0,0 0.61954,29.11132 0.98515,33.69533c0.0996,1.24887 -3.49562,2.66167 -6.04956,5.3086c-1.55124,1.60774 -3.62968,4.96296 -3.8685,5.57135c-0.33682,0.85804 -36.68322,-5.25431 -53.95974,-3.87638z" fill="url(#color-33)"/><path d="M479.8285,191.58066c0,0 -208.39073,90.80657 -208.93629,85.87236c-1.42531,-12.89094 -5.93391,-100.70308 -6.1797,-108.62848c-0.03884,-1.25224 3.62077,-2.48874 6.30025,-5.00851c1.6275,-1.5305 3.86644,-4.78081 4.13452,-5.37689c0.37809,-0.84066 56.15675,4.06286 56.15675,4.06286z" fill="url(#color-34)"/><path d="M340.6082,87.25823c0,0 1.75523,-6.19858 -1.70157,-11.88795c-15.59474,-25.66659 -58.21196,-93.67174 -9.25353,-93.67174c64.98253,0 50.80174,148.08907 50.80174,148.08907c0,0 -96.82,0.73152 -104.74921,0.73152c-1.25284,0 -2.37532,-3.69617 -4.81081,-6.45247c-1.47931,-1.67416 -4.65867,-4.01277 -5.24615,-4.29921c-0.82854,-0.40398 0.04132,-33.73119 0.04132,-33.73119z" data-paper-data="{&quot;index&quot;:null}" fill="url(#color-35)"/></g><path d="M174.06164,150.86091v-76.93405" fill="none" stroke="#ffffff" stroke-width="0.5" stroke-linecap="round"/><path d="M183.59329,169.92421l-0.68083,-19.74414" fill="none" stroke="#ffffff" stroke-width="0.5" stroke-linecap="round"/><path d="M174.74247,263.87906l-2.0425,-94.63568" fill="none" stroke="#ffffff" stroke-width="0.5" stroke-linecap="round"/><path d="M124.80568,178.8399l-0.72245,-93.55042" fill="none" stroke="#ffffff" stroke-width="0.5" stroke-linecap="round"/><path d="M133.65651,178.15907l0.68083,19.74414" fill="none" stroke="#ffffff" stroke-width="0.5" stroke-linecap="round"/><path d="M123.44402,197.22237l2.0425,77.40143" fill="none" stroke="#ffffff" stroke-width="0.5" stroke-linecap="round"/><path d="M378.5221,78.9869l1.4096,202.98236" fill="none" stroke="#ffffff" stroke-width="0.5" stroke-linecap="round"/><path d="M105.0201,274.12549l-0.7048,-43.69759" fill="none" stroke="#ffffff" stroke-width="0.5" stroke-linecap="round"/><path d="M245.16402,85.71436h-22.5536" fill="none" stroke="#ffffff" stroke-width="0.5" stroke-linecap="round"/><path d="M257.14561,86.41916h82.46159" fill="none" stroke="#ffffff" stroke-width="0.5" stroke-linecap="round"/><path d="M199.62721,64.88955l-0.27519,7.43361l-66.25119,1.4096" fill="none" stroke="#ffffff" stroke-width="0.5" stroke-linecap="round"/><path d="M437.84957,78.28075h-167.74236l0.0353,-14.8008" fill="none" stroke="#ffffff" stroke-width="0.5" stroke-linecap="round"/><path d="M199.28217,73.42406l70.47999,-2.1144" fill="none" stroke="#ffffff" stroke-width="0.5" stroke-linecap="round"/><path d="M437.00924,96.02852l-14.80079,-0.7048v-14.80079" fill="none" stroke="#ffffff" stroke-width="0.5" stroke-linecap="round"/><path d="M256.30759,131.47344c0,2.57337 -2.20885,4.65951 -4.9336,4.65951c-2.72475,0 -4.9336,-2.08614 -4.9336,-4.65951c0,-2.57337 2.20885,-4.65951 4.9336,-4.65951c2.72475,0 4.9336,2.08613 4.9336,4.65951z" fill="url(#color-36)" stroke="none" stroke-width="0" stroke-linecap="butt"/><path d="M269.54116,143.5308c0,2.57337 -2.20885,4.65951 -4.9336,4.65951c-2.72475,0 -4.9336,-2.08613 -4.9336,-4.65951c0,-2.57337 2.20885,-4.65951 4.9336,-4.65951c2.72475,0 4.9336,2.08614 4.9336,4.65951z" fill="url(#color-37)" stroke="none" stroke-width="0" stroke-linecap="butt"/><path d="M256.30967,157.9406c0,2.57337 -2.20885,4.65951 -4.9336,4.65951c-2.72475,0 -4.9336,-2.08614 -4.9336,-4.65951c0,-2.57337 2.20885,-4.65951 4.9336,-4.65951c2.72475,0 4.9336,2.08613 4.9336,4.65951z" fill="url(#color-38)" stroke="none" stroke-width="0" stroke-linecap="butt"/><path d="M243.07818,144.12099c0,2.57337 -2.20885,4.65951 -4.9336,4.65951c-2.72475,0 -4.9336,-2.08614 -4.9336,-4.65951c0,-2.57337 2.20885,-4.65951 4.9336,-4.65951c2.72475,0 4.9336,2.08613 4.9336,4.65951z" fill="url(#color-39)" stroke="none" stroke-width="0" stroke-linecap="butt"/><path d="M234.76002,208.17486v-37.63921c0,0 10.79809,3.52868 15.87904,3.52868c4.68951,0 13.52659,-3.52868 13.52659,-3.52868v37.63921z" fill="url(#color-40)" stroke="none" stroke-width="0" stroke-linecap="butt"/><path d="M265.63697,82.61384v37.63921c0,0 -8.83708,-3.52868 -13.52659,-3.52868c-5.08096,0 -15.87905,3.52868 -15.87905,3.52868v-37.63921z" data-paper-data="{&quot;index&quot;:null}" fill="url(#color-41)" stroke="none" stroke-width="0" stroke-linecap="butt"/><path d="M311.81864,160.07053l-37.61184,-1.43526c0,0 3.93786,-10.65568 4.13161,-15.73294c0.17882,-4.6861 -3.01031,-13.65131 -3.01031,-13.65131l37.61184,1.43526z" fill="url(#color-42)" stroke="none" stroke-width="0" stroke-linecap="butt"/><path d="M189.59489,126.11683l37.55913,2.45389c0,0 -4.0973,8.58823 -4.40303,13.26776c-0.33126,5.07015 2.48593,16.07531 2.48593,16.07531l-37.55913,-2.45389z" data-paper-data="{&quot;index&quot;:null}" fill="url(#color-43)" stroke="none" stroke-width="0" stroke-linecap="butt"/></g></g></svg>