<svg version="1.1" xmlns="http://www.w3.org/2000/svg" xmlns:xlink="http://www.w3.org/1999/xlink" width="607.90185" height="616.87929" viewBox="0,0,607.90185,616.87929"><defs><linearGradient x1="227.9811" y1="208.88553" x2="227.9811" y2="344.28332" gradientUnits="userSpaceOnUse" id="color-1"><stop offset="0" stop-color="#303030"/><stop offset="1" stop-color="#000000"/></linearGradient><radialGradient cx="255.25383" cy="124.87308" r="100.25638" gradientUnits="userSpaceOnUse" id="color-2"><stop offset="0" stop-color="#000000"/><stop offset="1" stop-color="#3b3b3b"/></radialGradient><linearGradient x1="345.9749" y1="181.56551" x2="436.92915" y2="181.56551" gradientUnits="userSpaceOnUse" id="color-3"><stop offset="0" stop-color="#1e1e1e"/><stop offset="1" stop-color="#000000"/></linearGradient><linearGradient x1="12.45256" y1="191.10271" x2="155.60049" y2="191.10271" gradientUnits="userSpaceOnUse" id="color-4"><stop offset="0" stop-color="#000000"/><stop offset="1" stop-color="#454545"/></linearGradient><linearGradient x1="116.27085" y1="158.06824" x2="173.36765" y2="158.06824" gradientUnits="userSpaceOnUse" id="color-5"><stop offset="0" stop-color="#004369"/><stop offset="1" stop-color="#0d0ff4"/></linearGradient><linearGradient x1="68.09977" y1="179.22333" x2="125.19662" y2="179.22333" gradientUnits="userSpaceOnUse" id="color-6"><stop offset="0" stop-color="#690000"/><stop offset="1" stop-color="#cd0606"/></linearGradient><radialGradient cx="261.72947" cy="138.87712" r="4.9336" gradientUnits="userSpaceOnUse" id="color-7"><stop offset="0" stop-color="#0d0d0d"/><stop offset="1" stop-color="#000000"/></radialGradient><radialGradient cx="259.1153" cy="156.58795" r="4.9336" gradientUnits="userSpaceOnUse" id="color-8"><stop offset="0" stop-color="#0d0d0d"/><stop offset="1" stop-color="#000000"/></radialGradient><radialGradient cx="239.77311" cy="153.65639" r="4.9336" gradientUnits="userSpaceOnUse" id="color-9"><stop offset="0" stop-color="#0d0d0d"/><stop offset="1" stop-color="#000000"/></radialGradient><radialGradient cx="243.85047" cy="134.96337" r="4.9336" gradientUnits="userSpaceOnUse" id="color-10"><stop offset="0" stop-color="#0d0d0d"/><stop offset="1" stop-color="#000000"/></radialGradient><linearGradient x1="228.25582" y1="159.10139" x2="197.02975" y2="180.11667" gradientUnits="userSpaceOnUse" id="color-11"><stop offset="0" stop-color="#000000"/><stop offset="1" stop-color="#000000" stop-opacity="0"/></linearGradient><linearGradient x1="270.79253" y1="132.24749" x2="302.0186" y2="111.23221" gradientUnits="userSpaceOnUse" id="color-12"><stop offset="0" stop-color="#000000"/><stop offset="1" stop-color="#000000" stop-opacity="0"/></linearGradient><linearGradient x1="264.44586" y1="165.24697" x2="284.25514" y2="197.2517" gradientUnits="userSpaceOnUse" id="color-13"><stop offset="0" stop-color="#000000"/><stop offset="1" stop-color="#000000" stop-opacity="0"/></linearGradient><linearGradient x1="237.90789" y1="124.55956" x2="218.97308" y2="92.02984" gradientUnits="userSpaceOnUse" id="color-14"><stop offset="0" stop-color="#000000"/><stop offset="1" stop-color="#000000" stop-opacity="0"/></linearGradient><linearGradient x1="292.55683" y1="379.23122" x2="442.05303" y2="379.23122" gradientUnits="userSpaceOnUse" id="color-15"><stop offset="0" stop-color="#a3a3a3"/><stop offset="1" stop-color="#1a1a1a"/></linearGradient><linearGradient x1="116.51203" y1="113.43709" x2="173.60883" y2="113.43709" gradientUnits="userSpaceOnUse" id="color-16"><stop offset="0" stop-color="#131313"/><stop offset="1" stop-color="#9d9d9d"/></linearGradient><linearGradient x1="110.43795" y1="159.51651" x2="184.14786" y2="159.51651" gradientUnits="userSpaceOnUse" id="color-17"><stop offset="0" stop-color="#131313"/><stop offset="1" stop-color="#9d9d9d"/></linearGradient><linearGradient x1="108.17078" y1="47.20356" x2="181.88069" y2="47.20356" gradientUnits="userSpaceOnUse" id="color-18"><stop offset="0" stop-color="#131313"/><stop offset="1" stop-color="#9d9d9d"/></linearGradient><linearGradient x1="191.51872" y1="318.97169" x2="-2.6187" y2="318.97169" gradientUnits="userSpaceOnUse" id="color-19"><stop offset="0" stop-color="#a3a3a3"/><stop offset="1" stop-color="#1a1a1a"/></linearGradient><linearGradient x1="146.51137" y1="56.81723" x2="146.51137" y2="107.3888" gradientUnits="userSpaceOnUse" id="color-20"><stop offset="0" stop-color="#000000"/><stop offset="1" stop-color="#000000" stop-opacity="0"/></linearGradient><linearGradient x1="145.78893" y1="169.00047" x2="145.78893" y2="214.51488" gradientUnits="userSpaceOnUse" id="color-21"><stop offset="0" stop-color="#000000"/><stop offset="1" stop-color="#000000" stop-opacity="0"/></linearGradient><linearGradient x1="380.80114" y1="142.94077" x2="422.32785" y2="142.94077" gradientUnits="userSpaceOnUse" id="color-22"><stop offset="0" stop-color="#a3a3a3"/><stop offset="1" stop-color="#1a1a1a"/></linearGradient><linearGradient x1="67.90896" y1="134.39128" x2="125.00579" y2="134.39128" gradientUnits="userSpaceOnUse" id="color-23"><stop offset="0" stop-color="#131313"/><stop offset="1" stop-color="#9d9d9d"/></linearGradient><linearGradient x1="96.71944" y1="85.04997" x2="96.71944" y2="135.62154" gradientUnits="userSpaceOnUse" id="color-24"><stop offset="0" stop-color="#000000"/><stop offset="1" stop-color="#000000" stop-opacity="0"/></linearGradient><linearGradient x1="95.99696" y1="197.23321" x2="95.99696" y2="242.74763" gradientUnits="userSpaceOnUse" id="color-25"><stop offset="0" stop-color="#000000"/><stop offset="1" stop-color="#000000" stop-opacity="0"/></linearGradient><linearGradient x1="60.43794" y1="188.51651" x2="134.14783" y2="188.51651" gradientUnits="userSpaceOnUse" id="color-26"><stop offset="0" stop-color="#131313"/><stop offset="1" stop-color="#9d9d9d"/></linearGradient><linearGradient x1="58.17076" y1="76.20356" x2="131.88065" y2="76.20356" gradientUnits="userSpaceOnUse" id="color-27"><stop offset="0" stop-color="#131313"/><stop offset="1" stop-color="#9d9d9d"/></linearGradient><linearGradient x1="38.19362" y1="254.73947" x2="38.19362" y2="337.79288" gradientUnits="userSpaceOnUse" id="color-28"><stop offset="0" stop-color="#f7b874"/><stop offset="1" stop-color="#996400"/></linearGradient><linearGradient x1="43.90361" y1="232.93795" x2="43.90361" y2="334.67838" gradientUnits="userSpaceOnUse" id="color-29"><stop offset="0" stop-color="#f7b874"/><stop offset="1" stop-color="#996400"/></linearGradient><linearGradient x1="280.21639" y1="29.20197" x2="280.21639" y2="80.76254" gradientUnits="userSpaceOnUse" id="color-30"><stop offset="0" stop-color="#5b442b"/><stop offset="1" stop-color="#b68756"/></linearGradient><linearGradient x1="114.61209" y1="-4.54785" x2="114.61209" y2="68.17969" gradientUnits="userSpaceOnUse" id="color-31"><stop offset="0" stop-color="#5b442b"/><stop offset="1" stop-color="#b68756"/></linearGradient><linearGradient x1="259.20459" y1="7.29272" x2="259.20459" y2="68.62266" gradientUnits="userSpaceOnUse" id="color-32"><stop offset="0" stop-color="#5b442b"/><stop offset="1" stop-color="#b68756"/></linearGradient><linearGradient x1="352.75822" y1="-11.26031" x2="352.75822" y2="68.52289" gradientUnits="userSpaceOnUse" id="color-33"><stop offset="0" stop-color="#5b442b"/><stop offset="1" stop-color="#b68756"/></linearGradient><linearGradient x1="334.80143" y1="218.47068" x2="334.80143" y2="423.31061" gradientUnits="userSpaceOnUse" id="color-34"><stop offset="0" stop-color="#ffffff"/><stop offset="1" stop-color="#ffffff" stop-opacity="0"/></linearGradient><linearGradient x1="174.58717" y1="200.31438" x2="98.33479" y2="390.43271" gradientUnits="userSpaceOnUse" id="color-35"><stop offset="0" stop-color="#ffffff"/><stop offset="1" stop-color="#ffffff" stop-opacity="0"/></linearGradient></defs><g transform="translate(58.90936,141.09847)"><g data-paper-data="{&quot;isPaintingLayer&quot;:true}" fill-rule="nonzero" stroke-linejoin="miter" stroke-miterlimit="10" stroke-dasharray="" stroke-dashoffset="0" style="mix-blend-mode: normal"><path d="M15.31578,344.28332v-135.39779h425.33062v135.3978z" fill="url(#color-1)" stroke="none" stroke-width="0" stroke-linecap="butt"/><path d="M154.99741,218.03467v-186.32317h200.51276v186.32318z" fill="url(#color-2)" stroke="none" stroke-width="0" stroke-linecap="butt"/><path d="M329.61843,141.50382c0,44.10455 -35.40835,79.85834 -79.08676,79.85834c-43.67841,0 -79.08676,-35.7538 -79.08676,-79.85834c0,-44.10454 35.40835,-79.85834 79.08676,-79.85834c43.67841,0 79.08676,35.7538 79.08676,79.85834z" fill="#000000" stroke="none" stroke-width="0" stroke-linecap="butt"/><path d="M345.9749,212.40719l-3.1145,-176.69319l93.03058,-31.18332l1.03816,294.89409z" fill="url(#color-3)" stroke="none" stroke-width="0" stroke-linecap="butt"/><path d="M319.88957,94.79108v-33.94943h229.10293v33.94943z" fill="#3f3f3f" stroke="none" stroke-width="0" stroke-linecap="butt"/><path d="M16.31042,343.32263l-5.93423,-353.23372l142.10979,39.62074l3.11451,186.86095z" data-paper-data="{&quot;index&quot;:null}" fill="url(#color-4)" stroke="#000000" stroke-width="4" stroke-linecap="butt"/><path d="M367.20451,237.86333v-140.56565l36.17498,-6.20142l-1.03357,177.77421z" fill="#000000" stroke="none" stroke-width="0" stroke-linecap="butt"/><path d="M116.27085,291.85237v-267.56823h57.09679v267.56824z" fill="url(#color-5)" stroke="none" stroke-width="0" stroke-linecap="butt"/><path d="M68.09977,355.3283v-352.20994h57.09679v352.20994z" fill="url(#color-6)" stroke="none" stroke-width="0" stroke-linecap="butt"/><path d="M353.29913,95.00096l-33.94894,0.18471l-1.2846,-236.09943l33.94894,-0.18471z" fill="#3f3f3f" stroke="none" stroke-width="0" stroke-linecap="butt"/><path d="M176.66869,98.86653l-33.17701,-7.20078l50.07815,-230.73095l33.17701,7.20078z" fill="#3f3f3f" stroke="none" stroke-width="0" stroke-linecap="butt"/><g stroke="none" stroke-width="0" stroke-linecap="butt"><path d="M255.76956,123.42202l54.78711,-36.87196l16.61834,24.69278l-54.78711,36.87196z" fill="#686868"/><path d="M219.74136,67.32802l34.86363,56.0865l-25.27843,15.71319l-34.86362,-56.08652z" fill="#686868"/><path d="M266.96358,169.00981c-12.78511,8.60443 -30.35725,4.86984 -39.24849,-8.34143c-8.89124,-13.21128 -5.73465,-30.8964 7.05045,-39.50083c12.78511,-8.60443 30.35726,-4.86985 39.24849,8.34144c8.89124,13.21128 5.73465,30.8964 -7.05046,39.50082z" fill="#686868"/><path d="M180.82346,174.28819l54.78711,-36.87196l16.61834,24.69278l-54.78711,36.87196z" fill="#686868"/><path d="M279.81534,219.05138l-35.56171,-55.64649l25.0801,-16.02783l35.56172,55.64649z" fill="#686868"/><path d="M264.48409,142.97011c-2.13492,1.4368 -5.09888,0.76907 -6.6202,-1.49143c-1.52132,-2.26049 -1.02391,-5.25775 1.11101,-6.69456c2.13492,-1.4368 5.09888,-0.76907 6.6202,1.49143c1.52132,2.26049 1.02392,5.25776 -1.11101,6.69456z" fill="url(#color-7)"/><path d="M261.86987,160.68093c-2.13492,1.4368 -5.09888,0.76907 -6.6202,-1.49143c-1.52132,-2.26049 -1.02392,-5.25776 1.11101,-6.69456c2.13492,-1.4368 5.09888,-0.76907 6.6202,1.49143c1.52132,2.26049 1.02391,5.25775 -1.11101,6.69456z" fill="url(#color-8)"/><path d="M242.52771,157.74938c-2.13492,1.4368 -5.09888,0.76907 -6.6202,-1.49143c-1.52132,-2.26049 -1.02391,-5.25775 1.11101,-6.69456c2.13492,-1.4368 5.09888,-0.76907 6.6202,1.49143c1.52132,2.26049 1.02392,5.25776 -1.11101,6.69456z" fill="url(#color-9)"/><path d="M246.60507,139.05635c-2.13492,1.4368 -5.09888,0.76907 -6.6202,-1.49143c-1.52132,-2.26049 -1.02391,-5.25775 1.11101,-6.69456c2.13492,-1.4368 5.09888,-0.76907 6.6202,1.49143c1.52132,2.26049 1.02392,5.25776 -1.11101,6.69456z" fill="url(#color-10)"/><path d="M188.82065,167.919l31.22607,-21.01529c0,0 3.1015,10.92845 5.93838,15.14368c2.61831,3.8905 10.47982,9.25169 10.47982,9.25169l-31.22607,21.01529z" fill="url(#color-11)"/><path d="M310.22769,123.42989l-31.22607,21.01529c0,0 -2.0066,-9.30156 -4.62492,-13.19205c-2.83689,-4.21524 -11.79328,-11.20333 -11.79328,-11.20333l31.22607,-21.01529z" data-paper-data="{&quot;index&quot;:null}" fill="url(#color-12)"/><path d="M271.75327,204.9897l-19.80928,-32.00474c0,0 11.03877,-2.68253 15.35912,-5.35659c3.9875,-2.46806 9.64458,-10.11941 9.64458,-10.11941l19.80928,32.00474z" fill="url(#color-13)"/><path d="M231.68002,84.63344l18.93479,32.52974c0,0 -9.4126,1.39593 -13.4655,3.75503c-4.39123,2.55603 -11.94835,11.03777 -11.94835,11.03777l-18.93479,-32.52974z" data-paper-data="{&quot;index&quot;:null}" fill="url(#color-14)"/></g><path d="M-58.90936,97.16642v-33.94943h236.10293v33.94944z" fill="#3f3f3f" stroke="none" stroke-width="0" stroke-linecap="butt"/><path d="M292.55683,475.78082v-193.09919h149.49614v193.09919z" fill="url(#color-15)" stroke="none" stroke-width="0" stroke-linecap="butt"/><path d="M116.51203,251.12985v-275.38553h57.09678v275.38553z" fill="url(#color-16)" stroke="none" stroke-width="0" stroke-linecap="butt"/><path d="M110.43795,168.34093v-17.64885h73.7099v17.64885z" fill="url(#color-17)" stroke="none" stroke-width="0" stroke-linecap="butt"/><path d="M108.17078,56.02799v-17.64885h73.70991v17.64885z" fill="url(#color-18)" stroke="none" stroke-width="0" stroke-linecap="butt"/><path d="M-2.6187,363.19306v-88.44273h194.13735v88.44273z" data-paper-data="{&quot;index&quot;:null}" fill="url(#color-19)" stroke="none" stroke-width="0" stroke-linecap="butt"/><path d="M120.14193,107.3888v-50.57157h52.73893v50.57157z" fill="url(#color-20)" stroke="none" stroke-width="0" stroke-linecap="butt"/><path d="M118.69703,214.51488v-45.51441h54.18383v45.51441z" fill="url(#color-21)" stroke="none" stroke-width="0" stroke-linecap="butt"/><path d="M380.80114,284.13157v-282.3816h41.5267v282.3816z" fill="url(#color-22)" stroke="none" stroke-width="0" stroke-linecap="butt"/><path d="M67.90896,272.08405v-275.38553h57.09679v275.38553z" fill="url(#color-23)" stroke="none" stroke-width="0" stroke-linecap="butt"/><path d="M70.34995,135.62154v-50.57157h52.73892v50.57157z" fill="url(#color-24)" stroke="none" stroke-width="0" stroke-linecap="butt"/><path d="M68.90502,242.74763v-45.51441h54.18383v45.51441z" fill="url(#color-25)" stroke="none" stroke-width="0" stroke-linecap="butt"/><path d="M60.43794,197.34093v-17.64885h73.7099v17.64885z" fill="url(#color-26)" stroke="none" stroke-width="0" stroke-linecap="butt"/><path d="M58.17076,85.02799v-17.64885h73.70991v17.64885z" fill="url(#color-27)" stroke="none" stroke-width="0" stroke-linecap="butt"/><g fill="none" stroke-width="10.5" stroke-linecap="round"><path d="M-8.00482,254.73947h92.39692v83.05342" stroke="url(#color-28)"/><path d="M-11.11929,232.93795l110.04577,1.03817l-1.03816,100.70226" stroke="url(#color-29)"/></g><g fill="none" stroke-linecap="round"><path d="M333.73611,29.20197l0.93894,51.56057l-107.0394,-0.54274l-1.87789,-39.07748" stroke="url(#color-30)" stroke-width="10.5"/><path d="M191.10303,-4.54785l0.32441,72.72754l-150.9819,-0.76556l-1.76588,-55.11982" stroke="url(#color-31)" stroke-width="10.5"/><path d="M322.86487,7.29273l1.11684,61.32994l-127.32055,-0.64558l-0.2337,-46.48164" stroke="url(#color-32)" stroke-width="6.5"/><path d="M428.24917,-11.2603l1.3244,79.78319l-150.98189,-0.83982l-0.88295,-60.46727" stroke="url(#color-33)" stroke-width="18.5"/></g><path d="M174.0617,150.86091v-76.93405" fill="none" stroke="#ffffff" stroke-width="0.5" stroke-linecap="round"/><path d="M183.59335,169.92421l-0.68083,-19.74414" fill="none" stroke="#ffffff" stroke-width="0.5" stroke-linecap="round"/><path d="M174.74253,263.87906l-2.0425,-94.63568" fill="none" stroke="#ffffff" stroke-width="0.5" stroke-linecap="round"/><path d="M124.08328,85.28948l0.72245,93.55042" fill="none" stroke="#ffffff" stroke-width="0.5" stroke-linecap="round"/><path d="M134.33739,197.90321l-0.68083,-19.74414" fill="none" stroke="#ffffff" stroke-width="0.5" stroke-linecap="round"/><path d="M123.44409,197.22237l2.0425,77.40143" fill="none" stroke="#ffffff" stroke-width="0.5" stroke-linecap="round"/><path d="M378.52218,78.9869l1.4096,202.98236" fill="none" stroke="#ffffff" stroke-width="0.5" stroke-linecap="round"/><path d="M104.31536,230.4279l0.7048,43.69759" fill="none" stroke="#ffffff" stroke-width="0.5" stroke-linecap="round"/><path d="M222.61048,85.71436h22.5536" fill="none" stroke="#ffffff" stroke-width="0.5" stroke-linecap="round"/><path d="M257.14567,86.41916h82.46159" fill="none" stroke="#ffffff" stroke-width="0.5" stroke-linecap="round"/><path d="M199.62727,64.88955l-0.27519,7.43361l-66.25119,1.4096" fill="none" stroke="#ffffff" stroke-width="0.5" stroke-linecap="round"/><path d="M437.84965,78.28075h-167.74236l0.0353,-14.8008" fill="none" stroke="#ffffff" stroke-width="0.5" stroke-linecap="round"/><path d="M199.28225,73.42406l70.47999,-2.1144" fill="none" stroke="#ffffff" stroke-width="0.5" stroke-linecap="round"/><path d="M437.00932,96.02852l-14.80079,-0.7048v-14.80079" fill="none" stroke="#ffffff" stroke-width="0.5" stroke-linecap="round"/><path d="M237.05247,336.38771l-34.61089,-113.1422c0,0 32.07626,-5.58692 43.96644,-4.71656c11.6453,0.85244 40.23391,4.22829 40.23391,4.22829l-24.77085,121.41573l29.89772,-1.49904l0.14395,-59.7997l26.74796,0.7446c0,0 -4.88777,-58.09938 -3.95,-57.94067c20.53753,3.47585 62.91282,20.16338 62.91282,20.16338l3.05998,2.51821c0,0 1.24756,36.3239 -0.35599,35.79886c-2.00984,-0.65808 -87.32106,-0.66968 -87.4262,-0.9279c-0.08745,-0.21478 0.16296,84.27469 0.16296,84.27469z" fill="url(#color-34)" stroke="none" stroke-width="0" stroke-linecap="butt"/><path d="M191.62422,274.17739l-16.23173,-0.48445c0,0 0.1301,-43.27196 -0.97498,-43.67962c1.02152,-0.28685 6.23,-5.32031 6.23,-5.32031l17.34006,123.73214c0,0 -8.20929,-31.76829 -4.35401,3.07821c0.20018,1.80934 -2.00934,-77.32596 -2.00934,-77.32596z" data-paper-data="{&quot;index&quot;:null}" fill="url(#color-35)" stroke="none" stroke-width="0" stroke-linecap="butt"/></g></g></svg>