<svg version="1.1" xmlns="http://www.w3.org/2000/svg" xmlns:xlink="http://www.w3.org/1999/xlink" width="607.90187" height="616.87929" viewBox="0,0,607.90187,616.87929"><defs><linearGradient x1="227.98106" y1="208.88553" x2="227.98106" y2="344.28332" gradientUnits="userSpaceOnUse" id="color-1"><stop offset="0" stop-color="#303030"/><stop offset="1" stop-color="#000000"/></linearGradient><radialGradient cx="255.2538" cy="124.87308" r="100.25638" gradientUnits="userSpaceOnUse" id="color-2"><stop offset="0" stop-color="#000000"/><stop offset="1" stop-color="#3b3b3b"/></radialGradient><linearGradient x1="345.97485" y1="181.56551" x2="436.9291" y2="181.56551" gradientUnits="userSpaceOnUse" id="color-3"><stop offset="0" stop-color="#1e1e1e"/><stop offset="1" stop-color="#000000"/></linearGradient><linearGradient x1="12.45253" y1="191.10271" x2="155.60047" y2="191.10271" gradientUnits="userSpaceOnUse" id="color-4"><stop offset="0" stop-color="#000000"/><stop offset="1" stop-color="#454545"/></linearGradient><linearGradient x1="116.27081" y1="158.06824" x2="173.3676" y2="158.06824" gradientUnits="userSpaceOnUse" id="color-5"><stop offset="0" stop-color="#004369"/><stop offset="1" stop-color="#0d0ff4"/></linearGradient><linearGradient x1="68.09977" y1="179.22333" x2="125.19658" y2="179.22333" gradientUnits="userSpaceOnUse" id="color-6"><stop offset="0" stop-color="#690000"/><stop offset="1" stop-color="#cd0606"/></linearGradient><radialGradient cx="255.46016" cy="132.82526" r="4.9336" gradientUnits="userSpaceOnUse" id="color-7"><stop offset="0" stop-color="#0d0d0d"/><stop offset="1" stop-color="#000000"/></radialGradient><radialGradient cx="264.54258" cy="148.25306" r="4.9336" gradientUnits="userSpaceOnUse" id="color-8"><stop offset="0" stop-color="#0d0d0d"/><stop offset="1" stop-color="#000000"/></radialGradient><radialGradient cx="247.64564" cy="158.11248" r="4.9336" gradientUnits="userSpaceOnUse" id="color-9"><stop offset="0" stop-color="#0d0d0d"/><stop offset="1" stop-color="#000000"/></radialGradient><radialGradient cx="239.08566" cy="141.00165" r="4.9336" gradientUnits="userSpaceOnUse" id="color-10"><stop offset="0" stop-color="#0d0d0d"/><stop offset="1" stop-color="#000000"/></radialGradient><linearGradient x1="242.09806" y1="169.58071" x2="230.98213" y2="205.54105" gradientUnits="userSpaceOnUse" id="color-11"><stop offset="0" stop-color="#000000"/><stop offset="1" stop-color="#000000" stop-opacity="0"/></linearGradient><linearGradient x1="258.35364" y1="121.97545" x2="269.46958" y2="86.01511" gradientUnits="userSpaceOnUse" id="color-12"><stop offset="0" stop-color="#000000"/><stop offset="1" stop-color="#000000" stop-opacity="0"/></linearGradient><linearGradient x1="274.12752" y1="151.64751" x2="309.63784" y2="164.1266" gradientUnits="userSpaceOnUse" id="color-13"><stop offset="0" stop-color="#000000"/><stop offset="1" stop-color="#000000" stop-opacity="0"/></linearGradient><linearGradient x1="227.92904" y1="136.63319" x2="192.76991" y2="123.19648" gradientUnits="userSpaceOnUse" id="color-14"><stop offset="0" stop-color="#000000"/><stop offset="1" stop-color="#000000" stop-opacity="0"/></linearGradient><linearGradient x1="292.55681" y1="379.23122" x2="442.05298" y2="379.23122" gradientUnits="userSpaceOnUse" id="color-15"><stop offset="0" stop-color="#a3a3a3"/><stop offset="1" stop-color="#1a1a1a"/></linearGradient><linearGradient x1="116.51199" y1="113.43709" x2="173.60878" y2="113.43709" gradientUnits="userSpaceOnUse" id="color-16"><stop offset="0" stop-color="#131313"/><stop offset="1" stop-color="#9d9d9d"/></linearGradient><linearGradient x1="110.43791" y1="159.51651" x2="184.14781" y2="159.51651" gradientUnits="userSpaceOnUse" id="color-17"><stop offset="0" stop-color="#131313"/><stop offset="1" stop-color="#9d9d9d"/></linearGradient><linearGradient x1="108.17074" y1="47.20356" x2="181.88065" y2="47.20356" gradientUnits="userSpaceOnUse" id="color-18"><stop offset="0" stop-color="#131313"/><stop offset="1" stop-color="#9d9d9d"/></linearGradient><linearGradient x1="191.51868" y1="318.97169" x2="-2.6187" y2="318.97169" gradientUnits="userSpaceOnUse" id="color-19"><stop offset="0" stop-color="#a3a3a3"/><stop offset="1" stop-color="#1a1a1a"/></linearGradient><linearGradient x1="146.51135" y1="56.81723" x2="146.51135" y2="107.3888" gradientUnits="userSpaceOnUse" id="color-20"><stop offset="0" stop-color="#000000"/><stop offset="1" stop-color="#000000" stop-opacity="0"/></linearGradient><linearGradient x1="145.78891" y1="169.00047" x2="145.78891" y2="214.51488" gradientUnits="userSpaceOnUse" id="color-21"><stop offset="0" stop-color="#000000"/><stop offset="1" stop-color="#000000" stop-opacity="0"/></linearGradient><linearGradient x1="380.80109" y1="142.94077" x2="422.3278" y2="142.94077" gradientUnits="userSpaceOnUse" id="color-22"><stop offset="0" stop-color="#a3a3a3"/><stop offset="1" stop-color="#1a1a1a"/></linearGradient><linearGradient x1="67.90895" y1="134.39128" x2="125.00574" y2="134.39128" gradientUnits="userSpaceOnUse" id="color-23"><stop offset="0" stop-color="#131313"/><stop offset="1" stop-color="#9d9d9d"/></linearGradient><linearGradient x1="96.71939" y1="85.04997" x2="96.71939" y2="135.62154" gradientUnits="userSpaceOnUse" id="color-24"><stop offset="0" stop-color="#000000"/><stop offset="1" stop-color="#000000" stop-opacity="0"/></linearGradient><linearGradient x1="95.99694" y1="197.23321" x2="95.99694" y2="242.74763" gradientUnits="userSpaceOnUse" id="color-25"><stop offset="0" stop-color="#000000"/><stop offset="1" stop-color="#000000" stop-opacity="0"/></linearGradient><linearGradient x1="60.43791" y1="188.51651" x2="134.14781" y2="188.51651" gradientUnits="userSpaceOnUse" id="color-26"><stop offset="0" stop-color="#131313"/><stop offset="1" stop-color="#9d9d9d"/></linearGradient><linearGradient x1="58.17074" y1="76.20356" x2="131.88064" y2="76.20356" gradientUnits="userSpaceOnUse" id="color-27"><stop offset="0" stop-color="#131313"/><stop offset="1" stop-color="#9d9d9d"/></linearGradient><linearGradient x1="38.19362" y1="254.73947" x2="38.19362" y2="337.79288" gradientUnits="userSpaceOnUse" id="color-28"><stop offset="0" stop-color="#f7b874"/><stop offset="1" stop-color="#996400"/></linearGradient><linearGradient x1="43.90357" y1="232.93795" x2="43.90357" y2="334.67838" gradientUnits="userSpaceOnUse" id="color-29"><stop offset="0" stop-color="#f7b874"/><stop offset="1" stop-color="#996400"/></linearGradient><linearGradient x1="280.21636" y1="29.20197" x2="280.21636" y2="80.76254" gradientUnits="userSpaceOnUse" id="color-30"><stop offset="0" stop-color="#5b442b"/><stop offset="1" stop-color="#b68756"/></linearGradient><linearGradient x1="114.61205" y1="-4.54785" x2="114.61205" y2="68.17969" gradientUnits="userSpaceOnUse" id="color-31"><stop offset="0" stop-color="#5b442b"/><stop offset="1" stop-color="#b68756"/></linearGradient><linearGradient x1="259.20456" y1="7.29272" x2="259.20456" y2="68.62266" gradientUnits="userSpaceOnUse" id="color-32"><stop offset="0" stop-color="#5b442b"/><stop offset="1" stop-color="#b68756"/></linearGradient><linearGradient x1="352.75816" y1="-11.26031" x2="352.75816" y2="68.52289" gradientUnits="userSpaceOnUse" id="color-33"><stop offset="0" stop-color="#5b442b"/><stop offset="1" stop-color="#b68756"/></linearGradient><linearGradient x1="334.8014" y1="218.47068" x2="334.8014" y2="423.31061" gradientUnits="userSpaceOnUse" id="color-34"><stop offset="0" stop-color="#ffffff"/><stop offset="1" stop-color="#ffffff" stop-opacity="0"/></linearGradient><linearGradient x1="174.58713" y1="200.31438" x2="98.33478" y2="390.43271" gradientUnits="userSpaceOnUse" id="color-35"><stop offset="0" stop-color="#ffffff"/><stop offset="1" stop-color="#ffffff" stop-opacity="0"/></linearGradient></defs><g transform="translate(58.90939,141.09847)"><g data-paper-data="{&quot;isPaintingLayer&quot;:true}" fill-rule="nonzero" stroke-linejoin="miter" stroke-miterlimit="10" stroke-dasharray="" stroke-dashoffset="0" style="mix-blend-mode: normal"><path d="M15.31575,344.28332v-135.39779h425.33062v135.3978z" fill="url(#color-1)" stroke="none" stroke-width="0" stroke-linecap="butt"/><path d="M154.9974,218.03467v-186.32317h200.51276v186.32318z" fill="url(#color-2)" stroke="none" stroke-width="0" stroke-linecap="butt"/><path d="M329.6184,141.50382c0,44.10455 -35.40835,79.85834 -79.08676,79.85834c-43.67841,0 -79.08676,-35.7538 -79.08676,-79.85834c0,-44.10454 35.40835,-79.85834 79.08676,-79.85834c43.67841,0 79.08676,35.7538 79.08676,79.85834z" fill="#000000" stroke="none" stroke-width="0" stroke-linecap="butt"/><path d="M345.97485,212.40719l-3.1145,-176.69319l93.03058,-31.18332l1.03816,294.89409z" fill="url(#color-3)" stroke="none" stroke-width="0" stroke-linecap="butt"/><path d="M319.88955,94.79108v-33.94943h229.10293v33.94943z" fill="#3f3f3f" stroke="none" stroke-width="0" stroke-linecap="butt"/><path d="M16.31042,343.32263l-5.93423,-353.23372l142.10979,39.62074l3.11451,186.86095z" data-paper-data="{&quot;index&quot;:null}" fill="url(#color-4)" stroke="#000000" stroke-width="4" stroke-linecap="butt"/><path d="M367.20446,237.86333v-140.56565l36.17498,-6.20142l-1.03357,177.77421z" fill="#000000" stroke="none" stroke-width="0" stroke-linecap="butt"/><path d="M116.27081,291.85237v-267.56823h57.09679v267.56824z" fill="url(#color-5)" stroke="none" stroke-width="0" stroke-linecap="butt"/><path d="M68.09977,355.3283v-352.20994h57.09679v352.20994z" fill="url(#color-6)" stroke="none" stroke-width="0" stroke-linecap="butt"/><path d="M353.29908,95.00096l-33.94894,0.18471l-1.2846,-236.09943l33.94894,-0.18471z" fill="#3f3f3f" stroke="none" stroke-width="0" stroke-linecap="butt"/><path d="M176.66865,98.86653l-33.17701,-7.20078l50.07815,-230.73095l33.17701,7.20078z" fill="#3f3f3f" stroke="none" stroke-width="0" stroke-linecap="butt"/><g stroke="none" stroke-width="0" stroke-linecap="butt"><path d="M241.11923,124.53557l19.50324,-63.09352l28.43651,8.79019l-19.50324,63.09352z" fill="#686868"/><path d="M177.86217,103.48535l62.3458,21.7754l-9.81427,28.09952l-62.34581,-21.77542z" fill="#686868"/><path d="M278.44944,152.99622c-4.55127,14.72349 -20.5744,22.8467 -35.78866,18.14373c-15.21427,-4.70298 -23.85834,-20.45124 -19.30707,-35.17472c4.55127,-14.72349 20.57441,-22.84671 35.78868,-18.14373c15.21427,4.70298 23.85833,20.45124 19.30706,35.17473z" fill="#686868"/><path d="M214.70785,211.17692l19.50324,-63.09352l28.43651,8.79019l-19.50324,63.09352z" fill="#686868"/><path d="M319.86581,183.88328l-62.61302,-20.99468l9.46239,-28.21996l62.61303,20.99468z" fill="#686868"/><path d="M260.1737,134.28229c-0.75999,2.45859 -3.48641,3.79934 -6.08963,2.99464c-2.60321,-0.8047 -4.09744,-3.45012 -3.33745,-5.90871c0.75999,-2.45859 3.48641,-3.79934 6.08963,-2.99464c2.60321,0.8047 4.09745,3.45011 3.33745,5.90871z" fill="url(#color-7)"/><path d="M269.25611,149.71009c-0.75999,2.45859 -3.48641,3.79934 -6.08963,2.99464c-2.60321,-0.8047 -4.09745,-3.45011 -3.33745,-5.90871c0.75999,-2.45859 3.48641,-3.79934 6.08963,-2.99464c2.60321,0.8047 4.09744,3.45012 3.33745,5.90871z" fill="url(#color-8)"/><path d="M252.35918,159.56952c-0.75999,2.45859 -3.48641,3.79934 -6.08963,2.99464c-2.60321,-0.8047 -4.09744,-3.45012 -3.33745,-5.90871c0.75999,-2.45859 3.48641,-3.79934 6.08963,-2.99464c2.60321,0.8047 4.09745,3.45011 3.33745,5.90871z" fill="url(#color-9)"/><path d="M243.7992,142.45868c-0.75999,2.45859 -3.48641,3.79934 -6.08963,2.99464c-2.60321,-0.8047 -4.09744,-3.45012 -3.33745,-5.90871c0.75999,-2.45859 3.48641,-3.79934 6.08963,-2.99464c2.60321,0.8047 4.09745,3.45011 3.33745,5.90871z" fill="url(#color-10)"/><path d="M216.93513,201.19889l11.11593,-35.96034c0,0 9.27433,6.56027 14.12865,8.06082c4.48034,1.38495 13.96537,0.6235 13.96537,0.6235l-11.11593,35.96034z" fill="url(#color-11)"/><path d="M283.51658,90.35726l-11.11593,35.96034c0,0 -7.40079,-5.98113 -11.88113,-7.36607c-4.85433,-1.50055 -16.2129,-1.31825 -16.2129,-1.31825l11.11593,-35.96034z" data-paper-data="{&quot;index&quot;:null}" fill="url(#color-12)"/><path d="M304.76319,177.99782l-35.51032,-12.47909c0,0 6.90914,-9.01743 8.59371,-13.811c1.55478,-4.42427 1.15558,-13.93143 1.15558,-13.93143l35.51032,12.47909z" fill="url(#color-13)"/><path d="M198.01863,109.46245l35.15913,13.43672c0,0 -6.45089,6.99511 -8.12498,11.37562c-1.81384,4.74617 -2.37245,16.09245 -2.37245,16.09245l-35.15913,-13.43672z" data-paper-data="{&quot;index&quot;:null}" fill="url(#color-14)"/></g><path d="M-58.90938,97.16642v-33.94943h236.10293v33.94944z" fill="#3f3f3f" stroke="none" stroke-width="0" stroke-linecap="butt"/><path d="M292.55681,475.78082v-193.09919h149.49614v193.09919z" fill="url(#color-15)" stroke="none" stroke-width="0" stroke-linecap="butt"/><path d="M116.51199,251.12985v-275.38553h57.09678v275.38553z" fill="url(#color-16)" stroke="none" stroke-width="0" stroke-linecap="butt"/><path d="M110.43791,168.34093v-17.64885h73.7099v17.64885z" fill="url(#color-17)" stroke="none" stroke-width="0" stroke-linecap="butt"/><path d="M108.17074,56.02799v-17.64885h73.70991v17.64885z" fill="url(#color-18)" stroke="none" stroke-width="0" stroke-linecap="butt"/><path d="M-2.6187,363.19306v-88.44273h194.13735v88.44273z" data-paper-data="{&quot;index&quot;:null}" fill="url(#color-19)" stroke="none" stroke-width="0" stroke-linecap="butt"/><path d="M120.14189,107.3888v-50.57157h52.73893v50.57157z" fill="url(#color-20)" stroke="none" stroke-width="0" stroke-linecap="butt"/><path d="M118.69699,214.51488v-45.51441h54.18383v45.51441z" fill="url(#color-21)" stroke="none" stroke-width="0" stroke-linecap="butt"/><path d="M380.80109,284.13157v-282.3816h41.5267v282.3816z" fill="url(#color-22)" stroke="none" stroke-width="0" stroke-linecap="butt"/><path d="M67.90895,272.08405v-275.38553h57.09679v275.38553z" fill="url(#color-23)" stroke="none" stroke-width="0" stroke-linecap="butt"/><path d="M70.34993,135.62154v-50.57157h52.73892v50.57157z" fill="url(#color-24)" stroke="none" stroke-width="0" stroke-linecap="butt"/><path d="M68.90502,242.74763v-45.51441h54.18383v45.51441z" fill="url(#color-25)" stroke="none" stroke-width="0" stroke-linecap="butt"/><path d="M60.43791,197.34093v-17.64885h73.7099v17.64885z" fill="url(#color-26)" stroke="none" stroke-width="0" stroke-linecap="butt"/><path d="M58.17074,85.02799v-17.64885h73.70991v17.64885z" fill="url(#color-27)" stroke="none" stroke-width="0" stroke-linecap="butt"/><g fill="none" stroke-width="10.5" stroke-linecap="round"><path d="M-8.00482,254.73947h92.39692v83.05342" stroke="url(#color-28)"/><path d="M-11.11932,232.93795l110.04577,1.03817l-1.03816,100.70226" stroke="url(#color-29)"/></g><g fill="none" stroke-linecap="round"><path d="M333.73608,29.20197l0.93894,51.56057l-107.0394,-0.54274l-1.87789,-39.07748" stroke="url(#color-30)" stroke-width="10.5"/><path d="M191.10301,-4.54785l0.32441,72.72754l-150.9819,-0.76556l-1.76588,-55.11982" stroke="url(#color-31)" stroke-width="10.5"/><path d="M322.86484,7.29273l1.11684,61.32994l-127.32055,-0.64558l-0.2337,-46.48164" stroke="url(#color-32)" stroke-width="6.5"/><path d="M428.24911,-11.2603l1.3244,79.78319l-150.98189,-0.83982l-0.88295,-60.46727" stroke="url(#color-33)" stroke-width="18.5"/></g><path d="M293.06426,367.50539l-52.14994,-149.91763c0,0 58.29458,1.96767 77.75681,5.26152c20.53753,3.47585 58.95238,22.99226 58.95238,22.99226l3.05998,2.51821c0,0 1.24756,36.3239 -0.35599,35.79886c-2.00984,-0.65808 -87.32106,-0.66968 -87.4262,-0.9279c-0.08745,-0.21478 0.16296,84.27469 0.16296,84.27469z" fill="url(#color-34)" stroke="none" stroke-width="0" stroke-linecap="butt"/><path d="M191.62418,274.17739l-16.23173,-0.48445c0,0 -1.56723,-49.49549 -2.67231,-49.90315c-1.10508,-0.40766 40.74233,-7.01765 40.74233,-7.01765l-8.11986,145.23163c0,0 -15.56437,-45.34691 -11.70909,-10.50041c0.20018,1.80934 -2.00934,-77.32596 -2.00934,-77.32596z" data-paper-data="{&quot;index&quot;:null}" fill="url(#color-35)" stroke="none" stroke-width="0" stroke-linecap="butt"/><path d="M174.06166,73.92686v76.93405" fill="none" stroke="#ffffff" stroke-width="0.5" stroke-linecap="round"/><path d="M183.59332,169.92421l-0.68083,-19.74414" fill="none" stroke="#ffffff" stroke-width="0.5" stroke-linecap="round"/><path d="M174.7425,263.87906l-2.0425,-94.63568" fill="none" stroke="#ffffff" stroke-width="0.5" stroke-linecap="round"/><path d="M124.08325,85.28948l0.72245,93.55042" fill="none" stroke="#ffffff" stroke-width="0.5" stroke-linecap="round"/><path d="M134.33736,197.90321l-0.68083,-19.74414" fill="none" stroke="#ffffff" stroke-width="0.5" stroke-linecap="round"/><path d="M123.44404,197.22237l2.0425,77.40143" fill="none" stroke="#ffffff" stroke-width="0.5" stroke-linecap="round"/><path d="M378.52213,78.9869l1.4096,202.98236" fill="none" stroke="#ffffff" stroke-width="0.5" stroke-linecap="round"/><path d="M104.31532,230.4279l0.7048,43.69759" fill="none" stroke="#ffffff" stroke-width="0.5" stroke-linecap="round"/><path d="M245.16404,85.71436h-22.5536" fill="none" stroke="#ffffff" stroke-width="0.5" stroke-linecap="round"/><path d="M257.14564,86.41916h82.46159" fill="none" stroke="#ffffff" stroke-width="0.5" stroke-linecap="round"/><path d="M199.62723,64.88955l-0.27519,7.43361l-66.25119,1.4096" fill="none" stroke="#ffffff" stroke-width="0.5" stroke-linecap="round"/><path d="M437.8496,78.28075h-167.74236l0.0353,-14.8008" fill="none" stroke="#ffffff" stroke-width="0.5" stroke-linecap="round"/><path d="M269.76219,71.30966l-70.47999,2.1144" fill="none" stroke="#ffffff" stroke-width="0.5" stroke-linecap="round"/><path d="M437.00927,96.02852l-14.80079,-0.7048v-14.80079" fill="none" stroke="#ffffff" stroke-width="0.5" stroke-linecap="round"/></g></g></svg>