<svg version="1.1" xmlns="http://www.w3.org/2000/svg" xmlns:xlink="http://www.w3.org/1999/xlink" width="462.36938" height="369.11623" viewBox="0,0,462.36938,369.11623"><g transform="translate(-15.98862,0.81671)"><g data-paper-data="{&quot;isPaintingLayer&quot;:true}" fill-rule="nonzero" stroke-linecap="butt" stroke-linejoin="miter" stroke-miterlimit="10" stroke-dasharray="" stroke-dashoffset="0" style="mix-blend-mode: normal"><path d="M187.50817,267.58477v-101.33575h112.85118v101.33575z" fill="none" stroke="#8d8d8d" stroke-width="12.5"/><path d="M220.65266,164.81211v-152.00363h46.06171v152.00363z" fill="none" stroke="#8d8d8d" stroke-width="12.5"/><path d="M224.11623,362.04952v-91.20359h39.96562v91.20359z" fill="none" stroke="#8d8d8d" stroke-width="12.5"/><path d="M268.18088,134.24348v-29.71802h77.88172v29.71802z" fill="none" stroke="#8d8d8d" stroke-width="12.5"/><path d="M140.98692,67.51033v-29.71803h77.88172v29.71803z" fill="none" stroke="#8d8d8d" stroke-width="12.5"/><path d="M348.11212,271.67856v-167.03579h117.84733v167.03579z" fill="none" stroke="#8d8d8d" stroke-width="12.5"/><path d="M41.70905,122.97113v-108.6245h99.40166v108.6245z" fill="none" stroke="#8d8d8d" stroke-width="12.5"/><path d="M285.60179,83.31501v-77.88172h186.50621v77.88172z" fill="none" stroke="#8d8d8d" stroke-width="12.5"/><path d="M22.23862,356.10385v-93.25311h144.49108v93.25311z" fill="none" stroke="#8d8d8d" stroke-width="12.5"/><path d="M168.77922,352.00481v-22.54471h53.28749v22.54471z" fill="none" stroke="#8d8d8d" stroke-width="12.5"/><path d="M348.11212,352.00481v-79.93123h23.56947v79.93123z" fill="none" stroke="#8d8d8d" stroke-width="12.5"/><path d="M265.10661,353.02957v-22.54471h83.00551v22.54471z" fill="none" stroke="#8d8d8d" stroke-width="12.5"/><text transform="translate(45.80809,282.50736) scale(0.5,0.5)" font-size="40" xml:space="preserve" fill="#000000" fill-rule="nonzero" stroke="none" stroke-width="1" stroke-linecap="butt" stroke-linejoin="miter" stroke-miterlimit="10" stroke-dasharray="" stroke-dashoffset="0" font-family="Sans Serif" font-weight="normal" text-anchor="start" style="mix-blend-mode: normal"><tspan x="0" dy="0">Cam 2</tspan></text><text transform="translate(55.03092,49.29506) scale(0.5,0.5)" font-size="40" xml:space="preserve" fill="#000000" fill-rule="nonzero" stroke="none" stroke-width="1" stroke-linecap="butt" stroke-linejoin="miter" stroke-miterlimit="10" stroke-dasharray="" stroke-dashoffset="0" font-family="Sans Serif" font-weight="normal" text-anchor="start" style="mix-blend-mode: normal"><tspan x="0" dy="0">Cam 1</tspan></text><text transform="translate(338.88928,27.77511) scale(0.5,0.5)" font-size="40" xml:space="preserve" fill="#000000" fill-rule="nonzero" stroke="none" stroke-width="1" stroke-linecap="butt" stroke-linejoin="miter" stroke-miterlimit="10" stroke-dasharray="" stroke-dashoffset="0" font-family="Sans Serif" font-weight="normal" text-anchor="start" style="mix-blend-mode: normal"><tspan x="0" dy="0">Cam 3</tspan></text><text transform="translate(381.92918,156.8948) scale(0.5,0.5)" font-size="40" xml:space="preserve" fill="#000000" fill-rule="nonzero" stroke="none" stroke-width="1" stroke-linecap="butt" stroke-linejoin="miter" stroke-miterlimit="10" stroke-dasharray="" stroke-dashoffset="0" font-family="Sans Serif" font-weight="normal" text-anchor="start" style="mix-blend-mode: normal"><tspan x="0" dy="0">Cam 4</tspan></text><path d="M407.41742,107.0474v-25.52553h39.03904v25.52553z" fill="#000000" stroke="none" stroke-width="0"/></g></g></svg>