<svg version="1.1" xmlns="http://www.w3.org/2000/svg" xmlns:xlink="http://www.w3.org/1999/xlink" width="101" height="102" viewBox="0,0,101,102"><g transform="translate(-173.5,-97.76604)"><g data-paper-data="{&quot;isPaintingLayer&quot;:true}" fill-rule="nonzero" stroke="none" stroke-width="0" stroke-linecap="butt" stroke-linejoin="miter" stroke-miterlimit="10" stroke-dasharray="" stroke-dashoffset="0" style="mix-blend-mode: normal"><path d="M274.5,148.76604c0,28.16652 -22.60962,51 -50.5,51c-27.89038,0 -50.5,-22.83348 -50.5,-51c0,-28.16652 22.60962,-51 50.5,-51c27.89038,0 50.5,22.83348 50.5,51z" fill="#000000"/><path d="M213.67206,141.9583c-0.33922,1.61297 -8.30893,-1.3237 -11.53487,-2.00214c-3.22593,-0.67844 -9.7221,-5.30668 -9.38288,-6.91964c0.33922,-1.61297 6.46181,0.40014 9.68775,1.07858c3.22593,0.67844 11.56923,6.23024 11.23001,7.8432z" fill="#ffffff"/><path d="M252.9052,132.83584c0.24514,1.62992 -6.81656,6.11936 -10.0764,6.60965c-3.25984,0.49028 -12.10434,4.64601 -12.34948,3.0161c-0.24514,-1.62992 10.97259,-8.89006 14.23242,-9.38034c3.25984,-0.49028 7.94831,-1.87532 8.19346,-0.2454z" fill="#ffffff"/><path d="M204.13514,154.37362v-6.46493h3.23246v6.46493z" fill="#ffffff"/><path d="M192.12885,151.60294v-6.46493h2.77068v6.46493z" fill="#ffffff"/><path d="M198.132,157.14431v-6.46493h2.77068v6.46493z" fill="#ffffff"/><path d="M209.67651,162.22389v-6.00315h5.07958v6.00315z" fill="#ffffff"/><path d="M217.52677,164.07101v-6.46493h4.6178v6.46493z" fill="#ffffff"/><path d="M226.76238,164.53279v-6.46493h6.00315v6.46493z" fill="#ffffff"/><path d="M236.45977,155.75897v-7.85027h4.15602v7.85027z" fill="#ffffff"/><path d="M244.31004,151.60294v-4.6178h2.3089v4.6178z" fill="#ffffff"/><path d="M251.23674,148.83226v-5.54136h2.3089v5.54136z" fill="#ffffff"/><path d="M257.23989,145.5998v-7.85027h1.38534v7.85027z" fill="#ffffff"/><path d="M185.20215,144.21446v-6.92671h3.23246v6.92671z" fill="#ffffff"/><path d="M197.20844,177.00086v-7.38849h3.69424v7.38849z" fill="#ffffff"/><path d="M208.75295,181.61867v-6.00315h2.77068v6.00315z" fill="#ffffff"/><path d="M215.67965,183.92757v-4.6178h1.38534v4.6178z" fill="#ffffff"/><path d="M225.37704,183.00401v-5.54136h2.3089v5.54136z" fill="#ffffff"/><path d="M234.15087,181.15689v-4.6178h0.92356v4.6178z" fill="#ffffff"/><path d="M245.69538,171.92128v-7.38849h3.23246v7.38849z" fill="#ffffff"/><path d="M254.00742,167.30347v-3.23246h1.38534v3.23246z" fill="#ffffff"/><path d="M184.74037,162.68567v-4.6178h2.77068v4.6178z" fill="#ffffff"/></g></g></svg>