<svg version="1.1" xmlns="http://www.w3.org/2000/svg" xmlns:xlink="http://www.w3.org/1999/xlink" width="101" height="102" viewBox="0,0,101,102"><g transform="translate(-173.5,-97.76604)"><g data-paper-data="{&quot;isPaintingLayer&quot;:true}" fill-rule="nonzero" stroke="none" stroke-width="0" stroke-linecap="butt" stroke-linejoin="miter" stroke-miterlimit="10" stroke-dasharray="" stroke-dashoffset="0" style="mix-blend-mode: normal"><path d="M274.5,148.76604c0,28.16652 -22.60962,51 -50.5,51c-27.89038,0 -50.5,-22.83348 -50.5,-51c0,-28.16652 22.60962,-51 50.5,-51c27.89038,0 50.5,22.83348 50.5,51z" fill="#000000"/><path d="M204.13514,154.37362v-6.46493h3.23246v6.46493z" fill="#ffffff"/><path d="M192.12885,151.60294v-6.46493h2.77068v6.46493z" fill="#ffffff"/><path d="M198.132,157.14431v-6.46493h2.77068v6.46493z" fill="#ffffff"/><path d="M209.67651,162.22389v-6.00315h5.07958v6.00315z" fill="#ffffff"/><path d="M217.52677,164.07101v-6.46493h4.6178v6.46493z" fill="#ffffff"/><path d="M226.76238,164.53279v-6.46493h6.00315v6.46493z" fill="#ffffff"/><path d="M236.45977,155.75897v-7.85027h4.15602v7.85027z" fill="#ffffff"/><path d="M244.31004,151.60294v-4.6178h2.3089v4.6178z" fill="#ffffff"/><path d="M251.23674,148.83226v-5.54136h2.3089v5.54136z" fill="#ffffff"/><path d="M257.23989,145.5998v-7.85027h1.38534v7.85027z" fill="#ffffff"/><path d="M185.20215,144.21446v-6.92671h3.23246v6.92671z" fill="#ffffff"/><path d="M197.20844,170.13547v-7.38849h3.69424v7.38849z" fill="#ffffff"/><path d="M208.75295,174.75328v-6.00315h2.77068v6.00315z" fill="#ffffff"/><path d="M215.67965,177.06218v-4.6178h1.38534v4.6178z" fill="#ffffff"/><path d="M225.37704,171.57803v5.54136h2.3089v-5.54136z" fill="#ffffff"/><path d="M234.15087,174.2915v-4.6178h0.92356v4.6178z" fill="#ffffff"/><path d="M245.69538,165.05589v-7.38849h3.23246v7.38849z" fill="#ffffff"/><path d="M254.00742,160.43808v-3.23246h1.38534v3.23246z" fill="#ffffff"/><path d="M184.74037,155.82028v-4.6178h2.77068v4.6178z" fill="#ffffff"/></g></g></svg>