<svg version="1.1" xmlns="http://www.w3.org/2000/svg" xmlns:xlink="http://www.w3.org/1999/xlink" width="826.49497" height="951.9895" viewBox="0,0,826.49497,951.9895"><defs><linearGradient x1="248.12858" y1="84.49824" x2="248.12858" y2="319.93395" gradientUnits="userSpaceOnUse" id="color-1"><stop offset="0" stop-color="#000000"/><stop offset="1" stop-color="#490000"/></linearGradient><linearGradient x1="237.14168" y1="242.19263" x2="237.14168" y2="308.11405" gradientUnits="userSpaceOnUse" id="color-2"><stop offset="0" stop-color="#000000"/><stop offset="1" stop-color="#490000"/></linearGradient><linearGradient x1="226.1823" y1="257.28427" x2="219.70863" y2="294.67099" gradientUnits="userSpaceOnUse" id="color-3"><stop offset="0" stop-color="#ffffff"/><stop offset="1" stop-color="#a1a1a1"/></linearGradient><linearGradient x1="252.1551" y1="248.6849" x2="243.84612" y2="296.67075" gradientUnits="userSpaceOnUse" id="color-4"><stop offset="0" stop-color="#ffffff"/><stop offset="1" stop-color="#a1a1a1"/></linearGradient><linearGradient x1="206.20506" y1="243.97479" x2="199.73137" y2="281.36147" gradientUnits="userSpaceOnUse" id="color-5"><stop offset="0" stop-color="#ffffff"/><stop offset="1" stop-color="#a1a1a1"/></linearGradient><linearGradient x1="190.29018" y1="225.15295" x2="183.81649" y2="262.53965" gradientUnits="userSpaceOnUse" id="color-6"><stop offset="0" stop-color="#ffffff"/><stop offset="1" stop-color="#a1a1a1"/></linearGradient><linearGradient x1="172.71199" y1="203.9712" x2="166.23832" y2="241.35791" gradientUnits="userSpaceOnUse" id="color-7"><stop offset="0" stop-color="#ffffff"/><stop offset="1" stop-color="#a1a1a1"/></linearGradient><linearGradient x1="275.47763" y1="259.56925" x2="269.00396" y2="296.95591" gradientUnits="userSpaceOnUse" id="color-8"><stop offset="0" stop-color="#ffffff"/><stop offset="1" stop-color="#a1a1a1"/></linearGradient><linearGradient x1="296.60324" y1="248.1971" x2="290.12953" y2="285.58382" gradientUnits="userSpaceOnUse" id="color-9"><stop offset="0" stop-color="#ffffff"/><stop offset="1" stop-color="#a1a1a1"/></linearGradient><linearGradient x1="315.75639" y1="230.26766" x2="309.28269" y2="267.65437" gradientUnits="userSpaceOnUse" id="color-10"><stop offset="0" stop-color="#ffffff"/><stop offset="1" stop-color="#a1a1a1"/></linearGradient><linearGradient x1="334.25206" y1="210.15246" x2="327.77836" y2="247.53916" gradientUnits="userSpaceOnUse" id="color-11"><stop offset="0" stop-color="#ffffff"/><stop offset="1" stop-color="#a1a1a1"/></linearGradient><linearGradient x1="250.06745" y1="162.05286" x2="250.06745" y2="251.24066" gradientUnits="userSpaceOnUse" id="color-12"><stop offset="0" stop-color="#000000"/><stop offset="1" stop-color="#2b0000"/></linearGradient><linearGradient x1="251.54035" y1="174.51265" x2="251.54035" y2="235.48799" gradientUnits="userSpaceOnUse" id="color-13"><stop offset="0" stop-color="#000000"/><stop offset="1" stop-color="#190000"/></linearGradient><linearGradient x1="229.48229" y1="163.99979" x2="224.77419" y2="198.98951" gradientUnits="userSpaceOnUse" id="color-14"><stop offset="0" stop-color="#bbbbbb"/><stop offset="1" stop-color="#ffffff"/></linearGradient><linearGradient x1="252.69726" y1="159.79967" x2="246.65441" y2="204.70896" gradientUnits="userSpaceOnUse" id="color-15"><stop offset="0" stop-color="#bbbbbb"/><stop offset="1" stop-color="#ffffff"/></linearGradient><linearGradient x1="212.25104" y1="160.23563" x2="207.54295" y2="195.22534" gradientUnits="userSpaceOnUse" id="color-16"><stop offset="0" stop-color="#bbbbbb"/><stop offset="1" stop-color="#ffffff"/></linearGradient><linearGradient x1="195.0198" y1="156.47141" x2="190.31168" y2="191.46111" gradientUnits="userSpaceOnUse" id="color-17"><stop offset="0" stop-color="#bbbbbb"/><stop offset="1" stop-color="#ffffff"/></linearGradient><linearGradient x1="179.48985" y1="147.18593" x2="174.78173" y2="182.17566" gradientUnits="userSpaceOnUse" id="color-18"><stop offset="0" stop-color="#bbbbbb"/><stop offset="1" stop-color="#ffffff"/></linearGradient><linearGradient x1="273.94991" y1="168.0341" x2="269.24182" y2="203.02384" gradientUnits="userSpaceOnUse" id="color-19"><stop offset="0" stop-color="#bbbbbb"/><stop offset="1" stop-color="#ffffff"/></linearGradient><linearGradient x1="293.24864" y1="163.43508" x2="288.54054" y2="198.4248" gradientUnits="userSpaceOnUse" id="color-20"><stop offset="0" stop-color="#bbbbbb"/><stop offset="1" stop-color="#ffffff"/></linearGradient><linearGradient x1="311.17137" y1="154.81748" x2="306.46327" y2="189.80716" gradientUnits="userSpaceOnUse" id="color-21"><stop offset="0" stop-color="#bbbbbb"/><stop offset="1" stop-color="#ffffff"/></linearGradient><linearGradient x1="327.2115" y1="145.94655" x2="322.50341" y2="180.93628" gradientUnits="userSpaceOnUse" id="color-22"><stop offset="0" stop-color="#bbbbbb"/><stop offset="1" stop-color="#ffffff"/></linearGradient><linearGradient x1="165.47977" y1="126.60472" x2="160.77166" y2="161.59442" gradientUnits="userSpaceOnUse" id="color-23"><stop offset="0" stop-color="#bbbbbb"/><stop offset="1" stop-color="#ffffff"/></linearGradient><linearGradient x1="343.49823" y1="131.86214" x2="338.79011" y2="166.85184" gradientUnits="userSpaceOnUse" id="color-24"><stop offset="0" stop-color="#bbbbbb"/><stop offset="1" stop-color="#ffffff"/></linearGradient><linearGradient x1="194.40151" y1="-1.91778" x2="187.56174" y2="36.04046" gradientUnits="userSpaceOnUse" id="color-25"><stop offset="0" stop-color="#ffffff"/><stop offset="1" stop-color="#c9c9c9"/></linearGradient><linearGradient x1="344.31626" y1="6.96144" x2="337.03567" y2="49.00819" gradientUnits="userSpaceOnUse" id="color-26"><stop offset="0" stop-color="#ffffff"/><stop offset="1" stop-color="#b3b3b3"/></linearGradient><linearGradient x1="344.31626" y1="6.96144" x2="337.03567" y2="49.00819" gradientUnits="userSpaceOnUse" id="color-27"><stop offset="0" stop-color="#1a1a1a"/><stop offset="1" stop-color="#cdcdcd"/></linearGradient></defs><g transform="translate(158.75844,147.12398)"><g data-paper-data="{&quot;isPaintingLayer&quot;:true}" fill-rule="nonzero" stroke-linejoin="miter" stroke-miterlimit="10" stroke-dasharray="" stroke-dashoffset="0" style="mix-blend-mode: normal"><path d="M90.37332,517.45458v-27.60353h77.79178v27.60353z" fill="#000000" stroke="none" stroke-width="0" stroke-linecap="butt"/><path d="M355.19022,523.30008v-25.09413h70.26354v25.09413z" fill="#000000" stroke="none" stroke-width="0" stroke-linecap="butt"/><path d="M-158.75844,804.8655v-210.9835h85.58764v210.98352z" fill="#000000" stroke="none" stroke-width="0" stroke-linecap="butt"/><path d="M55.50161,683.9137v-177.14653h81.60682v177.14653z" fill="#000000" stroke="none" stroke-width="0" stroke-linecap="butt"/><path d="M-0.13636,746.29824l27.52052,-388.51981l357.38826,40.31451l-27.52052,388.51981z" fill="#000000" stroke="none" stroke-width="0" stroke-linecap="butt"/><path d="M-143.77659,778.10478l48.51227,-324.81482l123.82568,0.62532l-48.51227,324.8148z" fill="#000000" stroke="none" stroke-width="0" stroke-linecap="butt"/><path d="M429.29144,715.59629v-282.21176h111.08339v282.21176z" fill="#000000" stroke="none" stroke-width="0" stroke-linecap="butt"/><path d="M173.64505,507.46944l3.33225,-116.77959l102.30996,2.91936l-3.33227,116.77959z" fill="#000000" stroke="none" stroke-width="0" stroke-linecap="butt"/><path d="M50.4221,665.72272l0.63371,-292.71126l93.46544,1.91073l-0.63371,292.71123z" fill="#000000" stroke="none" stroke-width="0" stroke-linecap="butt"/><path d="M165.008,270.42692v-142.00247h137.56493v142.00247z" fill="#000000" stroke="none" stroke-width="0" stroke-linecap="butt"/><path d="M52.74861,625.70235c0,0 -54.09729,-185.78342 -61.56023,-258.62888c-6.80446,-66.41796 18.57533,-160.94505 18.57533,-160.94505c0,0 105.36721,-21.2314 162.06363,-49.31258c40.31923,-19.96971 123.60341,4.85025 190.01808,18.79642c30.78269,6.46394 125.74198,9.25653 125.74198,9.25653c0,0 14.36662,95.03307 9.52028,159.63651c-5.81064,77.45802 -42.01906,273.58433 -42.01906,273.58433z" fill="#000000" stroke="none" stroke-width="NaN" stroke-linecap="butt"/><path d="M-83.1553,598.89562c0,0 -40.85831,-166.8902 -29.35085,-273.94255c10.51822,-97.84948 144.43996,-119.16926 144.43996,-119.16926l28.72536,389.99119z" fill="#000000" stroke="none" stroke-width="0" stroke-linecap="butt"/><path d="M546.67437,602.08419l-90.33818,-405.27365c0,0 98.64034,-21.10557 123.3679,19.45253c24.72758,40.5581 88.03244,336.9746 88.03244,336.9746z" fill="#000000" stroke="#000000" stroke-width="0" stroke-linecap="butt"/><path d="M432.19154,60.39696l49.13515,28.56695" fill="none" stroke="none" stroke-width="0" stroke-linecap="round"/><path d="M99.76296,278.31199c0,0 2.28592,-95.18274 -2.11325,-161.25881c-1.1922,-17.90684 -12.875,-36.48845 -12.39439,-49.90334c0.55919,-15.60785 15.12376,-50.22943 17.89793,-69.95483c9.35833,-66.54139 9.8545,-130.33108 9.8545,-130.33108c0,0 109.20307,-19.40425 166.05321,-12.50406c41.16192,4.99601 156.76295,34.87485 156.76295,34.87485c0,0 -2.84313,63.50084 -7.5833,115.56068c-1.88449,20.69676 10.3751,59.6788 5.12826,72.25797c2.1648,20.21417 -19.20214,21.35925 -27.21806,50.73079c-20.06347,73.51576 -29.94691,178.13052 -29.94691,178.13052c0,0 -97.59113,88.96737 -143.53365,83.9595c-42.73367,-4.65808 -132.9073,-111.56223 -132.9073,-111.56223z" fill="#000000" stroke="none" stroke-width="0" stroke-linecap="butt"/><path d="M140.19841,294.08241l-1.29258,-209.58416c0,0 84.52066,51.70307 118.91707,51.70307c38.04941,0 127.96511,-51.70307 127.96511,-51.70307l-28.43669,205.70644c0,0 -84.37221,80.13977 -121.50224,80.13977c-35.62265,0 -95.65069,-76.26204 -95.65069,-76.26204z" fill="url(#color-1)" stroke="none" stroke-width="0" stroke-linecap="butt"/><path d="M138.90582,290.01797l21.9738,-72.3843c0,0 60.47228,53.27777 88.11128,55.76981c24.5617,2.21458 85.09403,-37.67373 85.09403,-37.67373l15.51093,56.87339c0,0 -80.48606,69.49743 -108.41243,67.50269c-26.25918,-1.87566 -102.27761,-70.08786 -102.27761,-70.08786z" fill="url(#color-2)" stroke="#000000" stroke-width="0.5" stroke-linecap="butt"/><g stroke="none" stroke-width="0" stroke-linecap="butt"><path d="M215.404,293.92562l2.35902,-36.71354l12.72392,0.81758l-2.35899,36.71354z" fill="url(#color-3)"/><path d="M238.06477,295.66966l3.02422,-47.06621l16.84744,1.08253l-3.0242,47.06622z" fill="url(#color-4)"/><path d="M195.42673,280.6161l2.35902,-36.71354l12.72392,0.81758l-2.35899,36.71354z" fill="url(#color-5)"/><path d="M179.51185,261.79428l2.35902,-36.71354l12.72392,0.81758l-2.35896,36.71355z" fill="url(#color-6)"/><path d="M161.93368,240.61255l2.35903,-36.71357l12.72392,0.81758l-2.35898,36.71352z" fill="url(#color-7)"/><path d="M264.69931,296.21057l2.35898,-36.71352l12.72392,0.81758l-2.35899,36.71354z" fill="url(#color-8)"/><path d="M285.8249,284.83844l2.35903,-36.71357l12.72392,0.81758l-2.35898,36.71352z" fill="url(#color-9)"/><path d="M304.97805,266.909l2.35902,-36.71354l12.72392,0.81758l-2.35898,36.71352z" fill="url(#color-10)"/><path d="M323.47373,246.7938l2.35902,-36.71354l12.72392,0.81758l-2.35898,36.71352z" fill="url(#color-11)"/></g><path d="M313.40371,206.64676c0,24.62853 -28.35661,44.59391 -63.33628,44.59391c-34.97965,0 -63.33628,-19.96537 -63.33628,-44.59391c0,-24.62853 28.35661,-44.59391 63.33628,-44.59391c34.97965,0 63.33628,19.96537 63.33628,44.59391z" fill="url(#color-12)" stroke="none" stroke-width="0" stroke-linecap="butt"/><path d="M294.84167,205.00033c0,16.83788 -19.38666,30.48766 -43.30132,30.48766c-23.91466,0 -43.30132,-13.6498 -43.30132,-30.48766c0,-16.83788 19.38666,-30.48767 43.30132,-30.48767c23.91466,0 43.30132,13.6498 43.30132,30.48767z" fill="url(#color-13)" stroke="none" stroke-width="0" stroke-linecap="butt"/><path d="M282.74251,202.73398c0,11.56033 -13.31025,20.93183 -29.72927,20.93183c-16.41903,0 -29.72927,-9.3715 -29.72927,-20.93183c0,-11.56033 13.31025,-20.93184 29.72927,-20.93184c16.41903,0 29.72927,9.3715 29.72927,20.93184z" fill="#000000" stroke="none" stroke-width="0" stroke-linecap="butt"/><g stroke="none" stroke-width="0" stroke-linecap="butt"><path d="M220.74555,198.44746l0.90582,-34.21951l11.85956,0.31393l-0.90582,34.21951z" fill="url(#color-14)"/><path d="M241.24371,203.98087l1.16127,-43.86887l15.70293,0.41569l-1.16124,43.86888z" fill="url(#color-15)"/><path d="M203.51427,194.68323l0.90581,-34.21948l11.85955,0.31389l-0.90579,34.2195z" fill="url(#color-16)"/><path d="M186.28302,190.91904l0.90582,-34.21951l11.85954,0.31393l-0.90577,34.21946z" fill="url(#color-17)"/><path d="M170.75306,181.63358l0.90582,-34.21951l11.85956,0.31393l-0.90577,34.21946z" fill="url(#color-18)"/><path d="M265.21317,202.48173l0.90581,-34.21948l11.85954,0.31393l-0.90579,34.2195z" fill="url(#color-19)"/><path d="M284.51187,197.88273l0.90582,-34.21951l11.85956,0.31393l-0.90582,34.21951z" fill="url(#color-20)"/><path d="M302.43462,189.26513l0.90582,-34.21951l11.85956,0.31393l-0.90577,34.21946z" fill="url(#color-21)"/><path d="M318.47475,180.39419l0.90581,-34.21948l11.85954,0.31393l-0.90577,34.21946z" fill="url(#color-22)"/><path d="M156.743,161.05232l0.90581,-34.21948l11.85957,0.3139l-0.90579,34.2195z" fill="url(#color-23)"/><path d="M334.76146,166.30975l0.90581,-34.21948l11.85956,0.31393l-0.90577,34.21946z" fill="url(#color-24)"/></g><path d="M223.68233,34.3383c-17.11624,-0.95351 -16.87283,8.24536 -42.99071,-0.73522c-26.11785,-8.98056 -43.49719,-23.67367 -38.81762,-32.81796c4.67947,-9.14427 29.64568,-9.27701 55.76362,-0.29643c12.94998,4.45282 20.64754,14.67628 27.67716,20.56515c7.14788,5.98799 17.08599,8.78848 14.72674,13.39879z" fill="url(#color-25)" stroke="#ffffff" stroke-width="0.5" stroke-linecap="butt"/><path d="M365.16334,241.95211l24.26547,-180.52633" fill="none" stroke="#6c0000" stroke-width="7.5" stroke-linecap="round"/><path d="M375.01257,80.19576l-20.41553,218.89268" fill="none" stroke="#c20000" stroke-width="7.5" stroke-linecap="round"/><path d="M123.01709,53.52929l4.1407,236.45958" data-paper-data="{&quot;index&quot;:null}" fill="none" stroke="#6c0000" stroke-width="7.5" stroke-linecap="round"/><path d="M137.64117,293.35592l-2.51831,-210.02052" data-paper-data="{&quot;index&quot;:null}" fill="none" stroke="#c20000" stroke-width="7.5" stroke-linecap="round"/><path d="M290.65002,36.61521c-1.29864,-4.97074 8.61859,-5.80343 16.54666,-10.29572c7.79687,-4.41794 17.09007,-12.95432 30.1736,-14.8267c26.38733,-3.77634 49.86655,1.15484 52.44234,11.014c2.57586,9.85919 -16.7272,20.91301 -43.11449,24.68932c-26.38727,3.77634 -24.31723,-5.18964 -40.62307,-7.54694z" data-paper-data="{&quot;index&quot;:null}" fill="url(#color-26)" stroke="url(#color-27)" stroke-width="0.5" stroke-linecap="butt"/><g fill="#ffffff" stroke="none" stroke-width="0" stroke-linecap="butt"><path d="M196.08187,379.68589l3.04433,-47.37937l16.4204,1.05507l-3.0443,47.37938z"/><path d="M225.32597,381.93661l3.90279,-60.73962l21.74186,1.39704l-3.90277,60.73963z"/><path d="M170.30095,362.5098l3.04433,-47.37937l16.4204,1.05507l-3.0443,47.37938z"/><path d="M149.76257,338.21996l3.04433,-47.37937l16.4204,1.05507l-3.0443,47.37938z"/><path d="M127.07766,310.88457l3.04433,-47.37937l16.4204,1.05507l-3.0443,47.37938z"/><path d="M259.69822,382.63467l3.04433,-47.37937l16.4204,1.05507l-3.0443,47.37938z"/><path d="M286.96112,367.95875l3.04433,-47.37937l16.4204,1.05507l-3.0443,47.37938z"/><path d="M311.67854,344.82053l3.04433,-47.37937l16.4204,1.05507l-3.0443,47.37938z"/><path d="M335.54749,318.86159l3.04433,-47.37937l16.4204,1.05507l-3.0443,47.37938z"/></g><g fill="#ffffff" stroke="none" stroke-width="0" stroke-linecap="butt"><path d="M213.2159,148.81567l3.04433,-47.37937l16.4204,1.05507l-3.0443,47.37938z"/><path d="M241.33622,157.5564l3.90279,-60.73962l21.74186,1.39704l-3.90277,60.73963z"/><path d="M189.53091,142.69786l3.04433,-47.37937l16.4204,1.05507l-3.0443,47.37938z"/><path d="M165.84596,136.58002l3.04433,-47.37937l16.4204,1.05507l-3.0443,47.37938z"/><path d="M144.80751,122.8989l3.04433,-47.37937l16.4204,1.05507l-3.0443,47.37938z"/><path d="M274.63518,156.7317l3.04433,-47.37937l16.4204,1.05507l-3.0443,47.37938z"/><path d="M301.62283,151.36653l3.04433,-47.37937l16.4204,1.05507l-3.0443,47.37938z"/><path d="M326.91342,140.35983l3.04433,-47.37937l16.4204,1.05507l-3.0443,47.37938z"/><path d="M349.6081,128.90367l3.04433,-47.37937l16.4204,1.05507l-3.0443,47.37938z"/><path d="M126.46613,93.64178l3.04433,-47.37937l16.4204,1.05507l-3.0443,47.37938z"/><path d="M372.91708,110.23469l3.04433,-47.37937l16.4204,1.05507l-3.0443,47.37938z"/></g></g></g></svg>