<svg version="1.1" xmlns="http://www.w3.org/2000/svg" xmlns:xlink="http://www.w3.org/1999/xlink" width="185.16053" height="375.70623" viewBox="0,0,185.16053,375.70623"><g transform="translate(-145.47756,-3.60586)"><g data-paper-data="{&quot;isPaintingLayer&quot;:true}" fill-rule="nonzero" stroke-linejoin="miter" stroke-miterlimit="10" stroke-dasharray="" stroke-dashoffset="0" style="mix-blend-mode: normal"><path d="M232.13371,95.27133v-26.71242h25.87766v26.71242z" fill="#000000" stroke="none" stroke-width="0" stroke-linecap="butt"/><path d="M206.64736,163.23087l-3.71702,-80.05488l86.11457,-6.43859l3.71702,80.05488z" fill="#000000" stroke="none" stroke-width="NaN" stroke-linecap="butt"/><path d="M225.29346,67.88219l4.96513,-64.27633l56.70374,10.85787l-19.13559,62.21228z" fill="#000000" stroke="none" stroke-width="0" stroke-linecap="butt"/><path d="M238.99947,49.36893l1.18193,-6.48262l1.02357,0.18662l-1.18193,6.48262z" fill="#ffffff" stroke="none" stroke-width="0" stroke-linecap="butt"/><path d="M242.11769,51.60181l1.32351,-7.25921l3.07072,0.55986l-1.32351,7.25921z" fill="#ffffff" stroke="none" stroke-width="0" stroke-linecap="butt"/><path d="M247.58062,52.65641l1.69672,-9.3062l4.06586,0.7413l-1.69672,9.3062z" fill="#ffffff" stroke="none" stroke-width="0" stroke-linecap="butt"/><path d="M255.80335,53.88151l1.3477,-7.39184l3.07072,0.55986l-1.3477,7.39184z" fill="#ffffff" stroke="none" stroke-width="0" stroke-linecap="butt"/><path d="M261.31337,52.66366l1.80399,-9.89453l1.36476,0.24883l-1.80399,9.89453z" fill="#ffffff" stroke="none" stroke-width="0" stroke-linecap="butt"/><path d="M265.71097,49.813l0.99531,-5.45905l2.04714,0.37324l-0.99531,5.45905z" fill="#ffffff" stroke="none" stroke-width="0" stroke-linecap="butt"/><path d="M234.01038,45.79594l1.55517,-8.52977l2.38833,0.43545l-1.55517,8.52977z" fill="#ffffff" stroke="none" stroke-width="0" stroke-linecap="butt"/><path d="M230.87935,41.69976l1.24413,-6.82382l0.68238,0.12441l-1.24413,6.82382z" fill="#ffffff" stroke="none" stroke-width="0" stroke-linecap="butt"/><path d="M272.25769,46.77622l1.18193,-6.48263l0.34119,0.06221l-1.18193,6.48263z" fill="#ffffff" stroke="none" stroke-width="0" stroke-linecap="butt"/><path d="M237.9035,64.5896l1.24089,-6.80606l0.88046,0.16053l-1.24089,6.80606z" fill="#ffffff" stroke="none" stroke-width="0" stroke-linecap="butt"/><path d="M240.53001,66.81587l1.38955,-7.62139l2.64137,0.48158l-1.38955,7.62139z" fill="#ffffff" stroke="none" stroke-width="0" stroke-linecap="butt"/><path d="M245.22715,67.73378l1.78138,-9.7705l3.49737,0.63765l-1.78138,9.7705z" fill="#ffffff" stroke="none" stroke-width="0" stroke-linecap="butt"/><path d="M252.30935,68.73726l1.41493,-7.76063l2.64137,0.48158l-1.41493,7.76063z" fill="#ffffff" stroke="none" stroke-width="0" stroke-linecap="butt"/><path d="M257.12335,67.28163l1.894,-10.38819l1.17394,0.21404l-1.894,10.38819z" fill="#ffffff" stroke="none" stroke-width="0" stroke-linecap="butt"/><path d="M261.02834,64.15893l1.04496,-5.73142l1.76091,0.32105l-1.04496,5.73142z" fill="#ffffff" stroke="none" stroke-width="0" stroke-linecap="butt"/><path d="M233.70115,61.02718l1.63276,-8.95534l2.0544,0.37456l-1.63276,8.95534z" fill="#ffffff" stroke="none" stroke-width="0" stroke-linecap="butt"/><path d="M231.12591,56.85645l1.30621,-7.16427l0.58697,0.10702l-1.30621,7.16427z" fill="#ffffff" stroke="none" stroke-width="0" stroke-linecap="butt"/><path d="M266.80132,60.77001l1.24089,-6.80606l0.29348,0.05351l-1.24089,6.80606z" fill="#ffffff" stroke="none" stroke-width="0" stroke-linecap="butt"/><path d="M259.08084,38.45485l-24.08503,-13.2232" fill="none" stroke="#000000" stroke-width="0.5" stroke-linecap="round"/><path d="M247.35716,31.03061c-0.64147,1.53404 -4.54761,1.79418 -8.72459,0.58102c-4.17698,-1.21315 -7.04308,-3.4402 -6.4016,-4.97424c0.64147,-1.53404 4.5476,-1.79418 8.72459,-0.58102c4.17698,1.21315 7.04308,3.4402 6.40161,4.97424z" fill="#ffffff" stroke="#ffffff" stroke-width="5" stroke-linecap="butt"/><path d="M275.63857,33.74419c0.11058,2.01018 -3.32313,3.55048 -7.66939,3.44035c-4.34626,-0.11012 -7.95924,-1.82897 -8.06981,-3.83915c-0.11057,-2.01017 3.32313,-3.55047 7.66939,-3.44034c4.34626,0.11013 7.95924,1.82897 8.06981,3.83915z" fill="#ffffff" stroke="#ffffff" stroke-width="5" stroke-linecap="butt"/><path d="M207.36867,212.60193l5.70867,-80.59194l74.13422,8.36257l-5.70867,80.59194z" fill="#000000" stroke="none" stroke-width="0" stroke-linecap="butt"/><path d="M162.91883,142.70901l25.11312,-65.99388l28.69917,5.04793l-25.11312,65.99388z" fill="#000000" stroke="none" stroke-width="0" stroke-linecap="butt"/><path d="M155.3408,205.8604l10.06306,-67.3774l25.68557,0.12971l-10.06306,67.3774z" fill="#000000" stroke="none" stroke-width="0" stroke-linecap="butt"/><path d="M305.41694,153.2901l-25.27846,-71.9929l25.22115,-4.28526l25.27846,71.9929z" fill="#000000" stroke="none" stroke-width="0" stroke-linecap="butt"/><path d="M303.11592,202.67619v-58.54011h23.04239v58.54011z" fill="#000000" stroke="none" stroke-width="0" stroke-linecap="butt"/><path d="M152.83097,260.99944l-7.35341,-43.97683l32.28678,-5.39871l7.35341,43.97683z" fill="#000000" stroke="none" stroke-width="NaN" stroke-linecap="butt"/><path d="M298.45603,245.72793l0.99737,-34.95306l30.62218,0.87379l-0.99737,34.95306z" fill="#000000" stroke="none" stroke-width="0" stroke-linecap="butt"/><path d="M178.03016,272.60217l30.78161,-62.90722l30.22282,9.14882l-30.78161,62.90722z" fill="#000000" stroke="none" stroke-width="0" stroke-linecap="butt"/><path d="M283.4434,306.97783l-16.30897,-86.07965l27.58231,-4.70542l16.30897,86.07965z" fill="#000000" stroke="none" stroke-width="0" stroke-linecap="butt"/><path d="M172.52499,356.39414v-75.87491h30.77944v75.87491z" fill="#000000" stroke="none" stroke-width="0" stroke-linecap="butt"/><path d="M284.90575,347.80453v-63.70629h29.34784v63.70629z" fill="#000000" stroke="none" stroke-width="0" stroke-linecap="butt"/><path d="M159.66967,379.31209v-16.51652h46.54655v16.51652z" fill="#000000" stroke="none" stroke-width="0" stroke-linecap="butt"/><path d="M285.7958,368.80158v-15.01502h42.04204v15.01502z" fill="#000000" stroke="none" stroke-width="0" stroke-linecap="butt"/></g></g></svg>