<svg version="1.1" xmlns="http://www.w3.org/2000/svg" xmlns:xlink="http://www.w3.org/1999/xlink" width="653.89768" height="826.33231" viewBox="0,0,653.89768,826.33231"><defs><linearGradient x1="417.36793" y1="221.50391" x2="417.36793" y2="244.04237" gradientUnits="userSpaceOnUse" id="color-1"><stop offset="0" stop-color="#ffffff"/><stop offset="1" stop-color="#a1a1a1"/></linearGradient><linearGradient x1="431.69824" y1="213.83845" x2="431.69824" y2="242.76655" gradientUnits="userSpaceOnUse" id="color-2"><stop offset="0" stop-color="#ffffff"/><stop offset="1" stop-color="#a1a1a1"/></linearGradient><linearGradient x1="404.32641" y1="215.73852" x2="404.32641" y2="238.27697" gradientUnits="userSpaceOnUse" id="color-3"><stop offset="0" stop-color="#ffffff"/><stop offset="1" stop-color="#a1a1a1"/></linearGradient><linearGradient x1="393.10393" y1="206.33507" x2="393.10393" y2="228.87352" gradientUnits="userSpaceOnUse" id="color-4"><stop offset="0" stop-color="#ffffff"/><stop offset="1" stop-color="#a1a1a1"/></linearGradient><linearGradient x1="380.66874" y1="195.71891" x2="380.66874" y2="218.25738" gradientUnits="userSpaceOnUse" id="color-5"><stop offset="0" stop-color="#ffffff"/><stop offset="1" stop-color="#a1a1a1"/></linearGradient><linearGradient x1="446.45197" y1="217.84535" x2="446.45197" y2="240.3838" gradientUnits="userSpaceOnUse" id="color-6"><stop offset="0" stop-color="#ffffff"/><stop offset="1" stop-color="#a1a1a1"/></linearGradient><linearGradient x1="457.66421" y1="209.04824" x2="457.66421" y2="231.58671" gradientUnits="userSpaceOnUse" id="color-7"><stop offset="0" stop-color="#ffffff"/><stop offset="1" stop-color="#a1a1a1"/></linearGradient><linearGradient x1="467.05741" y1="196.61305" x2="467.05741" y2="219.15152" gradientUnits="userSpaceOnUse" id="color-8"><stop offset="0" stop-color="#ffffff"/><stop offset="1" stop-color="#a1a1a1"/></linearGradient><linearGradient x1="475.84428" y1="182.96519" x2="475.84428" y2="205.50365" gradientUnits="userSpaceOnUse" id="color-9"><stop offset="0" stop-color="#ffffff"/><stop offset="1" stop-color="#a1a1a1"/></linearGradient><linearGradient x1="414.8023" y1="178.89854" x2="415.59277" y2="199.85509" gradientUnits="userSpaceOnUse" id="color-10"><stop offset="0" stop-color="#bbbbbb"/><stop offset="1" stop-color="#ffffff"/></linearGradient><linearGradient x1="427.9643" y1="174.08743" x2="428.97886" y2="200.98517" gradientUnits="userSpaceOnUse" id="color-11"><stop offset="0" stop-color="#bbbbbb"/><stop offset="1" stop-color="#ffffff"/></linearGradient><linearGradient x1="404.33539" y1="178.4417" x2="405.12586" y2="199.39826" gradientUnits="userSpaceOnUse" id="color-12"><stop offset="0" stop-color="#bbbbbb"/><stop offset="1" stop-color="#ffffff"/></linearGradient><linearGradient x1="393.86849" y1="177.98486" x2="394.65894" y2="198.94141" gradientUnits="userSpaceOnUse" id="color-13"><stop offset="0" stop-color="#bbbbbb"/><stop offset="1" stop-color="#ffffff"/></linearGradient><linearGradient x1="383.83777" y1="174.124" x2="384.62822" y2="195.08057" gradientUnits="userSpaceOnUse" id="color-14"><stop offset="0" stop-color="#bbbbbb"/><stop offset="1" stop-color="#ffffff"/></linearGradient><linearGradient x1="441.23797" y1="176.75314" x2="442.02844" y2="197.70971" gradientUnits="userSpaceOnUse" id="color-15"><stop offset="0" stop-color="#bbbbbb"/><stop offset="1" stop-color="#ffffff"/></linearGradient><linearGradient x1="452.06738" y1="172.10547" x2="452.85785" y2="193.06204" gradientUnits="userSpaceOnUse" id="color-16"><stop offset="0" stop-color="#bbbbbb"/><stop offset="1" stop-color="#ffffff"/></linearGradient><linearGradient x1="461.68417" y1="165.24519" x2="462.47462" y2="186.20174" gradientUnits="userSpaceOnUse" id="color-17"><stop offset="0" stop-color="#bbbbbb"/><stop offset="1" stop-color="#ffffff"/></linearGradient><linearGradient x1="470.17337" y1="158.42743" x2="470.96384" y2="179.384" gradientUnits="userSpaceOnUse" id="color-18"><stop offset="0" stop-color="#bbbbbb"/><stop offset="1" stop-color="#ffffff"/></linearGradient><linearGradient x1="373.55187" y1="163.49773" x2="374.34232" y2="184.45428" gradientUnits="userSpaceOnUse" id="color-19"><stop offset="0" stop-color="#bbbbbb"/><stop offset="1" stop-color="#ffffff"/></linearGradient><linearGradient x1="478.27855" y1="148.53324" x2="479.06901" y2="169.4898" gradientUnits="userSpaceOnUse" id="color-20"><stop offset="0" stop-color="#bbbbbb"/><stop offset="1" stop-color="#ffffff"/></linearGradient><linearGradient x1="372.45723" y1="89.68516" x2="372.45723" y2="112.56817" gradientUnits="userSpaceOnUse" id="color-21"><stop offset="0" stop-color="#ffffff"/><stop offset="1" stop-color="#c9c9c9"/></linearGradient><linearGradient x1="464.9761" y1="78.77707" x2="464.9761" y2="104.12484" gradientUnits="userSpaceOnUse" id="color-22"><stop offset="0" stop-color="#ffffff"/><stop offset="1" stop-color="#b3b3b3"/></linearGradient><linearGradient x1="464.9761" y1="78.77707" x2="464.9761" y2="104.12484" gradientUnits="userSpaceOnUse" id="color-23"><stop offset="0" stop-color="#1a1a1a"/><stop offset="1" stop-color="#cdcdcd"/></linearGradient></defs><g transform="translate(-44.82157,6.33179)"><g data-paper-data="{&quot;isPaintingLayer&quot;:true}" fill-rule="nonzero" stroke-linejoin="miter" stroke-miterlimit="10" stroke-dasharray="" stroke-dashoffset="0" style="mix-blend-mode: normal"><path d="M362.35308,514.37121l2.28189,-79.96966l70.06097,1.99915l-2.28191,79.96966z" fill="#000000" stroke="none" stroke-width="0" stroke-linecap="butt"/><path d="M110.93713,586.25458l42.13769,-154.59307l71.8482,7.57084l-42.13769,154.59305z" fill="#000000" stroke="none" stroke-width="0" stroke-linecap="butt"/><path d="M277.97107,622.74169l0.43396,-200.44614l64.00433,1.30845l-0.43396,200.44613z" fill="#000000" stroke="none" stroke-width="0" stroke-linecap="butt"/><path d="M109.79411,748.16946v-173.59539h70.42077v173.59541z" fill="#000000" stroke="none" stroke-width="0" stroke-linecap="butt"/><path d="M290.94136,752.76306v-145.75463h67.14538v145.75463z" fill="#000000" stroke="none" stroke-width="0" stroke-linecap="butt"/><path d="M44.82157,820.00052v-37.78839h106.49459v37.78839z" fill="#000000" stroke="none" stroke-width="0" stroke-linecap="butt"/><path d="M333.38754,795.95335v-34.3531h96.18865v34.3531z" fill="#000000" stroke="none" stroke-width="0" stroke-linecap="butt"/><path d="M356.43851,352.04654v-97.24206h94.20328v97.24206z" fill="#000000" stroke="none" stroke-width="0" stroke-linecap="butt"/><path d="M279.56424,595.33609c0,0 -37.04536,-127.22288 -42.15592,-177.10682c-4.65964,-45.48244 12.72023,-110.21378 12.72023,-110.21378c0,0 72.15455,-14.53908 110.97977,-33.76883c27.61027,-13.67509 84.64255,3.32141 130.12274,12.87163c21.07971,4.42645 86.10702,6.33879 86.10702,6.33879c0,0 9.83813,65.07783 6.5194,109.3177c-3.97908,53.04258 -28.77429,187.34819 -28.77429,187.34819z" fill="#000000" stroke="none" stroke-width="NaN" stroke-linecap="butt"/><path d="M350.21212,260.15444c0,0 -8.30854,-55.94195 -17.58,-94.17029c-2.5126,-10.36002 -11.23372,-20.05177 -12.31196,-27.9522c-1.25452,-9.19192 3.76131,-30.93194 3.38592,-42.75834c-1.26636,-39.89498 -7.44085,-77.28125 -7.44085,-77.28125c0,0 61.94978,-22.42468 95.92337,-24.14761c24.59833,-1.24748 95.28752,4.52472 95.28752,4.52472c0,0 4.77155,37.45507 7.27324,68.406c0.99456,12.30477 12.1208,33.87841 10.3247,41.77272c3.31571,11.61192 -9.07428,14.44761 -10.78926,32.45111c-4.2925,45.06201 0.52514,107.29448 0.52514,107.29448c0,0 -48.10332,61.963 -75.50091,63.68804c-25.48402,1.60457 -89.09689,-51.82739 -89.09689,-51.82739z" fill="#000000" stroke="none" stroke-width="0" stroke-linecap="butt"/><g stroke="none" stroke-width="0" stroke-linecap="butt"><path d="M414.77289,244.04237l-2.34008,-21.72744l7.53015,-0.81101l2.3401,21.72745z" fill="url(#color-1)"/><path d="M428.21297,242.76655l-2.99995,-27.85426l9.97047,-1.07383l2.99997,27.85426z" fill="url(#color-2)"/><path d="M401.73137,238.27697l-2.34008,-21.72744l7.53015,-0.81101l2.3401,21.72745z" fill="url(#color-3)"/><path d="M390.50889,228.87352l-2.34008,-21.72744l7.53015,-0.81101l2.34011,21.72745z" fill="url(#color-4)"/><path d="M378.0737,218.25738l-2.34008,-21.72745l7.53015,-0.81101l2.3401,21.72744z" fill="url(#color-5)"/><path d="M443.85693,240.3838l-2.3401,-21.72744l7.53015,-0.81101l2.3401,21.72745z" fill="url(#color-6)"/><path d="M455.06917,231.58671l-2.34008,-21.72745l7.53015,-0.81101l2.3401,21.72744z" fill="url(#color-7)"/><path d="M464.46238,219.15152l-2.34008,-21.72744l7.53015,-0.81101l2.3401,21.72744z" fill="url(#color-8)"/><path d="M473.24924,205.50365l-2.34008,-21.72744l7.53015,-0.81101l2.3401,21.72744z" fill="url(#color-9)"/></g><path d="M454.53501,145.21569l-87.6775,-48.13684" fill="none" stroke="#000000" stroke-width="0.5" stroke-linecap="round"/><g stroke="none" stroke-width="0" stroke-linecap="butt"><path d="M413.17987,199.94612l-2.93787,-20.12041l6.9732,-1.01819l2.93787,20.12041z" fill="url(#color-10)"/><path d="M425.7382,201.1074l-3.7663,-25.79406l9.23302,-1.34815l3.76632,25.79406z" fill="url(#color-11)"/><path d="M402.71295,199.48927l-2.93787,-20.12039l6.97318,-1.0182l2.93789,20.12041z" fill="url(#color-12)"/><path d="M392.24604,199.03242l-2.93787,-20.12041l6.97318,-1.01819l2.93789,20.12039z" fill="url(#color-13)"/><path d="M382.21533,195.17158l-2.93787,-20.12041l6.9732,-1.01819l2.93789,20.12039z" fill="url(#color-14)"/><path d="M439.61554,197.80072l-2.93787,-20.12039l6.97318,-1.01819l2.93789,20.12041z" fill="url(#color-15)"/><path d="M450.44495,193.15305l-2.93787,-20.12041l6.9732,-1.01819l2.93787,20.12041z" fill="url(#color-16)"/><path d="M460.06172,186.29277l-2.93787,-20.12041l6.9732,-1.01819l2.93789,20.12039z" fill="url(#color-17)"/><path d="M468.55094,179.47501l-2.93787,-20.12039l6.97318,-1.01819l2.93789,20.12039z" fill="url(#color-18)"/><path d="M371.92942,184.54529l-2.93787,-20.12039l6.9732,-1.0182l2.93789,20.12041z" fill="url(#color-19)"/><path d="M476.65611,169.58081l-2.93787,-20.12039l6.9732,-1.01819l2.93789,20.12039z" fill="url(#color-20)"/></g><path d="M392.60032,108.05415c-9.72346,1.10884 -8.65428,6.46923 -24.25412,3.75648c-15.59983,-2.71271 -26.86372,-9.62002 -25.1585,-15.42788c1.70517,-5.80785 15.73366,-8.31698 31.33353,-5.60425c7.73484,1.34504 13.10035,6.57915 17.65089,9.34131c4.62711,2.80863 10.5005,3.4799 9.64081,6.40807z" fill="url(#color-21)" stroke="#ffffff" stroke-width="0.5" stroke-linecap="butt"/><path d="M504.19114,140.92518l-0.78249,79.96247" fill="none" stroke="#6c0000" stroke-width="7.5" stroke-linecap="round"/><path d="M497.14869,150.44452v71.07775" fill="none" stroke="#c20000" stroke-width="7.5" stroke-linecap="round"/><path d="M338.06118,154.0218l14.50534,69.35493" data-paper-data="{&quot;index&quot;:null}" fill="none" stroke="#6c0000" stroke-width="7.5" stroke-linecap="round"/><path d="M346.6696,161.59011l12.20486,61.71771" data-paper-data="{&quot;index&quot;:null}" fill="none" stroke="#c20000" stroke-width="7.5" stroke-linecap="round"/><path d="M266.28555,779.16886l20.78146,-293.3814l269.87315,30.44253l-20.78146,293.3814z" fill="#000000" stroke="none" stroke-width="0" stroke-linecap="butt"/><path d="M111.64603,510.39008c0,0 24.88322,-114.99881 64.06518,-177.45689c35.81364,-57.08881 124.65676,-30.06124 124.65676,-30.06124l-99.24481,248.7164z" fill="#000000" stroke="none" stroke-width="0" stroke-linecap="butt"/><path d="M76.88683,754.62746l36.63288,-245.2761l93.50398,0.4722l-36.63288,245.27609z" fill="#000000" stroke="none" stroke-width="0" stroke-linecap="butt"/><path d="M618.64935,571.7309l-87.45757,-270.55483c0,0 65.90715,-20.6851 85.35504,5.38978c19.44789,26.07488 81.52674,224.13493 81.52674,224.13493z" fill="#000000" stroke="#000000" stroke-width="0" stroke-linecap="butt"/><path d="M614.83731,743.03587v-213.10542h83.88194v213.10542z" fill="#000000" stroke="none" stroke-width="0" stroke-linecap="butt"/><path d="M436.57067,101.5723c-1.26387,-2.77775 4.45628,-4.27021 8.64129,-7.70301c4.11575,-3.376 8.68991,-9.31416 16.15791,-11.73604c15.06174,-4.88456 29.30384,-4.3779 31.81064,1.13159c2.50685,5.50951 -7.67093,13.93559 -22.73263,18.82014c-15.0617,4.88456 -14.75879,-0.573 -24.54147,-0.30018z" data-paper-data="{&quot;index&quot;:null}" fill="url(#color-22)" stroke="url(#color-23)" stroke-width="0.5" stroke-linecap="butt"/><path d="M573.05081,227.78223l-33.64733,-19.5624" fill="none" stroke="none" stroke-width="0" stroke-linecap="round"/><g fill="#ffffff" stroke="none" stroke-width="0" stroke-linecap="butt"><path d="M413.2098,281.74645l-3.01992,-28.03958l9.71776,-1.04663l3.01993,28.03958z"/><path d="M430.55441,280.09999l-3.87148,-35.94632l12.86705,-1.3858l3.8715,35.94632z"/><path d="M396.37952,274.30613l-3.01992,-28.03958l9.71776,-1.04663l3.01993,28.03958z"/><path d="M381.89674,262.17083l-3.01992,-28.03958l9.71776,-1.04663l3.01993,28.03958z"/><path d="M365.84895,248.47053l-3.01992,-28.03958l9.71776,-1.04663l3.01993,28.03958z"/><path d="M450.74317,277.02503l-3.01992,-28.03958l9.71776,-1.04663l3.01993,28.03958z"/><path d="M465.21273,265.67223l-3.01992,-28.03958l9.71776,-1.04663l3.01993,28.03958z"/><path d="M477.33481,249.62444l-3.01992,-28.03958l9.71776,-1.04663l3.01993,28.03958z"/><path d="M488.6744,232.01167l-3.01992,-28.03958l9.71776,-1.04663l3.01993,28.03958z"/></g><g fill="#ffffff" stroke="none" stroke-width="0" stroke-linecap="butt"><path d="M400.29202,185.88405l-3.01992,-28.03958l9.71776,-1.04663l3.01993,28.03958z"/><path d="M417.63663,188.15006l-3.87148,-35.94632l12.86705,-1.3858l3.8715,35.94632z"/><path d="M385.80922,184.70371l-3.01992,-28.03958l9.71776,-1.04663l3.01993,28.03958z"/><path d="M371.32643,183.52335l-3.01992,-28.03958l9.71776,-1.04663l3.01993,28.03958z"/><path d="M357.62612,177.648l-3.01992,-28.03958l9.71776,-1.04663l3.01993,28.03958z"/><path d="M437.04287,184.29262l-3.01992,-28.03958l9.71776,-1.04663l3.01993,28.03958z"/><path d="M452.29493,178.41729l-3.01992,-28.03958l9.71776,-1.04663l3.01993,28.03958z"/><path d="M465.98199,169.41195l-3.01992,-28.03958l9.71776,-1.04663l3.01993,28.03958z"/><path d="M478.10408,160.40665l-3.01992,-28.03958l9.71776,-1.04663l3.01993,28.03958z"/><path d="M343.92583,162.38272l-3.01992,-28.03958l9.71776,-1.04663l3.01993,28.03958z"/><path d="M489.85474,147.11743l-3.01992,-28.03958l9.71776,-1.04663l3.01993,28.03958z"/></g></g></g></svg>