<svg version="1.1" xmlns="http://www.w3.org/2000/svg" xmlns:xlink="http://www.w3.org/1999/xlink" width="485.56676" height="629.46145" viewBox="0,0,485.56676,629.46145"><defs><linearGradient x1="539.55408" y1="173.19868" x2="542.73119" y2="188.42543" gradientUnits="userSpaceOnUse" id="color-1"><stop offset="0" stop-color="#ffffff"/><stop offset="1" stop-color="#a1a1a1"/></linearGradient><linearGradient x1="548.15493" y1="165.99992" x2="552.23274" y2="185.54345" gradientUnits="userSpaceOnUse" id="color-2"><stop offset="0" stop-color="#ffffff"/><stop offset="1" stop-color="#a1a1a1"/></linearGradient><linearGradient x1="529.93066" y1="171.14203" x2="533.10776" y2="186.36877" gradientUnits="userSpaceOnUse" id="color-3"><stop offset="0" stop-color="#ffffff"/><stop offset="1" stop-color="#a1a1a1"/></linearGradient><linearGradient x1="521.02333" y1="166.37112" x2="524.20042" y2="181.59786" gradientUnits="userSpaceOnUse" id="color-4"><stop offset="0" stop-color="#ffffff"/><stop offset="1" stop-color="#a1a1a1"/></linearGradient><linearGradient x1="511.12575" y1="160.95188" x2="514.30286" y2="176.17862" gradientUnits="userSpaceOnUse" id="color-5"><stop offset="0" stop-color="#ffffff"/><stop offset="1" stop-color="#a1a1a1"/></linearGradient><linearGradient x1="558.68722" y1="166.62721" x2="561.86432" y2="181.85394" gradientUnits="userSpaceOnUse" id="color-6"><stop offset="0" stop-color="#ffffff"/><stop offset="1" stop-color="#a1a1a1"/></linearGradient><linearGradient x1="565.02202" y1="159.10346" x2="568.19912" y2="174.3302" gradientUnits="userSpaceOnUse" id="color-7"><stop offset="0" stop-color="#ffffff"/><stop offset="1" stop-color="#a1a1a1"/></linearGradient><linearGradient x1="569.61506" y1="149.37828" x2="572.79216" y2="164.60503" gradientUnits="userSpaceOnUse" id="color-8"><stop offset="0" stop-color="#ffffff"/><stop offset="1" stop-color="#a1a1a1"/></linearGradient><linearGradient x1="573.62752" y1="138.9193" x2="576.80462" y2="154.14604" gradientUnits="userSpaceOnUse" id="color-9"><stop offset="0" stop-color="#ffffff"/><stop offset="1" stop-color="#a1a1a1"/></linearGradient><linearGradient x1="526.72821" y1="137.1465" x2="530.21636" y2="151.1931" gradientUnits="userSpaceOnUse" id="color-10"><stop offset="0" stop-color="#bbbbbb"/><stop offset="1" stop-color="#ffffff"/></linearGradient><linearGradient x1="534.94214" y1="132.04081" x2="539.41917" y2="150.06963" gradientUnits="userSpaceOnUse" id="color-11"><stop offset="0" stop-color="#bbbbbb"/><stop offset="1" stop-color="#ffffff"/></linearGradient><linearGradient x1="519.59249" y1="138.31333" x2="523.08064" y2="152.35993" gradientUnits="userSpaceOnUse" id="color-12"><stop offset="0" stop-color="#bbbbbb"/><stop offset="1" stop-color="#ffffff"/></linearGradient><linearGradient x1="512.45676" y1="139.48013" x2="515.9449" y2="153.52674" gradientUnits="userSpaceOnUse" id="color-13"><stop offset="0" stop-color="#bbbbbb"/><stop offset="1" stop-color="#ffffff"/></linearGradient><linearGradient x1="505.13588" y1="138.28575" x2="508.62402" y2="152.33236" gradientUnits="userSpaceOnUse" id="color-14"><stop offset="0" stop-color="#bbbbbb"/><stop offset="1" stop-color="#ffffff"/></linearGradient><linearGradient x1="544.28545" y1="131.97062" x2="547.77361" y2="146.01724" gradientUnits="userSpaceOnUse" id="color-15"><stop offset="0" stop-color="#bbbbbb"/><stop offset="1" stop-color="#ffffff"/></linearGradient><linearGradient x1="550.94653" y1="127.30416" x2="554.43468" y2="141.35077" gradientUnits="userSpaceOnUse" id="color-16"><stop offset="0" stop-color="#bbbbbb"/><stop offset="1" stop-color="#ffffff"/></linearGradient><linearGradient x1="556.47648" y1="121.31381" x2="559.96461" y2="135.3604" gradientUnits="userSpaceOnUse" id="color-17"><stop offset="0" stop-color="#bbbbbb"/><stop offset="1" stop-color="#ffffff"/></linearGradient><linearGradient x1="561.25064" y1="115.51113" x2="564.73879" y2="129.55775" gradientUnits="userSpaceOnUse" id="color-18"><stop offset="0" stop-color="#bbbbbb"/><stop offset="1" stop-color="#ffffff"/></linearGradient><linearGradient x1="496.68891" y1="132.5567" x2="500.17705" y2="146.6033" gradientUnits="userSpaceOnUse" id="color-19"><stop offset="0" stop-color="#bbbbbb"/><stop offset="1" stop-color="#ffffff"/></linearGradient><linearGradient x1="565.33169" y1="107.68419" x2="568.81983" y2="121.73079" gradientUnits="userSpaceOnUse" id="color-20"><stop offset="0" stop-color="#bbbbbb"/><stop offset="1" stop-color="#ffffff"/></linearGradient><linearGradient x1="485.5445" y1="80.30066" x2="488.77017" y2="95.76016" gradientUnits="userSpaceOnUse" id="color-21"><stop offset="0" stop-color="#ffffff"/><stop offset="1" stop-color="#c9c9c9"/></linearGradient><linearGradient x1="544.81603" y1="60.73726" x2="548.38915" y2="77.86193" gradientUnits="userSpaceOnUse" id="color-22"><stop offset="0" stop-color="#ffffff"/><stop offset="1" stop-color="#b3b3b3"/></linearGradient><linearGradient x1="544.81603" y1="60.73726" x2="548.38915" y2="77.86193" gradientUnits="userSpaceOnUse" id="color-23"><stop offset="0" stop-color="#1a1a1a"/><stop offset="1" stop-color="#cdcdcd"/></linearGradient></defs><g transform="translate(-250.91767,-1.27156)"><g data-paper-data="{&quot;isPaintingLayer&quot;:true}" fill-rule="nonzero" stroke-linejoin="miter" stroke-miterlimit="10" stroke-dasharray="" stroke-dashoffset="0" style="mix-blend-mode: normal"><path d="M521.10141,333.67512l1.57482,-55.19017l48.3518,1.37969l-1.57483,55.19018z" fill="#000000" stroke="none" stroke-width="0" stroke-linecap="butt"/><path d="M462.86611,408.4658l0.29949,-138.33567l44.17188,0.90301l-0.29949,138.33567z" fill="#000000" stroke="none" stroke-width="0" stroke-linecap="butt"/><path d="M350.15191,566.87991v-119.80493h48.60011v119.80494z" fill="#000000" stroke="none" stroke-width="0" stroke-linecap="butt"/><path d="M471.8174,498.19861v-100.59094h46.33964v100.59094z" fill="#000000" stroke="none" stroke-width="0" stroke-linecap="butt"/><path d="M250.91767,522.48321v-26.07924h73.49606v26.07924z" fill="#000000" stroke="none" stroke-width="0" stroke-linecap="butt"/><path d="M501.11116,528.00591v-23.70841h66.38353v23.70842z" fill="#000000" stroke="none" stroke-width="0" stroke-linecap="butt"/><path d="M517.01954,221.64856v-67.11052h65.01334v67.11053z" fill="#000000" stroke="none" stroke-width="0" stroke-linecap="butt"/><path d="M463.96562,389.55213c0,0 -25.56644,-87.80145 -29.09344,-122.2283c-3.2158,-31.38921 8.77872,-76.06281 8.77872,-76.06281c0,0 49.79667,-10.03398 76.59146,-23.30518c19.05492,-9.43771 58.41511,2.29223 89.80276,8.88321c14.54793,3.05487 59.4258,4.37465 59.4258,4.37465c0,0 6.78968,44.91274 4.4993,75.4444c-2.74612,36.60674 -19.85826,129.29627 -19.85826,129.29627z" fill="#000000" stroke="none" stroke-width="NaN" stroke-linecap="butt"/><path d="M494.54592,200.29921c0,0 -13.49895,-36.62257 -25.15145,-61.1423c-3.15787,-6.64493 -10.41595,-11.96322 -12.25808,-17.14866c-2.14326,-6.03312 -1.81919,-21.42749 -3.73989,-29.36436c-6.47929,-26.77411 -15.92082,-51.1615 -15.92082,-51.1615c0,0 38.69154,-23.88254 61.40087,-29.83558c16.44252,-4.31026 65.01305,-10.37523 65.01305,-10.37523c0,0 8.50342,24.63163 14.55649,45.18909c2.40644,8.17277 12.9643,21.1793 12.86369,26.7658c3.87691,7.37749 -4.0939,11.03979 -2.71468,23.44451c3.45213,31.0485 15.47941,72.41298 15.47941,72.41298c0,0 -23.76356,48.64237 -42.02992,53.66986c-16.99054,4.67635 -67.49868,-22.45461 -67.49868,-22.45461z" fill="#000000" stroke="none" stroke-width="0" stroke-linecap="butt"/><g stroke="none" stroke-width="0" stroke-linecap="butt"><path d="M540.97801,188.79123l-4.64372,-14.34896l4.97297,-1.60939l4.64372,14.34896z" fill="url(#color-1)"/><path d="M549.87813,186.03474l-5.95318,-18.39516l6.58458,-2.13095l5.95319,18.39515z" fill="url(#color-2)"/><path d="M531.35458,186.73457l-4.64372,-14.34896l4.97296,-1.60939l4.64373,14.34896z" fill="url(#color-3)"/><path d="M522.44724,181.96366l-4.64371,-14.34896l4.97296,-1.60939l4.64374,14.34896z" fill="url(#color-4)"/><path d="M512.54968,176.54443l-4.64371,-14.34897l4.97296,-1.60939l4.64373,14.34895z" fill="url(#color-5)"/><path d="M560.11114,182.21975l-4.64373,-14.34895l4.97296,-1.60938l4.64373,14.34896z" fill="url(#color-6)"/><path d="M566.44594,174.69601l-4.64371,-14.34897l4.97296,-1.60939l4.64373,14.34895z" fill="url(#color-7)"/><path d="M571.03898,164.97083l-4.64372,-14.34896l4.97297,-1.60938l4.64372,14.34895z" fill="url(#color-8)"/><path d="M575.05144,154.51184l-4.64371,-14.34896l4.97296,-1.60938l4.64373,14.34895z" fill="url(#color-9)"/></g><g stroke="none" stroke-width="0" stroke-linecap="butt"><path d="M528.59907,151.59473l-4.82105,-13.179l4.56749,-1.67084l4.82104,13.179z" fill="url(#color-10)"/><path d="M537.24704,150.60901l-6.1805,-16.89528l6.04769,-2.21231l6.18051,16.89528z" fill="url(#color-11)"/><path d="M521.46333,152.76154l-4.82104,-13.17899l4.56747,-1.67085l4.82106,13.17899z" fill="url(#color-12)"/><path d="M514.3276,153.92836l-4.82104,-13.179l4.56748,-1.67085l4.82105,13.17899z" fill="url(#color-13)"/><path d="M507.00672,152.73398l-4.82104,-13.179l4.56748,-1.67085l4.82106,13.17898z" fill="url(#color-14)"/><path d="M546.1563,146.41885l-4.82104,-13.17899l4.56748,-1.67085l4.82106,13.17899z" fill="url(#color-15)"/><path d="M552.81738,141.75239l-4.82104,-13.179l4.56749,-1.67084l4.82104,13.17901z" fill="url(#color-16)"/><path d="M558.34732,135.76204l-4.82104,-13.17901l4.56748,-1.67084l4.82106,13.17898z" fill="url(#color-17)"/><path d="M563.12149,129.95935l-4.82105,-13.17899l4.56748,-1.67084l4.82105,13.17898z" fill="url(#color-18)"/><path d="M498.55975,147.00491l-4.82104,-13.17899l4.56749,-1.67085l4.82106,13.17899z" fill="url(#color-19)"/><path d="M567.20252,122.1324l-4.82104,-13.17899l4.56749,-1.67084l4.82106,13.17898z" fill="url(#color-20)"/></g><path d="M501.74231,89.8711c-6.41276,2.11978 -4.93481,5.59047 -15.85629,5.95679c-10.92147,0.36633 -19.50492,-2.71237 -19.17159,-6.87648c0.3333,-4.16408 9.45709,-7.83673 20.3786,-8.20306c5.41517,-0.18163 9.77788,2.59814 13.24154,3.82275c3.52194,1.24523 7.58456,0.87079 7.41653,2.97021z" fill="url(#color-21)" stroke="#ffffff" stroke-width="0.5" stroke-linecap="butt"/><path d="M581.7655,98.04374l10.74316,54.13209" fill="none" stroke="#6c0000" stroke-width="7.5" stroke-linecap="round"/><path d="M578.34957,105.46763l10.01939,48.01937" fill="none" stroke="#c20000" stroke-width="7.5" stroke-linecap="round"/><path d="M490.9522,175.1207l-19.57618,-44.81072" data-paper-data="{&quot;index&quot;:null}" fill="none" stroke="#6c0000" stroke-width="7.5" stroke-linecap="round"/><path d="M478.25863,134.20957l16.94543,39.97538" data-paper-data="{&quot;index&quot;:null}" fill="none" stroke="#c20000" stroke-width="7.5" stroke-linecap="round"/><path d="M460.90748,601.80194l14.34209,-278.81519l186.24996,28.93108l-14.34209,278.81519z" fill="#000000" stroke="none" stroke-width="0" stroke-linecap="butt"/><path d="M399.73727,376.88324c0,0 -19.30969,-78.8725 -13.87125,-129.46556c4.97093,-46.24377 68.26249,-56.31953 68.26249,-56.31953l13.57564,184.31029z" fill="#000000" stroke="none" stroke-width="0" stroke-linecap="butt"/><path d="M379.94455,532.99799l25.28177,-169.27457l64.53073,0.32589l-25.28177,169.27456z" fill="#000000" stroke="none" stroke-width="0" stroke-linecap="butt"/><path d="M677.84755,375.3358l-42.69392,-191.53279c0,0 46.61753,-9.97452 58.30381,9.19328c11.68628,19.1678 41.60423,159.25459 41.60423,159.25459z" fill="#000000" stroke="#000000" stroke-width="0" stroke-linecap="butt"/><path d="M678.59424,500.42221v-147.07234h57.89019v147.07234z" fill="#000000" stroke="none" stroke-width="0" stroke-linecap="butt"/><path d="M528.83893,80.14159c-1.24541,-1.69846 2.40867,-3.51308 4.75211,-6.42218c2.30466,-2.86096 4.55785,-7.51752 9.26175,-10.20643c9.487,-5.42312 19.18023,-7.08844 21.65044,-3.71965c2.47024,3.36879 -3.21798,10.49606 -12.70497,15.91916c-9.48698,5.42311 -10.05165,1.69334 -16.62227,3.25666z" data-paper-data="{&quot;index&quot;:null}" fill="url(#color-22)" stroke="url(#color-23)" stroke-width="0.5" stroke-linecap="butt"/><path d="M643.29078,122.38816l23.22132,13.50077" fill="none" stroke="none" stroke-width="0" stroke-linecap="round"/><g fill="#ffffff" stroke="none" stroke-width="0" stroke-linecap="butt"><path d="M543.54133,215.33183l-5.99279,-18.51754l6.41768,-2.07694l5.9928,18.51754z"/><path d="M555.02707,211.77454l-7.68266,-23.73921l8.4975,-2.75001l7.68267,23.73921z"/><path d="M531.12216,212.6777l-5.99279,-18.51755l6.41768,-2.07694l5.9928,18.51755z"/><path d="M519.62711,206.52077l-5.99279,-18.51755l6.41768,-2.07694l5.9928,18.51755z"/><path d="M506.85415,199.52715l-5.99279,-18.51754l6.41768,-2.07694l5.9928,18.51754z"/><path d="M568.23292,206.85126l-5.99279,-18.51755l6.41768,-2.07694l5.9928,18.51755z"/><path d="M576.40807,197.14174l-5.99279,-18.51755l6.41767,-2.07694l5.9928,18.51754z"/><path d="M582.33545,184.59125l-5.99279,-18.51754l6.41768,-2.07694l5.9928,18.51754z"/><path d="M587.5136,171.09378l-5.99279,-18.51755l6.41768,-2.07694l5.9928,18.51755z"/></g><g fill="#ffffff" stroke="none" stroke-width="0" stroke-linecap="butt"><path d="M517.90993,143.06348l-5.99279,-18.51754l6.41768,-2.07694l5.9928,18.51754z"/><path d="M529.94719,142.14941l-7.68266,-23.73921l8.4975,-2.75002l7.68267,23.73922z"/><path d="M507.95912,144.3076l-5.99279,-18.51755l6.41767,-2.07694l5.9928,18.51754z"/><path d="M498.00832,145.55172l-5.99279,-18.51754l6.41767,-2.07695l5.9928,18.51755z"/><path d="M487.92433,143.51364l-5.99279,-18.51754l6.41768,-2.07694l5.9928,18.51754z"/><path d="M542.51408,136.80779l-5.99279,-18.51755l6.41768,-2.07694l5.9928,18.51754z"/><path d="M551.99001,130.68848l-5.99279,-18.51754l6.41768,-2.07694l5.9928,18.51754z"/><path d="M559.9674,122.67521l-5.99279,-18.51754l6.41768,-2.07695l5.9928,18.51754z"/><path d="M566.88754,114.88254l-5.99279,-18.51754l6.41767,-2.07694l5.9928,18.51754z"/><path d="M476.51671,135.13181l-5.99279,-18.51754l6.41768,-2.07695l5.9928,18.51755z"/><path d="M572.95286,104.24808l-5.99279,-18.51754l6.41768,-2.07694l5.9928,18.51754z"/></g></g></g></svg>